<?xml version="1.0" standalone="no"?>
<!DOCTYPE svg PUBLIC "-//W3C//DTD SVG 1.1//EN" "http://www.w3.org/Graphics/SVG/1.1/DTD/svg11.dtd" >
<svg xmlns="http://www.w3.org/2000/svg" xmlns:xlink="http://www.w3.org/1999/xlink" version="1.1">
<metadata>
Created by FontForge 20170731 at Thu Jul 23 14:31:45 2015
 By Aleksey,,,
</metadata>
<defs>
<font id="SalesforceSans-Light" horiz-adv-x="610" >
  <font-face 
    font-family="Salesforce Sans Light"
    font-weight="300"
    font-stretch="normal"
    units-per-em="1000"
    panose-1="2 11 3 5 2 2 2 2 2 3"
    ascent="800"
    descent="-200"
    x-height="499"
    cap-height="708"
    bbox="-126 -258 1654 967"
    underline-thickness="50"
    underline-position="-150"
    unicode-range="U+000D-FB04"
  />
<missing-glyph 
d="M561 0h-512v718h512v-718zM99 667v-617h412v617h-412zM432 478q0 -34 -13 -60t-50 -60q-25 -23 -35 -37t-12 -30.5t-2 -56.5h-46l-2 17q0 49 11.5 76.5t47.5 63.5q27 26 38.5 43t11.5 40q0 41 -21.5 63t-54.5 22t-54.5 -23t-27.5 -72l-50 8q6 69 42 103t93 34
q55 0 89.5 -36t34.5 -95zM327 117h-56v67h56v-67z" />
    <glyph glyph-name="f_f" unicode="ff" horiz-adv-x="595" 
d="M447 562v-63h131v-39h-131v-460h-50v460h-238v-460h-50v460h-94v32l94 7v64q0 75 41.5 117t127.5 42q85 0 156 -43q40 43 114 43q40 0 76 -10l-10 -36q-30 6 -62 6q-53 -1 -79 -32t-26 -88zM397 499v64q0 50 16 83q-67 36 -135 36q-63 0 -91 -31t-28 -89v-63h238z" />
    <glyph glyph-name="uniFB01" unicode="fi" horiz-adv-x="545" 
d="M451 0h-50v460h-242v-460h-50v460h-94v32l94 7v64q0 75 41.5 117t127.5 42q92 0 170 -51l-18 -35q-72 46 -152 46q-63 0 -91 -31t-28 -89v-63h292v-499z" />
    <glyph glyph-name="uniFB02" unicode="fl" horiz-adv-x="545" 
d="M451 674v-674h-50v657q-57 25 -121 25t-92.5 -31t-28.5 -89v-63h131v-39h-131v-460h-50v460h-94v32l94 7v64q0 76 42 117.5t131 41.5q91 0 169 -48z" />
    <glyph glyph-name="f_f_i" unicode="ffi" horiz-adv-x="852" 
d="M758 0h-50v460h-242v-460h-50v460h-257v-460h-50v460h-94v32l94 7v64q0 75 41.5 117t127.5 42q92 0 170 -51l-2 -4q42 55 139 55q92 0 170 -51l-18 -35q-72 46 -152 46q-63 0 -91 -31t-28 -89v-63h292v-499zM416 499v64q0 42 13 74q-73 45 -151 45q-63 0 -91 -31t-28 -89
v-63h257z" />
    <glyph glyph-name="f_f_l" unicode="ffl" horiz-adv-x="852" 
d="M758 674v-674h-50v657q-57 25 -121 25t-92.5 -31t-28.5 -89v-63h131v-39h-131v-460h-50v460h-257v-460h-50v460h-94v32l94 7v64q0 75 41.5 117t127.5 42q92 0 170 -51l-3 -5q42 56 144 56q91 0 169 -48zM416 499v64q0 42 13 74q-73 45 -151 45q-63 0 -91 -31t-28 -89v-63
h257z" />
    <glyph glyph-name=".notdef" 
d="M561 0h-512v718h512v-718zM99 667v-617h412v617h-412zM432 478q0 -34 -13 -60t-50 -60q-25 -23 -35 -37t-12 -30.5t-2 -56.5h-46l-2 17q0 49 11.5 76.5t47.5 63.5q27 26 38.5 43t11.5 40q0 41 -21.5 63t-54.5 22t-54.5 -23t-27.5 -72l-50 8q6 69 42 103t93 34
q55 0 89.5 -36t34.5 -95zM327 117h-56v67h56v-67z" />
    <glyph glyph-name=".null" horiz-adv-x="0" 
 />
    <glyph glyph-name="nonmarkingreturn" unicode="&#xd;" horiz-adv-x="248" 
 />
    <glyph glyph-name="space" unicode=" " horiz-adv-x="248" 
 />
    <glyph glyph-name="exclam" unicode="!" horiz-adv-x="304" 
d="M131 208l-4 166v334h50v-334l-4 -166h-42zM114 31q0 38 38 38t38 -38q0 -37 -38 -37t-38 37z" />
    <glyph glyph-name="quotedbl" unicode="&#x22;" horiz-adv-x="372" 
d="M126 472h-39v236h43zM281 472h-39v236h43z" />
    <glyph glyph-name="numbersign" unicode="#" horiz-adv-x="735" 
d="M545 434l-57 -219h126v-36h-135l-47 -179h-42l47 179h-216l-47 -179h-42l47 179h-115v36h124l57 219h-124v35h133l47 179h42l-47 -179h216l47 179h42l-47 -179h117v-35h-126zM503 434h-216l-57 -219h216z" />
    <glyph glyph-name="dollar" unicode="$" 
d="M334 33v-77h-42v76q-67 3 -117 21.5t-91 52.5l27 32q44 -33 89 -48t101 -15q81 0 128 33.5t47 97.5q0 44 -20 72t-57.5 44.5t-99.5 31.5q-102 25 -147.5 61t-45.5 107q0 69 51 111t135 47v72h42v-71q57 -2 103 -18t87 -44l-24 -31q-42 26 -85 39t-96 13q-75 0 -118.5 -30
t-43.5 -87q0 -37 17 -60t51 -38t93 -30q106 -25 157.5 -66t51.5 -122q0 -78 -53.5 -123.5t-139.5 -50.5z" />
    <glyph glyph-name="percent" unicode="%" horiz-adv-x="1220" 
d="M105 512q0 56 24 104t70.5 77t111.5 29q64 0 110.5 -29t70 -77t23.5 -104q0 -55 -23.5 -103t-70 -76.5t-110.5 -28.5q-65 0 -112 28.5t-70.5 76t-23.5 103.5zM842 709l-418 -709h-49l418 709h49zM466 512q0 44 -17 82t-52.5 62t-86.5 24t-86.5 -24t-52.5 -62t-17 -82
q0 -68 40 -117t116 -49t116 49t40 117zM705 197q0 56 24 104t70.5 77t111.5 29q64 0 110.5 -29t70 -77t23.5 -104q0 -55 -23.5 -103t-70 -76.5t-110.5 -28.5q-65 0 -112 28.5t-70.5 76t-23.5 103.5zM1066 197q0 44 -17 82t-52.5 62t-86.5 24t-86.5 -24t-52.5 -62t-17 -82
q0 -68 40 -117t116 -49t116 49t40 117z" />
    <glyph glyph-name="ampersand" unicode="&#x26;" horiz-adv-x="654" 
d="M606 -14l-100 99q-41 -48 -96 -73.5t-133 -25.5q-64 0 -114.5 24t-79 68t-28.5 102q0 68 35 117.5t112 86.5q-51 51 -72.5 89t-21.5 93q0 70 49 113.5t125 43.5q52 0 91 -20t59.5 -54t20.5 -76q0 -68 -43.5 -111t-136.5 -86l228 -225q47 84 60 181l42 -7
q-15 -114 -71 -204l105 -103zM243 405q59 27 92.5 49t50.5 50t17 68q0 47 -32.5 79t-87.5 32q-56 0 -90.5 -31t-34.5 -86q0 -47 17.5 -80t67.5 -81zM476 114l-244 240q-70 -36 -97.5 -75t-27.5 -97q0 -73 47 -112t123 -39q67 0 115 21.5t84 61.5z" />
    <glyph glyph-name="quotesingle" unicode="'" horiz-adv-x="217" 
d="M126 472h-39v236h43z" />
    <glyph glyph-name="parenleft" unicode="(" horiz-adv-x="352" 
d="M70 354q0 139 46.5 248.5t131.5 223.5l34 -21q-76 -108 -118 -214.5t-42 -236.5t42 -236t118 -215l-34 -21q-85 114 -131.5 223.5t-46.5 248.5z" />
    <glyph glyph-name="parenright" unicode=")" horiz-adv-x="352" 
d="M282 354q0 -139 -46.5 -248.5t-131.5 -223.5l-34 21q76 109 118 215t42 236t-42 236.5t-118 214.5l34 21q85 -114 131.5 -223.5t46.5 -248.5z" />
    <glyph glyph-name="asterisk" unicode="*" horiz-adv-x="398" 
d="M225 558l76 -97l-34 -24l-68 102l-69 -102l-33 24l76 97l-116 33l13 38l113 -42l-5 121h41l-5 -122l114 43l13 -38z" />
    <glyph glyph-name="plus" unicode="+" 
d="M505 267h-178v-179h-44v179h-178v42h178v179h44v-179h178v-42z" />
    <glyph glyph-name="comma" unicode="," horiz-adv-x="254" 
d="M78 -165l-20 17q37 45 51.5 78.5t16.5 69.5q-37 3 -37 34q0 16 10 25.5t27 9.5q20 0 30.5 -12t10.5 -36q0 -49 -19 -91t-70 -95z" />
    <glyph glyph-name="hyphen" unicode="-" horiz-adv-x="308" 
d="M261 272h-214v41h214v-41z" />
    <glyph glyph-name="period" unicode="." horiz-adv-x="252" 
d="M88 31q0 38 38 38t38 -38q0 -37 -38 -37t-38 37z" />
    <glyph glyph-name="slash" unicode="/" horiz-adv-x="526" 
d="M397 782l-222 -860h-45l222 860h45z" />
    <glyph glyph-name="zero" unicode="0" 
d="M47 354q0 173 64 271t194 98t194 -98t64 -271t-64 -271t-194 -98t-194 98t-64 271zM511 354q0 154 -49.5 239.5t-156.5 85.5q-108 0 -157.5 -85.5t-49.5 -239.5t49.5 -239.5t157.5 -85.5q107 0 156.5 85.5t49.5 239.5z" />
    <glyph glyph-name="one" unicode="1" 
d="M521 44v-44h-403v43h193v609l-201 -109l-22 39l230 126h45v-664h158z" />
    <glyph glyph-name="two" unicode="2" 
d="M519 530q0 -73 -32.5 -133.5t-109 -135.5t-241.5 -217h409v-44h-478v41q176 153 255.5 231t111.5 134t32 120q0 68 -46.5 111t-130.5 43q-62 0 -107.5 -21.5t-91.5 -66.5l-31 28q54 53 106.5 78t127.5 25q71 0 122.5 -26t77.5 -70t26 -97z" />
    <glyph glyph-name="three" unicode="3" 
d="M508 542q0 -76 -39 -115.5t-95 -51.5v-2q64 -6 110 -48.5t46 -126.5q0 -98 -66.5 -155.5t-183.5 -57.5q-81 0 -136.5 22t-104.5 70l28 30q48 -43 96 -61t117 -18q93 0 145.5 45.5t52.5 125.5q0 78 -48 114.5t-126 36.5h-107v43h94q74 0 120 36t46 108q0 68 -44.5 105.5
t-126.5 37.5q-59 0 -105.5 -16.5t-92.5 -52.5l-27 30q49 42 103 62t127 20q102 0 159.5 -50t57.5 -131z" />
    <glyph glyph-name="four" unicode="4" 
d="M573 188h-119v-188h-50v188h-371v40l256 480h54l-252 -476h313v214h50v-214h119v-44z" />
    <glyph glyph-name="five" unicode="5" 
d="M51 77l30 30q48 -42 95.5 -60.5t109.5 -18.5q99 0 153 53t54 143q0 81 -48 125.5t-133 44.5q-52 0 -91 -9.5t-79 -30.5h-37v354h406v-43h-356v-265q76 36 166 36q104 0 164 -57t60 -154q0 -109 -67.5 -174.5t-191.5 -65.5q-76 0 -130 22t-105 70z" />
    <glyph glyph-name="six" unicode="6" 
d="M560 238q0 -115 -65.5 -184t-184.5 -69q-131 0 -193.5 88t-62.5 237q0 193 75 303t216 110q50 0 87.5 -12t73.5 -35l-21 -35q-32 21 -64 30.5t-76 9.5q-113 0 -173.5 -88.5t-65.5 -239.5q44 49 98.5 77t128.5 28q102 0 164.5 -59t62.5 -161zM508 236q0 86 -48.5 133.5
t-134.5 47.5q-71 0 -124 -31t-95 -87q2 -129 49.5 -200t155.5 -71q95 0 146 56t51 152z" />
    <glyph glyph-name="seven" unicode="7" 
d="M573 666q-146 -158 -224.5 -319.5t-97.5 -346.5h-57q26 183 102 345.5t214 317.5h-466v44h529v-41z" />
    <glyph glyph-name="eight" unicode="8" 
d="M561 179q0 -58 -31 -102t-89.5 -68t-136.5 -24q-80 0 -137.5 24.5t-87.5 68.5t-30 101q0 75 42.5 124t131.5 81q-75 29 -106.5 66t-31.5 98q0 52 30 92t80.5 61.5t110.5 21.5t110 -20.5t80 -60t30 -94.5q0 -59 -32.5 -101t-105.5 -79q65 -23 102 -47.5t54 -58t17 -83.5z
M281 403l62 -20q71 36 101.5 72.5t30.5 89.5q0 65 -48 101.5t-121 36.5q-72 0 -121 -37t-49 -100q0 -36 13 -60.5t44.5 -44t87.5 -38.5zM509 181q0 45 -18 74t-56 49.5t-108 43.5l-56 19q-92 -31 -131 -73.5t-39 -110.5q0 -74 54 -115.5t150 -41.5q94 0 149 42t55 113z" />
    <glyph glyph-name="nine" unicode="9" 
d="M556 399q0 -128 -49 -221t-142.5 -142.5t-226.5 -49.5v44q112 0 192.5 39.5t124.5 113t49 173.5q-85 -105 -223 -105q-67 0 -119 27t-82 79t-30 123q0 70 29.5 125t87 86.5t137.5 31.5q128 0 190 -83.5t62 -240.5zM504 409q-1 137 -47.5 204.5t-153.5 67.5
q-97 0 -149 -55t-52 -145q0 -91 51 -140t136 -49q71 0 125 31t90 86z" />
    <glyph glyph-name="colon" unicode=":" horiz-adv-x="252" 
d="M88 31q0 38 38 38t38 -38q0 -37 -38 -37t-38 37zM90 414q0 38 38 38t38 -38q0 -37 -38 -37t-38 37z" />
    <glyph glyph-name="semicolon" unicode=";" horiz-adv-x="262" 
d="M96 414q0 38 38 38t38 -38q0 -37 -38 -37t-38 37zM78 -165l-20 17q37 45 51.5 78.5t16.5 69.5q-37 3 -37 34q0 16 10 25.5t27 9.5q20 0 30.5 -12t10.5 -36q0 -49 -19 -91t-70 -95z" />
    <glyph glyph-name="less" unicode="&#x3c;" 
d="M478 519l21 -34l-339 -201l339 -201l-21 -34l-367 215v39z" />
    <glyph glyph-name="equal" unicode="=" 
d="M505 172h-400v41h400v-41zM505 372h-400v41h400v-41z" />
    <glyph glyph-name="greater" unicode="&#x3e;" 
d="M499 303v-39l-367 -215l-21 34l339 201l-339 201l21 34z" />
    <glyph glyph-name="question" unicode="?" horiz-adv-x="483" 
d="M320 357q-43 -34 -63.5 -58.5t-20.5 -57.5v-33h-47v39q0 41 23 70t69 65q34 27 54.5 47t34.5 48.5t14 65.5q0 62 -40.5 99.5t-109.5 37.5q-61 0 -104.5 -23t-80.5 -65l-32 28q44 50 95.5 76.5t125.5 26.5q59 0 104 -23t69.5 -64t24.5 -91q0 -44 -16.5 -78t-39 -56.5
t-60.5 -53.5zM174 31q0 38 38 38t38 -38q0 -37 -38 -37t-38 37z" />
    <glyph glyph-name="at" unicode="@" horiz-adv-x="960" 
d="M95 290q0 106 48 194.5t137.5 141t208.5 52.5q121 0 205.5 -41.5t127.5 -113.5t43 -164q0 -131 -44 -197.5t-112 -66.5q-55 0 -82.5 33t-30.5 75q-22 -47 -65.5 -76.5t-102.5 -29.5q-68 0 -106.5 45t-38.5 120q0 69 25.5 124t76 86.5t122.5 31.5q47 0 87.5 -13.5
t70.5 -32.5l-34 -207q-3 -15 -3 -30q0 -42 21.5 -67t58.5 -25q49 0 80.5 55.5t31.5 172.5q0 83 -36.5 147t-110.5 100t-184 36q-109 0 -188 -47t-120 -127t-41 -176q0 -104 41 -180t119.5 -116.5t187.5 -40.5q105 0 194 33l12 -35q-99 -37 -208 -37q-119 0 -207.5 46
t-136 130.5t-47.5 199.5zM593 288l26 151q-58 30 -115 30q-87 0 -131.5 -60t-44.5 -147q0 -61 28.5 -95t81.5 -34q62 0 103.5 46.5t51.5 108.5z" />
    <glyph glyph-name="A" unicode="A" horiz-adv-x="649" 
d="M508 189h-370l-74 -189h-54l285 708h58l285 -708h-56zM155 230h337l-168 433z" />
    <glyph glyph-name="B" unicode="B" horiz-adv-x="614" 
d="M532 538q0 -65 -38.5 -107.5t-94.5 -54.5v-2q75 -9 120 -55t45 -125q0 -100 -64 -147t-163 -47h-239v708h232q91 0 146.5 -40.5t55.5 -129.5zM149 667v-276h163q74 0 121.5 36.5t47.5 106.5q0 133 -161 133h-171zM149 352v-311h175q84 0 136 37.5t52 119.5
q0 75 -49.5 114.5t-134.5 39.5h-179z" />
    <glyph glyph-name="C" unicode="C" horiz-adv-x="671" 
d="M632 640l-31 -34q-41 35 -91.5 54t-107.5 19q-95 0 -161.5 -41.5t-99.5 -115t-33 -168.5q0 -94 33 -167t99 -114.5t161 -41.5q62 0 117.5 23t97.5 63l31 -34q-46 -46 -110 -72t-137 -26q-110 0 -187.5 46.5t-117.5 130t-40 192.5t40 192.5t117.5 130.5t187.5 47
q137 0 232 -84z" />
    <glyph glyph-name="D" unicode="D" horiz-adv-x="725" 
d="M670 354q0 -174 -94 -264t-265 -90h-213v708h212q173 0 266.5 -88.5t93.5 -265.5zM150 665v-622h155q151 0 232 77.5t81 233.5q0 158 -80 234.5t-233 76.5h-155z" />
    <glyph glyph-name="E" unicode="E" horiz-adv-x="558" 
d="M512 666h-363v-279h320v-41h-320v-303h379v-43h-430v708h414v-42z" />
    <glyph glyph-name="F" unicode="F" horiz-adv-x="533" 
d="M514 665h-364v-281h326v-42h-326v-342h-52v708h416v-43z" />
    <glyph glyph-name="G" unicode="G" horiz-adv-x="749" 
d="M55 354q0 109 41.5 192.5t121 130t189.5 46.5q69 0 127.5 -21.5t103.5 -62.5l-30 -34q-41 36 -92 55t-108 19q-96 0 -164 -42t-102.5 -115.5t-34.5 -167.5q0 -149 76 -237.5t221 -88.5q62 0 110.5 13t97.5 37v224h-181v41h229v-293q-61 -31 -119.5 -48t-136.5 -17
q-113 0 -191.5 46.5t-118 129.5t-39.5 193z" />
    <glyph glyph-name="H" unicode="H" horiz-adv-x="731" 
d="M633 0h-52v344h-431v-344h-52v708h52v-321h431v321h52v-708z" />
    <glyph glyph-name="I" unicode="I" horiz-adv-x="342" 
d="M196 41h87v-41h-224v41h86v627h-86v40h224v-40h-87v-627z" />
    <glyph glyph-name="J" unicode="J" horiz-adv-x="411" 
d="M8 16l20 38q21 -12 48 -18.5t52 -6.5q73 0 107.5 45t34.5 120v514h52v-514q0 -93 -47 -151t-144 -58q-67 0 -123 31z" />
    <glyph glyph-name="K" unicode="K" horiz-adv-x="582" 
d="M205 351l-55 -58v-293h-52v708h52v-350l338 350h63l-312 -322l333 -386h-64z" />
    <glyph glyph-name="L" unicode="L" horiz-adv-x="494" 
d="M150 44h339v-44h-391v708h52v-664z" />
    <glyph glyph-name="M" unicode="M" horiz-adv-x="910" 
d="M812 0h-51l1 648h-2l-286 -648h-40l-286 648h-2l1 -648h-49v708h79l277 -637h2l277 637h79v-708z" />
    <glyph glyph-name="N" unicode="N" horiz-adv-x="774" 
d="M98 708h61l466 -639h2l-1 639h50v-708h-62l-466 639h-2l1 -639h-49v708z" />
    <glyph glyph-name="O" unicode="O" horiz-adv-x="809" 
d="M55 354q0 109 41 192.5t119.5 130t188.5 46.5t188.5 -46.5t119.5 -130t41 -192.5t-41 -192.5t-119.5 -130t-188.5 -46.5t-188.5 46.5t-119.5 130t-41 192.5zM701 354q0 96 -34 169t-101 114.5t-162 41.5t-161.5 -41.5t-100.5 -114.5t-34 -169t34 -169t100.5 -114.5
t161.5 -41.5t162 41.5t101 114.5t34 169z" />
    <glyph glyph-name="P" unicode="P" horiz-adv-x="596" 
d="M563 483q0 -73 -33.5 -123.5t-88 -76t-117.5 -25.5h-174v-258h-52v708h223q104 0 173 -54t69 -171zM150 666v-366h172q50 0 93 20.5t69.5 62t26.5 100.5q0 96 -55.5 139.5t-137.5 43.5h-168z" />
    <glyph glyph-name="Q" unicode="Q" horiz-adv-x="809" 
d="M485.5 -85q30.5 -26 83 -39t138.5 -13v-43q-100 0 -163.5 18t-100.5 53.5t-61 93.5q-103 5 -176.5 52.5t-112 129.5t-38.5 187q0 109 41 192.5t119.5 130t188.5 46.5t188.5 -46.5t119.5 -130t41 -192.5q0 -104 -37 -185t-108.5 -129t-172.5 -54q20 -45 50.5 -71zM142 185
q34 -73 100.5 -114.5t161.5 -41.5t162 41.5t101 114.5t34 169t-34 169t-101 114.5t-162 41.5t-161.5 -41.5t-100.5 -114.5t-34 -169t34 -169z" />
    <glyph glyph-name="R" unicode="R" 
d="M504 0l-179 275h-175v-275h-52v708h221q62 0 114.5 -24t84.5 -73t32 -122q0 -87 -49 -140t-125 -68l187 -281h-59zM317 316q78 0 129.5 45t51.5 128q0 88 -52.5 132.5t-128.5 44.5h-167v-350h167z" />
    <glyph glyph-name="S" unicode="S" horiz-adv-x="545" 
d="M33 69l27 32q46 -37 95 -54.5t111 -17.5q80 0 131 40.5t51 113.5q0 51 -23 83.5t-63 52.5t-104 37q-103 27 -151 68.5t-48 118.5q0 83 62.5 131.5t161.5 48.5q62 0 111 -16.5t92 -48.5l-25 -34q-39 28 -82 42t-96 14q-78 0 -125.5 -36t-47.5 -100q0 -60 40.5 -90.5
t130.5 -55.5q72 -19 119 -44t73.5 -65.5t26.5 -103.5q0 -64 -30.5 -109t-83.5 -68t-119 -23q-137 0 -234 84z" />
    <glyph glyph-name="T" unicode="T" horiz-adv-x="528" 
d="M523 663h-233v-663h-52v663h-233v45h518v-45z" />
    <glyph glyph-name="U" unicode="U" horiz-adv-x="732" 
d="M89 253v455h52v-452q0 -111 54 -168.5t171 -57.5t171.5 57.5t54.5 168.5v452h52v-455q0 -129 -69.5 -198.5t-208.5 -69.5t-208 69.5t-69 198.5z" />
    <glyph glyph-name="V" unicode="V" horiz-adv-x="614" 
d="M335 0h-58l-268 708h55l242 -654h3l241 654h54z" />
    <glyph glyph-name="W" unicode="W" horiz-adv-x="962" 
d="M731 0h-59l-193 647h-2l-188 -647h-59l-210 708h53l187 -646h2l187 646h60l191 -646h2l187 646h52z" />
    <glyph glyph-name="X" unicode="X" horiz-adv-x="594" 
d="M577 0h-61l-220 334l-218 -334h-61l248 372l1 1l-224 335h60l195 -301l197 301h58l-224 -336z" />
    <glyph glyph-name="Y" unicode="Y" horiz-adv-x="533" 
d="M292 306v-306h-52v308l-244 400h59l212 -357h2l211 357h58z" />
    <glyph glyph-name="Z" unicode="Z" horiz-adv-x="585" 
d="M524 661l-427 -617h438v-44h-496v48l427 618h-414v42h472v-47z" />
    <glyph glyph-name="bracketleft" unicode="[" horiz-adv-x="352" 
d="M127 -71h144v-40h-191v915h191v-41h-144v-834z" />
    <glyph glyph-name="backslash" unicode="\" horiz-adv-x="526" 
d="M174 782l222 -860h-45l-222 860h45z" />
    <glyph glyph-name="bracketright" unicode="]" horiz-adv-x="352" 
d="M225 763h-144v41h191v-915h-191v40h144v834z" />
    <glyph glyph-name="asciicircum" unicode="^" 
d="M482 508l-26 -20l-150 185l-151 -185l-26 20l155 200h43z" />
    <glyph glyph-name="underscore" unicode="_" 
d="M553 -147h-496v41h496v-41z" />
    <glyph glyph-name="grave" unicode="`" horiz-adv-x="236" 
d="M56 736l150 -123l-21 -27l-155 112z" />
    <glyph glyph-name="a" unicode="a" horiz-adv-x="525" 
d="M46 133q0 65 32 102t95.5 52.5t164.5 15.5q36 0 55 -1v33q0 138 -141 138q-46 0 -83 -11.5t-73 -33.5l-18 34q75 51 176 51q96 0 142.5 -46.5t46.5 -141.5v-216q0 -47 6 -109h-46q-4 35 -6 83h-2q-26 -47 -73.5 -72.5t-115.5 -25.5q-75 0 -117.5 38.5t-42.5 109.5z
M393 177v88l-50 1q-88 0 -141 -11.5t-79 -40t-26 -79.5q0 -53 31 -81t88 -28q58 0 98 24t59.5 59t19.5 68z" />
    <glyph glyph-name="b" unicode="b" horiz-adv-x="611" 
d="M556 249q0 -75 -27.5 -135t-80.5 -94t-126 -34q-107 0 -180 81l-7 -67h-41v708h50v-303h2q25 52 74 80t113 28q71 0 121.5 -34.5t76 -94t25.5 -135.5zM505 249q0 100 -46.5 162t-131.5 62q-55 0 -96.5 -25.5t-64 -68t-22.5 -91.5v-171q37 -47 78 -68.5t95 -21.5
q90 0 139 62.5t49 159.5z" />
    <glyph glyph-name="c" unicode="c" horiz-adv-x="497" 
d="M295 513q47 0 90 -14t74 -40l-22 -34q-58 46 -142 46q-93 0 -141.5 -60.5t-48.5 -160.5q0 -98 48.5 -160t140.5 -62q75 0 143 47l20 -34q-73 -55 -165 -55q-79 0 -132 35.5t-79 95t-26 133.5q0 120 63 191.5t177 71.5z" />
    <glyph glyph-name="d" unicode="d" 
d="M523 0h-47q-6 54 -6 95h-2q-28 -56 -77 -82.5t-112 -26.5q-107 0 -165.5 73t-58.5 191q0 74 28 134t80.5 94.5t122.5 34.5q61 0 104.5 -21.5t76.5 -60.5v277h50v-599q0 -47 6 -109zM467 212v165q-33 47 -75.5 71t-100.5 24q-56 0 -98 -29t-64.5 -79.5t-22.5 -113.5
q0 -100 48 -161.5t133 -61.5q54 0 95 24.5t63 67t22 93.5z" />
    <glyph glyph-name="e" unicode="e" horiz-adv-x="553" 
d="M498 234h-393q3 -92 51 -149.5t136 -57.5q49 0 87 13.5t76 39.5l23 -33q-41 -30 -86.5 -45.5t-101.5 -15.5q-112 0 -173.5 73.5t-61.5 193.5q0 77 27 135.5t78 91.5t122 33q106 0 161.5 -69t55.5 -185q0 -16 -1 -25zM451 273q-2 93 -45 147t-125 54t-128 -57.5
t-48 -143.5h346z" />
    <glyph glyph-name="f" unicode="f" horiz-adv-x="307" 
d="M336 712l-10 -36q-30 6 -62 6q-53 -1 -79 -32t-26 -88v-63h131v-39h-131v-460h-50v460h-94v32l94 7v64q0 77 39 118t112 41q40 0 76 -10z" />
    <glyph glyph-name="g" unicode="g" horiz-adv-x="525" 
d="M23 -111q0 45 26.5 79.5t91.5 62.5q-56 20 -56 65q0 26 20.5 45.5t58.5 29.5q-53 15 -83 55.5t-30 106.5q0 82 52.5 130t146.5 48q26 0 44 -3t40 -9h167v-40l-122 7q31 -17 50.5 -52t19.5 -85q0 -83 -52 -128.5t-149 -45.5q-50 0 -83.5 -15.5t-33.5 -40.5q0 -47 99 -47
q143 -1 204.5 -35t61.5 -102q0 -82 -68.5 -127.5t-190.5 -45.5q-106 0 -160 38t-54 109zM401 332q0 65 -39.5 102.5t-112.5 37.5q-71 0 -111 -37.5t-40 -100.5q0 -68 37.5 -104.5t113.5 -36.5q77 0 114.5 36t37.5 103zM446 -89q0 36 -23 58t-80 33t-158 11
q-62 -23 -87.5 -52.5t-25.5 -69.5q0 -109 166 -109q101 0 154.5 33.5t53.5 95.5z" />
    <glyph glyph-name="h" unicode="h" horiz-adv-x="599" 
d="M94 708h50v-299h2q23 46 69 75t113 29q94 0 140 -55.5t46 -140.5v-317h-50v308q0 70 -35 116.5t-111 46.5q-52 0 -91.5 -23.5t-61 -64t-21.5 -89.5v-294h-50v708z" />
    <glyph glyph-name="i" unicode="i" horiz-adv-x="238" 
d="M144 0h-50v499h50v-499zM81 684q0 37 38 37t38 -37q0 -36 -38 -36t-38 36z" />
    <glyph glyph-name="j" unicode="j" horiz-adv-x="238" 
d="M144 -110q0 -75 -32 -111.5t-97 -36.5q-23 0 -41 5l9 38q14 -2 27 -2q45 0 64.5 25.5t19.5 80.5v610h50v-609zM81 684q0 37 38 37t38 -37q0 -36 -38 -36t-38 36z" />
    <glyph glyph-name="k" unicode="k" horiz-adv-x="488" 
d="M198 260l-54 -50v-210h-50v708h50v-440l251 231h63l-224 -206l250 -293h-64z" />
    <glyph glyph-name="l" unicode="l" horiz-adv-x="238" 
d="M144 708v-708h-50v708h50z" />
    <glyph glyph-name="m" unicode="m" horiz-adv-x="936" 
d="M93 391q0 48 -6 108h47q6 -52 6 -92h2q22 48 68 77t108 29q132 0 165 -126h2q22 59 71 92.5t115 33.5q89 0 134 -55.5t45 -136.5v-321h-50v315q0 65 -34 111t-103 46q-52 0 -90.5 -27.5t-58.5 -72.5t-20 -97v-275h-49v310q0 68 -33 115t-104 47q-50 0 -87.5 -24
t-57.5 -64.5t-20 -89.5v-294h-50v391z" />
    <glyph glyph-name="n" unicode="n" horiz-adv-x="598" 
d="M93 391q0 48 -6 108h47q6 -52 6 -93h2q24 49 70.5 78t114.5 29q94 0 140 -55.5t46 -140.5v-317h-50v308q0 70 -35 116.5t-111 46.5q-52 0 -91.5 -23.5t-61 -64t-21.5 -89.5v-294h-50v391z" />
    <glyph glyph-name="o" unicode="o" horiz-adv-x="595" 
d="M540 251q0 -78 -28.5 -138t-83 -93.5t-131.5 -33.5q-76 0 -130.5 33.5t-83 93.5t-28.5 138q0 120 63.5 191.5t178.5 71.5t179 -71.5t64 -191.5zM106 251q0 -100 48.5 -162t141.5 -62q95 0 144 61.5t49 162.5q0 100 -49 161t-144 61q-94 0 -142 -61t-48 -161z" />
    <glyph glyph-name="p" unicode="p" 
d="M555 249q0 -75 -27.5 -135t-79.5 -94t-124 -34q-59 0 -102.5 21t-78.5 60v-311h-50v635q0 48 -6 108h47q6 -54 6 -101h2q25 55 74.5 85t116.5 30q71 0 121 -34.5t75.5 -94t25.5 -135.5zM504 249q0 99 -47 161.5t-131 62.5q-55 0 -96.5 -25.5t-64 -68t-22.5 -91.5v-171
q38 -47 78.5 -68.5t94.5 -21.5q90 0 139 62t49 160z" />
    <glyph glyph-name="q" unicode="q" horiz-adv-x="611" 
d="M517 499v-743h-50v335h-2q-27 -53 -75 -79t-109 -26q-108 0 -167 73t-59 191q0 74 28.5 134t80.5 94.5t121 34.5q113 0 184 -83l7 69h41zM467 212v164q-33 48 -76 72t-100 24q-56 0 -98 -29t-64.5 -79.5t-22.5 -113.5q0 -100 48 -161.5t133 -61.5q54 0 95 24.5t63 67
t22 93.5z" />
    <glyph glyph-name="r" unicode="r" horiz-adv-x="339" 
d="M93 391q0 48 -6 108h47q6 -54 6 -96h2q42 110 165 110q15 0 25 -2l-2 -42q-10 1 -27 1q-77 0 -118.5 -54.5t-41.5 -141.5v-274h-50v391z" />
    <glyph glyph-name="s" unicode="s" horiz-adv-x="427" 
d="M370 461l-23 -32q-57 45 -135 45q-55 0 -87 -23t-32 -64q0 -42 29.5 -64.5t106.5 -40.5q80 -19 116.5 -54t36.5 -94q0 -68 -50 -108t-127 -40q-55 0 -98 15t-79 44l24 31q36 -26 70.5 -38t81.5 -12q58 0 92.5 28t34.5 77q0 32 -12 52t-41 34.5t-82 27.5
q-82 19 -117.5 51.5t-35.5 87.5q0 60 46 94.5t122 34.5q95 0 159 -52z" />
    <glyph glyph-name="t" unicode="t" horiz-adv-x="332" 
d="M159 499h141v-39h-141v-344q0 -46 21.5 -67.5t59.5 -21.5q26 0 54 8l8 -37q-31 -12 -70 -12q-57 0 -90 33t-33 94v347h-94v33l94 6v131l50 18v-149z" />
    <glyph glyph-name="u" unicode="u" horiz-adv-x="598" 
d="M85 195v304h50v-298q0 -77 35.5 -126t108.5 -49q53 0 93 28.5t61.5 76.5t21.5 106v262h50v-390q0 -47 6 -109h-47q-6 54 -6 108h-2q-25 -59 -72 -91t-114 -32q-93 0 -139 58t-46 152z" />
    <glyph glyph-name="v" unicode="v" horiz-adv-x="464" 
d="M264 0h-59l-195 499h54l170 -449h2l164 449h53z" />
    <glyph glyph-name="w" unicode="w" horiz-adv-x="738" 
d="M572 0h-59l-144 446h-2l-143 -446h-59l-141 499h52l120 -446h2l142 446h58l142 -446h2l121 446h51z" />
    <glyph glyph-name="x" unicode="x" horiz-adv-x="488" 
d="M475 0h-60l-175 230l-168 -230h-59l196 262l-174 237h57l151 -206l148 206h56l-174 -237z" />
    <glyph glyph-name="y" unicode="y" horiz-adv-x="450" 
d="M206 -142q-21 -61 -53 -88.5t-83 -27.5q-31 0 -55 9l10 38q18 -5 40 -5q38 0 60 22t37 65l43 126l-195 502h53l168 -445h1l156 445h52z" />
    <glyph glyph-name="z" unicode="z" horiz-adv-x="431" 
d="M382 458l-288 -418h300v-40h-357v42l288 418h-273v39h330v-41z" />
    <glyph glyph-name="braceleft" unicode="{" horiz-adv-x="352" 
d="M143 50v187q0 41 -22 61.5t-66 25.5v45q88 11 88 87v187q0 80 44 120.5t110 40.5v-42q-48 0 -76.5 -29.5t-28.5 -85.5v-171q0 -60 -23 -88t-74 -40v-2q51 -13 74 -41t23 -88v-171q0 -56 28.5 -85.5t76.5 -29.5v-42q-68 0 -111 40t-43 121z" />
    <glyph glyph-name="bar" unicode="|" horiz-adv-x="334" 
d="M191 808v-908h-47v908h47z" />
    <glyph glyph-name="braceright" unicode="}" horiz-adv-x="352" 
d="M209 456q0 -76 88 -87v-45q-44 -5 -66 -25.5t-22 -61.5v-187q0 -81 -43 -121t-111 -40v42q48 0 76.5 29.5t28.5 85.5v171q0 60 23 88t74 41v2q-51 12 -74 40t-23 88v171q0 56 -28.5 85.5t-76.5 29.5v42q66 0 110 -40.5t44 -120.5v-187z" />
    <glyph glyph-name="asciitilde" unicode="~" 
d="M104 257q51 73 119 73q24 0 44.5 -8t46.5 -22q26 -13 42 -19.5t34 -6.5q25 0 46 12t47 42l24 -17q-48 -73 -117 -73q-23 0 -42.5 7.5t-47.5 22.5q-25 13 -42 19.5t-35 6.5q-24 0 -47 -12.5t-48 -41.5z" />
    <glyph glyph-name="uni00A0" unicode="&#xa0;" horiz-adv-x="248" 
 />
    <glyph glyph-name="exclamdown" unicode="&#xa1;" horiz-adv-x="304" 
d="M173 300l4 -166v-334h-50v334l4 166h42zM114 477q0 37 38 37t38 -37q0 -38 -38 -38t-38 38z" />
    <glyph glyph-name="cent" unicode="&#xa2;" 
d="M505 145q-63 -47 -142 -54l1 -91h-42l1 90q-109 6 -164.5 80t-55.5 184q0 114 58 185t162 78l-1 91h42l-1 -91q42 -2 79 -16t65 -38l-22 -33q-58 46 -142 46q-93 0 -141.5 -60.5t-48.5 -161.5q0 -98 48.5 -159.5t140.5 -61.5q76 0 143 46z" />
    <glyph glyph-name="sterling" unicode="&#xa3;" 
d="M147 45h373v-45h-439v42q68 36 104 78.5t36 109.5q0 56 -24 109h-115v40h96q-25 51 -36.5 83.5t-11.5 77.5q0 81 52.5 132t146.5 51q62 0 109 -22.5t85 -63.5l-33 -29q-33 36 -71 53.5t-90 17.5q-70 0 -108.5 -37.5t-38.5 -102.5q0 -43 11.5 -75t38.5 -85h193v-40h-175
q23 -55 23 -109q0 -67 -35 -112t-91 -71v-2z" />
    <glyph glyph-name="currency" unicode="&#xa4;" 
d="M432 143l75 -92l-32 -24l-73 95q-40 -23 -97 -23t-97 23l-73 -95l-32 24l75 92q-49 47 -49 128q0 39 12.5 72t36.5 55l-75 92l32 23l72 -94q40 23 98 23t98 -23l72 94l32 -23l-74 -92q49 -47 49 -127q0 -81 -50 -128zM305 133q67 0 101 37t34 101t-33.5 100t-101.5 36
t-101 -36t-33 -100t33.5 -101t100.5 -37z" />
    <glyph glyph-name="yen" unicode="&#xa5;" horiz-adv-x="600" 
d="M343 338h132v-36h-151v-70h151v-36h-151v-196h-50v196h-149v36h149v70h-149v36h131l-220 370h57l208 -359h2l205 359h56z" />
    <glyph glyph-name="brokenbar" unicode="&#xa6;" horiz-adv-x="334" 
d="M191 808v-381h-47v381h47zM191 281v-381h-47v381h47z" />
    <glyph glyph-name="section" unicode="&#xa7;" 
d="M489 119q0 -64 -50.5 -98.5t-133.5 -34.5q-58 0 -102 14.5t-82 44.5l24 31q39 -26 74.5 -38t86.5 -12q62 0 97 23.5t35 66.5q0 26 -12 42t-41 29t-86 28q-61 17 -95.5 34.5t-51 43t-16.5 64.5q0 43 31.5 76t83.5 48q-56 21 -80 49.5t-24 69.5q0 56 45.5 89.5t119.5 33.5
q54 0 94.5 -13t76.5 -39l-23 -32q-33 22 -66.5 33t-79.5 11q-53 0 -85 -21.5t-32 -58.5q0 -25 12 -42t41 -31.5t82 -30.5q59 -17 92.5 -34.5t49 -42t15.5 -62.5q0 -47 -29.5 -78t-81.5 -46q59 -19 85 -45.5t26 -71.5zM328 250q111 28 111 107q0 30 -12 48t-40.5 30.5
t-86.5 29.5h-2q-54 -13 -83 -40t-30 -64q0 -31 13.5 -50t43.5 -33t86 -28z" />
    <glyph glyph-name="dieresis" unicode="&#xa8;" horiz-adv-x="301" 
d="M30 660q0 36 36 36t36 -36q0 -35 -36 -35t-36 35zM199 660q0 36 36 36t36 -36q0 -35 -36 -35t-36 35z" />
    <glyph glyph-name="copyright" unicode="&#xa9;" horiz-adv-x="944" 
d="M95 354q0 107 43.5 190.5t128 131t204.5 47.5t205 -47.5t128.5 -131t43.5 -190.5t-43.5 -190.5t-128.5 -131t-205 -47.5t-204.5 47.5t-128 131t-43.5 190.5zM808 354q0 96 -37 171.5t-112.5 118.5t-186.5 43t-186.5 -43t-112.5 -118.5t-37 -171.5t37 -171.5t112.5 -118.5
t186.5 -43t186.5 43t112.5 118.5t37 171.5zM480 570q79 0 137 -44l-18 -29q-27 19 -55.5 28t-63.5 9q-77 0 -117 -48.5t-40 -129.5t40 -130t117 -49q63 0 118 37l17 -28q-27 -21 -62.5 -33t-74.5 -12q-98 0 -148 60.5t-50 154.5q0 97 53 155.5t147 58.5z" />
    <glyph glyph-name="ordfeminine" unicode="&#xaa;" horiz-adv-x="568" 
d="M72 352q0 63 31 99t93 51t160 15q35 0 54 -1v32q0 135 -138 135q-44 0 -80 -11.5t-72 -32.5l-17 33q73 50 171 50q94 0 139 -45.5t45 -138.5v-210q0 -46 6 -106h-45q-3 34 -5 81h-2q-26 -46 -72 -71t-112 -25q-73 0 -114.5 37.5t-41.5 107.5zM410 394v86l-49 1
q-86 0 -137.5 -11t-77 -39t-25.5 -78q0 -51 30.5 -78.5t85.5 -27.5q57 0 96 23.5t58 57.5t19 66zM497 7h-413v41h413v-41z" />
    <glyph glyph-name="guillemotleft" unicode="&#xab;" horiz-adv-x="477" 
d="M127 309l108 -142l-25 -20l-125 150v24l125 151l26 -21zM283 309l108 -142l-25 -20l-125 150v24l125 151l26 -21z" />
    <glyph glyph-name="logicalnot" unicode="&#xac;" 
d="M459 323h-354v41h400v-182h-46v141z" />
    <glyph glyph-name="uni00AD" unicode="&#xad;" horiz-adv-x="308" 
d="M261 272h-214v41h214v-41z" />
    <glyph glyph-name="registered" unicode="&#xae;" horiz-adv-x="347" 
d="M266 688q33 -34 33 -88t-33 -88t-93 -34q-59 0 -92 34t-33 88t33 88t92 34q60 0 93 -34zM251 526q26 28 26 74t-26 74t-77 28t-77 -28t-26 -74t26 -74t77 -28t77 28zM198 586l34 -51h-25l-32 48h-23v-48h-22v136h47q23 0 37 -10.5t14 -32.5q0 -31 -30 -42zM152 601h20
q16 0 25 7t9 20q0 25 -33 25h-21v-52z" />
    <glyph glyph-name="macron" unicode="&#xaf;" horiz-adv-x="311" 
d="M281 617h-251v36h251v-36z" />
    <glyph glyph-name="degree" unicode="&#xb0;" horiz-adv-x="357" 
d="M53 602q0 56 34 88.5t92 32.5q57 0 91 -32.5t34 -88.5t-34 -89t-91 -33q-58 0 -92 33t-34 89zM264 602q0 43 -22 65.5t-63 22.5t-63.5 -22.5t-22.5 -65.5t22.5 -65.5t63.5 -22.5q40 0 62.5 22.5t22.5 65.5z" />
    <glyph glyph-name="plusminus" unicode="&#xb1;" 
d="M505 398v-41h-178v-180h-44v180h-178v41h178v179h44v-179h178zM105 48h400v-41h-400v41z" />
    <glyph glyph-name="uni00B2" unicode="&#xb2;" horiz-adv-x="540" 
d="M435 575q0 -52 -23 -95t-78.5 -96t-174.5 -151h294v-42h-359v39q130 110 187.5 164.5t81 93.5t23.5 83q0 47 -32.5 77t-90.5 30q-47 0 -81 -15.5t-67 -47.5l-29 27q39 39 80 58t101 19q80 0 124 -41.5t44 -102.5z" />
    <glyph glyph-name="uni00B3" unicode="&#xb3;" horiz-adv-x="540" 
d="M441 586q0 -55 -28.5 -84t-70.5 -38v-1q48 -5 82 -35.5t34 -91.5q0 -71 -51 -113.5t-141 -42.5q-62 0 -104.5 16.5t-80.5 51.5l27 29q35 -30 70.5 -43t87.5 -13q66 0 104 30.5t38 85.5q0 54 -34 79.5t-91 25.5h-83v40h73q54 0 86.5 24.5t32.5 73.5q0 47 -31.5 72.5
t-91.5 25.5q-44 0 -78.5 -11.5t-68.5 -37.5l-25 28q37 32 79 47t97 15q79 0 123.5 -37t44.5 -96z" />
    <glyph glyph-name="acute" unicode="&#xb4;" horiz-adv-x="236" 
d="M51 586l-21 27l150 123l26 -38z" />
    <glyph glyph-name="uni00B5" unicode="&#xb5;" horiz-adv-x="604" 
d="M517 0h-47q-6 54 -6 108h-2q-25 -58 -71 -90.5t-109 -32.5q-101 0 -141 85h-2v-203q0 -66 -7 -111h-47q6 62 6 109v634h50v-298q0 -77 35.5 -125.5t108.5 -48.5q53 0 93 28t61.5 76t21.5 106v262h50v-390q0 -47 6 -109z" />
    <glyph glyph-name="paragraph" unicode="&#xb6;" horiz-adv-x="621" 
d="M351 -130h-49v477h-62q-94 0 -149 46.5t-55 133.5q0 88 55.5 134.5t151.5 46.5h108v-838zM522 708v-838h-49v838h49zM302 389v277h-62q-75 0 -116 -34.5t-41 -104.5t40.5 -104t116.5 -34h62z" />
    <glyph glyph-name="periodcentered" unicode="&#xb7;" horiz-adv-x="252" 
d="M88 327q0 38 38 38t38 -38q0 -37 -38 -37t-38 37z" />
    <glyph glyph-name="cedilla" unicode="&#xb8;" horiz-adv-x="261" 
d="M231 -146q0 -42 -30.5 -64t-78.5 -22q-51 0 -92 23l14 28q19 -9 36.5 -13.5t41.5 -4.5q33 0 51 14t18 39q0 22 -13.5 34t-38.5 12q-20 0 -44 -7h-30l42 107h36l-28 -76q15 4 35 4q37 0 59 -19.5t22 -54.5z" />
    <glyph glyph-name="uni00B9" unicode="&#xb9;" horiz-adv-x="540" 
d="M437 233v-42h-311v41h145v424l-148 -76l-20 36l174 92h43v-475h117z" />
    <glyph glyph-name="ordmasculine" unicode="&#xba;" horiz-adv-x="619" 
d="M541 466q0 -76 -28 -134t-81 -91t-128 -33q-74 0 -127 33t-80.5 91t-27.5 134q0 117 61.5 187t173.5 70t174.5 -70t62.5 -187zM118 466q0 -97 47.5 -157.5t137.5 -60.5q93 0 140.5 60t47.5 158t-47.5 157.5t-140.5 59.5q-91 0 -138 -59.5t-47 -157.5zM521 7h-413v41h413
v-41z" />
    <glyph glyph-name="guillemotright" unicode="&#xbb;" horiz-adv-x="477" 
d="M236 321v-24l-125 -150l-25 20l108 142h-1l-108 142l25 21zM392 321v-24l-125 -150l-25 20l108 142h-1l-108 142l25 21z" />
    <glyph glyph-name="onequarter" unicode="&#xbc;" horiz-adv-x="1200" 
d="M394 233v-42h-311v41h145v424l-148 -76l-20 36l174 92h43v-475h117zM839 709l-418 -709h-49l418 709h49zM1140 132h-83v-132h-48v132h-272v38l184 347h52l-181 -343h217v151h48v-151h83v-42z" />
    <glyph glyph-name="onehalf" unicode="&#xbd;" horiz-adv-x="1200" 
d="M388 233v-42h-311v41h145v424l-148 -76l-20 36l174 92h43v-475h117zM832 709l-418 -709h-49l418 709h49zM1128 384q0 -52 -23 -95t-78.5 -96t-174.5 -151h294v-42h-359v39q130 110 187.5 164.5t81 93.5t23.5 83q0 47 -32.5 77t-90.5 30q-47 0 -81 -15.5t-67 -47.5l-29 27
q39 39 80 58t101 19q80 0 124 -41.5t44 -102.5z" />
    <glyph glyph-name="threequarters" unicode="&#xbe;" horiz-adv-x="1200" 
d="M409 586q0 -55 -28.5 -84t-70.5 -38v-1q48 -5 82 -35.5t34 -91.5q0 -71 -51 -113.5t-141 -42.5q-62 0 -104.5 16.5t-80.5 51.5l27 29q35 -30 70.5 -43t87.5 -13q66 0 104 30.5t38 85.5q0 54 -34 79.5t-91 25.5h-83v40h73q54 0 86.5 24.5t32.5 73.5q0 47 -31.5 72.5
t-91.5 25.5q-44 0 -78.5 -11.5t-68.5 -37.5l-25 28q37 32 79 47t97 15q79 0 123.5 -37t44.5 -96zM849 709l-418 -709h-49l418 709h49zM1150 132h-83v-132h-48v132h-272v38l184 347h52l-181 -343h217v151h48v-151h83v-42z" />
    <glyph glyph-name="questiondown" unicode="&#xbf;" horiz-adv-x="483" 
d="M163 151q43 34 63.5 58.5t20.5 57.5v33h47v-39q0 -41 -23 -70t-69 -65q-34 -27 -54.5 -47t-34.5 -48.5t-14 -65.5q0 -62 40.5 -99.5t109.5 -37.5q61 0 104.5 23t80.5 65l32 -28q-44 -50 -95.5 -76.5t-125.5 -26.5q-59 0 -104 23t-69.5 64t-24.5 91q0 44 16.5 78t39 56.5
t60.5 53.5zM309 477q0 -38 -38 -38t-38 38q0 37 38 37t38 -37z" />
    <glyph glyph-name="Agrave" unicode="&#xc0;" horiz-adv-x="649" 
d="M508 189h-370l-74 -189h-54l285 708h58l285 -708h-56zM155 230h337l-168 433zM245 915l161 -103l-17 -28l-167 93z" />
    <glyph glyph-name="Aacute" unicode="&#xc1;" horiz-adv-x="649" 
d="M508 189h-370l-74 -189h-54l285 708h58l285 -708h-56zM155 230h337l-168 433zM260 784l-18 28l161 103l23 -38z" />
    <glyph glyph-name="Acircumflex" unicode="&#xc2;" horiz-adv-x="649" 
d="M508 189h-370l-74 -189h-54l285 708h58l285 -708h-56zM155 230h337l-168 433zM469 809l-20 -24l-124 87l-124 -87l-20 24l123 97h42z" />
    <glyph glyph-name="Atilde" unicode="&#xc3;" horiz-adv-x="649" 
d="M508 189h-370l-74 -189h-54l285 708h58l285 -708h-56zM155 230h337l-168 433zM182 804q34 70 87 70q16 0 30.5 -7t33.5 -20q15 -11 25.5 -16t20.5 -5q17 0 31 10.5t29 35.5l28 -12q-17 -36 -38.5 -53t-48.5 -17q-15 0 -27 5.5t-35 20.5q-3 2 -13 8.5t-19 10t-16 3.5
q-17 0 -31 -10.5t-29 -35.5z" />
    <glyph glyph-name="Adieresis" unicode="&#xc4;" horiz-adv-x="649" 
d="M508 189h-370l-74 -189h-54l285 708h58l285 -708h-56zM155 230h337l-168 433zM206 857q0 36 36 36t36 -36q0 -35 -36 -35t-36 35zM375 857q0 36 36 36t36 -36q0 -35 -36 -35t-36 35z" />
    <glyph glyph-name="Aring" unicode="&#xc5;" horiz-adv-x="649" 
d="M508 189h-370l-74 -189h-54l276 686q-28 10 -44.5 34.5t-16.5 55.5q0 42 28 68.5t72 26.5t72 -26.5t28 -68.5q0 -32 -17 -56t-46 -34l276 -686h-56zM325 711q29 0 46 18t17 47t-17 47t-46 18q-30 0 -47 -17.5t-17 -47.5q0 -29 17.5 -47t46.5 -18zM324 663l-169 -433h337z
" />
    <glyph glyph-name="AE" unicode="&#xc6;" horiz-adv-x="890" 
d="M869 43v-43h-326l-62 189h-342l-75 -189h-54l285 708h517v-42h-445l97 -279h317v-41h-303l104 -303h287zM467 230l-143 433l-169 -433h312z" />
    <glyph glyph-name="Ccedilla" unicode="&#xc7;" horiz-adv-x="671" 
d="M416 -15l-23 -61q15 4 35 4q37 0 59 -19.5t22 -54.5q0 -42 -30.5 -64t-78.5 -22q-51 0 -92 23l14 28q19 -9 36.5 -13.5t41.5 -4.5q33 0 51 14t18 39q0 22 -13.5 34t-38.5 12q-20 0 -44 -7h-30l36 92q-103 5 -176 52.5t-110.5 129.5t-37.5 187q0 109 40 192.5t117.5 130.5
t187.5 47q137 0 232 -84l-31 -34q-41 35 -91.5 54t-107.5 19q-95 0 -161.5 -41.5t-99.5 -115t-33 -168.5q0 -94 33 -167t99 -114.5t161 -41.5q62 0 117.5 23t97.5 63l31 -34q-43 -44 -103 -69.5t-128 -28.5z" />
    <glyph glyph-name="Egrave" unicode="&#xc8;" horiz-adv-x="558" 
d="M512 666h-363v-279h320v-41h-320v-303h379v-43h-430v708h414v-42zM239 915l161 -103l-17 -28l-167 93z" />
    <glyph glyph-name="Eacute" unicode="&#xc9;" horiz-adv-x="558" 
d="M512 666h-363v-279h320v-41h-320v-303h379v-43h-430v708h414v-42zM254 784l-18 28l161 103l23 -38z" />
    <glyph glyph-name="Ecircumflex" unicode="&#xca;" horiz-adv-x="558" 
d="M512 666h-363v-279h320v-41h-320v-303h379v-43h-430v708h414v-42zM463 809l-20 -24l-124 87l-124 -87l-20 24l123 97h42z" />
    <glyph glyph-name="Edieresis" unicode="&#xcb;" horiz-adv-x="558" 
d="M512 666h-363v-279h320v-41h-320v-303h379v-43h-430v708h414v-42zM200 857q0 36 36 36t36 -36q0 -35 -36 -35t-36 35zM369 857q0 36 36 36t36 -36q0 -35 -36 -35t-36 35z" />
    <glyph glyph-name="Igrave" unicode="&#xcc;" horiz-adv-x="342" 
d="M196 41h87v-41h-224v41h86v627h-86v40h224v-40h-87v-627zM91 915l161 -103l-17 -28l-167 93z" />
    <glyph glyph-name="Iacute" unicode="&#xcd;" horiz-adv-x="342" 
d="M196 41h87v-41h-224v41h86v627h-86v40h224v-40h-87v-627zM106 784l-18 28l161 103l23 -38z" />
    <glyph glyph-name="Icircumflex" unicode="&#xce;" horiz-adv-x="342" 
d="M196 41h87v-41h-224v41h86v627h-86v40h224v-40h-87v-627zM315 809l-20 -24l-124 87l-124 -87l-20 24l123 97h42z" />
    <glyph glyph-name="Idieresis" unicode="&#xcf;" horiz-adv-x="342" 
d="M196 41h87v-41h-224v41h86v627h-86v40h224v-40h-87v-627zM52 857q0 36 36 36t36 -36q0 -35 -36 -35t-36 35zM221 857q0 36 36 36t36 -36q0 -35 -36 -35t-36 35z" />
    <glyph glyph-name="Eth" unicode="&#xd0;" horiz-adv-x="725" 
d="M670 354q0 -174 -94 -264t-265 -90h-213v335h-83v36h83v337h212q173 0 266.5 -88.5t93.5 -265.5zM618 354q0 158 -80 234.5t-233 76.5h-155v-294h166v-36h-166v-292h155q151 0 232 77.5t81 233.5z" />
    <glyph glyph-name="Ntilde" unicode="&#xd1;" horiz-adv-x="774" 
d="M98 708h61l466 -639h2l-1 639h50v-708h-62l-466 639h-2l1 -639h-49v708zM244 804q34 70 87 70q16 0 30.5 -7t33.5 -20q15 -11 25.5 -16t20.5 -5q17 0 31 10.5t29 35.5l28 -12q-17 -36 -38.5 -53t-48.5 -17q-15 0 -27 5.5t-35 20.5q-3 2 -13 8.5t-19 10t-16 3.5
q-17 0 -31 -10.5t-29 -35.5z" />
    <glyph glyph-name="Ograve" unicode="&#xd2;" horiz-adv-x="809" 
d="M55 354q0 109 41 192.5t119.5 130t188.5 46.5t188.5 -46.5t119.5 -130t41 -192.5t-41 -192.5t-119.5 -130t-188.5 -46.5t-188.5 46.5t-119.5 130t-41 192.5zM701 354q0 96 -34 169t-101 114.5t-162 41.5t-161.5 -41.5t-100.5 -114.5t-34 -169t34 -169t100.5 -114.5
t161.5 -41.5t162 41.5t101 114.5t34 169zM325 915l161 -103l-17 -28l-167 93z" />
    <glyph glyph-name="Oacute" unicode="&#xd3;" horiz-adv-x="809" 
d="M55 354q0 109 41 192.5t119.5 130t188.5 46.5t188.5 -46.5t119.5 -130t41 -192.5t-41 -192.5t-119.5 -130t-188.5 -46.5t-188.5 46.5t-119.5 130t-41 192.5zM701 354q0 96 -34 169t-101 114.5t-162 41.5t-161.5 -41.5t-100.5 -114.5t-34 -169t34 -169t100.5 -114.5
t161.5 -41.5t162 41.5t101 114.5t34 169zM340 784l-18 28l161 103l23 -38z" />
    <glyph glyph-name="Ocircumflex" unicode="&#xd4;" horiz-adv-x="809" 
d="M55 354q0 109 41 192.5t119.5 130t188.5 46.5t188.5 -46.5t119.5 -130t41 -192.5t-41 -192.5t-119.5 -130t-188.5 -46.5t-188.5 46.5t-119.5 130t-41 192.5zM701 354q0 96 -34 169t-101 114.5t-162 41.5t-161.5 -41.5t-100.5 -114.5t-34 -169t34 -169t100.5 -114.5
t161.5 -41.5t162 41.5t101 114.5t34 169zM549 809l-20 -24l-124 87l-124 -87l-20 24l123 97h42z" />
    <glyph glyph-name="Otilde" unicode="&#xd5;" horiz-adv-x="809" 
d="M55 354q0 109 41 192.5t119.5 130t188.5 46.5t188.5 -46.5t119.5 -130t41 -192.5t-41 -192.5t-119.5 -130t-188.5 -46.5t-188.5 46.5t-119.5 130t-41 192.5zM701 354q0 96 -34 169t-101 114.5t-162 41.5t-161.5 -41.5t-100.5 -114.5t-34 -169t34 -169t100.5 -114.5
t161.5 -41.5t162 41.5t101 114.5t34 169zM262 804q34 70 87 70q16 0 30.5 -7t33.5 -20q15 -11 25.5 -16t20.5 -5q17 0 31 10.5t29 35.5l28 -12q-17 -36 -38.5 -53t-48.5 -17q-15 0 -27 5.5t-35 20.5q-3 2 -13 8.5t-19 10t-16 3.5q-17 0 -31 -10.5t-29 -35.5z" />
    <glyph glyph-name="Odieresis" unicode="&#xd6;" horiz-adv-x="809" 
d="M55 354q0 109 41 192.5t119.5 130t188.5 46.5t188.5 -46.5t119.5 -130t41 -192.5t-41 -192.5t-119.5 -130t-188.5 -46.5t-188.5 46.5t-119.5 130t-41 192.5zM701 354q0 96 -34 169t-101 114.5t-162 41.5t-161.5 -41.5t-100.5 -114.5t-34 -169t34 -169t100.5 -114.5
t161.5 -41.5t162 41.5t101 114.5t34 169zM286 857q0 36 36 36t36 -36q0 -35 -36 -35t-36 35zM455 857q0 36 36 36t36 -36q0 -35 -36 -35t-36 35z" />
    <glyph glyph-name="multiply" unicode="&#xd7;" 
d="M334 285l127 -127l-29 -29l-127 126l-126 -126l-30 29l127 127l-127 126l29 30l127 -127l127 127l29 -29z" />
    <glyph glyph-name="Oslash" unicode="&#xd8;" horiz-adv-x="809" 
d="M753 354q0 -109 -41 -192.5t-119.5 -130t-188.5 -46.5q-33 0 -70 5l-18 -73l-45 9l20 74q-113 32 -174.5 125.5t-61.5 228.5q0 109 41 192.5t119.5 130t188.5 46.5q38 0 71 -6l18 70l45 -9l-20 -70q113 -33 174 -126.5t61 -227.5zM305 42l162 632q-33 5 -63 5
q-95 0 -161.5 -41.5t-100.5 -114.5t-34 -169q0 -119 50.5 -201t146.5 -111zM701 354q0 119 -50.5 200.5t-145.5 110.5l-162 -631q32 -5 61 -5q95 0 162 41.5t101 114.5t34 169z" />
    <glyph glyph-name="Ugrave" unicode="&#xd9;" horiz-adv-x="732" 
d="M89 253v455h52v-452q0 -111 54 -168.5t171 -57.5t171.5 57.5t54.5 168.5v452h52v-455q0 -129 -69.5 -198.5t-208.5 -69.5t-208 69.5t-69 198.5zM287 915l161 -103l-17 -28l-167 93z" />
    <glyph glyph-name="Uacute" unicode="&#xda;" horiz-adv-x="732" 
d="M89 253v455h52v-452q0 -111 54 -168.5t171 -57.5t171.5 57.5t54.5 168.5v452h52v-455q0 -129 -69.5 -198.5t-208.5 -69.5t-208 69.5t-69 198.5zM302 784l-18 28l161 103l23 -38z" />
    <glyph glyph-name="Ucircumflex" unicode="&#xdb;" horiz-adv-x="732" 
d="M89 253v455h52v-452q0 -111 54 -168.5t171 -57.5t171.5 57.5t54.5 168.5v452h52v-455q0 -129 -69.5 -198.5t-208.5 -69.5t-208 69.5t-69 198.5zM511 809l-20 -24l-124 87l-124 -87l-20 24l123 97h42z" />
    <glyph glyph-name="Udieresis" unicode="&#xdc;" horiz-adv-x="732" 
d="M89 253v455h52v-452q0 -111 54 -168.5t171 -57.5t171.5 57.5t54.5 168.5v452h52v-455q0 -129 -69.5 -198.5t-208.5 -69.5t-208 69.5t-69 198.5zM248 857q0 36 36 36t36 -36q0 -35 -36 -35t-36 35zM417 857q0 36 36 36t36 -36q0 -35 -36 -35t-36 35z" />
    <glyph glyph-name="Yacute" unicode="&#xdd;" horiz-adv-x="533" 
d="M292 306v-306h-52v308l-244 400h59l212 -357h2l211 357h58zM202 784l-18 28l161 103l23 -38z" />
    <glyph glyph-name="Thorn" unicode="&#xde;" horiz-adv-x="602" 
d="M563 371q0 -70 -33.5 -120t-88 -75t-117.5 -25h-174v-151h-52v708h52v-117h171q103 0 172.5 -53t69.5 -167zM511 371q0 93 -56 135.5t-137 42.5h-168v-356h171q51 0 94 20.5t69.5 60.5t26.5 97z" />
    <glyph glyph-name="germandbls" unicode="&#xdf;" horiz-adv-x="594" 
d="M226 10l16 36q47 -19 98 -19q47 0 85 21t60.5 60t22.5 92q0 83 -46.5 125t-132.5 58v33l86 221q-32 25 -64 35.5t-68 10.5q-65 0 -94.5 -32.5t-29.5 -89.5v-561h-50v460h-94v32l94 7v62q0 79 44 120t129 41q98 0 185 -71l-94 -238q79 -17 132 -68t53 -145
q0 -66 -30 -114.5t-79.5 -74t-106.5 -25.5q-66 0 -116 24z" />
    <glyph glyph-name="agrave" unicode="&#xe0;" horiz-adv-x="525" 
d="M46 133q0 65 32 102t95.5 52.5t164.5 15.5q36 0 55 -1v33q0 138 -141 138q-46 0 -83 -11.5t-73 -33.5l-18 34q75 51 176 51q96 0 142.5 -46.5t46.5 -141.5v-216q0 -47 6 -109h-46q-4 35 -6 83h-2q-26 -47 -73.5 -72.5t-115.5 -25.5q-75 0 -117.5 38.5t-42.5 109.5z
M393 177v88l-50 1q-88 0 -141 -11.5t-79 -40t-26 -79.5q0 -53 31 -81t88 -28q58 0 98 24t59.5 59t19.5 68zM188 736l150 -123l-21 -27l-155 112z" />
    <glyph glyph-name="aacute" unicode="&#xe1;" horiz-adv-x="525" 
d="M46 133q0 65 32 102t95.5 52.5t164.5 15.5q36 0 55 -1v33q0 138 -141 138q-46 0 -83 -11.5t-73 -33.5l-18 34q75 51 176 51q96 0 142.5 -46.5t46.5 -141.5v-216q0 -47 6 -109h-46q-4 35 -6 83h-2q-26 -47 -73.5 -72.5t-115.5 -25.5q-75 0 -117.5 38.5t-42.5 109.5z
M393 177v88l-50 1q-88 0 -141 -11.5t-79 -40t-26 -79.5q0 -53 31 -81t88 -28q58 0 98 24t59.5 59t19.5 68zM206 586l-21 27l150 123l26 -38z" />
    <glyph glyph-name="acircumflex" unicode="&#xe2;" horiz-adv-x="525" 
d="M46 133q0 65 32 102t95.5 52.5t164.5 15.5q36 0 55 -1v33q0 138 -141 138q-46 0 -83 -11.5t-73 -33.5l-18 34q75 51 176 51q96 0 142.5 -46.5t46.5 -141.5v-216q0 -47 6 -109h-46q-4 35 -6 83h-2q-26 -47 -73.5 -72.5t-115.5 -25.5q-75 0 -117.5 38.5t-42.5 109.5z
M393 177v88l-50 1q-88 0 -141 -11.5t-79 -40t-26 -79.5q0 -53 31 -81t88 -28q58 0 98 24t59.5 59t19.5 68zM404 609l-21 -23l-123 106l-123 -106l-22 23l124 118h42z" />
    <glyph glyph-name="atilde" unicode="&#xe3;" horiz-adv-x="525" 
d="M46 133q0 65 32 102t95.5 52.5t164.5 15.5q36 0 55 -1v33q0 138 -141 138q-46 0 -83 -11.5t-73 -33.5l-18 34q75 51 176 51q96 0 142.5 -46.5t46.5 -141.5v-216q0 -47 6 -109h-46q-4 35 -6 83h-2q-26 -47 -73.5 -72.5t-115.5 -25.5q-75 0 -117.5 38.5t-42.5 109.5z
M393 177v88l-50 1q-88 0 -141 -11.5t-79 -40t-26 -79.5q0 -53 31 -81t88 -28q58 0 98 24t59.5 59t19.5 68zM118 607q34 70 87 70q16 0 30.5 -7t33.5 -20q15 -11 25.5 -16t20.5 -5q17 0 31 10.5t29 35.5l28 -12q-17 -36 -38.5 -53t-48.5 -17q-15 0 -27 5.5t-35 20.5
q-3 2 -13 8.5t-19 10t-16 3.5q-17 0 -31 -10.5t-29 -35.5z" />
    <glyph glyph-name="adieresis" unicode="&#xe4;" horiz-adv-x="525" 
d="M46 133q0 65 32 102t95.5 52.5t164.5 15.5q36 0 55 -1v33q0 138 -141 138q-46 0 -83 -11.5t-73 -33.5l-18 34q75 51 176 51q96 0 142.5 -46.5t46.5 -141.5v-216q0 -47 6 -109h-46q-4 35 -6 83h-2q-26 -47 -73.5 -72.5t-115.5 -25.5q-75 0 -117.5 38.5t-42.5 109.5z
M393 177v88l-50 1q-88 0 -141 -11.5t-79 -40t-26 -79.5q0 -53 31 -81t88 -28q58 0 98 24t59.5 59t19.5 68zM140 660q0 36 36 36t36 -36q0 -35 -36 -35t-36 35zM309 660q0 36 36 36t36 -36q0 -35 -36 -35t-36 35z" />
    <glyph glyph-name="aring" unicode="&#xe5;" horiz-adv-x="525" 
d="M46 133q0 65 32 102t95.5 52.5t164.5 15.5q36 0 55 -1v33q0 138 -141 138q-46 0 -83 -11.5t-73 -33.5l-18 34q75 51 176 51q96 0 142.5 -46.5t46.5 -141.5v-216q0 -47 6 -109h-46q-4 35 -6 83h-2q-26 -47 -73.5 -72.5t-115.5 -25.5q-75 0 -117.5 38.5t-42.5 109.5z
M393 177v88l-50 1q-88 0 -141 -11.5t-79 -40t-26 -79.5q0 -53 31 -81t88 -28q58 0 98 24t59.5 59t19.5 68zM361 675q0 -41 -27.5 -68.5t-72.5 -27.5t-72.5 27.5t-27.5 68.5q0 42 28 68.5t72 26.5t72 -26.5t28 -68.5zM324 675q0 29 -17 47t-46 18q-30 0 -47 -17.5t-17 -47.5
q0 -29 17.5 -47t46.5 -18t46 18t17 47z" />
    <glyph glyph-name="ae" unicode="&#xe6;" horiz-adv-x="857" 
d="M801 234h-375q3 -91 50 -149t130 -58q43 0 78.5 13.5t73.5 39.5l23 -33q-84 -61 -177 -61q-71 0 -122.5 36t-76.5 98q-24 -67 -73.5 -101t-112.5 -34q-81 0 -127 38.5t-46 109.5q0 95 68.5 132.5t211.5 37.5q33 0 51 -1v33q0 138 -126 138q-45 0 -81.5 -11.5t-73.5 -33.5
l-18 34q77 51 175 51q66 0 105.5 -29.5t54.5 -92.5q25 59 73.5 90.5t109.5 31.5q98 0 152 -70.5t54 -182.5q0 -17 -1 -26zM754 273q-1 91 -43 146t-116 55q-78 0 -122.5 -57.5t-46.5 -143.5h328zM377 265l-46 1q-82 0 -132.5 -11.5t-76 -40t-25.5 -79.5q0 -53 33 -81t93 -28
q50 0 85 24t52 59t17 68v88z" />
    <glyph glyph-name="ccedilla" unicode="&#xe7;" horiz-adv-x="497" 
d="M300 -14l-23 -62q15 4 35 4q37 0 59 -19.5t22 -54.5q0 -42 -30.5 -64t-78.5 -22q-51 0 -92 23l14 28q19 -9 36.5 -13.5t41.5 -4.5q33 0 51 14t18 39q0 22 -13.5 34t-38.5 12q-19 0 -44 -7h-30l37 94q-103 9 -156 82.5t-53 180.5q0 120 63 191.5t177 71.5q47 0 90 -14
t74 -40l-22 -34q-58 46 -142 46q-93 0 -141.5 -60.5t-48.5 -160.5q0 -98 48.5 -160t140.5 -62q75 0 143 47l20 -34q-68 -52 -157 -55z" />
    <glyph glyph-name="egrave" unicode="&#xe8;" horiz-adv-x="553" 
d="M498 234h-393q3 -92 51 -149.5t136 -57.5q49 0 87 13.5t76 39.5l23 -33q-41 -30 -86.5 -45.5t-101.5 -15.5q-112 0 -173.5 73.5t-61.5 193.5q0 77 27 135.5t78 91.5t122 33q106 0 161.5 -69t55.5 -185q0 -16 -1 -25zM451 273q-2 93 -45 147t-125 54t-128 -57.5
t-48 -143.5h346zM213 736l150 -123l-21 -27l-155 112z" />
    <glyph glyph-name="eacute" unicode="&#xe9;" horiz-adv-x="553" 
d="M498 234h-393q3 -92 51 -149.5t136 -57.5q49 0 87 13.5t76 39.5l23 -33q-41 -30 -86.5 -45.5t-101.5 -15.5q-112 0 -173.5 73.5t-61.5 193.5q0 77 27 135.5t78 91.5t122 33q106 0 161.5 -69t55.5 -185q0 -16 -1 -25zM451 273q-2 93 -45 147t-125 54t-128 -57.5
t-48 -143.5h346zM231 586l-21 27l150 123l26 -38z" />
    <glyph glyph-name="ecircumflex" unicode="&#xea;" horiz-adv-x="553" 
d="M498 234h-393q3 -92 51 -149.5t136 -57.5q49 0 87 13.5t76 39.5l23 -33q-41 -30 -86.5 -45.5t-101.5 -15.5q-112 0 -173.5 73.5t-61.5 193.5q0 77 27 135.5t78 91.5t122 33q106 0 161.5 -69t55.5 -185q0 -16 -1 -25zM451 273q-2 93 -45 147t-125 54t-128 -57.5
t-48 -143.5h346zM430 609l-21 -23l-123 106l-123 -106l-22 23l124 118h42z" />
    <glyph glyph-name="edieresis" unicode="&#xeb;" horiz-adv-x="553" 
d="M498 234h-393q3 -92 51 -149.5t136 -57.5q49 0 87 13.5t76 39.5l23 -33q-41 -30 -86.5 -45.5t-101.5 -15.5q-112 0 -173.5 73.5t-61.5 193.5q0 77 27 135.5t78 91.5t122 33q106 0 161.5 -69t55.5 -185q0 -16 -1 -25zM451 273q-2 93 -45 147t-125 54t-128 -57.5
t-48 -143.5h346zM166 660q0 36 36 36t36 -36q0 -35 -36 -35t-36 35zM335 660q0 36 36 36t36 -36q0 -35 -36 -35t-36 35z" />
    <glyph glyph-name="igrave" unicode="&#xec;" horiz-adv-x="238" 
d="M144 0h-50v499h50v-499zM47 736l150 -123l-21 -27l-155 112z" />
    <glyph glyph-name="iacute" unicode="&#xed;" horiz-adv-x="238" 
d="M144 0h-50v499h50v-499zM64 586l-21 27l150 123l26 -38z" />
    <glyph glyph-name="icircumflex" unicode="&#xee;" horiz-adv-x="238" 
d="M144 0h-50v499h50v-499zM263 609l-21 -23l-123 106l-123 -106l-22 23l124 118h42z" />
    <glyph glyph-name="idieresis" unicode="&#xef;" horiz-adv-x="238" 
d="M144 0h-50v499h50v-499zM-1 660q0 36 36 36t36 -36q0 -35 -36 -35t-36 35zM168 660q0 36 36 36t36 -36q0 -35 -36 -35t-36 35z" />
    <glyph glyph-name="eth" unicode="&#xf0;" horiz-adv-x="614" 
d="M553 319q0 -149 -62 -241t-189 -92q-115 0 -181 67t-66 181q0 78 30 136t84 89.5t125 31.5q68 0 118 -28t89 -83q-14 166 -162 255l-101 -53l-16 29l81 43q-31 15 -93 35l19 34q70 -23 116 -47l91 47l17 -29l-73 -38q173 -107 173 -337zM502 324q-40 61 -89.5 94
t-115.5 33q-88 0 -139 -58t-51 -161q0 -95 51.5 -149t142.5 -54q104 0 152 78.5t49 216.5z" />
    <glyph glyph-name="ntilde" unicode="&#xf1;" horiz-adv-x="598" 
d="M93 391q0 48 -6 108h47q6 -52 6 -93h2q24 49 70.5 78t114.5 29q94 0 140 -55.5t46 -140.5v-317h-50v308q0 70 -35 116.5t-111 46.5q-52 0 -91.5 -23.5t-61 -64t-21.5 -89.5v-294h-50v391zM165 607q34 70 87 70q16 0 30.5 -7t33.5 -20q15 -11 25.5 -16t20.5 -5
q17 0 31 10.5t29 35.5l28 -12q-17 -36 -38.5 -53t-48.5 -17q-15 0 -27 5.5t-35 20.5q-3 2 -13 8.5t-19 10t-16 3.5q-17 0 -31 -10.5t-29 -35.5z" />
    <glyph glyph-name="ograve" unicode="&#xf2;" horiz-adv-x="595" 
d="M540 251q0 -78 -28.5 -138t-83 -93.5t-131.5 -33.5q-76 0 -130.5 33.5t-83 93.5t-28.5 138q0 120 63.5 191.5t178.5 71.5t179 -71.5t64 -191.5zM106 251q0 -100 48.5 -162t141.5 -62q95 0 144 61.5t49 162.5q0 100 -49 161t-144 61q-94 0 -142 -61t-48 -161zM225 736
l150 -123l-21 -27l-155 112z" />
    <glyph glyph-name="oacute" unicode="&#xf3;" horiz-adv-x="595" 
d="M540 251q0 -78 -28.5 -138t-83 -93.5t-131.5 -33.5q-76 0 -130.5 33.5t-83 93.5t-28.5 138q0 120 63.5 191.5t178.5 71.5t179 -71.5t64 -191.5zM106 251q0 -100 48.5 -162t141.5 -62q95 0 144 61.5t49 162.5q0 100 -49 161t-144 61q-94 0 -142 -61t-48 -161zM243 586
l-21 27l150 123l26 -38z" />
    <glyph glyph-name="ocircumflex" unicode="&#xf4;" horiz-adv-x="595" 
d="M540 251q0 -78 -28.5 -138t-83 -93.5t-131.5 -33.5q-76 0 -130.5 33.5t-83 93.5t-28.5 138q0 120 63.5 191.5t178.5 71.5t179 -71.5t64 -191.5zM106 251q0 -100 48.5 -162t141.5 -62q95 0 144 61.5t49 162.5q0 100 -49 161t-144 61q-94 0 -142 -61t-48 -161zM441 609
l-21 -23l-123 106l-123 -106l-22 23l124 118h42z" />
    <glyph glyph-name="otilde" unicode="&#xf5;" horiz-adv-x="595" 
d="M540 251q0 -78 -28.5 -138t-83 -93.5t-131.5 -33.5q-76 0 -130.5 33.5t-83 93.5t-28.5 138q0 120 63.5 191.5t178.5 71.5t179 -71.5t64 -191.5zM106 251q0 -100 48.5 -162t141.5 -62q95 0 144 61.5t49 162.5q0 100 -49 161t-144 61q-94 0 -142 -61t-48 -161zM155 607
q34 70 87 70q16 0 30.5 -7t33.5 -20q15 -11 25.5 -16t20.5 -5q17 0 31 10.5t29 35.5l28 -12q-17 -36 -38.5 -53t-48.5 -17q-15 0 -27 5.5t-35 20.5q-3 2 -13 8.5t-19 10t-16 3.5q-17 0 -31 -10.5t-29 -35.5z" />
    <glyph glyph-name="odieresis" unicode="&#xf6;" horiz-adv-x="595" 
d="M540 251q0 -78 -28.5 -138t-83 -93.5t-131.5 -33.5q-76 0 -130.5 33.5t-83 93.5t-28.5 138q0 120 63.5 191.5t178.5 71.5t179 -71.5t64 -191.5zM106 251q0 -100 48.5 -162t141.5 -62q95 0 144 61.5t49 162.5q0 100 -49 161t-144 61q-94 0 -142 -61t-48 -161zM177 660
q0 36 36 36t36 -36q0 -35 -36 -35t-36 35zM346 660q0 36 36 36t36 -36q0 -35 -36 -35t-36 35z" />
    <glyph glyph-name="divide" unicode="&#xf7;" 
d="M505 272h-400v41h400v-41zM268 80q0 37 37 37t37 -37t-37 -37t-37 37zM268 490q0 37 37 37t37 -37t-37 -37t-37 37z" />
    <glyph glyph-name="oslash" unicode="&#xf8;" horiz-adv-x="595" 
d="M540 251q0 -78 -28.5 -138t-83 -93.5t-131.5 -33.5q-24 0 -45 3l-17 -72l-44 9l20 73q-75 25 -115.5 92t-40.5 160q0 120 63.5 191.5t178.5 71.5q25 0 46 -3l18 71l44 -9l-20 -72q75 -24 115 -90t40 -160zM224 38l112 433q-18 3 -39 3q-95 0 -143 -61t-48 -162
q0 -80 30 -136t88 -77zM490 251q0 79 -30 134.5t-89 76.5l-112 -433q18 -3 38 -3q95 0 144 62t49 163z" />
    <glyph glyph-name="ugrave" unicode="&#xf9;" horiz-adv-x="598" 
d="M85 195v304h50v-298q0 -77 35.5 -126t108.5 -49q53 0 93 28.5t61.5 76.5t21.5 106v262h50v-390q0 -47 6 -109h-47q-6 54 -6 108h-2q-25 -59 -72 -91t-114 -32q-93 0 -139 58t-46 152zM230 736l150 -123l-21 -27l-155 112z" />
    <glyph glyph-name="uacute" unicode="&#xfa;" horiz-adv-x="598" 
d="M85 195v304h50v-298q0 -77 35.5 -126t108.5 -49q53 0 93 28.5t61.5 76.5t21.5 106v262h50v-390q0 -47 6 -109h-47q-6 54 -6 108h-2q-25 -59 -72 -91t-114 -32q-93 0 -139 58t-46 152zM248 586l-21 27l150 123l26 -38z" />
    <glyph glyph-name="ucircumflex" unicode="&#xfb;" horiz-adv-x="598" 
d="M85 195v304h50v-298q0 -77 35.5 -126t108.5 -49q53 0 93 28.5t61.5 76.5t21.5 106v262h50v-390q0 -47 6 -109h-47q-6 54 -6 108h-2q-25 -59 -72 -91t-114 -32q-93 0 -139 58t-46 152zM447 609l-21 -23l-123 106l-123 -106l-22 23l124 118h42z" />
    <glyph glyph-name="udieresis" unicode="&#xfc;" horiz-adv-x="598" 
d="M85 195v304h50v-298q0 -77 35.5 -126t108.5 -49q53 0 93 28.5t61.5 76.5t21.5 106v262h50v-390q0 -47 6 -109h-47q-6 54 -6 108h-2q-25 -59 -72 -91t-114 -32q-93 0 -139 58t-46 152zM183 660q0 36 36 36t36 -36q0 -35 -36 -35t-36 35zM352 660q0 36 36 36t36 -36
q0 -35 -36 -35t-36 35z" />
    <glyph glyph-name="yacute" unicode="&#xfd;" horiz-adv-x="450" 
d="M206 -142q-21 -61 -53 -88.5t-83 -27.5q-31 0 -55 9l10 38q18 -5 40 -5q38 0 60 22t37 65l43 126l-195 502h53l168 -445h1l156 445h52zM171 586l-21 27l150 123l26 -38z" />
    <glyph glyph-name="thorn" unicode="&#xfe;" horiz-adv-x="611" 
d="M556 249q0 -75 -27.5 -135t-79.5 -94t-124 -34q-59 0 -102.5 21t-78.5 60v-311h-50v952h51v-305h2q23 52 72 81t115 29q71 0 121 -34.5t75.5 -94t25.5 -135.5zM505 249q0 99 -46.5 161.5t-131.5 62.5q-55 0 -96.5 -26t-64 -70t-22.5 -96v-164q38 -47 78.5 -68.5
t94.5 -21.5q90 0 139 62t49 160z" />
    <glyph glyph-name="ydieresis" unicode="&#xff;" horiz-adv-x="450" 
d="M206 -142q-21 -61 -53 -88.5t-83 -27.5q-31 0 -55 9l10 38q18 -5 40 -5q38 0 60 22t37 65l43 126l-195 502h53l168 -445h1l156 445h52zM105 660q0 36 36 36t36 -36q0 -35 -36 -35t-36 35zM274 660q0 36 36 36t36 -36q0 -35 -36 -35t-36 35z" />
    <glyph glyph-name="Amacron" unicode="&#x100;" horiz-adv-x="649" 
d="M508 189h-370l-74 -189h-54l285 708h58l285 -708h-56zM155 230h337l-168 433zM451 814h-251v36h251v-36z" />
    <glyph glyph-name="amacron" unicode="&#x101;" horiz-adv-x="525" 
d="M46 133q0 65 32 102t95.5 52.5t164.5 15.5q36 0 55 -1v33q0 138 -141 138q-46 0 -83 -11.5t-73 -33.5l-18 34q75 51 176 51q96 0 142.5 -46.5t46.5 -141.5v-216q0 -47 6 -109h-46q-4 35 -6 83h-2q-26 -47 -73.5 -72.5t-115.5 -25.5q-75 0 -117.5 38.5t-42.5 109.5z
M393 177v88l-50 1q-88 0 -141 -11.5t-79 -40t-26 -79.5q0 -53 31 -81t88 -28q58 0 98 24t59.5 59t19.5 68zM386 617h-251v36h251v-36z" />
    <glyph glyph-name="Abreve" unicode="&#x102;" horiz-adv-x="649" 
d="M508 189h-370l-74 -189h-54l285 708h58l285 -708h-56zM155 230h337l-168 433zM457 887q-11 -52 -45 -80.5t-87 -28.5t-87 28.5t-45 80.5l33 4q11 -37 36 -56t63 -19t63 19t36 56z" />
    <glyph glyph-name="abreve" unicode="&#x103;" horiz-adv-x="525" 
d="M46 133q0 65 32 102t95.5 52.5t164.5 15.5q36 0 55 -1v33q0 138 -141 138q-46 0 -83 -11.5t-73 -33.5l-18 34q75 51 176 51q96 0 142.5 -46.5t46.5 -141.5v-216q0 -47 6 -109h-46q-4 35 -6 83h-2q-26 -47 -73.5 -72.5t-115.5 -25.5q-75 0 -117.5 38.5t-42.5 109.5z
M393 177v88l-50 1q-88 0 -141 -11.5t-79 -40t-26 -79.5q0 -53 31 -81t88 -28q58 0 98 24t59.5 59t19.5 68zM395 705q-11 -62 -45 -93.5t-89 -31.5t-89.5 31.5t-44.5 93.5l33 4q11 -47 36 -68.5t65 -21.5q80 0 100 90z" />
    <glyph glyph-name="Aogonek" unicode="&#x104;" horiz-adv-x="649" 
d="M663 -206q-39 -24 -85 -24q-42 0 -69 23t-27 63q0 76 99 146l-73 187h-370l-74 -189h-54l285 708h58l285 -708h-13q-54 -40 -78 -72t-24 -67q0 -27 15.5 -41t43.5 -14q35 0 69 18zM155 230h337l-168 433z" />
    <glyph glyph-name="aogonek" unicode="&#x105;" horiz-adv-x="525" 
d="M478 -206q-39 -24 -85 -24q-42 0 -69 23t-27 63t27.5 78t77.5 72l-5 77h-2q-26 -47 -73.5 -72.5t-115.5 -25.5q-75 0 -117.5 38.5t-42.5 109.5q0 65 32 102t95.5 52.5t164.5 15.5q36 0 55 -1v33q0 138 -141 138q-46 0 -83 -11.5t-73 -33.5l-18 34q75 51 176 51
q96 0 142.5 -46.5t46.5 -141.5v-216q0 -47 6 -109h-9q-54 -40 -78 -72t-24 -67q0 -27 15.5 -41t43.5 -14q35 0 69 18zM393 265l-50 1q-88 0 -141 -11.5t-79 -40t-26 -79.5q0 -53 31 -81t88 -28q58 0 98 24t59.5 59t19.5 68v88z" />
    <glyph glyph-name="Cacute" unicode="&#x106;" horiz-adv-x="671" 
d="M632 640l-31 -34q-41 35 -91.5 54t-107.5 19q-95 0 -161.5 -41.5t-99.5 -115t-33 -168.5q0 -94 33 -167t99 -114.5t161 -41.5q62 0 117.5 23t97.5 63l31 -34q-46 -46 -110 -72t-137 -26q-110 0 -187.5 46.5t-117.5 130t-40 192.5t40 192.5t117.5 130.5t187.5 47
q137 0 232 -84zM328 784l-18 28l161 103l23 -38z" />
    <glyph glyph-name="cacute" unicode="&#x107;" horiz-adv-x="497" 
d="M295 513q47 0 90 -14t74 -40l-22 -34q-58 46 -142 46q-93 0 -141.5 -60.5t-48.5 -160.5q0 -98 48.5 -160t140.5 -62q75 0 143 47l20 -34q-73 -55 -165 -55q-79 0 -132 35.5t-79 95t-26 133.5q0 120 63 191.5t177 71.5zM238 586l-21 27l150 123l26 -38z" />
    <glyph glyph-name="Ccircumflex" unicode="&#x108;" horiz-adv-x="671" 
d="M632 640l-31 -34q-41 35 -91.5 54t-107.5 19q-95 0 -161.5 -41.5t-99.5 -115t-33 -168.5q0 -94 33 -167t99 -114.5t161 -41.5q62 0 117.5 23t97.5 63l31 -34q-46 -46 -110 -72t-137 -26q-110 0 -187.5 46.5t-117.5 130t-40 192.5t40 192.5t117.5 130.5t187.5 47
q137 0 232 -84zM537 809l-20 -24l-124 87l-124 -87l-20 24l123 97h42z" />
    <glyph glyph-name="ccircumflex" unicode="&#x109;" horiz-adv-x="497" 
d="M295 513q47 0 90 -14t74 -40l-22 -34q-58 46 -142 46q-93 0 -141.5 -60.5t-48.5 -160.5q0 -98 48.5 -160t140.5 -62q75 0 143 47l20 -34q-73 -55 -165 -55q-79 0 -132 35.5t-79 95t-26 133.5q0 120 63 191.5t177 71.5zM437 609l-21 -23l-123 106l-123 -106l-22 23
l124 118h42z" />
    <glyph glyph-name="Cdotaccent" unicode="&#x10a;" horiz-adv-x="671" 
d="M632 640l-31 -34q-41 35 -91.5 54t-107.5 19q-95 0 -161.5 -41.5t-99.5 -115t-33 -168.5q0 -94 33 -167t99 -114.5t161 -41.5q62 0 117.5 23t97.5 63l31 -34q-46 -46 -110 -72t-137 -26q-110 0 -187.5 46.5t-117.5 130t-40 192.5t40 192.5t117.5 130.5t187.5 47
q137 0 232 -84zM354 862q0 37 38 37t38 -37q0 -36 -38 -36t-38 36z" />
    <glyph glyph-name="cdotaccent" unicode="&#x10b;" horiz-adv-x="497" 
d="M295 513q47 0 90 -14t74 -40l-22 -34q-58 46 -142 46q-93 0 -141.5 -60.5t-48.5 -160.5q0 -98 48.5 -160t140.5 -62q75 0 143 47l20 -34q-73 -55 -165 -55q-79 0 -132 35.5t-79 95t-26 133.5q0 120 63 191.5t177 71.5zM255 684q0 37 38 37t38 -37q0 -36 -38 -36t-38 36z
" />
    <glyph glyph-name="Ccaron" unicode="&#x10c;" horiz-adv-x="671" 
d="M632 640l-31 -34q-41 35 -91.5 54t-107.5 19q-95 0 -161.5 -41.5t-99.5 -115t-33 -168.5q0 -94 33 -167t99 -114.5t161 -41.5q62 0 117.5 23t97.5 63l31 -34q-46 -46 -110 -72t-137 -26q-110 0 -187.5 46.5t-117.5 130t-40 192.5t40 192.5t117.5 130.5t187.5 47
q137 0 232 -84zM536 883l-123 -97h-42l-123 97l20 24l124 -87l124 87z" />
    <glyph glyph-name="ccaron" unicode="&#x10d;" horiz-adv-x="497" 
d="M295 513q47 0 90 -14t74 -40l-22 -34q-58 46 -142 46q-93 0 -141.5 -60.5t-48.5 -160.5q0 -98 48.5 -160t140.5 -62q75 0 143 47l20 -34q-73 -55 -165 -55q-79 0 -132 35.5t-79 95t-26 133.5q0 120 63 191.5t177 71.5zM314 588v-1h-43l-123 118l22 23l122 -107l123 107
l22 -23z" />
    <glyph glyph-name="Dcaron" unicode="&#x10e;" horiz-adv-x="725" 
d="M670 354q0 -174 -94 -264t-265 -90h-213v708h212q173 0 266.5 -88.5t93.5 -265.5zM150 665v-622h155q151 0 232 77.5t81 233.5q0 158 -80 234.5t-233 76.5h-155zM477 883l-123 -97h-42l-123 97l20 24l124 -87l124 87z" />
    <glyph glyph-name="dcaron" unicode="&#x10f;" horiz-adv-x="652" 
d="M523 0h-47q-6 54 -6 95h-2q-28 -56 -77 -82.5t-112 -26.5q-107 0 -165.5 73t-58.5 191q0 74 28 134t80.5 94.5t122.5 34.5q61 0 104.5 -21.5t76.5 -60.5v277h50v-599q0 -47 6 -109zM467 212v165q-33 47 -75.5 71t-100.5 24q-56 0 -98 -29t-64.5 -79.5t-22.5 -113.5
q0 -100 48 -161.5t133 -61.5q54 0 95 24.5t63 67t22 93.5zM605 556l-31 7l25 160l45 -11z" />
    <glyph glyph-name="Dcroat" unicode="&#x110;" horiz-adv-x="725" 
d="M670 354q0 -174 -94 -264t-265 -90h-213v335h-83v36h83v337h212q173 0 266.5 -88.5t93.5 -265.5zM618 354q0 158 -80 234.5t-233 76.5h-155v-294h166v-36h-166v-292h155q151 0 232 77.5t81 233.5z" />
    <glyph glyph-name="dcroat" unicode="&#x111;" 
d="M517 597v-488q0 -47 6 -109h-47q-6 54 -6 95h-2q-28 -56 -77 -82.5t-112 -26.5q-107 0 -165.5 73t-58.5 191q0 74 28 134t80.5 94.5t122.5 34.5q61 0 104.5 -21.5t76.5 -60.5v166h-161v36h161v75h50v-75h78v-36h-78zM467 212v165q-33 47 -75.5 71t-100.5 24
q-56 0 -98 -29t-64.5 -79.5t-22.5 -113.5q0 -100 48 -161.5t133 -61.5q54 0 95 24.5t63 67t22 93.5z" />
    <glyph glyph-name="Emacron" unicode="&#x112;" horiz-adv-x="558" 
d="M512 666h-363v-279h320v-41h-320v-303h379v-43h-430v708h414v-42zM446 814h-251v36h251v-36z" />
    <glyph glyph-name="emacron" unicode="&#x113;" horiz-adv-x="553" 
d="M498 234h-393q3 -92 51 -149.5t136 -57.5q49 0 87 13.5t76 39.5l23 -33q-41 -30 -86.5 -45.5t-101.5 -15.5q-112 0 -173.5 73.5t-61.5 193.5q0 77 27 135.5t78 91.5t122 33q106 0 161.5 -69t55.5 -185q0 -16 -1 -25zM451 273q-2 93 -45 147t-125 54t-128 -57.5
t-48 -143.5h346zM411 617h-251v36h251v-36z" />
    <glyph glyph-name="Ebreve" unicode="&#x114;" horiz-adv-x="558" 
d="M512 666h-363v-279h320v-41h-320v-303h379v-43h-430v708h414v-42zM451 887q-11 -52 -45 -80.5t-87 -28.5t-87 28.5t-45 80.5l33 4q11 -37 36 -56t63 -19t63 19t36 56z" />
    <glyph glyph-name="ebreve" unicode="&#x115;" horiz-adv-x="553" 
d="M498 234h-393q3 -92 51 -149.5t136 -57.5q49 0 87 13.5t76 39.5l23 -33q-41 -30 -86.5 -45.5t-101.5 -15.5q-112 0 -173.5 73.5t-61.5 193.5q0 77 27 135.5t78 91.5t122 33q106 0 161.5 -69t55.5 -185q0 -16 -1 -25zM451 273q-2 93 -45 147t-125 54t-128 -57.5
t-48 -143.5h346zM420 705q-11 -62 -45 -93.5t-89 -31.5t-89.5 31.5t-44.5 93.5l33 4q11 -47 36 -68.5t65 -21.5q80 0 100 90z" />
    <glyph glyph-name="Edotaccent" unicode="&#x116;" horiz-adv-x="558" 
d="M512 666h-363v-279h320v-41h-320v-303h379v-43h-430v708h414v-42zM281 862q0 37 38 37t38 -37q0 -36 -38 -36t-38 36z" />
    <glyph glyph-name="edotaccent" unicode="&#x117;" horiz-adv-x="553" 
d="M498 234h-393q3 -92 51 -149.5t136 -57.5q49 0 87 13.5t76 39.5l23 -33q-41 -30 -86.5 -45.5t-101.5 -15.5q-112 0 -173.5 73.5t-61.5 193.5q0 77 27 135.5t78 91.5t122 33q106 0 161.5 -69t55.5 -185q0 -16 -1 -25zM451 273q-2 93 -45 147t-125 54t-128 -57.5
t-48 -143.5h346zM248 684q0 37 38 37t38 -37q0 -36 -38 -36t-38 36z" />
    <glyph glyph-name="Eogonek" unicode="&#x118;" horiz-adv-x="558" 
d="M383 -139q0 -27 15.5 -41t43.5 -14q34 0 69 18l12 -30q-39 -24 -85 -24q-42 0 -69 23t-27 63q0 75 96 144h-340v708h414v-42h-363v-279h320v-41h-320v-303h379v-43h-43q-54 -40 -78 -72t-24 -67z" />
    <glyph glyph-name="eogonek" unicode="&#x119;" horiz-adv-x="553" 
d="M498 234h-393q3 -92 51 -149.5t136 -57.5q49 0 87 13.5t76 39.5l23 -33q-37 -27 -74 -41q-56 -42 -82 -76t-26 -69q0 -27 15.5 -41t43.5 -14q35 0 69 18l12 -30q-39 -24 -85 -24q-42 0 -69 23t-27 63q0 70 86 134q-21 -4 -51 -4q-112 0 -173.5 73.5t-61.5 193.5
q0 77 27 135.5t78 91.5t122 33q106 0 161.5 -69t55.5 -185q0 -16 -1 -25zM451 273q-2 93 -45 147t-125 54t-128 -57.5t-48 -143.5h346z" />
    <glyph glyph-name="Ecaron" unicode="&#x11a;" horiz-adv-x="558" 
d="M512 666h-363v-279h320v-41h-320v-303h379v-43h-430v708h414v-42zM463 883l-123 -97h-42l-123 97l20 24l124 -87l124 87z" />
    <glyph glyph-name="ecaron" unicode="&#x11b;" horiz-adv-x="553" 
d="M498 234h-393q3 -92 51 -149.5t136 -57.5q49 0 87 13.5t76 39.5l23 -33q-41 -30 -86.5 -45.5t-101.5 -15.5q-112 0 -173.5 73.5t-61.5 193.5q0 77 27 135.5t78 91.5t122 33q106 0 161.5 -69t55.5 -185q0 -16 -1 -25zM451 273q-2 93 -45 147t-125 54t-128 -57.5
t-48 -143.5h346zM308 588v-1h-43l-123 118l22 23l122 -107l123 107l22 -23z" />
    <glyph glyph-name="Gcircumflex" unicode="&#x11c;" horiz-adv-x="749" 
d="M55 354q0 109 41.5 192.5t121 130t189.5 46.5q69 0 127.5 -21.5t103.5 -62.5l-30 -34q-41 36 -92 55t-108 19q-96 0 -164 -42t-102.5 -115.5t-34.5 -167.5q0 -149 76 -237.5t221 -88.5q62 0 110.5 13t97.5 37v224h-181v41h229v-293q-61 -31 -119.5 -48t-136.5 -17
q-113 0 -191.5 46.5t-118 129.5t-39.5 193zM547 809l-20 -24l-124 87l-124 -87l-20 24l123 97h42z" />
    <glyph glyph-name="gcircumflex" unicode="&#x11d;" horiz-adv-x="525" 
d="M23 -111q0 45 26.5 79.5t91.5 62.5q-56 20 -56 65q0 26 20.5 45.5t58.5 29.5q-53 15 -83 55.5t-30 106.5q0 82 52.5 130t146.5 48q26 0 44 -3t40 -9h167v-40l-122 7q31 -17 50.5 -52t19.5 -85q0 -83 -52 -128.5t-149 -45.5q-50 0 -83.5 -15.5t-33.5 -40.5q0 -47 99 -47
q143 -1 204.5 -35t61.5 -102q0 -82 -68.5 -127.5t-190.5 -45.5q-106 0 -160 38t-54 109zM401 332q0 65 -39.5 102.5t-112.5 37.5q-71 0 -111 -37.5t-40 -100.5q0 -68 37.5 -104.5t113.5 -36.5q77 0 114.5 36t37.5 103zM446 -89q0 36 -23 58t-80 33t-158 11
q-62 -23 -87.5 -52.5t-25.5 -69.5q0 -109 166 -109q101 0 154.5 33.5t53.5 95.5zM396 609l-21 -23l-123 106l-123 -106l-22 23l124 118h42z" />
    <glyph glyph-name="Gbreve" unicode="&#x11e;" horiz-adv-x="749" 
d="M55 354q0 109 41.5 192.5t121 130t189.5 46.5q69 0 127.5 -21.5t103.5 -62.5l-30 -34q-41 36 -92 55t-108 19q-96 0 -164 -42t-102.5 -115.5t-34.5 -167.5q0 -149 76 -237.5t221 -88.5q62 0 110.5 13t97.5 37v224h-181v41h229v-293q-61 -31 -119.5 -48t-136.5 -17
q-113 0 -191.5 46.5t-118 129.5t-39.5 193zM535 887q-11 -52 -45 -80.5t-87 -28.5t-87 28.5t-45 80.5l33 4q11 -37 36 -56t63 -19t63 19t36 56z" />
    <glyph glyph-name="gbreve" unicode="&#x11f;" horiz-adv-x="525" 
d="M23 -111q0 45 26.5 79.5t91.5 62.5q-56 20 -56 65q0 26 20.5 45.5t58.5 29.5q-53 15 -83 55.5t-30 106.5q0 82 52.5 130t146.5 48q26 0 44 -3t40 -9h167v-40l-122 7q31 -17 50.5 -52t19.5 -85q0 -83 -52 -128.5t-149 -45.5q-50 0 -83.5 -15.5t-33.5 -40.5q0 -47 99 -47
q143 -1 204.5 -35t61.5 -102q0 -82 -68.5 -127.5t-190.5 -45.5q-106 0 -160 38t-54 109zM401 332q0 65 -39.5 102.5t-112.5 37.5q-71 0 -111 -37.5t-40 -100.5q0 -68 37.5 -104.5t113.5 -36.5q77 0 114.5 36t37.5 103zM446 -89q0 36 -23 58t-80 33t-158 11
q-62 -23 -87.5 -52.5t-25.5 -69.5q0 -109 166 -109q101 0 154.5 33.5t53.5 95.5zM386 705q-11 -62 -45 -93.5t-89 -31.5t-89.5 31.5t-44.5 93.5l33 4q11 -47 36 -68.5t65 -21.5q80 0 100 90z" />
    <glyph glyph-name="Gdotaccent" unicode="&#x120;" horiz-adv-x="749" 
d="M55 354q0 109 41.5 192.5t121 130t189.5 46.5q69 0 127.5 -21.5t103.5 -62.5l-30 -34q-41 36 -92 55t-108 19q-96 0 -164 -42t-102.5 -115.5t-34.5 -167.5q0 -149 76 -237.5t221 -88.5q62 0 110.5 13t97.5 37v224h-181v41h229v-293q-61 -31 -119.5 -48t-136.5 -17
q-113 0 -191.5 46.5t-118 129.5t-39.5 193zM365 862q0 37 38 37t38 -37q0 -36 -38 -36t-38 36z" />
    <glyph glyph-name="gdotaccent" unicode="&#x121;" horiz-adv-x="525" 
d="M23 -111q0 45 26.5 79.5t91.5 62.5q-56 20 -56 65q0 26 20.5 45.5t58.5 29.5q-53 15 -83 55.5t-30 106.5q0 82 52.5 130t146.5 48q26 0 44 -3t40 -9h167v-40l-122 7q31 -17 50.5 -52t19.5 -85q0 -83 -52 -128.5t-149 -45.5q-50 0 -83.5 -15.5t-33.5 -40.5q0 -47 99 -47
q143 -1 204.5 -35t61.5 -102q0 -82 -68.5 -127.5t-190.5 -45.5q-106 0 -160 38t-54 109zM401 332q0 65 -39.5 102.5t-112.5 37.5q-71 0 -111 -37.5t-40 -100.5q0 -68 37.5 -104.5t113.5 -36.5q77 0 114.5 36t37.5 103zM446 -89q0 36 -23 58t-80 33t-158 11
q-62 -23 -87.5 -52.5t-25.5 -69.5q0 -109 166 -109q101 0 154.5 33.5t53.5 95.5zM214 684q0 37 38 37t38 -37q0 -36 -38 -36t-38 36z" />
    <glyph glyph-name="Gcommaaccent" unicode="&#x122;" horiz-adv-x="749" 
d="M55 354q0 109 41.5 192.5t121 130t189.5 46.5q69 0 127.5 -21.5t103.5 -62.5l-30 -34q-41 36 -92 55t-108 19q-96 0 -164 -42t-102.5 -115.5t-34.5 -167.5q0 -149 76 -237.5t221 -88.5q62 0 110.5 13t97.5 37v224h-181v41h229v-293q-61 -31 -119.5 -48t-136.5 -17
q-113 0 -191.5 46.5t-118 129.5t-39.5 193zM365 -238q23 35 32 59t11 52q-27 3 -27 28q0 14 8.5 22.5t25.5 8.5q35 0 35 -36q0 -35 -14 -67t-49 -78z" />
    <glyph glyph-name="gcommaaccent" unicode="&#x123;" horiz-adv-x="525" 
d="M23 -111q0 45 26.5 79.5t91.5 62.5q-56 20 -56 65q0 26 20.5 45.5t58.5 29.5q-53 15 -83 55.5t-30 106.5q0 82 52.5 130t146.5 48q26 0 44 -3t40 -9h167v-40l-122 7q31 -17 50.5 -52t19.5 -85q0 -83 -52 -128.5t-149 -45.5q-50 0 -83.5 -15.5t-33.5 -40.5q0 -47 99 -47
q143 -1 204.5 -35t61.5 -102q0 -82 -68.5 -127.5t-190.5 -45.5q-106 0 -160 38t-54 109zM401 332q0 65 -39.5 102.5t-112.5 37.5q-71 0 -111 -37.5t-40 -100.5q0 -68 37.5 -104.5t113.5 -36.5q77 0 114.5 36t37.5 103zM446 -89q0 36 -23 58t-80 33t-158 11
q-62 -23 -87.5 -52.5t-25.5 -69.5q0 -109 166 -109q101 0 154.5 33.5t53.5 95.5zM299 795q-23 -35 -32 -59t-11 -52q27 -3 27 -28q0 -14 -8.5 -22.5t-25.5 -8.5q-35 0 -35 36q0 35 14 67t49 78z" />
    <glyph glyph-name="Hcircumflex" unicode="&#x124;" horiz-adv-x="731" 
d="M633 0h-52v344h-431v-344h-52v708h52v-321h431v321h52v-708zM510 809l-20 -24l-124 87l-124 -87l-20 24l123 97h42z" />
    <glyph glyph-name="hcircumflex" unicode="&#x125;" horiz-adv-x="599" 
d="M94 708h50v-299h2q23 46 69 75t113 29q94 0 140 -55.5t46 -140.5v-317h-50v308q0 70 -35 116.5t-111 46.5q-52 0 -91.5 -23.5t-61 -64t-21.5 -89.5v-294h-50v708zM444 809l-20 -24l-124 87l-124 -87l-20 24l123 97h42z" />
    <glyph glyph-name="Hbar" unicode="&#x126;" horiz-adv-x="731" 
d="M725 553h-92v-553h-52v344h-431v-344h-52v553h-87v36h87v119h52v-119h431v119h52v-119h92v-36zM581 553h-431v-166h431v166z" />
    <glyph glyph-name="hbar" unicode="&#x127;" horiz-adv-x="599" 
d="M514 317v-317h-50v308q0 70 -35 116.5t-111 46.5q-52 0 -91.5 -23.5t-61 -64t-21.5 -89.5v-294h-50v597h-79v36h79v75h50v-75h160v-36h-160v-188h2q23 46 69 75t113 29q94 0 140 -55.5t46 -140.5z" />
    <glyph glyph-name="Itilde" unicode="&#x128;" horiz-adv-x="342" 
d="M196 41h87v-41h-224v41h86v627h-86v40h224v-40h-87v-627zM29 804q34 70 87 70q16 0 30.5 -7t33.5 -20q15 -11 25.5 -16t20.5 -5q17 0 31 10.5t29 35.5l28 -12q-17 -36 -38.5 -53t-48.5 -17q-15 0 -27 5.5t-35 20.5q-3 2 -13 8.5t-19 10t-16 3.5q-17 0 -31 -10.5
t-29 -35.5z" />
    <glyph glyph-name="itilde" unicode="&#x129;" horiz-adv-x="238" 
d="M144 0h-50v499h50v-499zM-23 607q34 70 87 70q16 0 30.5 -7t33.5 -20q15 -11 25.5 -16t20.5 -5q17 0 31 10.5t29 35.5l28 -12q-17 -36 -38.5 -53t-48.5 -17q-15 0 -27 5.5t-35 20.5q-3 2 -13 8.5t-19 10t-16 3.5q-17 0 -31 -10.5t-29 -35.5z" />
    <glyph glyph-name="Imacron" unicode="&#x12a;" horiz-adv-x="342" 
d="M196 41h87v-41h-224v41h86v627h-86v40h224v-40h-87v-627zM298 814h-251v36h251v-36z" />
    <glyph glyph-name="imacron" unicode="&#x12b;" horiz-adv-x="238" 
d="M144 0h-50v499h50v-499zM244 617h-251v36h251v-36z" />
    <glyph glyph-name="Ibreve" unicode="&#x12c;" horiz-adv-x="342" 
d="M196 41h87v-41h-224v41h86v627h-86v40h224v-40h-87v-627zM303 887q-11 -52 -45 -80.5t-87 -28.5t-87 28.5t-45 80.5l33 4q11 -37 36 -56t63 -19t63 19t36 56z" />
    <glyph glyph-name="ibreve" unicode="&#x12d;" horiz-adv-x="238" 
d="M144 0h-50v499h50v-499zM254 705q-11 -62 -45 -93.5t-89 -31.5t-89.5 31.5t-44.5 93.5l33 4q11 -47 36 -68.5t65 -21.5q80 0 100 90z" />
    <glyph glyph-name="Iogonek" unicode="&#x12e;" horiz-adv-x="342" 
d="M196 668v-627h87v-41h-93q-54 -40 -78 -72t-24 -67q0 -27 15.5 -41t43.5 -14q35 0 69 18l12 -30q-39 -24 -85 -24q-42 0 -69 23t-27 63q0 75 96 144h-84v41h86v627h-86v40h224v-40h-87z" />
    <glyph glyph-name="iogonek" unicode="&#x12f;" horiz-adv-x="238" 
d="M81 684q0 37 38 37t38 -37q0 -36 -38 -36t-38 36zM173 -206q-39 -24 -85 -24q-42 0 -69 23t-27 63q0 39 26.5 76.5t75.5 71.5v495h50v-499h-9q-54 -40 -78 -72t-24 -67q0 -27 15.5 -41t43.5 -14q35 0 69 18z" />
    <glyph glyph-name="Idotaccent" unicode="&#x130;" horiz-adv-x="342" 
d="M196 41h87v-41h-224v41h86v627h-86v40h224v-40h-87v-627zM133 862q0 37 38 37t38 -37q0 -36 -38 -36t-38 36z" />
    <glyph glyph-name="dotlessi" unicode="&#x131;" horiz-adv-x="238" 
d="M144 0h-50v499h50v-499z" />
    <glyph glyph-name="IJ" unicode="&#x132;" horiz-adv-x="752" 
d="M196 41h87v-41h-224v41h86v627h-86v40h224v-40h-87v-627zM350 16l20 38q21 -12 48 -18.5t52 -6.5q73 0 107.5 45t34.5 120v514h52v-514q0 -93 -47 -151t-144 -58q-67 0 -123 31z" />
    <glyph glyph-name="ij" unicode="&#x133;" horiz-adv-x="476" 
d="M81 684q0 37 38 37t38 -37q0 -36 -38 -36t-38 36zM319 684q0 37 38 37t38 -37q0 -36 -38 -36t-38 36zM144 0h-50v499h50v-499zM382 -110q0 -75 -32 -111.5t-97 -36.5q-23 0 -41 5l9 38q14 -2 27 -2q45 0 64.5 25.5t19.5 80.5v610h50v-609z" />
    <glyph glyph-name="Jcircumflex" unicode="&#x134;" horiz-adv-x="411" 
d="M8 16l20 38q21 -12 48 -18.5t52 -6.5q73 0 107.5 45t34.5 120v514h52v-514q0 -93 -47 -151t-144 -58q-67 0 -123 31zM441 809l-20 -24l-124 87l-124 -87l-20 24l123 97h42z" />
    <glyph glyph-name="jcircumflex" unicode="&#x135;" horiz-adv-x="238" 
d="M144 -110q0 -75 -32 -111.5t-97 -36.5q-23 0 -41 5l9 38q14 -2 27 -2q45 0 64.5 25.5t19.5 80.5v610h50v-609zM263 609l-21 -23l-123 106l-123 -106l-22 23l124 118h42z" />
    <glyph glyph-name="Kcommaaccent" unicode="&#x136;" horiz-adv-x="582" 
d="M205 351l-55 -58v-293h-52v708h52v-350l338 350h63l-312 -322l333 -386h-64zM270 -238q23 35 32 59t11 52q-27 3 -27 28q0 14 8.5 22.5t25.5 8.5q35 0 35 -36q0 -35 -14 -67t-49 -78z" />
    <glyph glyph-name="kcommaaccent" unicode="&#x137;" horiz-adv-x="488" 
d="M198 260l-54 -50v-210h-50v708h50v-440l251 231h63l-224 -206l250 -293h-64zM233 -238q23 35 32 59t11 52q-27 3 -27 28q0 14 8.5 22.5t25.5 8.5q35 0 35 -36q0 -35 -14 -67t-49 -78z" />
    <glyph glyph-name="kgreenlandic" unicode="&#x138;" horiz-adv-x="488" 
d="M197 243l-53 -52v-191h-50v499h50v-251l251 251h63l-227 -223l253 -276h-63z" />
    <glyph glyph-name="Lacute" unicode="&#x139;" horiz-adv-x="494" 
d="M150 44h339v-44h-391v708h52v-664zM59 784l-18 28l161 103l23 -38z" />
    <glyph glyph-name="lacute" unicode="&#x13a;" horiz-adv-x="238" 
d="M144 708v-708h-50v708h50zM54 784l-18 28l161 103l23 -38z" />
    <glyph glyph-name="Lcommaaccent" unicode="&#x13b;" horiz-adv-x="494" 
d="M150 44h339v-44h-391v708h52v-664zM245 -238q23 35 32 59t11 52q-27 3 -27 28q0 14 8.5 22.5t25.5 8.5q35 0 35 -36q0 -35 -14 -67t-49 -78z" />
    <glyph glyph-name="lcommaaccent" unicode="&#x13c;" horiz-adv-x="238" 
d="M144 708v-708h-50v708h50zM70 -238q23 35 32 59t11 52q-27 3 -27 28q0 14 8.5 22.5t25.5 8.5q35 0 35 -36q0 -35 -14 -67t-49 -78z" />
    <glyph glyph-name="Lcaron" unicode="&#x13d;" horiz-adv-x="494" 
d="M150 44h339v-44h-391v708h52v-664zM271 556l-31 7l25 160l45 -11z" />
    <glyph glyph-name="lcaron" unicode="&#x13e;" horiz-adv-x="274" 
d="M144 708v-708h-50v708h50zM228 556l-31 7l25 160l45 -11z" />
    <glyph glyph-name="Ldot" unicode="&#x13f;" horiz-adv-x="494" 
d="M150 44h339v-44h-391v708h52v-664zM329 382q0 37 38 37t38 -37q0 -36 -38 -36t-38 36z" />
    <glyph glyph-name="ldot" unicode="&#x140;" horiz-adv-x="250" 
d="M144 708v-708h-50v708h50zM205 340q0 37 38 37t38 -37q0 -36 -38 -36t-38 36z" />
    <glyph glyph-name="Lslash" unicode="&#x141;" horiz-adv-x="494" 
d="M489 44v-44h-391v280l-55 -29l-18 33l73 39v385h52v-357l217 117l18 -33l-235 -127v-264h339z" />
    <glyph glyph-name="lslash" unicode="&#x142;" horiz-adv-x="247" 
d="M149 317v-317h-50v290l-70 -38l-16 33l86 47v376h50v-349l70 38l16 -33z" />
    <glyph glyph-name="Nacute" unicode="&#x143;" horiz-adv-x="774" 
d="M98 708h61l466 -639h2l-1 639h50v-708h-62l-466 639h-2l1 -639h-49v708zM322 784l-18 28l161 103l23 -38z" />
    <glyph glyph-name="nacute" unicode="&#x144;" horiz-adv-x="598" 
d="M93 391q0 48 -6 108h47q6 -52 6 -93h2q24 49 70.5 78t114.5 29q94 0 140 -55.5t46 -140.5v-317h-50v308q0 70 -35 116.5t-111 46.5q-52 0 -91.5 -23.5t-61 -64t-21.5 -89.5v-294h-50v391zM253 586l-21 27l150 123l26 -38z" />
    <glyph glyph-name="Ncommaaccent" unicode="&#x145;" horiz-adv-x="774" 
d="M98 708h61l466 -639h2l-1 639h50v-708h-62l-466 639h-2l1 -639h-49v708zM338 -238q23 35 32 59t11 52q-27 3 -27 28q0 14 8.5 22.5t25.5 8.5q35 0 35 -36q0 -35 -14 -67t-49 -78z" />
    <glyph glyph-name="ncommaaccent" unicode="&#x146;" horiz-adv-x="598" 
d="M93 391q0 48 -6 108h47q6 -52 6 -93h2q24 49 70.5 78t114.5 29q94 0 140 -55.5t46 -140.5v-317h-50v308q0 70 -35 116.5t-111 46.5q-52 0 -91.5 -23.5t-61 -64t-21.5 -89.5v-294h-50v391zM250 -238q23 35 32 59t11 52q-27 3 -27 28q0 14 8.5 22.5t25.5 8.5q35 0 35 -36
q0 -35 -14 -67t-49 -78z" />
    <glyph glyph-name="Ncaron" unicode="&#x147;" horiz-adv-x="774" 
d="M98 708h61l466 -639h2l-1 639h50v-708h-62l-466 639h-2l1 -639h-49v708zM531 883l-123 -97h-42l-123 97l20 24l124 -87l124 87z" />
    <glyph glyph-name="ncaron" unicode="&#x148;" horiz-adv-x="598" 
d="M93 391q0 48 -6 108h47q6 -52 6 -93h2q24 49 70.5 78t114.5 29q94 0 140 -55.5t46 -140.5v-317h-50v308q0 70 -35 116.5t-111 46.5q-52 0 -91.5 -23.5t-61 -64t-21.5 -89.5v-294h-50v391zM329 588v-1h-43l-123 118l22 23l122 -107l123 107l22 -23z" />
    <glyph glyph-name="napostrophe" unicode="&#x149;" horiz-adv-x="598" 
d="M93 391q0 48 -6 108h47q6 -52 6 -93h2q24 49 70.5 78t114.5 29q94 0 140 -55.5t46 -140.5v-317h-50v308q0 70 -35 116.5t-111 46.5q-52 0 -91.5 -23.5t-61 -64t-21.5 -89.5v-294h-50v391zM56 592q22 35 30.5 59t10.5 51q-26 3 -26 29q0 31 34 31q35 0 35 -37
q0 -35 -13.5 -66t-48.5 -78z" />
    <glyph glyph-name="Eng" unicode="&#x14a;" horiz-adv-x="774" 
d="M676 708v-818q0 -148 -129 -148q-24 0 -41 5l8 38q16 -2 28 -2q45 0 64.5 25.5t19.5 80.5v111h-12l-466 639h-2l1 -639h-49v708h61l466 -639h2l-1 639h50z" />
    <glyph glyph-name="eng" unicode="&#x14b;" horiz-adv-x="598" 
d="M513 317v-427q0 -148 -129 -148q-24 0 -41 5l8 38q16 -2 28 -2q45 0 64.5 25.5t19.5 80.5v419q0 70 -35 116.5t-111 46.5q-52 0 -91.5 -23.5t-61 -64t-21.5 -89.5v-294h-50v391q0 48 -6 108h47q6 -52 6 -93h2q24 49 70.5 78t114.5 29q94 0 140 -55.5t46 -140.5z" />
    <glyph glyph-name="Omacron" unicode="&#x14c;" horiz-adv-x="809" 
d="M55 354q0 109 41 192.5t119.5 130t188.5 46.5t188.5 -46.5t119.5 -130t41 -192.5t-41 -192.5t-119.5 -130t-188.5 -46.5t-188.5 46.5t-119.5 130t-41 192.5zM701 354q0 96 -34 169t-101 114.5t-162 41.5t-161.5 -41.5t-100.5 -114.5t-34 -169t34 -169t100.5 -114.5
t161.5 -41.5t162 41.5t101 114.5t34 169zM531 814h-251v36h251v-36z" />
    <glyph glyph-name="omacron" unicode="&#x14d;" horiz-adv-x="595" 
d="M540 251q0 -78 -28.5 -138t-83 -93.5t-131.5 -33.5q-76 0 -130.5 33.5t-83 93.5t-28.5 138q0 120 63.5 191.5t178.5 71.5t179 -71.5t64 -191.5zM106 251q0 -100 48.5 -162t141.5 -62q95 0 144 61.5t49 162.5q0 100 -49 161t-144 61q-94 0 -142 -61t-48 -161zM423 617
h-251v36h251v-36z" />
    <glyph glyph-name="Obreve" unicode="&#x14e;" horiz-adv-x="809" 
d="M55 354q0 109 41 192.5t119.5 130t188.5 46.5t188.5 -46.5t119.5 -130t41 -192.5t-41 -192.5t-119.5 -130t-188.5 -46.5t-188.5 46.5t-119.5 130t-41 192.5zM701 354q0 96 -34 169t-101 114.5t-162 41.5t-161.5 -41.5t-100.5 -114.5t-34 -169t34 -169t100.5 -114.5
t161.5 -41.5t162 41.5t101 114.5t34 169zM536 887q-11 -52 -45 -80.5t-87 -28.5t-87 28.5t-45 80.5l33 4q11 -37 36 -56t63 -19t63 19t36 56z" />
    <glyph glyph-name="obreve" unicode="&#x14f;" horiz-adv-x="595" 
d="M540 251q0 -78 -28.5 -138t-83 -93.5t-131.5 -33.5q-76 0 -130.5 33.5t-83 93.5t-28.5 138q0 120 63.5 191.5t178.5 71.5t179 -71.5t64 -191.5zM106 251q0 -100 48.5 -162t141.5 -62q95 0 144 61.5t49 162.5q0 100 -49 161t-144 61q-94 0 -142 -61t-48 -161zM432 705
q-11 -62 -45 -93.5t-89 -31.5t-89.5 31.5t-44.5 93.5l33 4q11 -47 36 -68.5t65 -21.5q80 0 100 90z" />
    <glyph glyph-name="Ohungarumlaut" unicode="&#x150;" horiz-adv-x="809" 
d="M55 354q0 109 41 192.5t119.5 130t188.5 46.5t188.5 -46.5t119.5 -130t41 -192.5t-41 -192.5t-119.5 -130t-188.5 -46.5t-188.5 46.5t-119.5 130t-41 192.5zM701 354q0 96 -34 169t-101 114.5t-162 41.5t-161.5 -41.5t-100.5 -114.5t-34 -169t34 -169t100.5 -114.5
t161.5 -41.5t162 41.5t101 114.5t34 169zM352 776l-26 14l85 152l35 -20zM461 771l-26 16l92 147l35 -22z" />
    <glyph glyph-name="ohungarumlaut" unicode="&#x151;" horiz-adv-x="595" 
d="M540 251q0 -78 -28.5 -138t-83 -93.5t-131.5 -33.5q-76 0 -130.5 33.5t-83 93.5t-28.5 138q0 120 63.5 191.5t178.5 71.5t179 -71.5t64 -191.5zM106 251q0 -100 48.5 -162t141.5 -62q95 0 144 61.5t49 162.5q0 100 -49 161t-144 61q-94 0 -142 -61t-48 -161zM244 579
l-26 14l85 152l35 -20zM353 574l-26 16l92 147l35 -22z" />
    <glyph glyph-name="OE" unicode="&#x152;" horiz-adv-x="1012" 
d="M981 0h-489q-46 -15 -101 -15q-104 0 -179.5 46.5t-116 130t-40.5 192.5t40.5 192.5t116 130t179.5 46.5q55 0 102 -15h472v-42h-401q61 -40 98 -112.5t43 -166.5h216v-41h-215q-1 -103 -39 -181.5t-106 -121.5h420v-43zM391 29q84 0 143 41.5t89.5 115t30.5 168.5
t-30.5 168.5t-89.5 115t-143 41.5q-89 0 -152.5 -41.5t-97 -115t-33.5 -168.5t33.5 -168.5t97 -115t152.5 -41.5z" />
    <glyph glyph-name="oe" unicode="&#x153;" horiz-adv-x="950" 
d="M895 234h-375q3 -91 49 -149t128 -58q44 0 80.5 13.5t74.5 39.5l23 -33q-86 -61 -179 -61q-74 0 -124.5 38t-76.5 108q-25 -69 -77.5 -107.5t-129.5 -38.5q-72 0 -124.5 33.5t-80.5 93.5t-28 138q0 119 62 191t171 72q76 0 128.5 -37.5t78.5 -106.5q25 68 74.5 105.5
t119.5 37.5q98 0 152.5 -69.5t54.5 -184.5q0 -16 -1 -25zM847 273q0 91 -42 146t-117 55q-51 0 -89 -27t-58 -73t-21 -101h327zM472 253q0 99 -49.5 159.5t-135.5 60.5q-88 0 -134.5 -61.5t-46.5 -160.5t47 -161.5t134 -62.5q86 0 135.5 61.5t49.5 164.5z" />
    <glyph glyph-name="Racute" unicode="&#x154;" 
d="M504 0l-179 275h-175v-275h-52v708h221q62 0 114.5 -24t84.5 -73t32 -122q0 -87 -49 -140t-125 -68l187 -281h-59zM317 316q78 0 129.5 45t51.5 128q0 88 -52.5 132.5t-128.5 44.5h-167v-350h167zM230 784l-18 28l161 103l23 -38z" />
    <glyph glyph-name="racute" unicode="&#x155;" horiz-adv-x="339" 
d="M93 391q0 48 -6 108h47q6 -54 6 -96h2q42 110 165 110q15 0 25 -2l-2 -42q-10 1 -27 1q-77 0 -118.5 -54.5t-41.5 -141.5v-274h-50v391zM148 586l-21 27l150 123l26 -38z" />
    <glyph glyph-name="Rcommaaccent" unicode="&#x156;" 
d="M504 0l-179 275h-175v-275h-52v708h221q62 0 114.5 -24t84.5 -73t32 -122q0 -87 -49 -140t-125 -68l187 -281h-59zM317 316q78 0 129.5 45t51.5 128q0 88 -52.5 132.5t-128.5 44.5h-167v-350h167zM268 -238q23 35 32 59t11 52q-27 3 -27 28q0 14 8.5 22.5t25.5 8.5
q35 0 35 -36q0 -35 -14 -67t-49 -78z" />
    <glyph glyph-name="rcommaaccent" unicode="&#x157;" horiz-adv-x="339" 
d="M93 391q0 48 -6 108h47q6 -54 6 -96h2q42 110 165 110q15 0 25 -2l-2 -42q-10 1 -27 1q-77 0 -118.5 -54.5t-41.5 -141.5v-274h-50v391zM69 -238q23 35 32 59t11 52q-27 3 -27 28q0 14 8.5 22.5t25.5 8.5q35 0 35 -36q0 -35 -14 -67t-49 -78z" />
    <glyph glyph-name="Rcaron" unicode="&#x158;" 
d="M504 0l-179 275h-175v-275h-52v708h221q62 0 114.5 -24t84.5 -73t32 -122q0 -87 -49 -140t-125 -68l187 -281h-59zM317 316q78 0 129.5 45t51.5 128q0 88 -52.5 132.5t-128.5 44.5h-167v-350h167zM439 883l-123 -97h-42l-123 97l20 24l124 -87l124 87z" />
    <glyph glyph-name="rcaron" unicode="&#x159;" horiz-adv-x="339" 
d="M93 391q0 48 -6 108h47q6 -54 6 -96h2q42 110 165 110q15 0 25 -2l-2 -42q-10 1 -27 1q-77 0 -118.5 -54.5t-41.5 -141.5v-274h-50v391zM224 588v-1h-43l-123 118l22 23l122 -107l123 107l22 -23z" />
    <glyph glyph-name="Sacute" unicode="&#x15a;" horiz-adv-x="545" 
d="M33 69l27 32q46 -37 95 -54.5t111 -17.5q80 0 131 40.5t51 113.5q0 51 -23 83.5t-63 52.5t-104 37q-103 27 -151 68.5t-48 118.5q0 83 62.5 131.5t161.5 48.5q62 0 111 -16.5t92 -48.5l-25 -34q-39 28 -82 42t-96 14q-78 0 -125.5 -36t-47.5 -100q0 -60 40.5 -90.5
t130.5 -55.5q72 -19 119 -44t73.5 -65.5t26.5 -103.5q0 -64 -30.5 -109t-83.5 -68t-119 -23q-137 0 -234 84zM223 784l-18 28l161 103l23 -38z" />
    <glyph glyph-name="sacute" unicode="&#x15b;" horiz-adv-x="427" 
d="M370 461l-23 -32q-57 45 -135 45q-55 0 -87 -23t-32 -64q0 -42 29.5 -64.5t106.5 -40.5q80 -19 116.5 -54t36.5 -94q0 -68 -50 -108t-127 -40q-55 0 -98 15t-79 44l24 31q36 -26 70.5 -38t81.5 -12q58 0 92.5 28t34.5 77q0 32 -12 52t-41 34.5t-82 27.5
q-82 19 -117.5 51.5t-35.5 87.5q0 60 46 94.5t122 34.5q95 0 159 -52zM160 586l-21 27l150 123l26 -38z" />
    <glyph glyph-name="Scircumflex" unicode="&#x15c;" horiz-adv-x="545" 
d="M33 69l27 32q46 -37 95 -54.5t111 -17.5q80 0 131 40.5t51 113.5q0 51 -23 83.5t-63 52.5t-104 37q-103 27 -151 68.5t-48 118.5q0 83 62.5 131.5t161.5 48.5q62 0 111 -16.5t92 -48.5l-25 -34q-39 28 -82 42t-96 14q-78 0 -125.5 -36t-47.5 -100q0 -60 40.5 -90.5
t130.5 -55.5q72 -19 119 -44t73.5 -65.5t26.5 -103.5q0 -64 -30.5 -109t-83.5 -68t-119 -23q-137 0 -234 84zM432 809l-20 -24l-124 87l-124 -87l-20 24l123 97h42z" />
    <glyph glyph-name="scircumflex" unicode="&#x15d;" horiz-adv-x="427" 
d="M370 461l-23 -32q-57 45 -135 45q-55 0 -87 -23t-32 -64q0 -42 29.5 -64.5t106.5 -40.5q80 -19 116.5 -54t36.5 -94q0 -68 -50 -108t-127 -40q-55 0 -98 15t-79 44l24 31q36 -26 70.5 -38t81.5 -12q58 0 92.5 28t34.5 77q0 32 -12 52t-41 34.5t-82 27.5
q-82 19 -117.5 51.5t-35.5 87.5q0 60 46 94.5t122 34.5q95 0 159 -52zM359 609l-21 -23l-123 106l-123 -106l-22 23l124 118h42z" />
    <glyph glyph-name="Scedilla" unicode="&#x15e;" horiz-adv-x="545" 
d="M294 -14l-23 -62q15 4 35 4q37 0 59 -19.5t22 -54.5q0 -42 -30.5 -64t-78.5 -22q-51 0 -92 23l14 28q19 -9 36.5 -13.5t41.5 -4.5q33 0 51 14t18 39q0 22 -13.5 34t-38.5 12q-19 0 -44 -7h-30l36 92q-130 3 -224 84l27 32q46 -37 95 -54.5t111 -17.5q80 0 131 40.5
t51 113.5q0 51 -23 83.5t-63 52.5t-104 37q-103 27 -151 68.5t-48 118.5q0 83 62.5 131.5t161.5 48.5q62 0 111 -16.5t92 -48.5l-25 -34q-39 28 -82 42t-96 14q-78 0 -125.5 -36t-47.5 -100q0 -60 40.5 -90.5t130.5 -55.5q72 -19 119 -44t73.5 -65.5t26.5 -103.5
q0 -88 -57 -140t-149 -59z" />
    <glyph glyph-name="scedilla" unicode="&#x15f;" horiz-adv-x="427" 
d="M221 -14l-23 -62q15 4 35 4q37 0 59 -19.5t22 -54.5q0 -42 -30.5 -64t-78.5 -22q-51 0 -92 23l14 28q19 -9 36.5 -13.5t41.5 -4.5q33 0 51 14t18 39q0 22 -13.5 34t-38.5 12q-19 0 -44 -7h-30l37 94q-89 4 -157 58l24 31q36 -26 70.5 -38t81.5 -12q58 0 92.5 28t34.5 77
q0 32 -12 52t-41 34.5t-82 27.5q-82 19 -117.5 51.5t-35.5 87.5q0 60 46 94.5t122 34.5q95 0 159 -52l-23 -32q-57 45 -135 45q-55 0 -87 -23t-32 -64q0 -42 29.5 -64.5t106.5 -40.5q80 -19 116.5 -54t36.5 -94q0 -64 -45 -103.5t-116 -44.5z" />
    <glyph glyph-name="Scaron" unicode="&#x160;" horiz-adv-x="545" 
d="M33 69l27 32q46 -37 95 -54.5t111 -17.5q80 0 131 40.5t51 113.5q0 51 -23 83.5t-63 52.5t-104 37q-103 27 -151 68.5t-48 118.5q0 83 62.5 131.5t161.5 48.5q62 0 111 -16.5t92 -48.5l-25 -34q-39 28 -82 42t-96 14q-78 0 -125.5 -36t-47.5 -100q0 -60 40.5 -90.5
t130.5 -55.5q72 -19 119 -44t73.5 -65.5t26.5 -103.5q0 -64 -30.5 -109t-83.5 -68t-119 -23q-137 0 -234 84zM432 883l-123 -97h-42l-123 97l20 24l124 -87l124 87z" />
    <glyph glyph-name="scaron" unicode="&#x161;" horiz-adv-x="427" 
d="M370 461l-23 -32q-57 45 -135 45q-55 0 -87 -23t-32 -64q0 -42 29.5 -64.5t106.5 -40.5q80 -19 116.5 -54t36.5 -94q0 -68 -50 -108t-127 -40q-55 0 -98 15t-79 44l24 31q36 -26 70.5 -38t81.5 -12q58 0 92.5 28t34.5 77q0 32 -12 52t-41 34.5t-82 27.5
q-82 19 -117.5 51.5t-35.5 87.5q0 60 46 94.5t122 34.5q95 0 159 -52zM236 588v-1h-43l-123 118l22 23l122 -107l123 107l22 -23z" />
    <glyph glyph-name="uni0162" unicode="&#x162;" horiz-adv-x="528" 
d="M371 -146q0 -42 -30.5 -64t-78.5 -22q-51 0 -92 23l14 28q19 -9 36.5 -13.5t41.5 -4.5q33 0 51 14t18 39q0 22 -13.5 34t-38.5 12q-20 0 -44 -7h-30l42 107h-9v663h-233v45h518v-45h-233v-663h-7l-28 -76q15 4 35 4q37 0 59 -19.5t22 -54.5z" />
    <glyph glyph-name="uni0163" unicode="&#x163;" horiz-adv-x="332" 
d="M321 -146q0 -42 -30.5 -64t-78.5 -22q-51 0 -92 23l14 28q19 -9 36.5 -13.5t41.5 -4.5q33 0 51 14t18 39q0 22 -13.5 34t-38.5 12q-19 0 -44 -7h-30l38 97q-40 11 -62 42t-22 81v347h-94v33l94 6v131l50 18v-149h141v-39h-141v-344q0 -46 21.5 -67.5t59.5 -21.5
q26 0 54 8l8 -37q-31 -12 -70 -12h-4l-23 -62q15 4 35 4q37 0 59 -19.5t22 -54.5z" />
    <glyph glyph-name="Tcaron" unicode="&#x164;" horiz-adv-x="528" 
d="M523 663h-233v-663h-52v663h-233v45h518v-45zM408 883l-123 -97h-42l-123 97l20 24l124 -87l124 87z" />
    <glyph glyph-name="tcaron" unicode="&#x165;" horiz-adv-x="332" 
d="M159 499h141v-39h-141v-344q0 -46 21.5 -67.5t59.5 -21.5q26 0 54 8l8 -37q-31 -12 -70 -12q-57 0 -90 33t-33 94v347h-94v33l94 6v131l50 18v-149zM278 556l-31 7l25 160l45 -11z" />
    <glyph glyph-name="Tbar" unicode="&#x166;" horiz-adv-x="528" 
d="M290 663v-291h125v-36h-125v-336h-52v336h-124v36h124v291h-233v45h518v-45h-233z" />
    <glyph glyph-name="tbar" unicode="&#x167;" horiz-adv-x="332" 
d="M302 -2q-31 -12 -70 -12q-57 0 -90 33t-33 94v179h-94v38h94v130h-94v33l94 6v131l50 18v-149h141v-39h-141v-130h111v-38h-111v-176q0 -46 21.5 -67.5t59.5 -21.5q26 0 54 8z" />
    <glyph glyph-name="Utilde" unicode="&#x168;" horiz-adv-x="732" 
d="M89 253v455h52v-452q0 -111 54 -168.5t171 -57.5t171.5 57.5t54.5 168.5v452h52v-455q0 -129 -69.5 -198.5t-208.5 -69.5t-208 69.5t-69 198.5zM224 804q34 70 87 70q16 0 30.5 -7t33.5 -20q15 -11 25.5 -16t20.5 -5q17 0 31 10.5t29 35.5l28 -12q-17 -36 -38.5 -53
t-48.5 -17q-15 0 -27 5.5t-35 20.5q-3 2 -13 8.5t-19 10t-16 3.5q-17 0 -31 -10.5t-29 -35.5z" />
    <glyph glyph-name="utilde" unicode="&#x169;" horiz-adv-x="598" 
d="M85 195v304h50v-298q0 -77 35.5 -126t108.5 -49q53 0 93 28.5t61.5 76.5t21.5 106v262h50v-390q0 -47 6 -109h-47q-6 54 -6 108h-2q-25 -59 -72 -91t-114 -32q-93 0 -139 58t-46 152zM161 607q34 70 87 70q16 0 30.5 -7t33.5 -20q15 -11 25.5 -16t20.5 -5q17 0 31 10.5
t29 35.5l28 -12q-17 -36 -38.5 -53t-48.5 -17q-15 0 -27 5.5t-35 20.5q-3 2 -13 8.5t-19 10t-16 3.5q-17 0 -31 -10.5t-29 -35.5z" />
    <glyph glyph-name="Umacron" unicode="&#x16a;" horiz-adv-x="732" 
d="M89 253v455h52v-452q0 -111 54 -168.5t171 -57.5t171.5 57.5t54.5 168.5v452h52v-455q0 -129 -69.5 -198.5t-208.5 -69.5t-208 69.5t-69 198.5zM494 814h-251v36h251v-36z" />
    <glyph glyph-name="umacron" unicode="&#x16b;" horiz-adv-x="598" 
d="M85 195v304h50v-298q0 -77 35.5 -126t108.5 -49q53 0 93 28.5t61.5 76.5t21.5 106v262h50v-390q0 -47 6 -109h-47q-6 54 -6 108h-2q-25 -59 -72 -91t-114 -32q-93 0 -139 58t-46 152zM428 617h-251v36h251v-36z" />
    <glyph glyph-name="Ubreve" unicode="&#x16c;" horiz-adv-x="732" 
d="M89 253v455h52v-452q0 -111 54 -168.5t171 -57.5t171.5 57.5t54.5 168.5v452h52v-455q0 -129 -69.5 -198.5t-208.5 -69.5t-208 69.5t-69 198.5zM499 887q-11 -52 -45 -80.5t-87 -28.5t-87 28.5t-45 80.5l33 4q11 -37 36 -56t63 -19t63 19t36 56z" />
    <glyph glyph-name="ubreve" unicode="&#x16d;" horiz-adv-x="598" 
d="M85 195v304h50v-298q0 -77 35.5 -126t108.5 -49q53 0 93 28.5t61.5 76.5t21.5 106v262h50v-390q0 -47 6 -109h-47q-6 54 -6 108h-2q-25 -59 -72 -91t-114 -32q-93 0 -139 58t-46 152zM437 705q-11 -62 -45 -93.5t-89 -31.5t-89.5 31.5t-44.5 93.5l33 4q11 -47 36 -68.5
t65 -21.5q80 0 100 90z" />
    <glyph glyph-name="Uring" unicode="&#x16e;" horiz-adv-x="732" 
d="M89 253v455h52v-452q0 -111 54 -168.5t171 -57.5t171.5 57.5t54.5 168.5v452h52v-455q0 -129 -69.5 -198.5t-208.5 -69.5t-208 69.5t-69 198.5zM467 872q0 -41 -27.5 -68.5t-72.5 -27.5t-72.5 27.5t-27.5 68.5q0 42 28 68.5t72 26.5t72 -26.5t28 -68.5zM430 872
q0 29 -17 47t-46 18q-30 0 -47 -17.5t-17 -47.5q0 -29 17.5 -47t46.5 -18t46 18t17 47z" />
    <glyph glyph-name="uring" unicode="&#x16f;" horiz-adv-x="598" 
d="M85 195v304h50v-298q0 -77 35.5 -126t108.5 -49q53 0 93 28.5t61.5 76.5t21.5 106v262h50v-390q0 -47 6 -109h-47q-6 54 -6 108h-2q-25 -59 -72 -91t-114 -32q-93 0 -139 58t-46 152zM403 675q0 -41 -27.5 -68.5t-72.5 -27.5t-72.5 27.5t-27.5 68.5q0 42 28 68.5t72 26.5
t72 -26.5t28 -68.5zM366 675q0 29 -17 47t-46 18q-30 0 -47 -17.5t-17 -47.5q0 -29 17.5 -47t46.5 -18t46 18t17 47z" />
    <glyph glyph-name="Uhungarumlaut" unicode="&#x170;" horiz-adv-x="732" 
d="M89 253v455h52v-452q0 -111 54 -168.5t171 -57.5t171.5 57.5t54.5 168.5v452h52v-455q0 -129 -69.5 -198.5t-208.5 -69.5t-208 69.5t-69 198.5zM315 776l-26 14l85 152l35 -20zM424 771l-26 16l92 147l35 -22z" />
    <glyph glyph-name="uhungarumlaut" unicode="&#x171;" horiz-adv-x="598" 
d="M85 195v304h50v-298q0 -77 35.5 -126t108.5 -49q53 0 93 28.5t61.5 76.5t21.5 106v262h50v-390q0 -47 6 -109h-47q-6 54 -6 108h-2q-25 -59 -72 -91t-114 -32q-93 0 -139 58t-46 152zM250 579l-26 14l85 152l35 -20zM359 574l-26 16l92 147l35 -22z" />
    <glyph glyph-name="Uogonek" unicode="&#x172;" horiz-adv-x="732" 
d="M644 708v-455q0 -97 -40 -161t-119 -90q-53 -40 -77.5 -73.5t-24.5 -67.5q0 -27 15.5 -41t43.5 -14q34 0 69 18l12 -30q-39 -24 -85 -24q-42 0 -69 23t-27 63q0 68 85 133q-25 -4 -61 -4q-139 0 -208 69.5t-69 198.5v455h52v-452q0 -111 54 -168.5t171 -57.5t171.5 57.5
t54.5 168.5v452h52z" />
    <glyph glyph-name="uogonek" unicode="&#x173;" horiz-adv-x="598" 
d="M541 -206q-39 -24 -85 -24q-42 0 -69 23t-27 63q0 78 103 149q-5 65 -5 103h-2q-25 -59 -72 -91t-114 -32q-93 0 -139 58t-46 152v304h50v-298q0 -77 35.5 -126t108.5 -49q53 0 93 28.5t61.5 76.5t21.5 106v262h50v-390q0 -47 6 -109h-8q-54 -40 -78 -72t-24 -67
q0 -27 15.5 -41t43.5 -14q35 0 69 18z" />
    <glyph glyph-name="Wcircumflex" unicode="&#x174;" horiz-adv-x="962" 
d="M731 0h-59l-193 647h-2l-188 -647h-59l-210 708h53l187 -646h2l187 646h60l191 -646h2l187 646h52zM625 809l-20 -24l-124 87l-124 -87l-20 24l123 97h42z" />
    <glyph glyph-name="wcircumflex" unicode="&#x175;" horiz-adv-x="738" 
d="M572 0h-59l-144 446h-2l-143 -446h-59l-141 499h52l120 -446h2l142 446h58l142 -446h2l121 446h51zM513 609l-21 -23l-123 106l-123 -106l-22 23l124 118h42z" />
    <glyph glyph-name="Ycircumflex" unicode="&#x176;" horiz-adv-x="533" 
d="M292 306v-306h-52v308l-244 400h59l212 -357h2l211 357h58zM411 809l-20 -24l-124 87l-124 -87l-20 24l123 97h42z" />
    <glyph glyph-name="ycircumflex" unicode="&#x177;" horiz-adv-x="450" 
d="M206 -142q-21 -61 -53 -88.5t-83 -27.5q-31 0 -55 9l10 38q18 -5 40 -5q38 0 60 22t37 65l43 126l-195 502h53l168 -445h1l156 445h52zM370 609l-21 -23l-123 106l-123 -106l-22 23l124 118h42z" />
    <glyph glyph-name="Ydieresis" unicode="&#x178;" horiz-adv-x="533" 
d="M292 306v-306h-52v308l-244 400h59l212 -357h2l211 357h58zM148 857q0 36 36 36t36 -36q0 -35 -36 -35t-36 35zM317 857q0 36 36 36t36 -36q0 -35 -36 -35t-36 35z" />
    <glyph glyph-name="Zacute" unicode="&#x179;" horiz-adv-x="585" 
d="M524 661l-427 -617h438v-44h-496v48l427 618h-414v42h472v-47zM228 784l-18 28l161 103l23 -38z" />
    <glyph glyph-name="zacute" unicode="&#x17a;" horiz-adv-x="431" 
d="M382 458l-288 -418h300v-40h-357v42l288 418h-273v39h330v-41zM165 586l-21 27l150 123l26 -38z" />
    <glyph glyph-name="Zdotaccent" unicode="&#x17b;" horiz-adv-x="585" 
d="M524 661l-427 -617h438v-44h-496v48l427 618h-414v42h472v-47zM255 862q0 37 38 37t38 -37q0 -36 -38 -36t-38 36z" />
    <glyph glyph-name="zdotaccent" unicode="&#x17c;" horiz-adv-x="431" 
d="M382 458l-288 -418h300v-40h-357v42l288 418h-273v39h330v-41zM182 684q0 37 38 37t38 -37q0 -36 -38 -36t-38 36z" />
    <glyph glyph-name="Zcaron" unicode="&#x17d;" horiz-adv-x="585" 
d="M524 661l-427 -617h438v-44h-496v48l427 618h-414v42h472v-47zM437 883l-123 -97h-42l-123 97l20 24l124 -87l124 87z" />
    <glyph glyph-name="zcaron" unicode="&#x17e;" horiz-adv-x="431" 
d="M382 458l-288 -418h300v-40h-357v42l288 418h-273v39h330v-41zM241 588v-1h-43l-123 118l22 23l122 -107l123 107l22 -23z" />
    <glyph glyph-name="florin" unicode="&#x192;" 
d="M304 562v-63h131v-37h-131v-572q0 -148 -129 -148q-24 0 -41 5l8 38q16 -2 28 -2q45 0 64.5 25.5t19.5 80.5v573h-94v37h94v64q0 77 39 118t112 41q40 0 77 -10l-11 -36q-30 6 -62 6q-53 -1 -79 -32t-26 -88z" />
    <glyph glyph-name="Scommaaccent" unicode="&#x218;" horiz-adv-x="545" 
d="M33 69l27 32q46 -37 95 -54.5t111 -17.5q80 0 131 40.5t51 113.5q0 51 -23 83.5t-63 52.5t-104 37q-103 27 -151 68.5t-48 118.5q0 83 62.5 131.5t161.5 48.5q62 0 111 -16.5t92 -48.5l-25 -34q-39 28 -82 42t-96 14q-78 0 -125.5 -36t-47.5 -100q0 -60 40.5 -90.5
t130.5 -55.5q72 -19 119 -44t73.5 -65.5t26.5 -103.5q0 -64 -30.5 -109t-83.5 -68t-119 -23q-137 0 -234 84zM231 -238q23 35 32 59t11 52q-27 3 -27 28q0 14 8.5 22.5t25.5 8.5q35 0 35 -36q0 -35 -14 -67t-49 -78z" />
    <glyph glyph-name="scommaaccent" unicode="&#x219;" horiz-adv-x="427" 
d="M370 461l-23 -32q-57 45 -135 45q-55 0 -87 -23t-32 -64q0 -42 29.5 -64.5t106.5 -40.5q80 -19 116.5 -54t36.5 -94q0 -68 -50 -108t-127 -40q-55 0 -98 15t-79 44l24 31q36 -26 70.5 -38t81.5 -12q58 0 92.5 28t34.5 77q0 32 -12 52t-41 34.5t-82 27.5
q-82 19 -117.5 51.5t-35.5 87.5q0 60 46 94.5t122 34.5q95 0 159 -52zM158 -238q23 35 32 59t11 52q-27 3 -27 28q0 14 8.5 22.5t25.5 8.5q35 0 35 -36q0 -35 -14 -67t-49 -78z" />
    <glyph glyph-name="uni021A" unicode="&#x21a;" horiz-adv-x="528" 
d="M523 663h-233v-663h-52v663h-233v45h518v-45zM215 -238q23 35 32 59t11 52q-27 3 -27 28q0 14 8.5 22.5t25.5 8.5q35 0 35 -36q0 -35 -14 -67t-49 -78z" />
    <glyph glyph-name="uni021B" unicode="&#x21b;" horiz-adv-x="332" 
d="M159 499h141v-39h-141v-344q0 -46 21.5 -67.5t59.5 -21.5q26 0 54 8l8 -37q-31 -12 -70 -12q-57 0 -90 33t-33 94v347h-94v33l94 6v131l50 18v-149zM165 -238q23 35 32 59t11 52q-27 3 -27 28q0 14 8.5 22.5t25.5 8.5q35 0 35 -36q0 -35 -14 -67t-49 -78z" />
    <glyph glyph-name="uni0237" unicode="&#x237;" horiz-adv-x="238" 
d="M144 -110q0 -75 -32 -111.5t-97 -36.5q-23 0 -41 5l9 38q14 -2 27 -2q45 0 64.5 25.5t19.5 80.5v610h50v-609z" />
    <glyph glyph-name="circumflex" unicode="&#x2c6;" horiz-adv-x="350" 
d="M319 609l-21 -23l-123 106l-123 -106l-22 23l124 118h42z" />
    <glyph glyph-name="caron" unicode="&#x2c7;" horiz-adv-x="349" 
d="M196 588v-1h-43l-123 118l22 23l122 -107l123 107l22 -23z" />
    <glyph glyph-name="uni02C9" unicode="&#x2c9;" horiz-adv-x="311" 
d="M281 617h-251v36h251v-36z" />
    <glyph glyph-name="breve" unicode="&#x2d8;" horiz-adv-x="327" 
d="M298 705q-11 -62 -45 -93.5t-89 -31.5t-89.5 31.5t-44.5 93.5l33 4q11 -47 36 -68.5t65 -21.5q80 0 100 90z" />
    <glyph glyph-name="dotaccent" unicode="&#x2d9;" horiz-adv-x="136" 
d="M30 684q0 37 38 37t38 -37q0 -36 -38 -36t-38 36z" />
    <glyph glyph-name="ring" unicode="&#x2da;" horiz-adv-x="259" 
d="M230 675q0 -41 -27.5 -68.5t-72.5 -27.5t-72.5 27.5t-27.5 68.5q0 42 28 68.5t72 26.5t72 -26.5t28 -68.5zM193 675q0 29 -17 47t-46 18q-30 0 -47 -17.5t-17 -47.5q0 -29 17.5 -47t46.5 -18t46 18t17 47z" />
    <glyph glyph-name="ogonek" unicode="&#x2db;" horiz-adv-x="241" 
d="M71 -139q0 -27 15.5 -41t43.5 -14q35 0 69 18l12 -30q-39 -24 -85 -24q-42 0 -69 23t-27 63q0 79 108 152l35 -8q-54 -40 -78 -72t-24 -67z" />
    <glyph glyph-name="tilde" unicode="&#x2dc;" horiz-adv-x="345" 
d="M30 607q34 70 87 70q16 0 30.5 -7t33.5 -20q15 -11 25.5 -16t20.5 -5q17 0 31 10.5t29 35.5l28 -12q-17 -36 -38.5 -53t-48.5 -17q-15 0 -27 5.5t-35 20.5q-3 2 -13 8.5t-19 10t-16 3.5q-17 0 -31 -10.5t-29 -35.5z" />
    <glyph glyph-name="hungarumlaut" unicode="&#x2dd;" horiz-adv-x="295" 
d="M56 579l-26 14l85 152l35 -20zM165 574l-26 16l92 147l35 -22z" />
    <glyph glyph-name="uni0312" unicode="&#x312;" horiz-adv-x="0" 
d="M-34 795q-23 -35 -32 -59t-11 -52q27 -3 27 -28q0 -14 -8.5 -22.5t-25.5 -8.5q-35 0 -35 36q0 35 14 67t49 78z" />
    <glyph glyph-name="uni0326" unicode="&#x326;" horiz-adv-x="0" 
d="M-113 -238q23 35 32 59t11 52q-27 3 -27 28q0 14 8.5 22.5t25.5 8.5q35 0 35 -36q0 -35 -14 -67t-49 -78z" />
    <glyph glyph-name="Delta" unicode="&#x394;" horiz-adv-x="649" 
d="M638 0h-628l285 708h58zM566 42l-242 621l-244 -621h486z" />
    <glyph glyph-name="Omega" unicode="&#x3a9;" horiz-adv-x="789" 
d="M734 45v-45h-256v44l-1 1q96 31 149.5 113t53.5 196q0 95 -33.5 168.5t-98 115t-154.5 41.5t-155 -41.5t-98.5 -115t-33.5 -168.5q0 -113 54 -195.5t149 -113.5v-45h-255v45h170q-79 43 -124.5 123t-45.5 188t40.5 191t117 129.5t181.5 46.5t181.5 -46.5t117 -129.5
t40.5 -191t-45.5 -188t-124.5 -123h171z" />
    <glyph glyph-name="mu" unicode="&#x3bc;" horiz-adv-x="604" 
d="M517 0h-47q-6 54 -6 108h-2q-25 -58 -71 -90.5t-109 -32.5q-101 0 -141 85h-2v-203q0 -66 -7 -111h-47q6 62 6 109v634h50v-298q0 -77 35.5 -125.5t108.5 -48.5q53 0 93 28t61.5 76t21.5 106v262h50v-390q0 -47 6 -109z" />
    <glyph glyph-name="pi" unicode="&#x3c0;" horiz-adv-x="569" 
d="M457 122q0 -38 5 -66t15 -56h-49q-10 28 -15.5 55.5t-5.5 67.5v336l-257 -1v-458h-50v458h-92v41h441q49 0 96 14l8 -39q-42 -15 -96 -15v-337z" />
    <glyph glyph-name="Wgrave" unicode="&#x1e80;" horiz-adv-x="962" 
d="M731 0h-59l-193 647h-2l-188 -647h-59l-210 708h53l187 -646h2l187 646h60l191 -646h2l187 646h52zM400 915l161 -103l-17 -28l-167 93z" />
    <glyph glyph-name="wgrave" unicode="&#x1e81;" horiz-adv-x="738" 
d="M572 0h-59l-144 446h-2l-143 -446h-59l-141 499h52l120 -446h2l142 446h58l142 -446h2l121 446h51zM297 736l150 -123l-21 -27l-155 112z" />
    <glyph glyph-name="Wacute" unicode="&#x1e82;" horiz-adv-x="962" 
d="M731 0h-59l-193 647h-2l-188 -647h-59l-210 708h53l187 -646h2l187 646h60l191 -646h2l187 646h52zM415 784l-18 28l161 103l23 -38z" />
    <glyph glyph-name="wacute" unicode="&#x1e83;" horiz-adv-x="738" 
d="M572 0h-59l-144 446h-2l-143 -446h-59l-141 499h52l120 -446h2l142 446h58l142 -446h2l121 446h51zM315 586l-21 27l150 123l26 -38z" />
    <glyph glyph-name="Wdieresis" unicode="&#x1e84;" horiz-adv-x="962" 
d="M731 0h-59l-193 647h-2l-188 -647h-59l-210 708h53l187 -646h2l187 646h60l191 -646h2l187 646h52zM361 857q0 36 36 36t36 -36q0 -35 -36 -35t-36 35zM530 857q0 36 36 36t36 -36q0 -35 -36 -35t-36 35z" />
    <glyph glyph-name="wdieresis" unicode="&#x1e85;" horiz-adv-x="738" 
d="M572 0h-59l-144 446h-2l-143 -446h-59l-141 499h52l120 -446h2l142 446h58l142 -446h2l121 446h51zM249 660q0 36 36 36t36 -36q0 -35 -36 -35t-36 35zM418 660q0 36 36 36t36 -36q0 -35 -36 -35t-36 35z" />
    <glyph glyph-name="uni1E9E" unicode="&#x1e9e;" horiz-adv-x="687" 
d="M83 513q1 103 65 156.5t167 53.5q73 0 133 -26t118 -78l-155 -201q111 -21 171.5 -72.5t60.5 -150.5q0 -102 -63.5 -156t-165.5 -54q-93 0 -167 40l20 37q68 -34 145 -34q81 0 130 42.5t49 124.5q0 86 -56 130t-176 62v32l148 195q-46 33 -91.5 49.5t-98.5 16.5
q-82 0 -132 -41.5t-50 -129.5v-509h-52v513z" />
    <glyph glyph-name="Ygrave" unicode="&#x1ef2;" horiz-adv-x="533" 
d="M292 306v-306h-52v308l-244 400h59l212 -357h2l211 357h58zM187 915l161 -103l-17 -28l-167 93z" />
    <glyph glyph-name="ygrave" unicode="&#x1ef3;" horiz-adv-x="450" 
d="M206 -142q-21 -61 -53 -88.5t-83 -27.5q-31 0 -55 9l10 38q18 -5 40 -5q38 0 60 22t37 65l43 126l-195 502h53l168 -445h1l156 445h52zM153 736l150 -123l-21 -27l-155 112z" />
    <glyph glyph-name="endash" unicode="&#x2013;" 
d="M505 272h-400v41h400v-41z" />
    <glyph glyph-name="emdash" unicode="&#x2014;" horiz-adv-x="591" 
d="M543 272h-496v41h496v-41z" />
    <glyph glyph-name="quoteleft" unicode="&#x2018;" horiz-adv-x="247" 
d="M171 723l18 -16q-33 -38 -47 -67t-16 -65q35 -3 35 -33q0 -14 -9 -23.5t-26 -9.5q-18 0 -28 12t-10 34q0 47 18 85t65 83z" />
    <glyph glyph-name="quoteright" unicode="&#x2019;" horiz-adv-x="212" 
d="M72 512l-18 16q33 38 47 67t16 65q-35 3 -35 33q0 14 9 23.5t26 9.5q18 0 28 -12t10 -34q0 -47 -18 -85t-65 -83z" />
    <glyph glyph-name="quotesinglbase" unicode="&#x201a;" horiz-adv-x="247" 
d="M76 -148l-18 16q33 38 47 67t16 65q-35 3 -35 33q0 14 9 23.5t26 9.5q18 0 28 -12t10 -34q0 -47 -18 -85t-65 -83z" />
    <glyph glyph-name="quotedblleft" unicode="&#x201c;" horiz-adv-x="392" 
d="M317 723l18 -16q-33 -38 -47 -67t-16 -65q35 -3 35 -33q0 -14 -9 -23.5t-26 -9.5q-18 0 -28 12t-10 34q0 47 18 85t65 83zM171 723l18 -16q-33 -38 -47 -67t-16 -65q35 -3 35 -33q0 -14 -9 -23.5t-26 -9.5q-18 0 -28 12t-10 34q0 47 18 85t65 83z" />
    <glyph glyph-name="quotedblright" unicode="&#x201d;" horiz-adv-x="392" 
d="M221 509l-18 16q33 38 47 67t16 65q-35 3 -35 33q0 14 9 23.5t26 9.5q18 0 28 -12t10 -34q0 -47 -18 -85t-65 -83zM76 509l-18 16q33 38 47 67t16 65q-35 3 -35 33q0 14 9 23.5t26 9.5q18 0 28 -12t10 -34q0 -47 -18 -85t-65 -83z" />
    <glyph glyph-name="quotedblbase" unicode="&#x201e;" horiz-adv-x="392" 
d="M76 -148l-18 16q33 38 47 67t16 65q-35 3 -35 33q0 14 9 23.5t26 9.5q18 0 28 -12t10 -34q0 -47 -18 -85t-65 -83zM222 -148l-18 16q33 38 47 67t16 65q-35 3 -35 33q0 14 9 23.5t26 9.5q18 0 28 -12t10 -34q0 -47 -18 -85t-65 -83z" />
    <glyph glyph-name="dagger" unicode="&#x2020;" horiz-adv-x="560" 
d="M483 483h-178v-483h-50v483h-178v41h178v184h50v-184h178v-41z" />
    <glyph glyph-name="daggerdbl" unicode="&#x2021;" horiz-adv-x="560" 
d="M305 483v-177h178v-41h-178v-265h-50v265h-178v41h178v177h-178v41h178v184h50v-184h178v-41h-178z" />
    <glyph glyph-name="bullet" unicode="&#x2022;" horiz-adv-x="313" 
d="M88 324q0 69 69 69q68 0 68 -69q0 -66 -68 -66q-69 0 -69 66z" />
    <glyph glyph-name="ellipsis" unicode="&#x2026;" horiz-adv-x="764" 
d="M343 31q0 38 38 38t38 -38q0 -37 -38 -37t-38 37zM600 31q0 38 38 38t38 -38q0 -37 -38 -37t-38 37zM88 31q0 38 38 38t38 -38q0 -37 -38 -37t-38 37z" />
    <glyph glyph-name="perthousand" unicode="&#x2030;" horiz-adv-x="1830" 
d="M176 512q0 56 24 104t70.5 77t111.5 29q64 0 110.5 -29t70 -77t23.5 -104q0 -55 -23.5 -103t-70 -76.5t-110.5 -28.5q-65 0 -112 28.5t-70.5 76t-23.5 103.5zM912 709l-418 -709h-49l418 709h49zM537 512q0 44 -17 82t-52.5 62t-86.5 24t-86.5 -24t-52.5 -62t-17 -82
q0 -68 40 -117t116 -49t116 49t40 117zM776 197q0 56 24 104t70.5 77t111.5 29q64 0 110.5 -29t70 -77t23.5 -104q0 -55 -23.5 -103t-70 -76.5t-110.5 -28.5q-65 0 -112 28.5t-70.5 76t-23.5 103.5zM1244 197q0 56 24 104t70.5 77t111.5 29q64 0 110.5 -29t70 -77t23.5 -104
q0 -55 -23.5 -103t-70 -76.5t-110.5 -28.5q-65 0 -112 28.5t-70.5 76t-23.5 103.5zM1137 197q0 44 -17 82t-52.5 62t-86.5 24t-86.5 -24t-52.5 -62t-17 -82q0 -68 40 -117t116 -49t116 49t40 117zM1605 197q0 44 -17 82t-52.5 62t-86.5 24t-86.5 -24t-52.5 -62t-17 -82
q0 -68 40 -117t116 -49t116 49t40 117z" />
    <glyph glyph-name="guilsinglleft" unicode="&#x2039;" horiz-adv-x="321" 
d="M127 309l108 -142l-25 -20l-125 150v24l125 151l26 -21z" />
    <glyph glyph-name="guilsinglright" unicode="&#x203a;" horiz-adv-x="321" 
d="M236 321v-24l-125 -150l-25 20l108 142h-1l-108 142l25 21z" />
    <glyph glyph-name="fraction" unicode="&#x2044;" horiz-adv-x="202" 
d="M341 709l-418 -709h-49l418 709h49z" />
    <glyph glyph-name="uni2070" unicode="&#x2070;" horiz-adv-x="540" 
d="M54 449q0 125 55 197.5t161 72.5q108 0 162.5 -72.5t54.5 -197.5q0 -124 -54.5 -196.5t-162.5 -72.5q-106 0 -161 72.5t-55 196.5zM437 449q0 108 -40.5 168.5t-126.5 60.5t-126.5 -61t-40.5 -168t40.5 -167.5t126.5 -60.5t126.5 60.5t40.5 167.5z" />
    <glyph glyph-name="uni2074" unicode="&#x2074;" horiz-adv-x="540" 
d="M471 323h-83v-132h-48v132h-272v38l184 347h52l-181 -343h217v151h48v-151h83v-42z" />
    <glyph glyph-name="uni2075" unicode="&#x2075;" horiz-adv-x="540" 
d="M80 248l28 29q35 -30 70 -43t83 -13q71 0 110 36t39 97q0 56 -34.5 87t-95.5 31q-37 0 -65.5 -7t-58.5 -21h-34v264h311v-41h-264v-180q51 24 121 24q79 0 124.5 -42t45.5 -114q0 -80 -52 -127.5t-148 -47.5q-60 0 -101.5 16.5t-78.5 51.5z" />
    <glyph glyph-name="uni2076" unicode="&#x2076;" horiz-adv-x="540" 
d="M466 365q0 -83 -50.5 -134t-141.5 -51q-101 0 -150.5 64.5t-49.5 173.5q0 140 59 220.5t168 80.5q39 0 67.5 -8.5t56.5 -25.5l-19 -33q-24 14 -48 21t-56 7q-82 0 -127.5 -60t-50.5 -162q31 33 72 51t97 18q78 0 125.5 -44t47.5 -118zM416 364q0 60 -35 92.5t-96 32.5
q-53 0 -92 -21t-70 -59q2 -91 37 -140t114 -49q69 0 105.5 38.5t36.5 105.5z" />
    <glyph glyph-name="uni2077" unicode="&#x2077;" horiz-adv-x="540" 
d="M453 668q-99 -110 -151.5 -227t-64.5 -250h-56q19 135 69.5 251t142.5 223h-306v42h366v-39z" />
    <glyph glyph-name="uni2078" unicode="&#x2078;" horiz-adv-x="540" 
d="M472 323q0 -64 -55.5 -103.5t-147.5 -39.5q-94 0 -147.5 39t-53.5 103q0 54 33 89t100 59q-56 21 -80 48t-24 72q0 58 49 93.5t125 35.5q75 0 124 -34t49 -94q0 -42 -25.5 -72.5t-79.5 -57.5q72 -25 102.5 -55.5t30.5 -82.5zM253 489l45 -15q52 25 75 51t23 63
q0 44 -34 69t-91 25q-56 0 -91 -25t-35 -69q0 -36 24 -58t84 -41zM422 324q0 31 -14.5 51t-42.5 34.5t-80 31.5l-40 14q-66 -21 -96.5 -51.5t-30.5 -76.5q0 -52 40.5 -80t111.5 -28t111.5 28t40.5 77z" />
    <glyph glyph-name="uni2079" unicode="&#x2079;" horiz-adv-x="540" 
d="M466 482q0 -142 -84.5 -221.5t-240.5 -79.5v41q126 0 197 59t78 162q-62 -69 -166 -69q-78 0 -127 44t-49 122q0 79 51.5 129t144.5 50q196 0 196 -237zM417 491q-2 96 -35.5 142t-111.5 46q-71 0 -109 -37.5t-38 -99.5q0 -63 36.5 -97t99.5 -34q52 0 92 21.5t66 58.5z
" />
    <glyph glyph-name="uni207A" unicode="&#x207a;" horiz-adv-x="540" 
d="M420 467h-130v-127h-41v127h-129v39h129v126h41v-126h130v-39z" />
    <glyph glyph-name="uni207B" unicode="&#x207b;" horiz-adv-x="540" 
d="M420 467h-300v39h300v-39z" />
    <glyph glyph-name="uni207C" unicode="&#x207c;" horiz-adv-x="540" 
d="M420 545h-300v39h300v-39zM420 389h-300v39h300v-39z" />
    <glyph glyph-name="uni207D" unicode="&#x207d;" horiz-adv-x="540" 
d="M187 449q0 101 36 184t100 164l31 -20q-56 -78 -86.5 -155.5t-30.5 -172.5q0 -94 30.5 -171.5t86.5 -155.5l-31 -20q-65 83 -100.5 164.5t-35.5 182.5z" />
    <glyph glyph-name="uni207E" unicode="&#x207e;" horiz-adv-x="540" 
d="M187 122q56 78 86.5 155.5t30.5 171.5q0 95 -30.5 172.5t-86.5 155.5l31 20q64 -81 100 -164t36 -184t-35.5 -182.5t-100.5 -164.5z" />
    <glyph glyph-name="uni2080" unicode="&#x2080;" horiz-adv-x="540" 
d="M54 128q0 125 55 197.5t161 72.5q108 0 162.5 -72.5t54.5 -197.5q0 -124 -54.5 -196.5t-162.5 -72.5q-106 0 -161 72.5t-55 196.5zM437 128q0 108 -40.5 168.5t-126.5 60.5t-126.5 -61t-40.5 -168t40.5 -167.5t126.5 -60.5t126.5 60.5t40.5 167.5z" />
    <glyph glyph-name="uni2081" unicode="&#x2081;" horiz-adv-x="540" 
d="M437 -88v-42h-311v41h145v424l-148 -76l-20 36l174 92h43v-475h117z" />
    <glyph glyph-name="uni2082" unicode="&#x2082;" horiz-adv-x="540" 
d="M435 254q0 -52 -23 -95t-78.5 -96t-174.5 -151h294v-42h-359v39q130 110 187.5 164.5t81 93.5t23.5 83q0 47 -32.5 77t-90.5 30q-47 0 -81 -15.5t-67 -47.5l-29 27q39 39 80 58t101 19q80 0 124 -41.5t44 -102.5z" />
    <glyph glyph-name="uni2083" unicode="&#x2083;" horiz-adv-x="540" 
d="M441 265q0 -55 -28.5 -84t-70.5 -38v-1q48 -5 82 -35.5t34 -91.5q0 -71 -51 -113.5t-141 -42.5q-62 0 -104.5 16.5t-80.5 51.5l27 29q35 -30 70.5 -43t87.5 -13q66 0 104 30.5t38 85.5q0 54 -34 79.5t-91 25.5h-83v40h73q54 0 86.5 24.5t32.5 73.5q0 47 -31.5 72.5
t-91.5 25.5q-44 0 -78.5 -11.5t-68.5 -37.5l-25 28q37 32 79 47t97 15q79 0 123.5 -37t44.5 -96z" />
    <glyph glyph-name="uni2084" unicode="&#x2084;" horiz-adv-x="540" 
d="M471 2h-83v-132h-48v132h-272v38l184 347h52l-181 -343h217v151h48v-151h83v-42z" />
    <glyph glyph-name="uni2085" unicode="&#x2085;" horiz-adv-x="540" 
d="M80 -73l28 29q35 -30 70 -43t83 -13q71 0 110 36t39 97q0 56 -34.5 87t-95.5 31q-37 0 -65.5 -7t-58.5 -21h-34v264h311v-41h-264v-180q51 24 121 24q79 0 124.5 -42t45.5 -114q0 -80 -52 -127.5t-148 -47.5q-60 0 -101.5 16.5t-78.5 51.5z" />
    <glyph glyph-name="uni2086" unicode="&#x2086;" horiz-adv-x="540" 
d="M466 44q0 -83 -50.5 -134t-141.5 -51q-101 0 -150.5 64.5t-49.5 173.5q0 140 59 220.5t168 80.5q39 0 67.5 -8.5t56.5 -25.5l-19 -33q-24 14 -48 21t-56 7q-82 0 -127.5 -60t-50.5 -162q31 33 72 51t97 18q78 0 125.5 -44t47.5 -118zM416 43q0 60 -35 92.5t-96 32.5
q-53 0 -92 -21t-70 -59q2 -91 37 -140t114 -49q69 0 105.5 38.5t36.5 105.5z" />
    <glyph glyph-name="uni2087" unicode="&#x2087;" horiz-adv-x="540" 
d="M453 347q-99 -110 -151.5 -227t-64.5 -250h-56q19 135 69.5 251t142.5 223h-306v42h366v-39z" />
    <glyph glyph-name="uni2088" unicode="&#x2088;" horiz-adv-x="540" 
d="M472 2q0 -64 -55.5 -103.5t-147.5 -39.5q-94 0 -147.5 39t-53.5 103q0 54 33 89t100 59q-56 21 -80 48t-24 72q0 58 49 93.5t125 35.5q75 0 124 -34t49 -94q0 -42 -25.5 -72.5t-79.5 -57.5q72 -25 102.5 -55.5t30.5 -82.5zM253 168l45 -15q52 25 75 51t23 63q0 44 -34 69
t-91 25q-56 0 -91 -25t-35 -69q0 -36 24 -58t84 -41zM422 3q0 31 -14.5 51t-42.5 34.5t-80 31.5l-40 14q-66 -21 -96.5 -51.5t-30.5 -76.5q0 -52 40.5 -80t111.5 -28t111.5 28t40.5 77z" />
    <glyph glyph-name="uni2089" unicode="&#x2089;" horiz-adv-x="540" 
d="M466 161q0 -142 -84.5 -221.5t-240.5 -79.5v41q126 0 197 59t78 162q-62 -69 -166 -69q-78 0 -127 44t-49 122q0 79 51.5 129t144.5 50q196 0 196 -237zM417 170q-2 96 -35.5 142t-111.5 46q-71 0 -109 -37.5t-38 -99.5q0 -63 36.5 -97t99.5 -34q52 0 92 21.5t66 58.5z
" />
    <glyph glyph-name="uni208A" unicode="&#x208a;" horiz-adv-x="540" 
d="M420 126h-130v-127h-41v127h-129v39h129v126h41v-126h130v-39z" />
    <glyph glyph-name="uni208B" unicode="&#x208b;" horiz-adv-x="540" 
d="M420 126h-300v39h300v-39z" />
    <glyph glyph-name="uni208C" unicode="&#x208c;" horiz-adv-x="540" 
d="M420 204h-300v39h300v-39zM420 48h-300v39h300v-39z" />
    <glyph glyph-name="uni208D" unicode="&#x208d;" horiz-adv-x="540" 
d="M187 128q0 101 36 184t100 164l31 -20q-56 -78 -86.5 -155.5t-30.5 -172.5q0 -94 30.5 -171.5t86.5 -155.5l-31 -20q-65 83 -100.5 164.5t-35.5 182.5z" />
    <glyph glyph-name="uni208E" unicode="&#x208e;" horiz-adv-x="540" 
d="M187 -199q56 78 86.5 155.5t30.5 171.5q0 95 -30.5 172.5t-86.5 155.5l31 20q64 -81 100 -164t36 -184t-35.5 -182.5t-100.5 -164.5z" />
    <glyph glyph-name="Euro" unicode="&#x20ac;" 
d="M603 82q-42 -46 -99 -71t-121 -25q-124 0 -198 78t-90 217h-90v37h87q-1 12 -1 37q0 17 2 49h-87v37h91q18 131 92.5 207.5t193.5 76.5q121 0 207 -84l-27 -34q-36 35 -82 54t-96 19q-99 0 -160 -64.5t-78 -174.5h326v-37h-330q-2 -32 -2 -49q0 -25 1 -37h301v-37h-298
q15 -118 75.5 -183.5t163.5 -65.5q54 0 103.5 22.5t86.5 61.5z" />
    <glyph glyph-name="uni20B9" unicode="&#x20b9;" 
d="M540 672h-190q78 -35 102 -111h88v-36h-80q2 -22 2 -36q0 -88 -49 -140.5t-126 -67.5l187 -281h-59l-179 275h-167v41h160q78 0 129 44.5t51 129.5q0 13 -2 35h-338v36h329q-19 54 -65 81.5t-105 27.5h-159v38h471v-36z" />
    <glyph glyph-name="uni20BA" unicode="&#x20ba;" 
d="M553 249q0 -82 -32 -136.5t-107.5 -83.5t-203.5 -29h-52v246l-89 -38l-14 35l103 45v87l-89 -38l-14 35l103 45v291h52v-269l237 103l15 -35l-252 -109v-88l237 103l15 -35l-252 -109v-224q114 0 179 23.5t91 68t26 111.5z" />
    <glyph glyph-name="uni20BD" unicode="&#x20bd;" 
d="M164 291v-92h260v-38h-260v-161h-51v161h-64v38h64v92h-64v37h64v380h208q101 0 164.5 -51t63.5 -159q0 -101 -63.5 -154t-161.5 -53h-160zM164 328h157q77 0 126.5 43.5t49.5 126.5q0 87 -50.5 127.5t-128.5 40.5h-154v-338z" />
    <glyph glyph-name="uni2113" unicode="&#x2113;" horiz-adv-x="394" 
d="M286 35l7 -37q-31 -12 -69 -12q-58 0 -91 33t-33 94v125l-59 -47l-14 26q56 43 73 57v296q0 74 37.5 113.5t94.5 39.5q54 0 84.5 -33t30.5 -86q0 -81 -47 -160.5t-150 -169.5v-158q0 -45 21.5 -67t59.5 -22q25 0 55 8zM150 318q81 76 118 144.5t37 141.5q0 40 -19 63
t-53 23q-38 0 -60.5 -28t-22.5 -86v-258z" />
    <glyph glyph-name="uni2117" unicode="&#x2117;" horiz-adv-x="944" 
d="M95 354q0 107 43.5 190.5t128 131t204.5 47.5t205 -47.5t128.5 -131t43.5 -190.5t-43.5 -190.5t-128.5 -131t-205 -47.5t-204.5 47.5t-128 131t-43.5 190.5zM808 354q0 96 -37 171.5t-112.5 118.5t-186.5 43t-186.5 -43t-112.5 -118.5t-37 -171.5t37 -171.5t112.5 -118.5
t186.5 -43t186.5 43t112.5 118.5t37 171.5zM646 430q0 -65 -43 -101.5t-110 -36.5h-108v-147h-41v421h147q71 0 113 -32.5t42 -103.5zM385 531v-204h108q49 0 80.5 26t31.5 77q0 55 -32 78t-82 23h-106z" />
    <glyph glyph-name="uni2120" unicode="&#x2120;" horiz-adv-x="969" 
d="M367 670l-22 -32q-58 40 -129 40q-54 0 -81 -19t-27 -53q0 -33 25.5 -52.5t98.5 -35.5q77 -17 109 -45t32 -76q0 -59 -47 -92.5t-123 -33.5q-51 0 -91.5 12.5t-76.5 38.5l21 32q35 -22 67.5 -32.5t77.5 -10.5q55 0 88 21t33 59q0 26 -9.5 41t-35 25.5t-77.5 23.5
q-78 18 -109 48t-31 74q0 53 40.5 84t113.5 31q43 0 82.5 -12t70.5 -36zM450 708h72l153 -363h2l153 363h72v-425h-48l1 371h-1l-160 -371h-39l-159 371h-1l1 -371h-46v425z" />
    <glyph glyph-name="trademark" unicode="&#x2122;" horiz-adv-x="577" 
d="M116 680h-80v28h193v-28h-80v-188h-33v188zM258 708h50l77 -173h2l76 173h48v-216h-33l1 181h-2l-80 -181h-27l-79 181h-2l1 -181h-32v216z" />
    <glyph glyph-name="uni2126" unicode="&#x2126;" horiz-adv-x="789" 
d="M734 45v-45h-256v44l-1 1q96 31 149.5 113t53.5 196q0 95 -33.5 168.5t-98 115t-154.5 41.5t-155 -41.5t-98.5 -115t-33.5 -168.5q0 -113 54 -195.5t149 -113.5v-45h-255v45h170q-79 43 -124.5 123t-45.5 188t40.5 191t117 129.5t181.5 46.5t181.5 -46.5t117 -129.5
t40.5 -191t-45.5 -188t-124.5 -123h171z" />
    <glyph glyph-name="estimated" unicode="&#x212e;" horiz-adv-x="902" 
d="M210 325v-176q0 -20 7 -28q38 -48 97.5 -73.5t134.5 -25.5q76 0 135 28t114 80h67q-59 -70 -129 -101.5t-184 -31.5q-117 0 -204 45.5t-132.5 122t-45.5 167.5t46.5 172t133 130t200.5 49q138 0 223.5 -51.5t122 -131.5t36.5 -170h-617q-5 0 -5 -5zM682 560
q-43 54 -107.5 76.5t-127.5 22.5q-60 0 -120 -24t-108 -73q-9 -9 -9 -26v-181q0 -5 5 -5h472q5 0 5 5v180q0 13 -10 25z" />
    <glyph glyph-name="partialdiff" unicode="&#x2202;" 
d="M554 319q0 -151 -62 -242t-189 -91q-119 0 -183 69t-64 186q0 118 65 184t174 66q66 0 115.5 -28t89.5 -80q-9 87 -49.5 155.5t-106 107t-146.5 37.5l4 40q99 0 179 -50t126.5 -142t46.5 -212zM502 325q-40 61 -89.5 93.5t-114.5 32.5q-89 0 -139.5 -54.5t-50.5 -157.5
q0 -98 49.5 -154t145.5 -56q106 0 152.5 76.5t46.5 219.5z" />
    <glyph glyph-name="uni2206" unicode="&#x2206;" horiz-adv-x="649" 
d="M638 0h-628l285 708h58zM566 42l-242 621l-244 -621h486z" />
    <glyph glyph-name="product" unicode="&#x220f;" horiz-adv-x="663" 
d="M626 667h-95v-787h-49v787h-301v-787h-49v787h-95v41h589v-41z" />
    <glyph glyph-name="summation" unicode="&#x2211;" 
d="M553 -76v-44h-496v46l247 375l-236 360v47h472v-42h-415l230 -355v-18l-247 -371z" />
    <glyph glyph-name="minus" unicode="&#x2212;" 
d="M505 272h-400v41h400v-41z" />
    <glyph glyph-name="uni2215" unicode="&#x2215;" horiz-adv-x="202" 
d="M341 709l-418 -709h-49l418 709h49z" />
    <glyph glyph-name="uni2219" unicode="&#x2219;" 
d="M267 327q0 38 38 38t38 -38q0 -37 -38 -37t-38 37z" />
    <glyph glyph-name="radical" unicode="&#x221a;" 
d="M342 -120h-64l-141 371h-86v43h122l136 -362l200 776h48z" />
    <glyph glyph-name="infinity" unicode="&#x221e;" horiz-adv-x="900" 
d="M818 322q0 -85 -46 -138t-131 -53q-67 0 -111 33t-80 107q-34 -71 -79 -105.5t-113 -34.5q-83 0 -129.5 52.5t-46.5 135.5t47.5 137t129.5 54q68 0 110.5 -35.5t79.5 -114.5q35 77 78.5 113.5t114.5 36.5q83 0 129.5 -52t46.5 -136zM772 322q0 72 -36 110.5t-98 38.5
q-61 0 -97.5 -36t-72.5 -121q33 -75 70.5 -109t99.5 -34t98 38.5t36 112.5zM430 316q-31 79 -68 116.5t-100 37.5q-61 0 -97 -40t-36 -111q0 -69 36 -108.5t97 -39.5q60 0 97 34t71 111z" />
    <glyph glyph-name="integral" unicode="&#x222b;" 
d="M450 718l-8 -38q-16 2 -28 2q-45 0 -64.5 -25.5t-19.5 -80.5v-686q0 -148 -129 -148q-24 0 -41 5l8 38q16 -2 28 -2q45 0 64.5 25.5t19.5 80.5v686q0 148 129 148q24 0 41 -5z" />
    <glyph glyph-name="approxequal" unicode="&#x2248;" 
d="M109 339q51 73 119 73q24 0 44.5 -8t46.5 -22q26 -13 42 -19.5t34 -6.5q25 0 46 12t47 42l24 -17q-48 -73 -117 -73q-23 0 -42.5 7.5t-47.5 22.5q-25 13 -42 19.5t-35 6.5q-24 0 -47 -12.5t-48 -41.5zM109 175q51 73 119 73q24 0 44.5 -8t46.5 -22q26 -13 42 -19.5
t34 -6.5q25 0 46 12t47 42l24 -17q-48 -73 -117 -73q-23 0 -42.5 7.5t-47.5 22.5q-25 13 -42 19.5t-35 6.5q-24 0 -47 -12.5t-48 -41.5z" />
    <glyph glyph-name="notequal" unicode="&#x2260;" 
d="M385 372l-106 -159h228v-41h-255l-110 -165l-34 20l96 145h-97v41h125l106 159h-231v41h258l97 146l34 -20l-84 -126h95v-41h-122z" />
    <glyph glyph-name="lessequal" unicode="&#x2264;" 
d="M479 124l-367 215v39l367 216l21 -34l-339 -201l339 -201zM505 48v-41h-400v41h400z" />
    <glyph glyph-name="greaterequal" unicode="&#x2265;" 
d="M505 7h-400v41h400v-41zM498 378v-39l-367 -215l-21 34l339 201l-339 201l21 34z" />
    <glyph glyph-name="lozenge" unicode="&#x25ca;" 
d="M540 354l-209 -354h-53l-208 354l208 354h53zM489 354l-185 318l-184 -318l184 -318z" />
    <glyph glyph-name="NULL" horiz-adv-x="0" 
 />
    <glyph glyph-name="zero.lf" horiz-adv-x="679" 
d="M58 354q0 171 70.5 270t210.5 99t210.5 -99t70.5 -270t-70.5 -270t-210.5 -99t-210.5 99t-70.5 270zM568 354q0 151 -56 238t-173 87t-173 -87t-56 -238t56 -238t173 -87t173 87t56 238z" />
    <glyph glyph-name="one.lf" horiz-adv-x="501" 
d="M471 44v-44h-403v43h194v609l-201 -109l-22 39l230 126h45v-664h157z" />
    <glyph glyph-name="two.lf" horiz-adv-x="568" 
d="M488 530q0 -73 -32 -133.5t-108 -136t-239 -216.5h403v-44h-472v41q174 152 253.5 230t111 134.5t31.5 120.5q0 68 -45 111t-126 43q-65 0 -111 -21.5t-91 -66.5l-31 28q52 53 105 78t132 25q69 0 118.5 -26t75 -70t25.5 -97z" />
    <glyph glyph-name="three.lf" horiz-adv-x="572" 
d="M492 542q0 -76 -39 -115.5t-95 -51.5v-2q63 -6 109.5 -48.5t46.5 -126.5q0 -98 -66.5 -155.5t-185.5 -57.5q-82 0 -137.5 22t-104.5 70l28 30q48 -43 96.5 -61t117.5 -18q94 0 146.5 45.5t52.5 125.5q0 78 -48 114.5t-126 36.5h-109v43h95q75 0 121 36t46 108
q0 68 -44 105.5t-127 37.5q-61 0 -107.5 -16.5t-92.5 -52.5l-27 30q49 42 103 62t128 20q103 0 161 -50t58 -131z" />
    <glyph glyph-name="four.lf" horiz-adv-x="606" 
d="M574 188h-116v-188h-50v188h-363v40l249 480h55l-246 -476h305v214h50v-214h116v-44z" />
    <glyph glyph-name="five.lf" horiz-adv-x="586" 
d="M34 77l30 30q47 -42 94 -60.5t112 -18.5q100 0 154.5 53t54.5 143q0 81 -48 125.5t-135 44.5q-52 0 -91.5 -9.5t-79.5 -30.5h-37v354h409v-43h-359v-265q76 36 168 36q105 0 165.5 -57t60.5 -154q0 -109 -68.5 -174.5t-194.5 -65.5q-77 0 -131.5 22.5t-103.5 69.5z" />
    <glyph glyph-name="six.lf" horiz-adv-x="625" 
d="M572 238q0 -115 -65.5 -184t-185.5 -69q-134 0 -198.5 88t-64.5 237q0 127 34 220t101 143t162 50q52 0 89 -12t74 -35l-20 -35q-33 21 -65 30.5t-77 9.5q-115 0 -178 -89t-68 -239q44 50 100 77.5t134 27.5q103 0 165.5 -59t62.5 -161zM521 236q0 86 -49.5 133.5
t-135.5 47.5q-75 0 -129.5 -31t-96.5 -87q2 -129 51 -200t160 -71q97 0 148.5 56t51.5 152z" />
    <glyph glyph-name="seven.lf" horiz-adv-x="525" 
d="M503 666q-134 -156 -205 -317.5t-89 -348.5h-57q24 185 92.5 347t196.5 316h-419v44h481v-41z" />
    <glyph glyph-name="eight.lf" horiz-adv-x="656" 
d="M597 179q0 -58 -33.5 -101.5t-95 -68t-142.5 -24.5q-82 0 -142.5 24.5t-93 68.5t-32.5 101q0 74 46.5 123.5t140.5 81.5q-81 30 -114.5 66.5t-33.5 97.5q0 52 31 92t84 61.5t116 21.5t116 -20.5t84 -60t31 -94.5q0 -59 -34.5 -100.5t-113.5 -79.5q101 -33 143.5 -74.5
t42.5 -114.5zM303 403l62 -20q77 36 110 72.5t33 89.5q0 65 -50.5 101.5t-129.5 36.5q-77 0 -128.5 -37t-51.5 -100q0 -36 14 -60t47 -43.5t94 -39.5zM545 181q0 45 -20.5 74t-61 49.5t-114.5 44.5l-56 19q-96 -31 -139.5 -74.5t-43.5 -110.5q0 -73 59 -115t158 -42
q98 0 158 41.5t60 113.5z" />
    <glyph glyph-name="nine.lf" horiz-adv-x="625" 
d="M567 399q0 -128 -49.5 -221t-145 -142.5t-230.5 -49.5v44q114 0 196 39.5t126.5 113t49.5 172.5q-83 -104 -227 -104q-68 0 -121.5 27t-83.5 79t-30 123q0 70 29.5 125t87.5 86.5t140 31.5q258 0 258 -324zM515 409q-1 137 -48.5 204.5t-157.5 67.5q-100 0 -152.5 -54.5
t-52.5 -145.5t51.5 -140t139.5 -49q75 0 129.5 31t90.5 86z" />
    <glyph glyph-name="zero.osf" horiz-adv-x="638" 
d="M55 297q0 88 29.5 158.5t89 111.5t145.5 41t145.5 -41t89 -111.5t29.5 -158.5t-29.5 -158.5t-89 -111.5t-145.5 -41t-145.5 41t-89 111.5t-29.5 158.5zM531 297q0 116 -52.5 191.5t-158.5 75.5q-107 0 -160 -75.5t-53 -191.5q0 -117 53 -192t160 -75q106 0 158.5 75
t52.5 192z" />
    <glyph glyph-name="one.osf" horiz-adv-x="542" 
d="M499 44v-44h-399v43h182v495l-207 -109l-22 38l236 127h45v-550h165z" />
    <glyph glyph-name="two.osf" horiz-adv-x="606" 
d="M508 417q0 -66 -32 -115.5t-105.5 -105t-229.5 -152.5h391v-44h-472v41q173 108 253 166.5t111.5 104.5t31.5 104q0 68 -44.5 108.5t-126.5 40.5q-61 0 -110 -22t-92 -65l-31 29q52 51 107.5 76t129.5 25q104 0 161.5 -53.5t57.5 -137.5z" />
    <glyph glyph-name="three.osf" horiz-adv-x="616" 
d="M512 424q0 -69 -39 -106.5t-94 -49.5v-2q63 -6 109 -48t46 -126q0 -99 -68 -157.5t-193 -58.5q-80 0 -135 22.5t-104 70.5l28 29q48 -43 96 -61t115 -18q100 0 154 46t54 128q0 78 -48.5 114.5t-126.5 36.5h-114v42h100q75 0 121.5 34t46.5 99q0 69 -44.5 107t-127.5 38
q-64 0 -111 -16t-94 -53l-27 30q50 43 104.5 62.5t131.5 19.5q104 0 162 -50.5t58 -132.5z" />
    <glyph glyph-name="four.osf" horiz-adv-x="616" 
d="M589 47h-110v-157h-50v157h-381v39l264 508h55l-261 -504h323v238h50v-238h110v-43z" />
    <glyph glyph-name="five.osf" horiz-adv-x="594" 
d="M30 -31l30 29q47 -42 94.5 -60t115.5 -18q103 0 158 53t55 145q0 83 -48.5 127t-138.5 44q-55 0 -94.5 -9.5t-80.5 -30.5h-37v345h417v-43h-367v-256q36 17 76.5 26.5t95.5 9.5q108 0 169 -57t61 -156q0 -110 -69 -176t-198 -66q-80 0 -135 22.5t-104 70.5z" />
    <glyph glyph-name="six.osf" horiz-adv-x="624" 
d="M569 238q0 -114 -66 -183t-185 -69q-134 0 -198.5 87.5t-64.5 236.5q0 127 34 219.5t101 142.5t162 50q52 0 89 -12t74 -35l-20 -35q-33 21 -65 30.5t-77 9.5q-115 0 -178 -89t-68 -239q43 50 99 78t135 28q103 0 165.5 -59t62.5 -161zM518 236q0 86 -49.5 133.5
t-135.5 47.5q-75 0 -130 -31t-96 -88q2 -128 51.5 -198.5t159.5 -70.5q97 0 148.5 56t51.5 151z" />
    <glyph glyph-name="seven.osf" horiz-adv-x="532" 
d="M511 553q-134 -156 -205 -317t-89 -346h-57q24 184 93 345.5t196 314.5h-431v44h493v-41z" />
    <glyph glyph-name="eight.osf" horiz-adv-x="643" 
d="M588 180q0 -57 -33.5 -101t-94 -68.5t-140.5 -24.5q-81 0 -141 24.5t-92 68.5t-32 101q0 73 46 123t138 82q-79 29 -112 65t-33 97q0 52 31 92t83 61.5t114 21.5t114 -20.5t83 -60t31 -94.5q0 -59 -34 -100t-111 -79q99 -33 141 -74.5t42 -113.5zM297 403l62 -20
q75 37 107.5 72.5t32.5 88.5q0 65 -50 101.5t-127 36.5q-75 0 -126 -37t-51 -100q0 -36 13.5 -60t46.5 -43.5t92 -38.5zM536 182q0 45 -20 73.5t-60.5 49t-112.5 44.5l-56 19q-94 -31 -137 -74.5t-43 -109.5q0 -73 58.5 -114.5t155.5 -41.5q96 0 155.5 41.5t59.5 112.5z" />
    <glyph glyph-name="nine.osf" horiz-adv-x="635" 
d="M580 284q0 -126 -50 -217.5t-147.5 -141t-237.5 -49.5v44q118 0 202.5 39.5t130 112t50.5 170.5q-83 -106 -234 -106q-107 0 -173 60.5t-66 167.5q0 71 30 126t89 86.5t143 31.5q136 0 199.5 -83t63.5 -241zM528 293q-1 138 -49 205.5t-162 67.5q-104 0 -157 -54.5
t-53 -145.5q0 -92 52 -140.5t144 -48.5q77 0 133 31t92 85z" />
    <glyph glyph-name="zero.tosf" 
d="M52 297q0 137 63 224t188 87q127 0 191 -87t64 -224q0 -88 -27.5 -158.5t-84.5 -111.5t-143 -41q-84 0 -140.5 41t-83.5 111.5t-27 158.5zM506 297q0 118 -49 192.5t-153 74.5q-103 0 -151.5 -74.5t-48.5 -192.5t48.5 -192.5t151.5 -74.5q104 0 153 74.5t49 192.5z" />
    <glyph glyph-name="one.tosf" 
d="M535 44v-44h-399v43h182v495l-207 -109l-22 38l236 127h45v-550h165z" />
    <glyph glyph-name="two.tosf" 
d="M510 417q0 -66 -32 -115.5t-104.5 -104.5t-227.5 -153h388v-44h-469v41q171 108 250.5 166.5t111 104.5t31.5 104q0 68 -44 108.5t-125 40.5q-60 0 -109 -22t-92 -65l-31 29q51 51 107 76t129 25q104 0 160.5 -53.5t56.5 -137.5z" />
    <glyph glyph-name="three.tosf" 
d="M499 424q0 -69 -39 -106.5t-93 -49.5v-2q62 -6 108 -48t46 -126q0 -99 -68 -157.5t-193 -58.5q-77 0 -132.5 22.5t-104.5 70.5l28 29q48 -42 96 -60.5t113 -18.5q100 0 154.5 46t54.5 128q0 78 -48.5 114.5t-127.5 36.5h-112v42h98q75 0 121.5 34t46.5 99q0 69 -44.5 107
t-127.5 38q-63 0 -110 -16t-93 -53l-27 30q50 43 104 62.5t130 19.5q104 0 162 -50.5t58 -132.5z" />
    <glyph glyph-name="four.tosf" 
d="M589 47h-110v-157h-50v157h-381v39l264 508h55l-261 -504h323v238h50v-238h110v-43z" />
    <glyph glyph-name="five.tosf" 
d="M33 -31l30 29q47 -42 94.5 -60t115.5 -18q103 0 158 53t55 145q0 83 -48.5 127t-138.5 44q-55 0 -94.5 -9.5t-80.5 -30.5h-37v345h417v-43h-367v-256q36 17 76.5 26.5t95.5 9.5q108 0 169 -57t61 -156q0 -110 -69 -176t-198 -66q-80 0 -135 22.5t-104 70.5z" />
    <glyph glyph-name="six.tosf" 
d="M566 238q0 -75 -29 -131.5t-85 -88.5t-135 -32q-133 0 -197 87.5t-64 236.5q0 127 34 219.5t100.5 142.5t160.5 50q51 0 88.5 -12t73.5 -35l-21 -35q-33 21 -64.5 30.5t-75.5 9.5q-114 0 -176.5 -89t-67.5 -239q43 50 98.5 78t133.5 28q102 0 164 -59t62 -161zM515 236
q0 86 -48.5 133.5t-134.5 47.5q-74 0 -128.5 -31t-95.5 -88q3 -269 209 -269q95 0 146.5 56t51.5 151z" />
    <glyph glyph-name="seven.tosf" 
d="M553 553q-143 -155 -218.5 -316.5t-95.5 -346.5h-57q27 185 100 346.5t209 313.5h-468v44h530v-41z" />
    <glyph glyph-name="eight.tosf" 
d="M561 179q0 -58 -31 -102t-89.5 -68t-136.5 -24q-80 0 -137.5 24.5t-87.5 68.5t-30 101q0 75 42.5 124t131.5 81q-75 29 -106.5 66t-31.5 98q0 52 30 92t80.5 61.5t110.5 21.5t110 -20.5t80 -60t30 -94.5q0 -59 -32.5 -101t-105.5 -79q65 -23 102 -47.5t54 -58t17 -83.5z
M281 403l62 -20q71 36 101.5 72.5t30.5 89.5q0 65 -48 101.5t-121 36.5q-72 0 -121 -37t-49 -100q0 -36 13 -60.5t44.5 -44t87.5 -38.5zM509 181q0 45 -18 74t-56 49.5t-108 43.5l-56 19q-92 -31 -131 -73.5t-39 -110.5q0 -74 54 -115.5t150 -41.5q94 0 149 42t55 113z" />
    <glyph glyph-name="nine.tosf" 
d="M579 284q0 -126 -50 -217.5t-147.5 -141t-237.5 -49.5v44q118 0 202.5 39.5t130 112t50.5 170.5q-83 -106 -234 -106q-107 0 -173 60.5t-66 167.5q0 71 30 126t89 86.5t143 31.5q136 0 199.5 -83t63.5 -241zM527 293q-1 138 -49 205.5t-162 67.5q-104 0 -157 -54.5
t-53 -145.5q0 -92 52 -140.5t144 -48.5q77 0 133 31t92 85z" />
    <glyph glyph-name="zero.dnom" horiz-adv-x="540" 
d="M54 258q0 125 55 197.5t161 72.5q108 0 162.5 -72.5t54.5 -197.5q0 -124 -54.5 -196.5t-162.5 -72.5q-106 0 -161 72.5t-55 196.5zM437 258q0 108 -40.5 168.5t-126.5 60.5t-126.5 -61t-40.5 -168t40.5 -167.5t126.5 -60.5t126.5 60.5t40.5 167.5z" />
    <glyph glyph-name="one.dnom" horiz-adv-x="540" 
d="M437 42v-42h-311v41h145v424l-148 -76l-20 36l174 92h43v-475h117z" />
    <glyph glyph-name="two.dnom" horiz-adv-x="540" 
d="M435 384q0 -52 -23 -95t-78.5 -96t-174.5 -151h294v-42h-359v39q130 110 187.5 164.5t81 93.5t23.5 83q0 47 -32.5 77t-90.5 30q-47 0 -81 -15.5t-67 -47.5l-29 27q39 39 80 58t101 19q80 0 124 -41.5t44 -102.5z" />
    <glyph glyph-name="three.dnom" horiz-adv-x="540" 
d="M441 395q0 -55 -28.5 -84t-70.5 -38v-1q48 -5 82 -35.5t34 -91.5q0 -71 -51 -113.5t-141 -42.5q-62 0 -104.5 16.5t-80.5 51.5l27 29q35 -30 70.5 -43t87.5 -13q66 0 104 30.5t38 85.5q0 54 -34 79.5t-91 25.5h-83v40h73q54 0 86.5 24.5t32.5 73.5q0 47 -31.5 72.5
t-91.5 25.5q-44 0 -78.5 -11.5t-68.5 -37.5l-25 28q37 32 79 47t97 15q79 0 123.5 -37t44.5 -96z" />
    <glyph glyph-name="four.dnom" horiz-adv-x="540" 
d="M471 132h-83v-132h-48v132h-272v38l184 347h52l-181 -343h217v151h48v-151h83v-42z" />
    <glyph glyph-name="five.dnom" horiz-adv-x="540" 
d="M80 57l28 29q35 -30 70 -43t83 -13q71 0 110 36t39 97q0 56 -34.5 87t-95.5 31q-37 0 -65.5 -7t-58.5 -21h-34v264h311v-41h-264v-180q51 24 121 24q79 0 124.5 -42t45.5 -114q0 -80 -52 -127.5t-148 -47.5q-60 0 -101.5 16.5t-78.5 51.5z" />
    <glyph glyph-name="six.dnom" horiz-adv-x="540" 
d="M466 174q0 -83 -50.5 -134t-141.5 -51q-101 0 -150.5 64.5t-49.5 173.5q0 140 59 220.5t168 80.5q39 0 67.5 -8.5t56.5 -25.5l-19 -33q-24 14 -48 21t-56 7q-82 0 -127.5 -60t-50.5 -162q31 33 72 51t97 18q78 0 125.5 -44t47.5 -118zM416 173q0 60 -35 92.5t-96 32.5
q-53 0 -92 -21t-70 -59q2 -91 37 -140t114 -49q69 0 105.5 38.5t36.5 105.5z" />
    <glyph glyph-name="seven.dnom" horiz-adv-x="540" 
d="M453 477q-99 -110 -151.5 -227t-64.5 -250h-56q19 135 69.5 251t142.5 223h-306v42h366v-39z" />
    <glyph glyph-name="eight.dnom" horiz-adv-x="540" 
d="M472 132q0 -64 -55.5 -103.5t-147.5 -39.5q-94 0 -147.5 39t-53.5 103q0 54 33 89t100 59q-56 21 -80 48t-24 72q0 58 49 93.5t125 35.5q75 0 124 -34t49 -94q0 -42 -25.5 -72.5t-79.5 -57.5q72 -25 102.5 -55.5t30.5 -82.5zM253 298l45 -15q52 25 75 51t23 63
q0 44 -34 69t-91 25q-56 0 -91 -25t-35 -69q0 -36 24 -58t84 -41zM422 133q0 31 -14.5 51t-42.5 34.5t-80 31.5l-40 14q-66 -21 -96.5 -51.5t-30.5 -76.5q0 -52 40.5 -80t111.5 -28t111.5 28t40.5 77z" />
    <glyph glyph-name="nine.dnom" horiz-adv-x="540" 
d="M466 291q0 -142 -84.5 -221.5t-240.5 -79.5v41q126 0 197 59t78 162q-62 -69 -166 -69q-78 0 -127 44t-49 122q0 79 51.5 129t144.5 50q196 0 196 -237zM417 300q-2 96 -35.5 142t-111.5 46q-71 0 -109 -37.5t-38 -99.5q0 -63 36.5 -97t99.5 -34q52 0 92 21.5t66 58.5z
" />
    <glyph glyph-name="zero.numr" horiz-adv-x="540" 
d="M54 449q0 125 55 197.5t161 72.5q108 0 162.5 -72.5t54.5 -197.5q0 -124 -54.5 -196.5t-162.5 -72.5q-106 0 -161 72.5t-55 196.5zM437 449q0 108 -40.5 168.5t-126.5 60.5t-126.5 -61t-40.5 -168t40.5 -167.5t126.5 -60.5t126.5 60.5t40.5 167.5z" />
    <glyph glyph-name="one.numr" horiz-adv-x="540" 
d="M437 233v-42h-311v41h145v424l-148 -76l-20 36l174 92h43v-475h117z" />
    <glyph glyph-name="two.numr" horiz-adv-x="540" 
d="M435 575q0 -52 -23 -95t-78.5 -96t-174.5 -151h294v-42h-359v39q130 110 187.5 164.5t81 93.5t23.5 83q0 47 -32.5 77t-90.5 30q-47 0 -81 -15.5t-67 -47.5l-29 27q39 39 80 58t101 19q80 0 124 -41.5t44 -102.5z" />
    <glyph glyph-name="three.numr" horiz-adv-x="540" 
d="M441 586q0 -55 -28.5 -84t-70.5 -38v-1q48 -5 82 -35.5t34 -91.5q0 -71 -51 -113.5t-141 -42.5q-62 0 -104.5 16.5t-80.5 51.5l27 29q35 -30 70.5 -43t87.5 -13q66 0 104 30.5t38 85.5q0 54 -34 79.5t-91 25.5h-83v40h73q54 0 86.5 24.5t32.5 73.5q0 47 -31.5 72.5
t-91.5 25.5q-44 0 -78.5 -11.5t-68.5 -37.5l-25 28q37 32 79 47t97 15q79 0 123.5 -37t44.5 -96z" />
    <glyph glyph-name="four.numr" horiz-adv-x="540" 
d="M471 323h-83v-132h-48v132h-272v38l184 347h52l-181 -343h217v151h48v-151h83v-42z" />
    <glyph glyph-name="five.numr" horiz-adv-x="540" 
d="M80 248l28 29q35 -30 70 -43t83 -13q71 0 110 36t39 97q0 56 -34.5 87t-95.5 31q-37 0 -65.5 -7t-58.5 -21h-34v264h311v-41h-264v-180q51 24 121 24q79 0 124.5 -42t45.5 -114q0 -80 -52 -127.5t-148 -47.5q-60 0 -101.5 16.5t-78.5 51.5z" />
    <glyph glyph-name="six.numr" horiz-adv-x="540" 
d="M466 365q0 -83 -50.5 -134t-141.5 -51q-101 0 -150.5 64.5t-49.5 173.5q0 140 59 220.5t168 80.5q39 0 67.5 -8.5t56.5 -25.5l-19 -33q-24 14 -48 21t-56 7q-82 0 -127.5 -60t-50.5 -162q31 33 72 51t97 18q78 0 125.5 -44t47.5 -118zM416 364q0 60 -35 92.5t-96 32.5
q-53 0 -92 -21t-70 -59q2 -91 37 -140t114 -49q69 0 105.5 38.5t36.5 105.5z" />
    <glyph glyph-name="seven.numr" horiz-adv-x="540" 
d="M453 668q-99 -110 -151.5 -227t-64.5 -250h-56q19 135 69.5 251t142.5 223h-306v42h366v-39z" />
    <glyph glyph-name="eight.numr" horiz-adv-x="540" 
d="M472 323q0 -64 -55.5 -103.5t-147.5 -39.5q-94 0 -147.5 39t-53.5 103q0 54 33 89t100 59q-56 21 -80 48t-24 72q0 58 49 93.5t125 35.5q75 0 124 -34t49 -94q0 -42 -25.5 -72.5t-79.5 -57.5q72 -25 102.5 -55.5t30.5 -82.5zM253 489l45 -15q52 25 75 51t23 63
q0 44 -34 69t-91 25q-56 0 -91 -25t-35 -69q0 -36 24 -58t84 -41zM422 324q0 31 -14.5 51t-42.5 34.5t-80 31.5l-40 14q-66 -21 -96.5 -51.5t-30.5 -76.5q0 -52 40.5 -80t111.5 -28t111.5 28t40.5 77z" />
    <glyph glyph-name="nine.numr" horiz-adv-x="540" 
d="M466 482q0 -142 -84.5 -221.5t-240.5 -79.5v41q126 0 197 59t78 162q-62 -69 -166 -69q-78 0 -127 44t-49 122q0 79 51.5 129t144.5 50q196 0 196 -237zM417 491q-2 96 -35.5 142t-111.5 46q-71 0 -109 -37.5t-38 -99.5q0 -63 36.5 -97t99.5 -34q52 0 92 21.5t66 58.5z
" />
    <glyph glyph-name="cent.ss01" 
d="M505 145q-65 -48 -147 -54v-91h-42v91q-104 6 -158.5 80t-54.5 183q0 113 56 184.5t157 78.5v91h42v-91q44 -2 82.5 -16t66.5 -38l-22 -33q-53 41 -131 46v-444q68 4 131 47zM320 133v442q-81 -7 -124 -67t-43 -154q0 -93 43 -153.5t124 -67.5z" />
    <glyph glyph-name="dollar.ss01" 
d="M334 33v-77h-42v76q-67 3 -117 21.5t-91 52.5l27 32q42 -32 86.5 -47.5t98.5 -16.5v281q-100 25 -145 61t-45 106q0 69 51 111t135 47v72h42v-71q57 -2 103 -18t87 -44l-24 -31q-40 25 -81 38.5t-89 14.5v-249q100 -24 148.5 -65t48.5 -120q0 -78 -53.5 -123.5
t-139.5 -50.5zM296 401v239q-65 -5 -102.5 -34.5t-37.5 -82.5q0 -50 32.5 -76t107.5 -46zM477 206q0 59 -35.5 89.5t-111.5 50.5v-271q68 6 107.5 39.5t39.5 91.5z" />
    <glyph glyph-name="sterling.ss01" 
d="M135 45h389v-45h-451v42q43 20 61.5 55t18.5 112v148h-83v40h83v118q0 65 26 112t71 71.5t102 24.5q61 0 105 -22t83 -64l-33 -29q-35 37 -69 54t-84 17q-65 0 -106.5 -41t-41.5 -120v-121h207v-40h-207v-147q0 -70 -17 -106.5t-54 -56.5v-2z" />
    <glyph glyph-name="ampersand.ss01" horiz-adv-x="658" 
d="M631 351h-95v-301q-58 -32 -112 -48.5t-127 -16.5q-113 0 -177.5 57t-64.5 153q0 55 23.5 93t58.5 58.5t72 25.5v2q-51 12 -89 51.5t-38 109.5q0 53 26 95.5t75 67.5t113 25q60 0 106.5 -19.5t96.5 -62.5l-28 -29q-45 38 -84 53.5t-88 15.5q-76 0 -120.5 -41t-44.5 -107
q0 -69 41.5 -104.5t114.5 -35.5h341v-42zM488 351h-211q-71 0 -120.5 -39.5t-49.5 -116.5t52 -122t139 -45q57 0 100 12t90 36v275z" />
    <glyph glyph-name="caron.alt" horiz-adv-x="132" 
d="M63 556l-31 7l25 160l45 -11z" />
    <glyph glyph-name="acute.case" horiz-adv-x="244" 
d="M48 784l-18 28l161 103l23 -38z" />
    <glyph glyph-name="breve.case" horiz-adv-x="324" 
d="M294 887q-11 -52 -45 -80.5t-87 -28.5t-87 28.5t-45 80.5l33 4q11 -37 36 -56t63 -19t63 19t36 56z" />
    <glyph glyph-name="caron.case" horiz-adv-x="347" 
d="M318 883l-123 -97h-42l-123 97l20 24l124 -87l124 87z" />
    <glyph glyph-name="circumflex.case" horiz-adv-x="347" 
d="M318 809l-20 -24l-124 87l-124 -87l-20 24l123 97h42z" />
    <glyph glyph-name="dieresis.case" horiz-adv-x="301" 
d="M30 857q0 36 36 36t36 -36q0 -35 -36 -35t-36 35zM199 857q0 36 36 36t36 -36q0 -35 -36 -35t-36 35z" />
    <glyph glyph-name="dotaccent.case" horiz-adv-x="136" 
d="M30 862q0 37 38 37t38 -37q0 -36 -38 -36t-38 36z" />
    <glyph glyph-name="grave.case" horiz-adv-x="244" 
d="M53 915l161 -103l-17 -28l-167 93z" />
    <glyph glyph-name="hungarumlaut.case" horiz-adv-x="295" 
d="M56 776l-26 14l85 152l35 -20zM165 771l-26 16l92 147l35 -22z" />
    <glyph glyph-name="macron.case" horiz-adv-x="311" 
d="M281 814h-251v36h251v-36z" />
    <glyph glyph-name="ring.case" horiz-adv-x="259" 
d="M230 872q0 -41 -27.5 -68.5t-72.5 -27.5t-72.5 27.5t-27.5 68.5q0 42 28 68.5t72 26.5t72 -26.5t28 -68.5zM193 872q0 29 -17 47t-46 18q-30 0 -47 -17.5t-17 -47.5q0 -29 17.5 -47t46.5 -18t46 18t17 47z" />
    <glyph glyph-name="tilde.case" horiz-adv-x="345" 
d="M30 804q34 70 87 70q16 0 30.5 -7t33.5 -20q15 -11 25.5 -16t20.5 -5q17 0 31 10.5t29 35.5l28 -12q-17 -36 -38.5 -53t-48.5 -17q-15 0 -27 5.5t-35 20.5q-3 2 -13 8.5t-19 10t-16 3.5q-17 0 -31 -10.5t-29 -35.5z" />
    <glyph glyph-name="ogonek_thin" horiz-adv-x="241" 
d="M71 -139q0 -27 15.5 -41t43.5 -14q35 0 69 18l12 -30q-39 -24 -85 -24q-42 0 -69 23t-27 63q0 80 111 151h39q-57 -42 -83 -76.5t-26 -69.5z" />
    <glyph glyph-name="commaaccent_top" horiz-adv-x="0" 
d="M-112 592q22 35 30.5 59t10.5 51q-26 3 -26 29q0 31 34 31q35 0 35 -37q0 -35 -13.5 -66t-48.5 -78z" />
    </font>
</defs>
</svg>
