<?xml version="1.0" standalone="no"?>
<!DOCTYPE svg PUBLIC "-//W3C//DTD SVG 1.1//EN" "http://www.w3.org/Graphics/SVG/1.1/DTD/svg11.dtd" >
<svg xmlns="http://www.w3.org/2000/svg" xmlns:xlink="http://www.w3.org/1999/xlink" version="1.1">
<metadata>
Created by FontForge 20170731 at Thu Jul 23 14:31:45 2015
 By Aleksey,,,
</metadata>
<defs>
<font id="SalesforceSans-BoldItalic" horiz-adv-x="610" >
  <font-face 
    font-family="Salesforce Sans"
    font-weight="700"
    font-style="italic"
    font-stretch="normal"
    units-per-em="1000"
    panose-1="2 11 8 5 2 2 2 9 2 3"
    ascent="800"
    descent="-200"
    x-height="518"
    cap-height="708"
    bbox="-228 -290 1613 989"
    underline-thickness="50"
    underline-position="-150"
    slope="-9"
    unicode-range="U+000D-FB04"
  />
<missing-glyph 
d="M561 0h-512v718h512v-718zM99 667v-617h412v617h-412zM432 478q0 -34 -13 -60t-50 -60q-25 -23 -35 -37t-12 -30.5t-2 -56.5h-46l-2 17q0 49 11.5 76.5t47.5 63.5q27 26 38.5 43t11.5 40q0 41 -21.5 63t-54.5 22t-54.5 -23t-27.5 -72l-50 8q6 69 42 103t93 34
q55 0 89.5 -36t34.5 -95zM327 117h-56v67h56v-67z" />
    <glyph glyph-name="f_f" unicode="ff" horiz-adv-x="693" 
d="M615 539l-4 -24h121l-15 -91h-119l-69 -433q-12 -74 -36.5 -121.5t-65.5 -77.5t-107 -50l-31 92q56 19 82.5 53.5t36.5 102.5l69 434h-222l-68 -433q-12 -74 -36.5 -121.5t-65.5 -77.5t-107 -50l-31 92q56 19 82.5 53.5t36.5 102.5l69 434h-85l13 77l87 14l4 29
q14 84 73.5 131t162.5 47q95 0 176 -39q48 39 131 39q65 0 114 -19l-36 -85q-30 9 -58 9q-90 0 -102 -88zM491 515l4 29q7 37 16 62q-56 22 -122 22q-58 0 -83.5 -23t-31.5 -64l-4 -26h221z" />
    <glyph glyph-name="uniFB01" unicode="fi" horiz-adv-x="625" 
d="M507 0h-120l68 424h-200l-68 -433q-12 -74 -36.5 -121.5t-65.5 -77.5t-107 -50l-31 92q56 19 82.5 53.5t36.5 102.5l69 434h-85l13 77l87 14l4 29q14 84 75 131t169 47q93 0 179 -47l-45 -83q-63 36 -134 36q-63 0 -90.5 -22.5t-33.5 -64.5l-4 -26h319z" />
    <glyph glyph-name="uniFB02" unicode="fl" horiz-adv-x="625" 
d="M-53 -166q56 19 82.5 53.5t36.5 102.5l69 434h-85l13 77l87 14l4 29q14 85 78 131.5t183 46.5q108 0 199 -48l-107 -674h-120l98 622q-42 6 -73 6q-68 0 -99.5 -20.5t-38.5 -68.5l-4 -24h119l-15 -91h-119l-68 -433q-12 -74 -36.5 -121.5t-65.5 -77.5t-107 -50z" />
    <glyph glyph-name="f_f_i" unicode="ffi" horiz-adv-x="979" 
d="M861 0h-120l68 424h-200l-68 -433q-12 -74 -36.5 -121.5t-65.5 -77.5t-107 -50l-31 92q56 19 82.5 53.5t36.5 102.5l69 434h-234l-68 -433q-12 -74 -36.5 -121.5t-65.5 -77.5t-107 -50l-31 92q56 19 82.5 53.5t36.5 102.5l69 434h-85l13 77l87 14l4 29q14 84 73.5 131
t162.5 47q57 0 103 -12.5t89 -34.5q63 47 170 47q93 0 179 -47l-45 -83q-63 36 -134 36q-63 0 -90.5 -22.5t-33.5 -64.5l-4 -26h319zM508 544q4 27 16 56q-62 28 -135 28q-58 0 -83.5 -23t-31.5 -64l-4 -26h234z" />
    <glyph glyph-name="f_f_l" unicode="ffl" horiz-adv-x="977" 
d="M966 674l-107 -674h-120l98 622q-42 6 -73 6q-68 0 -99.5 -20.5t-38.5 -68.5l-4 -24h119l-15 -91h-119l-68 -433q-12 -74 -36.5 -121.5t-65.5 -77.5t-107 -50l-31 92q56 19 82.5 53.5t36.5 102.5l69 434h-232l-68 -433q-12 -74 -36.5 -121.5t-65.5 -77.5t-107 -50l-31 92
q56 19 82.5 53.5t36.5 102.5l69 434h-85l13 77l87 14l4 29q14 84 73.5 131t162.5 47q57 0 103 -12t90 -35q66 47 184 47q108 0 199 -48zM506 544q4 30 17 57q-63 27 -134 27q-58 0 -83.5 -23t-31.5 -64l-4 -26h232z" />
    <glyph glyph-name=".notdef" 
d="M561 0h-512v718h512v-718zM99 667v-617h412v617h-412zM432 478q0 -34 -13 -60t-50 -60q-25 -23 -35 -37t-12 -30.5t-2 -56.5h-46l-2 17q0 49 11.5 76.5t47.5 63.5q27 26 38.5 43t11.5 40q0 41 -21.5 63t-54.5 22t-54.5 -23t-27.5 -72l-50 8q6 69 42 103t93 34
q55 0 89.5 -36t34.5 -95zM327 117h-56v67h56v-67z" />
    <glyph glyph-name=".null" horiz-adv-x="0" 
 />
    <glyph glyph-name="nonmarkingreturn" unicode="&#xd;" horiz-adv-x="262" 
 />
    <glyph glyph-name="space" unicode=" " horiz-adv-x="262" 
 />
    <glyph glyph-name="exclam" unicode="!" horiz-adv-x="329" 
d="M110 227l19 190l47 291h121l-47 -291l-39 -190h-101zM61 46q0 41 20.5 65.5t63.5 24.5q63 0 63 -56q0 -40 -20.5 -64.5t-63.5 -24.5q-63 0 -63 55z" />
    <glyph glyph-name="quotedbl" unicode="&#x22;" horiz-adv-x="460" 
d="M210 451h-86l40 257h97zM387 451h-86l40 257h97z" />
    <glyph glyph-name="numbersign" unicode="#" horiz-adv-x="759" 
d="M579 412l-46 -176h111v-76h-131l-42 -160h-95l42 160h-163l-42 -160h-95l42 160h-112v76h132l46 176h-111v76h131l42 160h95l-42 -160h163l42 160h95l-42 -160h112v-76h-132zM484 412h-163l-46 -176h163z" />
    <glyph glyph-name="dollar" unicode="$" 
d="M543 231q0 -81 -61.5 -134.5t-156.5 -65.5l-11 -75h-98l12 74q-115 9 -182 70l61 72q34 -26 72.5 -37.5t88.5 -11.5q69 0 110.5 28t41.5 78q0 27 -12.5 43t-37.5 26.5t-74 23.5q-91 23 -133.5 61.5t-42.5 112.5q0 73 59.5 122.5t150.5 60.5l12 73h98l-12 -73
q97 -10 164 -66l-56 -70q-37 24 -75.5 35.5t-88.5 11.5q-60 0 -97 -24t-37 -65q0 -36 25 -53t92 -32q94 -21 141 -63.5t47 -121.5z" />
    <glyph glyph-name="percent" unicode="%" horiz-adv-x="1174" 
d="M56 471q0 21 2 32q8 62 42 112t88 79t121 29q89 0 141.5 -50t52.5 -130q0 -69 -32.5 -126t-90 -90.5t-127.5 -33.5q-89 0 -143 48.5t-54 129.5zM867 709l-527 -709h-115l527 709h115zM387 535q0 41 -22 66t-66 25q-61 0 -94.5 -42.5t-33.5 -103.5q0 -41 22.5 -65.5
t67.5 -24.5q59 0 92.5 41.5t33.5 103.5zM630 167q0 21 2 32q8 62 42 112t88 79t121 29q89 0 141.5 -50t52.5 -130q0 -69 -32.5 -126t-90 -90.5t-127.5 -33.5q-89 0 -143 48.5t-54 129.5zM961 231q0 41 -22 66t-66 25q-61 0 -94.5 -42.5t-33.5 -103.5q0 -41 22.5 -65.5
t67.5 -24.5q59 0 92.5 41.5t33.5 103.5z" />
    <glyph glyph-name="ampersand" unicode="&#x26;" horiz-adv-x="687" 
d="M568 149l78 -85l-84 -79l-71 80q-51 -41 -107 -60.5t-127 -19.5q-103 0 -164 51t-61 140q0 71 42 121t129 91q-31 38 -46.5 72t-15.5 74q0 58 29 101.5t79 67t111 23.5q88 0 138 -40t50 -106q0 -71 -47 -121.5t-134 -90.5l132 -145q39 66 55 135l109 -25
q-27 -93 -95 -184zM264 535q0 -27 9 -49.5t30 -48.5q64 30 94 60.5t30 79.5q0 26 -17.5 41t-51.5 15q-44 0 -69 -27t-25 -71zM423 141l-157 176q-54 -28 -79 -58t-25 -79q0 -38 27.5 -63t77.5 -25q91 0 156 49z" />
    <glyph glyph-name="quotesingle" unicode="'" horiz-adv-x="284" 
d="M210 451h-86l40 257h97z" />
    <glyph glyph-name="parenleft" unicode="(" horiz-adv-x="376" 
d="M61 256q0 45 8 99q22 138 92.5 255t173.5 228l70 -52q-82 -105 -135 -206.5t-73 -226.5q-9 -63 -9 -118q0 -87 20 -163.5t56 -154.5l-81 -46q-55 92 -88.5 185t-33.5 200z" />
    <glyph glyph-name="parenright" unicode=")" horiz-adv-x="376" 
d="M346 453q0 -45 -8 -99q-22 -138 -92.5 -255t-173.5 -228l-70 52q83 105 135.5 206.5t71.5 226.5q10 60 10 118q0 88 -20 165t-56 153l81 46q55 -90 88.5 -184t33.5 -201z" />
    <glyph glyph-name="asterisk" unicode="*" horiz-adv-x="427" 
d="M279 527l72 -83l-78 -57l-56 94l-57 -94l-78 57l72 83l-106 24l30 91l100 -44l-10 110h96l-9 -110l101 44l29 -91zM216 546l1 -1v2z" />
    <glyph glyph-name="plus" unicode="+" 
d="M501 241h-148l-25 -154h-104l25 154h-148l15 96h148l24 150h104l-24 -150h148z" />
    <glyph glyph-name="comma" unicode="," horiz-adv-x="284" 
d="M-17 -150q47 42 71.5 76.5t33.5 74.5q-51 8 -51 56q0 34 21.5 56.5t60.5 22.5q32 0 50 -18t18 -50q0 -10 -2 -26q-10 -62 -44.5 -114.5t-118.5 -119.5z" />
    <glyph glyph-name="hyphen" unicode="-" horiz-adv-x="311" 
d="M269 245h-233l15 96h233z" />
    <glyph glyph-name="period" unicode="." horiz-adv-x="276" 
d="M34 46q0 41 20.5 65.5t63.5 24.5q63 0 63 -56q0 -40 -20.5 -64.5t-63.5 -24.5q-63 0 -63 55z" />
    <glyph glyph-name="slash" unicode="/" horiz-adv-x="560" 
d="M527 791l-360 -878h-105l361 878h104z" />
    <glyph glyph-name="zero" unicode="0" 
d="M43 249q0 50 9 110q29 181 108 274t210 93q111 0 168.5 -68.5t57.5 -198.5q0 -50 -9 -110q-59 -367 -319 -367q-111 0 -168 68.5t-57 198.5zM462 359q11 72 11 118q0 73 -25 108.5t-82 35.5q-81 0 -124.5 -66.5t-64.5 -205.5q-11 -72 -11 -120q0 -72 25 -107t81 -35
q82 0 125.5 66t64.5 206z" />
    <glyph glyph-name="one" unicode="1" 
d="M531 104l-16 -104h-464l16 103h191l76 478l-193 -88l-35 90l260 125h113l-95 -604h147z" />
    <glyph glyph-name="two" unicode="2" 
d="M588 536q0 -76 -42.5 -140.5t-110 -120t-197.5 -148.5q-24 -16 -36 -25l338 2l-16 -104h-510l14 98q45 34 111 82q114 84 176.5 135.5t102 105t39.5 105.5q0 43 -30.5 70t-84.5 27q-51 0 -94.5 -21t-89.5 -62l-71 73q63 57 125.5 84.5t145.5 27.5q73 0 125 -26t78.5 -69
t26.5 -94z" />
    <glyph glyph-name="three" unicode="3" 
d="M575 555q0 -72 -41.5 -120t-115.5 -64l-1 -1q55 -8 91 -40.5t36 -91.5q0 -78 -39.5 -136t-108.5 -89t-156 -31q-83 0 -142 26.5t-104 77.5l75 71q39 -39 78 -55t97 -16q75 0 124.5 39.5t49.5 106.5q0 45 -26.5 64.5t-81.5 19.5h-116l15 100h94q67 0 106 34.5t39 93.5
q0 80 -112 80q-48 0 -91.5 -16.5t-89.5 -49.5l-59 78q62 47 125 68.5t135 21.5q105 0 162 -47t57 -124z" />
    <glyph glyph-name="four" unicode="4" 
d="M566 156h-89l-25 -156h-120l24 156h-352l14 93l302 459h135l-293 -448h210l29 184h121l-29 -184h89z" />
    <glyph glyph-name="five" unicode="5" 
d="M3 86l79 71q40 -38 78 -54t95 -16q51 0 92 20.5t64 57t23 82.5q0 49 -30.5 75.5t-82.5 26.5q-38 0 -69 -8t-67 -24l-85 1l62 390h432l-17 -104h-313l-30 -182q61 25 133 25q89 0 142.5 -51t53.5 -140q0 -81 -40.5 -143.5t-112 -96.5t-160.5 -34q-85 0 -143.5 26
t-103.5 78z" />
    <glyph glyph-name="six" unicode="6" 
d="M578 280q0 -83 -39.5 -151t-108.5 -107.5t-155 -39.5q-116 0 -175.5 66.5t-59.5 182.5q0 39 8 90q20 123 70.5 214t128 141t175.5 50q94 0 167 -48l-55 -83q-51 32 -113 32q-84 0 -144 -58t-87 -163q42 31 88 46.5t101 15.5q89 0 144 -51t55 -137zM451 275
q0 49 -27.5 73.5t-77.5 24.5q-47 0 -92 -20.5t-84 -56.5q-6 -42 -6 -77q0 -67 28 -101t87 -34q52 0 91 26t60 69.5t21 95.5z" />
    <glyph glyph-name="seven" unicode="7" 
d="M628 608q-143 -132 -236.5 -286t-131.5 -322h-142q52 182 139.5 326.5t219.5 278.5l-384 -2l17 105h532z" />
    <glyph glyph-name="eight" unicode="8" 
d="M569 217q0 -75 -41 -128t-110 -80t-153 -27q-77 0 -132.5 23.5t-84.5 64t-29 91.5q0 80 44.5 130.5t127.5 85.5q-84 53 -84 139q0 65 36.5 113t97 72.5t131.5 24.5q62 0 112.5 -20.5t79.5 -58t29 -86.5q0 -62 -38.5 -108.5t-107.5 -81.5q63 -27 92.5 -63t29.5 -91z
M230 519q0 -31 20.5 -55t65.5 -43l35 -13q118 65 118 146q0 38 -27 59t-73 21q-60 0 -99.5 -31t-39.5 -84zM442 215q0 35 -24.5 57t-86.5 48l-45 17q-65 -24 -100.5 -65.5t-35.5 -100.5q0 -44 32 -67.5t91 -23.5q77 0 123 36.5t46 98.5z" />
    <glyph glyph-name="nine" unicode="9" 
d="M601 483q0 -39 -8 -92q-30 -194 -161 -299.5t-352 -105.5l11 103q144 0 237 57.5t124 163.5q-86 -66 -188 -66q-58 0 -103.5 24t-71.5 69t-26 106q0 80 40 144.5t110 101.5t155 37q113 0 173 -64t60 -179zM299 339q93 0 173 78q6 44 6 78q0 130 -117 130q-52 0 -91 -23.5
t-60 -64.5t-21 -90q0 -52 29.5 -80t80.5 -28z" />
    <glyph glyph-name="colon" unicode=":" horiz-adv-x="279" 
d="M37 46q0 41 20.5 65.5t63.5 24.5q63 0 63 -56q0 -40 -20.5 -64.5t-63.5 -24.5q-63 0 -63 55zM89 395q0 41 20.5 65.5t63.5 24.5q63 0 63 -56q0 -40 -20.5 -64.5t-63.5 -24.5q-63 0 -63 55z" />
    <glyph glyph-name="semicolon" unicode=";" horiz-adv-x="284" 
d="M-17 -150q47 42 71.5 76.5t33.5 74.5q-51 8 -51 56q0 34 21.5 56.5t60.5 22.5q32 0 50 -18t18 -50q0 -10 -2 -26q-10 -62 -44.5 -114.5t-118.5 -119.5zM87 395q0 41 20.5 65.5t63.5 24.5q63 0 63 -56q0 -40 -20.5 -64.5t-63.5 -24.5q-63 0 -63 55z" />
    <glyph glyph-name="less" unicode="&#x3c;" 
d="M107 237l13 90l372 209l38 -81l-305 -176l249 -176l-58 -71z" />
    <glyph glyph-name="equal" unicode="=" 
d="M513 341h-391l15 97h391zM481 141h-391l15 97h391z" />
    <glyph glyph-name="greater" unicode="&#x3e;" 
d="M510 331l-13 -91l-371 -208l-39 81l305 176l-249 176l58 71z" />
    <glyph glyph-name="question" unicode="?" horiz-adv-x="513" 
d="M159 259q7 48 37.5 78.5t85.5 65.5q37 24 58 41t35.5 41t14.5 56q0 39 -24 60.5t-68 21.5q-50 0 -89 -19t-81 -60l-68 69q55 57 116 84.5t139 27.5q94 0 149.5 -48t55.5 -128q0 -52 -22 -91t-53 -64t-79 -56q-47 -30 -69.5 -50.5t-25.5 -46.5l-2 -14h-115zM123 46
q0 41 20.5 65.5t63.5 24.5q63 0 63 -56q0 -40 -20.5 -64.5t-63.5 -24.5q-63 0 -63 55z" />
    <glyph glyph-name="at" unicode="@" horiz-adv-x="960" 
d="M80 283q0 110 50.5 200.5t144.5 144t218 53.5q127 0 214 -44t130 -121t43 -176q0 -120 -46.5 -188.5t-124.5 -68.5q-51 0 -85.5 26.5t-42.5 69.5q-54 -95 -159 -95q-71 0 -111 46.5t-40 120.5q0 70 26.5 127.5t80.5 92t134 34.5q47 0 90.5 -14t76.5 -37l-28 -196
q-2 -20 -2 -27q0 -38 16.5 -55t42.5 -17q35 0 53 42t18 137q0 258 -287 258q-104 0 -173.5 -41t-102.5 -111.5t-33 -159.5q0 -148 78.5 -226.5t230.5 -78.5q55 0 106 8.5t87 22.5l26 -78q-43 -17 -100.5 -28t-122.5 -11q-125 0 -217 47t-141.5 135t-49.5 208zM556 300
l17 114q-28 15 -67 15q-67 0 -99 -52t-32 -126q0 -85 70 -85q43 0 72.5 38.5t38.5 95.5z" />
    <glyph glyph-name="A" unicode="A" horiz-adv-x="658" 
d="M457 155h-284l-81 -155h-135l379 708h129l153 -708h-133zM220 251h220l-58 331z" />
    <glyph glyph-name="B" unicode="B" horiz-adv-x="627" 
d="M606 558q0 -67 -40 -117.5t-108 -66.5v-2q56 -9 90 -46t34 -95q0 -111 -76 -171t-201 -60h-267l112 708h257q85 0 142 -36.5t57 -113.5zM257 613l-32 -202h117q64 0 99.5 34t35.5 93q0 39 -27.5 57t-81.5 18h-111zM210 322l-35 -225h120q75 0 117 36.5t42 103.5
q0 85 -117 85h-127z" />
    <glyph glyph-name="C" unicode="C" horiz-adv-x="666" 
d="M52 275q0 128 50.5 231t143.5 162.5t215 59.5q68 0 131 -25t104 -67l-79 -75q-67 59 -165 59q-84 0 -144.5 -44.5t-92 -121t-31.5 -169.5q0 -89 45 -141t139 -52t186 70l64 -82q-54 -46 -119 -72t-150 -26q-144 0 -220.5 79t-76.5 214z" />
    <glyph glyph-name="D" unicode="D" horiz-adv-x="725" 
d="M703 433q0 -130 -51 -228t-147 -151.5t-227 -53.5h-240l112 708h228q148 0 236.5 -69t88.5 -206zM258 605l-79 -501h102q143 0 217.5 86t74.5 234q0 93 -53 137t-157 44h-105z" />
    <glyph glyph-name="E" unicode="E" horiz-adv-x="555" 
d="M570 607h-311l-30 -195h266l-16 -97h-266l-33 -212h327l-16 -103h-453l112 708h436z" />
    <glyph glyph-name="F" unicode="F" horiz-adv-x="530" 
d="M569 605h-310l-32 -203h271l-15 -102h-271l-49 -300h-125l112 708h436z" />
    <glyph glyph-name="G" unicode="G" horiz-adv-x="727" 
d="M51 273q0 128 50.5 231t144 162.5t216.5 59.5q69 0 131.5 -24.5t102.5 -67.5l-75 -73q-35 28 -74 43t-90 15q-89 0 -151.5 -45t-94 -122.5t-31.5 -173.5q0 -192 189 -192q42 0 76.5 8t71.5 22l25 162h-143l15 97h259l-51 -327q-127 -66 -268 -66q-149 0 -226 77.5
t-77 213.5z" />
    <glyph glyph-name="H" unicode="H" horiz-adv-x="733" 
d="M613 0h-126l49 313h-323l-50 -313h-125l112 708h125l-46 -294h323l47 294h126z" />
    <glyph glyph-name="I" unicode="I" horiz-adv-x="381" 
d="M227 95h81l-15 -95h-286l15 95h82l83 521h-82l14 92h286l-14 -92h-81z" />
    <glyph glyph-name="J" unicode="J" horiz-adv-x="416" 
d="M-34 20l56 89q35 -20 76 -20q95 0 114 120l79 499h125l-79 -499q-16 -100 -74 -163.5t-162 -63.5q-38 0 -73.5 10t-61.5 28z" />
    <glyph glyph-name="K" unicode="K" horiz-adv-x="644" 
d="M343 382l268 -382h-144l-209 304l-55 -50l-40 -254h-125l112 708h125l-47 -296l321 296h149z" />
    <glyph glyph-name="L" unicode="L" horiz-adv-x="509" 
d="M180 105h301l-17 -105h-426l112 708h125z" />
    <glyph glyph-name="M" unicode="M" horiz-adv-x="918" 
d="M798 0h-123l92 562h-2l-305 -562h-94l-123 562h-2l-86 -562h-117l112 708h180l107 -537h2l281 537h190z" />
    <glyph glyph-name="N" unicode="N" horiz-adv-x="762" 
d="M150 708l140 -1l264 -541h2l82 542h116l-112 -708h-139l-263 543h-3l-82 -543h-117z" />
    <glyph glyph-name="O" unicode="O" horiz-adv-x="794" 
d="M52 278q0 127 51.5 229t145.5 160.5t216 58.5q97 0 166.5 -36t105 -102.5t35.5 -156.5q0 -127 -51.5 -229.5t-145.5 -161t-217 -58.5q-97 0 -166 36.5t-104.5 103t-35.5 156.5zM644 423q0 94 -47 144.5t-142 50.5q-86 0 -148 -44t-94 -119.5t-32 -169.5q0 -93 47 -144
t142 -51q86 0 148 44.5t94 120.5t32 168z" />
    <glyph glyph-name="P" unicode="P" horiz-adv-x="614" 
d="M626 514q0 -85 -38 -149t-106 -99t-155 -35h-127l-37 -231h-125l112 708h245q99 0 165 -49t66 -145zM259 607l-42 -274h112q77 0 123 48t46 122q0 55 -35 79.5t-90 24.5h-114z" />
    <glyph glyph-name="Q" unicode="Q" horiz-adv-x="794" 
d="M473.5 -80.5q57.5 -19.5 177.5 -19.5l-49 -103q-154 0 -236.5 52t-87.5 140q-109 21 -167.5 97t-58.5 192q0 127 51.5 229t145.5 160.5t216 58.5q97 0 166.5 -36t105 -102.5t35.5 -156.5q0 -119 -45 -216t-127.5 -158t-192.5 -73q9 -45 66.5 -64.5zM228 141
q47 -51 142 -51q86 0 147.5 44.5t93.5 120t32 168.5q0 94 -46.5 144.5t-141.5 50.5q-86 0 -148 -44t-94 -119.5t-32 -169.5q0 -93 47 -144z" />
    <glyph glyph-name="R" unicode="R" horiz-adv-x="637" 
d="M437 264l128 -264h-137l-111 242h-114l-40 -242h-125l112 708h236q65 0 117.5 -22t83.5 -66t31 -106q0 -97 -46.5 -159.5t-134.5 -90.5zM217 338h110q74 0 117.5 46t43.5 118q0 53 -34 79t-87 26h-108z" />
    <glyph glyph-name="S" unicode="S" horiz-adv-x="562" 
d="M-6 63l67 81q74 -58 174 -58q70 0 113 34.5t43 95.5q0 44 -32.5 67t-105.5 43q-79 22 -121.5 67.5t-42.5 112.5q0 105 75 162t196 57q122 0 218 -68l-63 -83q-40 25 -79.5 37.5t-83.5 12.5q-62 0 -100 -25.5t-38 -78.5q0 -37 30 -58.5t95 -40.5q86 -25 134 -69t48 -118
q0 -78 -38 -135t-104 -87t-150 -30q-68 0 -130 21t-105 60z" />
    <glyph glyph-name="T" unicode="T" horiz-adv-x="552" 
d="M603 602h-209l-95 -602h-127l96 602h-209l17 106h543z" />
    <glyph glyph-name="U" unicode="U" horiz-adv-x="722" 
d="M65 200q0 23 5 56l72 452h125l-70 -444q-5 -30 -5 -51q0 -62 33 -92.5t108 -30.5q88 0 133.5 44t59.5 131l70 443h125l-72 -453q-20 -130 -103 -201.5t-220 -71.5q-123 0 -192 57.5t-69 160.5z" />
    <glyph glyph-name="V" unicode="V" horiz-adv-x="641" 
d="M340 0h-122l-152 708h132l103 -565h3l277 565h136z" />
    <glyph glyph-name="W" unicode="W" horiz-adv-x="977" 
d="M728 0h-123l-71 547h-2l-241 -547h-126l-87 708h125l52 -541h3l233 541h129l63 -541h3l227 541h127z" />
    <glyph glyph-name="X" unicode="X" horiz-adv-x="627" 
d="M405 369l182 -369h-143l-126 282l-213 -282h-149l301 374l-163 334h141l107 -253l192 253h144z" />
    <glyph glyph-name="Y" unicode="Y" horiz-adv-x="583" 
d="M358 301l-48 -301h-125l49 303l-180 405h137l118 -305h2l213 305h146z" />
    <glyph glyph-name="Z" unicode="Z" horiz-adv-x="581" 
d="M589 609l-430 -504h359l-17 -105h-511l17 106l426 501h-335l16 101h491z" />
    <glyph glyph-name="bracketleft" unicode="[" horiz-adv-x="376" 
d="M142 -26h116l-14 -92h-231l147 936h231l-15 -93h-116z" />
    <glyph glyph-name="backslash" unicode="\" horiz-adv-x="560" 
d="M522 -87h-105l-350 878h104z" />
    <glyph glyph-name="bracketright" unicode="]" horiz-adv-x="376" 
d="M147 725l14 93h231l-147 -936h-231l15 92h116l118 751h-116z" />
    <glyph glyph-name="asciicircum" unicode="^" 
d="M511 516l-59 -46l-147 161l-147 -161l-59 46l159 192h93z" />
    <glyph glyph-name="underscore" unicode="_" horiz-adv-x="585" 
d="M469 -195h-500l15 96h501z" />
    <glyph glyph-name="grave" unicode="`" horiz-adv-x="288" 
d="M162 769l167 -145l-52 -56l-183 124z" />
    <glyph glyph-name="a" unicode="a" 
d="M570 467l-56 -349q-8 -55 -10 -118h-111q-1 47 5 75h-2q-34 -48 -76 -68.5t-101 -20.5q-87 0 -133 57t-46 151t37.5 171t106.5 122t159 45q68 0 120 -14.5t107 -50.5zM422 297l19 119q-23 12 -45.5 16t-50.5 4q-57 0 -98 -31.5t-61.5 -84.5t-20.5 -115q0 -60 24.5 -92
t67.5 -32q60 0 105.5 62t59.5 154z" />
    <glyph glyph-name="b" unicode="b" horiz-adv-x="623" 
d="M582 326q0 -38 -5 -67q-12 -77 -49.5 -139t-98.5 -98t-140 -36q-125 0 -246 58l105 664h120l-48 -266h3q27 43 72.5 66.5t103.5 23.5q92 0 137.5 -56.5t45.5 -149.5zM459 319q0 58 -23 88t-67 30q-41 0 -79 -30t-65 -83t-37 -119l-16 -103q30 -11 56.5 -16t60.5 -5
q68 0 110 48.5t55 131.5q5 35 5 58z" />
    <glyph glyph-name="c" unicode="c" horiz-adv-x="510" 
d="M42 204q0 92 37 167t106 118t159 43q97 0 166 -55l-54 -81q-49 37 -121 37q-55 0 -93.5 -30t-58 -80t-19.5 -111q0 -58 28 -91.5t85 -33.5q62 0 132 39l39 -84q-83 -56 -190 -56q-115 0 -165.5 63t-50.5 155z" />
    <glyph glyph-name="d" unicode="d" horiz-adv-x="623" 
d="M617 708l-93 -590q-8 -55 -10 -118h-111q-1 47 5 75h-2q-35 -48 -77.5 -68.5t-101.5 -20.5q-91 0 -138.5 56.5t-47.5 151.5q0 91 34 168.5t97.5 123.5t147.5 46q48 0 82 -11t60 -32l35 219h120zM432 297l15 98q-44 41 -120 41q-51 0 -87.5 -33t-55 -86t-18.5 -112
q0 -60 26 -92t74 -32q60 0 105.5 61.5t60.5 154.5z" />
    <glyph glyph-name="e" unicode="e" horiz-adv-x="546" 
d="M161 199q5 -114 121 -114q40 0 71 9.5t67 30.5l43 -78q-51 -33 -95.5 -47t-106.5 -14q-104 0 -161.5 57.5t-57.5 157.5q0 93 36 168.5t103.5 119t157.5 43.5q99 0 142 -41.5t43 -101.5q0 -99 -98.5 -141.5t-264.5 -48.5zM402 388q0 26 -15.5 40t-55.5 14
q-65 0 -106 -41.5t-56 -111.5q82 5 131.5 14.5t75.5 29.5t26 55z" />
    <glyph glyph-name="f" unicode="f" horiz-adv-x="351" 
d="M-53 -166q56 19 82.5 53.5t36.5 102.5l69 434h-84l13 77l85 14l4 29q14 86 62.5 132t139.5 46q65 0 114 -19l-36 -85q-30 9 -58 9q-90 0 -102 -88l-4 -24h121l-15 -91h-119l-69 -433q-12 -74 -36.5 -121.5t-65.5 -77.5t-107 -50z" />
    <glyph glyph-name="g" unicode="g" horiz-adv-x="605" 
d="M23 -195l52 83q68 -46 141 -46t112.5 34t53.5 113l16 88h-2q-34 -47 -75.5 -66t-101.5 -19q-87 0 -132.5 55.5t-45.5 149.5t37.5 170.5t106 120.5t158.5 44q68 0 120 -14.5t107 -50.5l-73 -476q-18 -121 -87.5 -185t-190.5 -64q-56 0 -106.5 17.5t-89.5 45.5zM423 297
l19 119q-24 12 -46 16t-50 4q-57 0 -98 -31.5t-61.5 -84t-20.5 -114.5q0 -58 25 -88.5t67 -30.5q60 0 105 59.5t60 150.5z" />
    <glyph glyph-name="h" unicode="h" horiz-adv-x="618" 
d="M148 708h120l-47 -270h2q22 37 75.5 65.5t105.5 28.5q78 0 118.5 -44.5t40.5 -111.5q0 -17 -3 -35l-55 -341h-120l51 318q3 20 3 38q0 77 -69 77q-47 0 -86.5 -40t-66 -103t-37.5 -132l-25 -158h-119z" />
    <glyph glyph-name="i" unicode="i" horiz-adv-x="274" 
d="M156 0h-120l82 518h120zM130 669q0 36 20.5 59.5t63.5 23.5q34 0 49.5 -15t15.5 -40q0 -36 -20.5 -59.5t-63.5 -23.5q-34 0 -49.5 15t-15.5 40z" />
    <glyph glyph-name="j" unicode="j" horiz-adv-x="275" 
d="M34 -10l84 528h120l-83 -527q-12 -74 -36 -121.5t-65.5 -77.5t-107.5 -50l-31 92q55 18 81.5 53t37.5 103zM130 669q0 36 20.5 59.5t63.5 23.5q34 0 49.5 -15t15.5 -40q0 -36 -20.5 -59.5t-63.5 -23.5q-34 0 -49.5 15t-15.5 40z" />
    <glyph glyph-name="k" unicode="k" horiz-adv-x="559" 
d="M329 306l190 -306h-137l-140 233l-56 -46l-30 -187h-120l112 708h120l-60 -380l225 190h152z" />
    <glyph glyph-name="l" unicode="l" horiz-adv-x="274" 
d="M268 708l-112 -708h-120l112 708h120z" />
    <glyph glyph-name="m" unicode="m" horiz-adv-x="945" 
d="M98 401q7 45 11 117h112q2 -42 -8 -90h2q27 44 78 74t105 30q61 0 97 -30.5t46 -81.5h2q33 54 85 83t109 29q75 0 114 -44.5t39 -111.5q0 -17 -3 -35l-55 -341h-120l51 318q1 8 2 17.5t1 21.5q0 76 -63 76q-43 0 -80.5 -38t-64 -99t-38.5 -128l-26 -168h-120l50 318
q4 28 4 39q0 76 -64 76q-44 0 -82.5 -40t-64.5 -103t-37 -132l-25 -158h-120z" />
    <glyph glyph-name="n" unicode="n" horiz-adv-x="618" 
d="M98 401q7 45 11 117h112q2 -42 -8 -90h2q27 44 79 74t110 30q78 0 118.5 -44.5t40.5 -111.5q0 -17 -3 -35l-55 -341h-120l51 318q1 7 2 16.5t1 21.5q0 77 -69 77q-47 0 -86.5 -40t-66 -103t-37.5 -132l-25 -158h-120z" />
    <glyph glyph-name="o" unicode="o" horiz-adv-x="620" 
d="M578 318q0 -92 -38.5 -168t-108.5 -120t-159 -44q-109 0 -169.5 60.5t-60.5 160.5q0 91 38 165.5t106.5 117t158.5 42.5q112 0 172.5 -57.5t60.5 -156.5zM166 207q0 -58 28.5 -92t87.5 -34q55 0 94.5 32t59.5 84.5t20 115.5q0 58 -28.5 91t-89.5 33q-83 0 -127.5 -66
t-44.5 -164z" />
    <glyph glyph-name="p" unicode="p" horiz-adv-x="623" 
d="M582 327q0 -93 -35 -171t-99 -124t-145 -46q-85 0 -144 37l-42 -267h-120l102 645q8 53 10 117h114q-2 -61 -10 -89h2q29 47 75.5 75t109.5 28q92 0 137 -56t45 -149zM458 317q0 59 -24.5 89.5t-70.5 30.5q-39 0 -75.5 -30t-62.5 -79t-34 -105l-18 -112q30 -17 56 -23.5
t60 -6.5q55 0 93 33t57 86.5t19 116.5z" />
    <glyph glyph-name="q" unicode="q" horiz-adv-x="616" 
d="M570 467l-112 -711h-120l57 311h-2q-34 -43 -75 -62t-99 -19q-87 0 -133 57t-46 151t37 171.5t106 122t160 44.5q68 0 120 -14.5t107 -50.5zM422 297l19 119q-23 12 -45.5 16t-50.5 4q-57 0 -98 -31.5t-61.5 -84.5t-20.5 -115q0 -60 24.5 -92t67.5 -32q60 0 105.5 62
t59.5 154z" />
    <glyph glyph-name="r" unicode="r" horiz-adv-x="382" 
d="M98 401q7 45 11 117h112q0 -38 -12 -103h2q32 66 72.5 91.5t101.5 25.5q21 0 34 -5l-21 -110q-16 4 -37 4q-74 0 -120.5 -87t-65.5 -214l-20 -120h-120z" />
    <glyph glyph-name="s" unicode="s" horiz-adv-x="459" 
d="M449 478l-56 -75q-58 37 -120 37q-94 0 -94 -62q0 -24 21 -38.5t78 -30.5q127 -39 127 -141q0 -89 -63 -135.5t-165 -46.5q-110 0 -186 58l56 76q61 -41 134 -41q99 0 99 72q0 26 -20.5 42.5t-73.5 33.5q-129 39 -129 138q0 80 60.5 123.5t156.5 43.5q104 0 175 -54z" />
    <glyph glyph-name="t" unicode="t" horiz-adv-x="375" 
d="M260 515h126l-14 -91h-127l-40 -255q-4 -25 -4 -38q0 -46 57 -46q25 0 46 6l6 -92q-39 -13 -91 -13q-67 0 -103.5 32.5t-36.5 92.5q0 20 5 50l41 263h-84l13 77l86 14l18 122l128 43z" />
    <glyph glyph-name="u" unicode="u" horiz-adv-x="618" 
d="M56 146q0 19 4 40l52 332h120l-50 -318q-4 -24 -4 -43q0 -33 17 -52.5t55 -19.5q47 0 84.5 31t61.5 79.5t32 100.5l35 222h120l-63 -400q-9 -53 -11 -118h-111q-3 36 7 78h-2q-28 -41 -76.5 -66.5t-101.5 -25.5q-82 0 -125.5 46t-43.5 114z" />
    <glyph glyph-name="v" unicode="v" horiz-adv-x="505" 
d="M280 0h-132l-107 518h126l64 -397h3l185 397h129z" />
    <glyph glyph-name="w" unicode="w" horiz-adv-x="795" 
d="M602 0h-127l-54 388h-2l-176 -388h-133l-59 518h124l24 -386h2l172 386h128l52 -386h2l147 386h124z" />
    <glyph glyph-name="x" unicode="x" horiz-adv-x="551" 
d="M349 266l155 -266h-140l-99 194l-162 -194h-142l240 277l-135 241h133l89 -173l143 173h132z" />
    <glyph glyph-name="y" unicode="y" horiz-adv-x="493" 
d="M148 -20l8 16l-115 522h126l63 -393h2l174 393h129l-271 -550q-39 -78 -75 -121t-80.5 -66t-115.5 -39l-24 94q45 11 75 25t55.5 42t48.5 77z" />
    <glyph glyph-name="z" unicode="z" horiz-adv-x="455" 
d="M444 429l-293 -335h251l-15 -94h-397l14 95l290 333h-226l15 90h375z" />
    <glyph glyph-name="braceleft" unicode="{" horiz-adv-x="376" 
d="M95 33q0 21 3 43l21 138q4 23 4 35q0 27 -15 38t-51 13l15 100q46 2 62.5 14.5t22.5 44.5l31 192q27 167 224 167l-15 -95q-82 0 -97 -94l-17 -115q-9 -57 -22 -88.5t-37.5 -49t-68.5 -25.5v-2q45 -14 63.5 -36t18.5 -66q0 -19 -7 -65l-17 -110q-3 -22 -3 -30
q0 -32 17.5 -49t51.5 -17l-14 -94q-78 0 -124 37.5t-46 113.5z" />
    <glyph glyph-name="bar" unicode="|" horiz-adv-x="362" 
d="M235 808v-908h-108v908h108z" />
    <glyph glyph-name="braceright" unicode="}" horiz-adv-x="376" 
d="M310 667q0 -23 -4 -43l-20 -138q-4 -23 -4 -35q0 -27 14.5 -38t50.5 -13l-15 -100q-46 -2 -62.5 -14.5t-22.5 -44.5l-31 -192q-27 -167 -223 -167l14 95q82 0 97 94l18 115q8 56 21 88t37.5 49.5t68.5 25.5v2q-45 14 -63 36t-18 66q0 26 6 65l17 110q3 23 3 30
q0 32 -17.5 49t-51.5 17l14 94q79 0 125 -37.5t46 -113.5z" />
    <glyph glyph-name="asciitilde" unicode="~" 
d="M77 255q66 99 154 99q29 0 50.5 -8.5t46.5 -24.5q20 -12 33.5 -18t29.5 -6q23 0 45 13.5t54 45.5l52 -39q-66 -99 -154 -99q-29 0 -49.5 8.5t-47.5 24.5q-22 13 -34.5 19t-28.5 6q-22 0 -44 -13.5t-55 -46.5z" />
    <glyph glyph-name="uni00A0" unicode="&#xa0;" horiz-adv-x="262" 
 />
    <glyph glyph-name="exclamdown" unicode="&#xa1;" horiz-adv-x="329" 
d="M223 296l-19 -190l-47 -291h-121l47 291l39 190h101zM272 477q0 -41 -20.5 -65.5t-63.5 -24.5q-63 0 -63 56q0 40 20.5 64.5t63.5 24.5q63 0 63 -55z" />
    <glyph glyph-name="cent" unicode="&#xa2;" 
d="M218 304q0 -57 28 -90t86 -33q66 0 136 37l37 -83q-62 -39 -137 -50l-13 -85h-97l13 84q-93 12 -133.5 72.5t-40.5 143.5q0 85 31.5 155t90.5 114.5t138 54.5l13 84h97l-13 -85q66 -12 119 -54l-57 -75q-47 34 -118 34q-57 0 -98 -30t-61.5 -81t-20.5 -113z" />
    <glyph glyph-name="sterling" unicode="&#xa3;" 
d="M607 635l-83 -64q-22 26 -51.5 39t-75.5 13q-55 0 -88 -35.5t-33 -91.5q0 -41 13 -93h171l-15 -89h-136q1 -7 1 -22q0 -67 -28.5 -110.5t-84.5 -72.5v-2h306l-18 -107h-461l15 96q68 37 107.5 85.5t39.5 117.5q0 10 -1 15h-112l15 89h78q-14 56 -14 95q0 67 32 118.5
t89 80t129 28.5q131 0 205 -90z" />
    <glyph glyph-name="currency" unicode="&#xa4;" 
d="M453 160l79 -92l-72 -53l-71 98q-37 -17 -84 -17q-46 0 -84 16l-71 -97l-71 53l78 92q-38 48 -38 115q0 68 37 113l-77 91l71 53l70 -97q40 16 85 16t85 -16l70 97l72 -53l-78 -91q37 -46 37 -113q0 -66 -38 -115zM305 168q47 0 70.5 28t23.5 79q0 50 -23.5 77t-70.5 27
q-93 0 -93 -104q0 -51 23 -79t70 -28z" />
    <glyph glyph-name="yen" unicode="&#xa5;" horiz-adv-x="600" 
d="M413 369h108l-13 -81h-146l-8 -47h147l-13 -81h-146l-26 -160h-119l26 160h-142l13 81h142l8 47h-143l13 81h106l-136 339h131l107 -306h2l199 306h136z" />
    <glyph glyph-name="brokenbar" unicode="&#xa6;" horiz-adv-x="362" 
d="M235 808v-381h-108v381h108zM235 281v-381h-108v381h108z" />
    <glyph glyph-name="section" unicode="&#xa7;" 
d="M525 383q0 -90 -100 -130q63 -39 63 -108q0 -76 -63 -118t-159 -42q-114 0 -192 60l57 72q29 -20 59 -29.5t69 -9.5q49 0 76 17t27 44q0 17 -8 27.5t-28 20t-61 22.5q-67 21 -100.5 51.5t-33.5 76.5q0 48 30 81.5t80 51.5q-62 39 -62 102q0 47 28 82t75 53.5t103 18.5
q108 0 176 -57l-57 -70q-52 36 -119 36q-36 0 -60.5 -15.5t-24.5 -42.5q0 -18 18.5 -30.5t70.5 -31.5q70 -23 103 -54.5t33 -77.5zM332 288q38 19 54.5 40.5t16.5 48.5q0 19 -16 32t-56 25q-39 -16 -60 -35.5t-21 -47.5q0 -22 17.5 -35.5t64.5 -27.5z" />
    <glyph glyph-name="dieresis" unicode="&#xa8;" horiz-adv-x="391" 
d="M92 645q0 35 19 57t57 22q56 0 56 -50q0 -36 -17.5 -58t-56.5 -22q-58 0 -58 51zM293 645q0 35 19 57t57 22q56 0 56 -50q0 -36 -17.5 -58t-56.5 -22q-58 0 -58 51z" />
    <glyph glyph-name="copyright" unicode="&#xa9;" horiz-adv-x="932" 
d="M83 354q0 107 45 191.5t132 132.5t207 48q119 0 205.5 -48t132 -132.5t45.5 -191.5t-45.5 -191.5t-132 -132.5t-205.5 -48q-120 0 -207 48t-132 132.5t-45 191.5zM760 354q0 132 -73.5 212.5t-220.5 80.5t-220.5 -80.5t-73.5 -212.5t73.5 -212.5t220.5 -80.5t220.5 80.5
t73.5 212.5zM478 567q77 0 138 -42l-36 -65q-49 31 -101 31q-58 0 -86 -35.5t-28 -97.5q0 -61 28 -98t84 -37q49 0 104 31l34 -64q-30 -21 -67 -32.5t-77 -11.5q-109 0 -155.5 64t-46.5 148q0 96 55.5 152.5t153.5 56.5z" />
    <glyph glyph-name="ordfeminine" unicode="&#xaa;" horiz-adv-x="579" 
d="M565 663l-53 -334q-8 -53 -10 -113h-106q-1 45 5 72h-2q-33 -46 -73 -65.5t-96 -19.5q-84 0 -128 54.5t-44 144.5t36 163.5t102 116.5t152 43q65 0 115 -14t102 -48zM424 500l18 114q-22 12 -43.5 15.5t-48.5 3.5q-54 0 -93.5 -30t-59 -81t-19.5 -110q0 -57 23.5 -87.5
t64.5 -30.5q57 0 100.5 59t57.5 147zM468 4h-436l17 96h436z" />
    <glyph glyph-name="guillemotleft" unicode="&#xab;" horiz-adv-x="520" 
d="M174 341l83 -143l-58 -41l-119 163l7 47l169 165l47 -48zM356 341l83 -143l-58 -41l-119 163l7 47l169 165l47 -48z" />
    <glyph glyph-name="logicalnot" unicode="&#xac;" horiz-adv-x="596" 
d="M392 295h-289l15 96h400l-37 -230h-111z" />
    <glyph glyph-name="uni00AD" unicode="&#xad;" horiz-adv-x="311" 
d="M269 245h-233l15 96h233z" />
    <glyph glyph-name="registered" unicode="&#xae;" horiz-adv-x="342" 
d="M318 688q34 -34 34 -88q0 -53 -34 -87.5t-93 -34.5t-93 34.5t-34 87.5q0 54 34 88t93 34t93 -34zM294 533q23 25 23 67t-23 67t-69 25q-47 0 -70 -25t-23 -67t23 -67t70 -25q46 0 69 25zM255 586l31 -49h-38l-26 43h-13v-43h-34v131h51q25 0 39.5 -11t14.5 -33
q0 -28 -25 -38zM209 604h14q25 0 25 20q0 18 -25 18h-14v-38z" />
    <glyph glyph-name="macron" unicode="&#xaf;" horiz-adv-x="357" 
d="M382 606h-297l13 81h296z" />
    <glyph glyph-name="degree" unicode="&#xb0;" horiz-adv-x="370" 
d="M388 588q0 -66 -40 -103t-109 -37q-71 0 -111 37t-40 103q0 67 40 102.5t110 35.5q71 0 110.5 -35.5t39.5 -102.5zM301 588q0 70 -63 70q-64 0 -64 -70q0 -71 64 -71q63 0 63 71z" />
    <glyph glyph-name="plusminus" unicode="&#xb1;" 
d="M531 427l-15 -96h-147l-25 -154h-104l25 154h-149l15 96h149l24 150h104l-24 -150h147zM78 99h400l-15 -96h-400z" />
    <glyph glyph-name="uni00B2" unicode="&#xb2;" horiz-adv-x="540" 
d="M513 575q0 -57 -30.5 -102.5t-81.5 -84t-152 -104.5l233 2l-15 -95h-393l13 90q24 17 43.5 31t35.5 25q85 60 128.5 93.5t71.5 68t28 67.5q0 29 -19 45t-55 16t-67 -15t-65 -44l-66 66q46 44 96.5 65.5t116.5 21.5q86 0 132 -41.5t46 -104.5z" />
    <glyph glyph-name="uni00B3" unicode="&#xb3;" horiz-adv-x="540" 
d="M513 594q0 -11 -1 -17q-13 -96 -112 -116l-4 -1q42 -6 69.5 -31t27.5 -70q0 -51 -28 -92.5t-82.5 -65.5t-129.5 -24q-67 0 -113 20.5t-80 59.5l68 63q28 -26 57.5 -37t72.5 -11q51 0 85 23.5t34 67.5q0 25 -18 37t-56 12h-93l13 90h76q46 0 72 20.5t26 59.5
q0 24 -18.5 35t-56.5 11q-66 0 -135 -46l-52 70q47 36 97 53t106 17q84 0 129.5 -36t45.5 -92z" />
    <glyph glyph-name="acute" unicode="&#xb4;" horiz-adv-x="283" 
d="M124 568l-38 66l190 135l47 -90z" />
    <glyph glyph-name="uni00B5" unicode="&#xb5;" horiz-adv-x="619" 
d="M584 518l-63 -400q-7 -46 -11 -118h-115q0 44 2 61l-2 -1q-30 -34 -68.5 -54t-82.5 -20q-67 0 -92 47h-2l-25 -166q-11 -64 -30 -111h-112q17 54 28 119l102 643h121l-47 -298q-4 -30 -4 -42q0 -94 85 -94q58 0 99.5 44.5t52.5 112.5l44 277h120z" />
    <glyph glyph-name="paragraph" unicode="&#xb6;" horiz-adv-x="658" 
d="M319 -130h-117l70 442h-10q-93 0 -146 44t-53 129q0 69 33 119.5t92 77t135 26.5h129zM651 708l-133 -838h-117l133 838h117zM287 408l33 204h-14q-63 0 -98 -34t-35 -92q0 -78 95 -78h19z" />
    <glyph glyph-name="periodcentered" unicode="&#xb7;" horiz-adv-x="276" 
d="M79 330q0 41 20.5 65.5t63.5 24.5q63 0 63 -56q0 -40 -20.5 -64.5t-63.5 -24.5q-63 0 -63 55z" />
    <glyph glyph-name="cedilla" unicode="&#xb8;" horiz-adv-x="306" 
d="M214 -127q0 -56 -40.5 -88.5t-102.5 -32.5q-31 0 -60.5 8t-50.5 21l31 59q38 -20 79 -20q26 0 42 12t16 34q0 25 -32 25q-12 0 -29 -5h-53l58 114h75l-27 -55q9 1 23 1q31 0 51 -19t20 -54z" />
    <glyph glyph-name="uni00B9" unicode="&#xb9;" horiz-adv-x="540" 
d="M471 286l-15 -95h-365l15 94h143l50 307l-139 -57l-31 82l198 91h104l-67 -422h107z" />
    <glyph glyph-name="ordmasculine" unicode="&#xba;" horiz-adv-x="641" 
d="M609 520q0 -88 -37 -160.5t-104 -114.5t-152 -42q-104 0 -162 57.5t-58 153.5q0 87 36.5 158.5t102 112t151.5 40.5q107 0 165 -55t58 -150zM215 414q0 -55 27 -87.5t84 -32.5q52 0 90 30.5t57 80.5t19 111q0 55 -27 86.5t-86 31.5q-79 0 -121.5 -63t-42.5 -157zM491 4
h-436l17 96h436z" />
    <glyph glyph-name="guillemotright" unicode="&#xbb;" horiz-adv-x="520" 
d="M284 367l-7 -47l-169 -163l-46 48l130 143l-86 143l60 41zM466 367l-7 -47l-169 -163l-46 48l130 143l-86 143l60 41z" />
    <glyph glyph-name="onequarter" unicode="&#xbc;" horiz-adv-x="1200" 
d="M419 286l-15 -95h-365l15 94h143l50 307l-139 -57l-31 82l198 91h104l-67 -422h107zM959 709l-527 -709h-115l527 709h115zM1155 104h-71l-16 -104h-110l16 104h-265l12 85l223 328h124l-213 -318h134l19 124h111l-20 -124h71z" />
    <glyph glyph-name="onehalf" unicode="&#xbd;" horiz-adv-x="1200" 
d="M413 286l-15 -95h-365l15 94h143l50 307l-139 -57l-31 82l198 91h104l-67 -422h107zM941 709l-527 -709h-115l527 709h115zM1190 384q0 -57 -30.5 -102.5t-81.5 -84t-152 -104.5l233 2l-15 -95h-393l13 90q24 17 43.5 31t35.5 25q85 60 128.5 93.5t71.5 68t28 67.5
q0 29 -19 45t-55 16t-67 -15t-65 -44l-66 66q46 44 96.5 65.5t116.5 21.5q86 0 132 -41.5t46 -104.5z" />
    <glyph glyph-name="threequarters" unicode="&#xbe;" horiz-adv-x="1200" 
d="M467 594q0 -11 -1 -17q-13 -96 -112 -116l-4 -1q42 -6 69.5 -31t27.5 -70q0 -51 -28 -92.5t-82.5 -65.5t-129.5 -24q-67 0 -113 20.5t-80 59.5l68 63q28 -26 57.5 -37t72.5 -11q51 0 85 23.5t34 67.5q0 25 -18 37t-56 12h-93l13 90h76q46 0 72 20.5t26 59.5
q0 24 -18.5 35t-56.5 11q-66 0 -135 -46l-52 70q47 36 97 53t106 17q84 0 129.5 -36t45.5 -92zM957 709l-527 -709h-115l527 709h115zM1158 104h-71l-16 -104h-110l16 104h-265l12 85l223 328h124l-213 -318h134l19 124h111l-20 -124h71z" />
    <glyph glyph-name="questiondown" unicode="&#xbf;" horiz-adv-x="513" 
d="M355 264q-7 -48 -37.5 -78.5t-85.5 -65.5q-37 -24 -58 -41t-35.5 -41t-14.5 -56q0 -39 24 -60.5t68 -21.5q50 0 89 19t81 60l68 -69q-55 -57 -116 -84.5t-139 -27.5q-94 0 -149.5 48t-55.5 128q0 52 22 91t53 64t79 56q47 30 69.5 50.5t25.5 46.5l2 14h115zM391 477
q0 -41 -20.5 -65.5t-63.5 -24.5q-63 0 -63 56q0 40 20.5 64.5t63.5 24.5q63 0 63 -55z" />
    <glyph glyph-name="Agrave" unicode="&#xc0;" horiz-adv-x="658" 
d="M457 155h-284l-81 -155h-135l379 708h129l153 -708h-133zM220 251h220l-58 331zM369 946l183 -121l-47 -57l-197 99z" />
    <glyph glyph-name="Aacute" unicode="&#xc1;" horiz-adv-x="658" 
d="M457 155h-284l-81 -155h-135l379 708h129l153 -708h-133zM220 251h220l-58 331zM334 763l-29 66l194 117l41 -90z" />
    <glyph glyph-name="Acircumflex" unicode="&#xc2;" horiz-adv-x="658" 
d="M457 155h-284l-81 -155h-135l379 708h129l153 -708h-133zM220 251h220l-58 331zM251 817l139 102h92l110 -106l-49 -50l-114 83l-141 -84z" />
    <glyph glyph-name="Atilde" unicode="&#xc3;" horiz-adv-x="658" 
d="M457 155h-284l-81 -155h-135l379 708h129l153 -708h-133zM220 251h220l-58 331zM245 807q26 48 58 72.5t72 24.5q19 0 32 -6.5t31 -19.5q13 -10 22 -14.5t19 -4.5q17 0 32 11t31 33l56 -26q-26 -48 -57 -72t-72 -24q-19 0 -32.5 6.5t-30.5 18.5q-13 9 -22.5 14t-20.5 5
q-16 0 -31 -10.5t-31 -32.5z" />
    <glyph glyph-name="Adieresis" unicode="&#xc4;" horiz-adv-x="658" 
d="M457 155h-284l-81 -155h-135l379 708h129l153 -708h-133zM220 251h220l-58 331zM256 837q0 35 19 57t57 22q56 0 56 -50q0 -36 -17.5 -58t-56.5 -22q-58 0 -58 51zM457 837q0 35 19 57t57 22q56 0 56 -50q0 -36 -17.5 -58t-56.5 -22q-58 0 -58 51z" />
    <glyph glyph-name="Aring" unicode="&#xc5;" horiz-adv-x="658" 
d="M457 155h-284l-81 -155h-135l374 699q-8 19 -8 40q0 60 38 95t98 35q53 0 82.5 -25.5t29.5 -67.5q0 -48 -25 -81t-69 -45l141 -650h-133zM402 744q0 -17 10 -26.5t27 -9.5q24 0 38 16t14 47q0 16 -9.5 25.5t-26.5 9.5q-24 0 -38.5 -16t-14.5 -46zM382 582l-162 -331h220z
" />
    <glyph glyph-name="AE" unicode="&#xc6;" horiz-adv-x="873" 
d="M491 607l33 -195h273l-16 -97h-240l36 -212h255l-16 -103h-343l-24 155h-280l-81 -155h-131l375 708h535l-16 -101h-360zM434 251l-53 334l-164 -334h217z" />
    <glyph glyph-name="Ccedilla" unicode="&#xc7;" horiz-adv-x="666" 
d="M358 -18l-18 -37q9 1 23 1q31 0 51 -19t20 -54q0 -56 -40.5 -88.5t-102.5 -32.5q-31 0 -60.5 8t-50.5 21l31 59q38 -20 79 -20q26 0 42 12t16 34q0 25 -32 25q-12 0 -29 -5h-53l51 101q-114 17 -173.5 93t-59.5 195q0 128 50.5 231t143.5 162.5t215 59.5q68 0 131 -25
t104 -67l-79 -75q-67 59 -165 59q-84 0 -144.5 -44.5t-92 -121t-31.5 -169.5q0 -89 45 -141t139 -52t186 70l64 -82q-52 -45 -115 -71t-145 -27z" />
    <glyph glyph-name="Egrave" unicode="&#xc8;" horiz-adv-x="555" 
d="M570 607h-311l-30 -195h266l-16 -97h-266l-33 -212h327l-16 -103h-453l112 708h436zM329 946l183 -121l-47 -57l-197 99z" />
    <glyph glyph-name="Eacute" unicode="&#xc9;" horiz-adv-x="555" 
d="M570 607h-311l-30 -195h266l-16 -97h-266l-33 -212h327l-16 -103h-453l112 708h436zM294 763l-29 66l194 117l41 -90z" />
    <glyph glyph-name="Ecircumflex" unicode="&#xca;" horiz-adv-x="555" 
d="M570 607h-311l-30 -195h266l-16 -97h-266l-33 -212h327l-16 -103h-453l112 708h436zM212 817l139 102h92l110 -106l-49 -50l-114 83l-141 -84z" />
    <glyph glyph-name="Edieresis" unicode="&#xcb;" horiz-adv-x="555" 
d="M570 607h-311l-30 -195h266l-16 -97h-266l-33 -212h327l-16 -103h-453l112 708h436zM216 837q0 35 19 57t57 22q56 0 56 -50q0 -36 -17.5 -58t-56.5 -22q-58 0 -58 51zM417 837q0 35 19 57t57 22q56 0 56 -50q0 -36 -17.5 -58t-56.5 -22q-58 0 -58 51z" />
    <glyph glyph-name="Igrave" unicode="&#xcc;" horiz-adv-x="381" 
d="M227 95h81l-15 -95h-286l15 95h82l83 521h-82l14 92h286l-14 -92h-81zM231 946l183 -121l-47 -57l-197 99z" />
    <glyph glyph-name="Iacute" unicode="&#xcd;" horiz-adv-x="381" 
d="M227 95h81l-15 -95h-286l15 95h82l83 521h-82l14 92h286l-14 -92h-81zM196 763l-29 66l194 117l41 -90z" />
    <glyph glyph-name="Icircumflex" unicode="&#xce;" horiz-adv-x="381" 
d="M227 95h81l-15 -95h-286l15 95h82l83 521h-82l14 92h286l-14 -92h-81zM114 817l139 102h92l110 -106l-49 -50l-114 83l-141 -84z" />
    <glyph glyph-name="Idieresis" unicode="&#xcf;" horiz-adv-x="381" 
d="M227 95h81l-15 -95h-286l15 95h82l83 521h-82l14 92h286l-14 -92h-81zM118 837q0 35 19 57t57 22q56 0 56 -50q0 -36 -17.5 -58t-56.5 -22q-58 0 -58 51zM319 837q0 35 19 57t57 22q56 0 56 -50q0 -36 -17.5 -58t-56.5 -22q-58 0 -58 51z" />
    <glyph glyph-name="Eth" unicode="&#xd0;" horiz-adv-x="724" 
d="M703 433q0 -130 -51 -228t-147 -151.5t-227 -53.5h-240l50 314h-76l13 80h75l50 314h228q148 0 236.5 -69t88.5 -206zM573 424q0 93 -53 137t-157 44h-105l-33 -211h156l-13 -80h-156l-33 -210h102q143 0 217.5 86t74.5 234z" />
    <glyph glyph-name="Ntilde" unicode="&#xd1;" horiz-adv-x="762" 
d="M150 708l140 -1l264 -541h2l82 542h116l-112 -708h-139l-263 543h-3l-82 -543h-117zM297 807q26 48 58 72.5t72 24.5q19 0 32 -6.5t31 -19.5q13 -10 22 -14.5t19 -4.5q17 0 32 11t31 33l56 -26q-26 -48 -57 -72t-72 -24q-19 0 -32.5 6.5t-30.5 18.5q-13 9 -22.5 14
t-20.5 5q-16 0 -31 -10.5t-31 -32.5z" />
    <glyph glyph-name="Ograve" unicode="&#xd2;" horiz-adv-x="794" 
d="M52 278q0 127 51.5 229t145.5 160.5t216 58.5q97 0 166.5 -36t105 -102.5t35.5 -156.5q0 -127 -51.5 -229.5t-145.5 -161t-217 -58.5q-97 0 -166 36.5t-104.5 103t-35.5 156.5zM644 423q0 94 -47 144.5t-142 50.5q-86 0 -148 -44t-94 -119.5t-32 -169.5q0 -93 47 -144
t142 -51q86 0 148 44.5t94 120.5t32 168zM441 946l183 -121l-47 -57l-197 99z" />
    <glyph glyph-name="Oacute" unicode="&#xd3;" horiz-adv-x="794" 
d="M52 278q0 127 51.5 229t145.5 160.5t216 58.5q97 0 166.5 -36t105 -102.5t35.5 -156.5q0 -127 -51.5 -229.5t-145.5 -161t-217 -58.5q-97 0 -166 36.5t-104.5 103t-35.5 156.5zM644 423q0 94 -47 144.5t-142 50.5q-86 0 -148 -44t-94 -119.5t-32 -169.5q0 -93 47 -144
t142 -51q86 0 148 44.5t94 120.5t32 168zM406 763l-29 66l194 117l41 -90z" />
    <glyph glyph-name="Ocircumflex" unicode="&#xd4;" horiz-adv-x="794" 
d="M52 278q0 127 51.5 229t145.5 160.5t216 58.5q97 0 166.5 -36t105 -102.5t35.5 -156.5q0 -127 -51.5 -229.5t-145.5 -161t-217 -58.5q-97 0 -166 36.5t-104.5 103t-35.5 156.5zM644 423q0 94 -47 144.5t-142 50.5q-86 0 -148 -44t-94 -119.5t-32 -169.5q0 -93 47 -144
t142 -51q86 0 148 44.5t94 120.5t32 168zM324 817l139 102h92l110 -106l-49 -50l-114 83l-141 -84z" />
    <glyph glyph-name="Otilde" unicode="&#xd5;" horiz-adv-x="794" 
d="M52 278q0 127 51.5 229t145.5 160.5t216 58.5q97 0 166.5 -36t105 -102.5t35.5 -156.5q0 -127 -51.5 -229.5t-145.5 -161t-217 -58.5q-97 0 -166 36.5t-104.5 103t-35.5 156.5zM644 423q0 94 -47 144.5t-142 50.5q-86 0 -148 -44t-94 -119.5t-32 -169.5q0 -93 47 -144
t142 -51q86 0 148 44.5t94 120.5t32 168zM317 807q26 48 58 72.5t72 24.5q19 0 32 -6.5t31 -19.5q13 -10 22 -14.5t19 -4.5q17 0 32 11t31 33l56 -26q-26 -48 -57 -72t-72 -24q-19 0 -32.5 6.5t-30.5 18.5q-13 9 -22.5 14t-20.5 5q-16 0 -31 -10.5t-31 -32.5z" />
    <glyph glyph-name="Odieresis" unicode="&#xd6;" horiz-adv-x="794" 
d="M52 278q0 127 51.5 229t145.5 160.5t216 58.5q97 0 166.5 -36t105 -102.5t35.5 -156.5q0 -127 -51.5 -229.5t-145.5 -161t-217 -58.5q-97 0 -166 36.5t-104.5 103t-35.5 156.5zM644 423q0 94 -47 144.5t-142 50.5q-86 0 -148 -44t-94 -119.5t-32 -169.5q0 -93 47 -144
t142 -51q86 0 148 44.5t94 120.5t32 168zM328 837q0 35 19 57t57 22q56 0 56 -50q0 -36 -17.5 -58t-56.5 -22q-58 0 -58 51zM529 837q0 35 19 57t57 22q56 0 56 -50q0 -36 -17.5 -58t-56.5 -22q-58 0 -58 51z" />
    <glyph glyph-name="multiply" unicode="&#xd7;" 
d="M373 288l108 -108l-67 -68l-108 109l-108 -108l-68 68l108 107l-107 107l67 68l107 -107l108 107l68 -67z" />
    <glyph glyph-name="Oslash" unicode="&#xd8;" horiz-adv-x="794" 
d="M772 431q0 -127 -51.5 -229.5t-145.5 -161t-217 -58.5q-15 0 -45 2l-31 -81l-102 21l37 83q-80 32 -122.5 102.5t-42.5 168.5q0 127 51.5 229t145.5 160.5t216 58.5q15 0 45 -2l30 77l102 -21l-34 -79q80 -33 122 -102.5t42 -167.5zM180 285q0 -135 85 -176l209 510
q-6 1 -20 1q-86 0 -148 -44.5t-94 -120.5t-32 -170zM643 423q0 134 -84 177l-209 -511q7 -1 20 -1q85 0 147 45t94 121t32 169z" />
    <glyph glyph-name="Ugrave" unicode="&#xd9;" horiz-adv-x="722" 
d="M65 200q0 23 5 56l72 452h125l-70 -444q-5 -30 -5 -51q0 -62 33 -92.5t108 -30.5q88 0 133.5 44t59.5 131l70 443h125l-72 -453q-20 -130 -103 -201.5t-220 -71.5q-123 0 -192 57.5t-69 160.5zM400 946l183 -121l-47 -57l-197 99z" />
    <glyph glyph-name="Uacute" unicode="&#xda;" horiz-adv-x="722" 
d="M65 200q0 23 5 56l72 452h125l-70 -444q-5 -30 -5 -51q0 -62 33 -92.5t108 -30.5q88 0 133.5 44t59.5 131l70 443h125l-72 -453q-20 -130 -103 -201.5t-220 -71.5q-123 0 -192 57.5t-69 160.5zM365 763l-29 66l194 117l41 -90z" />
    <glyph glyph-name="Ucircumflex" unicode="&#xdb;" horiz-adv-x="722" 
d="M65 200q0 23 5 56l72 452h125l-70 -444q-5 -30 -5 -51q0 -62 33 -92.5t108 -30.5q88 0 133.5 44t59.5 131l70 443h125l-72 -453q-20 -130 -103 -201.5t-220 -71.5q-123 0 -192 57.5t-69 160.5zM283 817l139 102h92l110 -106l-49 -50l-114 83l-141 -84z" />
    <glyph glyph-name="Udieresis" unicode="&#xdc;" horiz-adv-x="722" 
d="M65 200q0 23 5 56l72 452h125l-70 -444q-5 -30 -5 -51q0 -62 33 -92.5t108 -30.5q88 0 133.5 44t59.5 131l70 443h125l-72 -453q-20 -130 -103 -201.5t-220 -71.5q-123 0 -192 57.5t-69 160.5zM287 837q0 35 19 57t57 22q56 0 56 -50q0 -36 -17.5 -58t-56.5 -22
q-58 0 -58 51zM488 837q0 35 19 57t57 22q56 0 56 -50q0 -36 -17.5 -58t-56.5 -22q-58 0 -58 51z" />
    <glyph glyph-name="Yacute" unicode="&#xdd;" horiz-adv-x="583" 
d="M358 301l-48 -301h-125l49 303l-180 405h137l118 -305h2l213 305h146zM296 763l-29 66l194 117l41 -90z" />
    <glyph glyph-name="Thorn" unicode="&#xde;" horiz-adv-x="620" 
d="M610 404q0 -80 -38.5 -141.5t-105.5 -95.5t-152 -34h-130l-21 -133h-125l112 708h125l-17 -109h119q104 0 168.5 -49.5t64.5 -145.5zM481 396q0 53 -35 78t-90 25h-114l-42 -265h113q73 0 120.5 45t47.5 117z" />
    <glyph glyph-name="germandbls" unicode="&#xdf;" horiz-adv-x="642" 
d="M-53 -166q55 18 81.5 53t37.5 103l69 434h-83l13 77l85 14l4 29q14 86 70.5 132t152.5 46q120 0 205 -95l-115 -207q57 -21 97.5 -65t40.5 -119q0 -72 -32.5 -129t-89 -89t-124.5 -32q-67 0 -125 31l42 80q41 -16 76 -16q60 0 95 45t35 107q0 51 -33.5 78.5t-102.5 39.5
l11 73l95 180q-14 12 -35.5 19.5t-47.5 7.5q-81 0 -95 -90l-87 -550q-12 -74 -36.5 -121.5t-65.5 -77.5t-107 -50z" />
    <glyph glyph-name="agrave" unicode="&#xe0;" 
d="M570 467l-56 -349q-8 -55 -10 -118h-111q-1 47 5 75h-2q-34 -48 -76 -68.5t-101 -20.5q-87 0 -133 57t-46 151t37.5 171t106.5 122t159 45q68 0 120 -14.5t107 -50.5zM422 297l19 119q-23 12 -45.5 16t-50.5 4q-57 0 -98 -31.5t-61.5 -84.5t-20.5 -115q0 -60 24.5 -92
t67.5 -32q60 0 105.5 62t59.5 154zM326 769l167 -145l-52 -56l-183 124z" />
    <glyph glyph-name="aacute" unicode="&#xe1;" 
d="M570 467l-56 -349q-8 -55 -10 -118h-111q-1 47 5 75h-2q-34 -48 -76 -68.5t-101 -20.5q-87 0 -133 57t-46 151t37.5 171t106.5 122t159 45q68 0 120 -14.5t107 -50.5zM422 297l19 119q-23 12 -45.5 16t-50.5 4q-57 0 -98 -31.5t-61.5 -84.5t-20.5 -115q0 -60 24.5 -92
t67.5 -32q60 0 105.5 62t59.5 154zM291 568l-38 66l190 135l47 -90z" />
    <glyph glyph-name="acircumflex" unicode="&#xe2;" 
d="M570 467l-56 -349q-8 -55 -10 -118h-111q-1 47 5 75h-2q-34 -48 -76 -68.5t-101 -20.5q-87 0 -133 57t-46 151t37.5 171t106.5 122t159 45q68 0 120 -14.5t107 -50.5zM422 297l19 119q-23 12 -45.5 16t-50.5 4q-57 0 -98 -31.5t-61.5 -84.5t-20.5 -115q0 -60 24.5 -92
t67.5 -32q60 0 105.5 62t59.5 154zM193 619l150 125h93l106 -128l-48 -48l-112 101l-145 -99z" />
    <glyph glyph-name="atilde" unicode="&#xe3;" 
d="M570 467l-56 -349q-8 -55 -10 -118h-111q-1 47 5 75h-2q-34 -48 -76 -68.5t-101 -20.5q-87 0 -133 57t-46 151t37.5 171t106.5 122t159 45q68 0 120 -14.5t107 -50.5zM422 297l19 119q-23 12 -45.5 16t-50.5 4q-57 0 -98 -31.5t-61.5 -84.5t-20.5 -115q0 -60 24.5 -92
t67.5 -32q60 0 105.5 62t59.5 154zM192 615q26 48 58 72.5t72 24.5q19 0 32 -6.5t31 -19.5q13 -10 22 -14.5t19 -4.5q17 0 32 11t31 33l56 -26q-26 -48 -57 -72t-72 -24q-19 0 -32.5 6.5t-30.5 18.5q-13 9 -22.5 14t-20.5 5q-16 0 -31 -10.5t-31 -32.5z" />
    <glyph glyph-name="adieresis" unicode="&#xe4;" 
d="M570 467l-56 -349q-8 -55 -10 -118h-111q-1 47 5 75h-2q-34 -48 -76 -68.5t-101 -20.5q-87 0 -133 57t-46 151t37.5 171t106.5 122t159 45q68 0 120 -14.5t107 -50.5zM422 297l19 119q-23 12 -45.5 16t-50.5 4q-57 0 -98 -31.5t-61.5 -84.5t-20.5 -115q0 -60 24.5 -92
t67.5 -32q60 0 105.5 62t59.5 154zM204 645q0 35 19 57t57 22q56 0 56 -50q0 -36 -17.5 -58t-56.5 -22q-58 0 -58 51zM405 645q0 35 19 57t57 22q56 0 56 -50q0 -36 -17.5 -58t-56.5 -22q-58 0 -58 51z" />
    <glyph glyph-name="aring" unicode="&#xe5;" 
d="M570 467l-56 -349q-8 -55 -10 -118h-111q-1 47 5 75h-2q-34 -48 -76 -68.5t-101 -20.5q-87 0 -133 57t-46 151t37.5 171t106.5 122t159 45q68 0 120 -14.5t107 -50.5zM422 297l19 119q-23 12 -45.5 16t-50.5 4q-57 0 -98 -31.5t-61.5 -84.5t-20.5 -115q0 -60 24.5 -92
t67.5 -32q60 0 105.5 62t59.5 154zM250 667q0 60 38 95t98 35q53 0 82.5 -25.5t29.5 -67.5q0 -59 -37.5 -95t-99.5 -36q-52 0 -81.5 26.5t-29.5 67.5zM418 699q0 16 -9.5 25.5t-26.5 9.5q-24 0 -38.5 -16t-14.5 -46q0 -17 10 -26.5t27 -9.5q24 0 38 16t14 47z" />
    <glyph glyph-name="ae" unicode="&#xe6;" horiz-adv-x="836" 
d="M460 210v-4q0 -121 122 -121q36 0 63.5 9.5t64.5 30.5l43 -78q-51 -33 -93 -47t-100 -14q-134 0 -171 105q-42 -52 -91.5 -78.5t-112.5 -26.5q-75 0 -119.5 36t-44.5 105q0 111 91 154.5t252 43.5l4 25q2 9 2 23q0 66 -82 66q-76 0 -153 -41l-29 81q45 24 98.5 38.5
t102.5 14.5q60 0 95.5 -18t53.5 -58q70 76 180 76q57 0 97 -20.5t60.5 -53t20.5 -67.5q0 -102 -94.5 -139.5t-259.5 -41.5zM470 297q83 4 128 11t69.5 25.5t24.5 54.5q0 24 -17 39t-50 15q-60 0 -99 -39t-56 -106zM352 244q-66 0 -108 -6.5t-68.5 -29.5t-26.5 -69
q0 -29 17.5 -44t48.5 -15q49 0 86 35.5t44 83.5z" />
    <glyph glyph-name="ccedilla" unicode="&#xe7;" horiz-adv-x="510" 
d="M164 212q0 -58 28 -91.5t85 -33.5q62 0 132 39l39 -84q-73 -48 -160 -55l-21 -42q9 1 23 1q31 0 51 -19t20 -54q0 -56 -40.5 -88.5t-102.5 -32.5q-31 0 -60.5 8t-50.5 21l31 59q38 -20 79 -20q26 0 42 12t16 34q0 25 -32 25q-12 0 -29 -5h-53l52 103q-91 12 -131 72.5
t-40 142.5q0 92 37 167t106 118t159 43q97 0 166 -55l-54 -81q-49 37 -121 37q-55 0 -93.5 -30t-58 -80t-19.5 -111z" />
    <glyph glyph-name="egrave" unicode="&#xe8;" horiz-adv-x="546" 
d="M161 199q5 -114 121 -114q40 0 71 9.5t67 30.5l43 -78q-51 -33 -95.5 -47t-106.5 -14q-104 0 -161.5 57.5t-57.5 157.5q0 93 36 168.5t103.5 119t157.5 43.5q99 0 142 -41.5t43 -101.5q0 -99 -98.5 -141.5t-264.5 -48.5zM402 388q0 26 -15.5 40t-55.5 14
q-65 0 -106 -41.5t-56 -111.5q82 5 131.5 14.5t75.5 29.5t26 55zM305 769l167 -145l-52 -56l-183 124z" />
    <glyph glyph-name="eacute" unicode="&#xe9;" horiz-adv-x="546" 
d="M161 199q5 -114 121 -114q40 0 71 9.5t67 30.5l43 -78q-51 -33 -95.5 -47t-106.5 -14q-104 0 -161.5 57.5t-57.5 157.5q0 93 36 168.5t103.5 119t157.5 43.5q99 0 142 -41.5t43 -101.5q0 -99 -98.5 -141.5t-264.5 -48.5zM402 388q0 26 -15.5 40t-55.5 14
q-65 0 -106 -41.5t-56 -111.5q82 5 131.5 14.5t75.5 29.5t26 55zM269 568l-38 66l190 135l47 -90z" />
    <glyph glyph-name="ecircumflex" unicode="&#xea;" horiz-adv-x="546" 
d="M161 199q5 -114 121 -114q40 0 71 9.5t67 30.5l43 -78q-51 -33 -95.5 -47t-106.5 -14q-104 0 -161.5 57.5t-57.5 157.5q0 93 36 168.5t103.5 119t157.5 43.5q99 0 142 -41.5t43 -101.5q0 -99 -98.5 -141.5t-264.5 -48.5zM402 388q0 26 -15.5 40t-55.5 14
q-65 0 -106 -41.5t-56 -111.5q82 5 131.5 14.5t75.5 29.5t26 55zM172 619l150 125h93l106 -128l-48 -48l-112 101l-145 -99z" />
    <glyph glyph-name="edieresis" unicode="&#xeb;" horiz-adv-x="546" 
d="M161 199q5 -114 121 -114q40 0 71 9.5t67 30.5l43 -78q-51 -33 -95.5 -47t-106.5 -14q-104 0 -161.5 57.5t-57.5 157.5q0 93 36 168.5t103.5 119t157.5 43.5q99 0 142 -41.5t43 -101.5q0 -99 -98.5 -141.5t-264.5 -48.5zM402 388q0 26 -15.5 40t-55.5 14
q-65 0 -106 -41.5t-56 -111.5q82 5 131.5 14.5t75.5 29.5t26 55zM183 645q0 35 19 57t57 22q56 0 56 -50q0 -36 -17.5 -58t-56.5 -22q-58 0 -58 51zM384 645q0 35 19 57t57 22q56 0 56 -50q0 -36 -17.5 -58t-56.5 -22q-58 0 -58 51z" />
    <glyph glyph-name="igrave" unicode="&#xec;" horiz-adv-x="274" 
d="M156 0h-120l82 518h120zM157 769l167 -145l-52 -56l-183 124z" />
    <glyph glyph-name="iacute" unicode="&#xed;" horiz-adv-x="274" 
d="M156 0h-120l82 518h120zM121 568l-38 66l190 135l47 -90z" />
    <glyph glyph-name="icircumflex" unicode="&#xee;" horiz-adv-x="274" 
d="M156 0h-120l82 518h120zM24 619l150 125h93l106 -128l-48 -48l-112 101l-145 -99z" />
    <glyph glyph-name="idieresis" unicode="&#xef;" horiz-adv-x="274" 
d="M156 0h-120l82 518h120zM35 645q0 35 19 57t57 22q56 0 56 -50q0 -36 -17.5 -58t-56.5 -22q-58 0 -58 51zM236 645q0 35 19 57t57 22q56 0 56 -50q0 -36 -17.5 -58t-56.5 -22q-58 0 -58 51z" />
    <glyph glyph-name="eth" unicode="&#xf0;" horiz-adv-x="633" 
d="M596 385q0 -46 -5 -75q-24 -144 -105 -234t-209 -90q-110 0 -173.5 57.5t-63.5 153.5q0 80 36 147.5t99.5 107.5t143.5 40q102 0 159 -61q-12 92 -103 157l-109 -54l-27 61l64 32q-29 13 -68 25l57 74q68 -22 115 -48l97 48l27 -61l-58 -29q58 -42 90.5 -106t32.5 -145z
M465 322q-27 37 -60 56.5t-81 19.5t-84.5 -28t-55.5 -73t-19 -95q0 -55 31.5 -84t86.5 -29q74 0 120 62t62 171z" />
    <glyph glyph-name="ntilde" unicode="&#xf1;" horiz-adv-x="618" 
d="M98 401q7 45 11 117h112q2 -42 -8 -90h2q27 44 79 74t110 30q78 0 118.5 -44.5t40.5 -111.5q0 -17 -3 -35l-55 -341h-120l51 318q1 7 2 16.5t1 21.5q0 77 -69 77q-47 0 -86.5 -40t-66 -103t-37.5 -132l-25 -158h-120zM215 615q26 48 58 72.5t72 24.5q19 0 32 -6.5
t31 -19.5q13 -10 22 -14.5t19 -4.5q17 0 32 11t31 33l56 -26q-26 -48 -57 -72t-72 -24q-19 0 -32.5 6.5t-30.5 18.5q-13 9 -22.5 14t-20.5 5q-16 0 -31 -10.5t-31 -32.5z" />
    <glyph glyph-name="ograve" unicode="&#xf2;" horiz-adv-x="620" 
d="M578 318q0 -92 -38.5 -168t-108.5 -120t-159 -44q-109 0 -169.5 60.5t-60.5 160.5q0 91 38 165.5t106.5 117t158.5 42.5q112 0 172.5 -57.5t60.5 -156.5zM166 207q0 -58 28.5 -92t87.5 -34q55 0 94.5 32t59.5 84.5t20 115.5q0 58 -28.5 91t-89.5 33q-83 0 -127.5 -66
t-44.5 -164zM330 769l167 -145l-52 -56l-183 124z" />
    <glyph glyph-name="oacute" unicode="&#xf3;" horiz-adv-x="620" 
d="M578 318q0 -92 -38.5 -168t-108.5 -120t-159 -44q-109 0 -169.5 60.5t-60.5 160.5q0 91 38 165.5t106.5 117t158.5 42.5q112 0 172.5 -57.5t60.5 -156.5zM166 207q0 -58 28.5 -92t87.5 -34q55 0 94.5 32t59.5 84.5t20 115.5q0 58 -28.5 91t-89.5 33q-83 0 -127.5 -66
t-44.5 -164zM294 568l-38 66l190 135l47 -90z" />
    <glyph glyph-name="ocircumflex" unicode="&#xf4;" horiz-adv-x="620" 
d="M578 318q0 -92 -38.5 -168t-108.5 -120t-159 -44q-109 0 -169.5 60.5t-60.5 160.5q0 91 38 165.5t106.5 117t158.5 42.5q112 0 172.5 -57.5t60.5 -156.5zM166 207q0 -58 28.5 -92t87.5 -34q55 0 94.5 32t59.5 84.5t20 115.5q0 58 -28.5 91t-89.5 33q-83 0 -127.5 -66
t-44.5 -164zM197 619l150 125h93l106 -128l-48 -48l-112 101l-145 -99z" />
    <glyph glyph-name="otilde" unicode="&#xf5;" horiz-adv-x="620" 
d="M578 318q0 -92 -38.5 -168t-108.5 -120t-159 -44q-109 0 -169.5 60.5t-60.5 160.5q0 91 38 165.5t106.5 117t158.5 42.5q112 0 172.5 -57.5t60.5 -156.5zM166 207q0 -58 28.5 -92t87.5 -34q55 0 94.5 32t59.5 84.5t20 115.5q0 58 -28.5 91t-89.5 33q-83 0 -127.5 -66
t-44.5 -164zM196 615q26 48 58 72.5t72 24.5q19 0 32 -6.5t31 -19.5q13 -10 22 -14.5t19 -4.5q17 0 32 11t31 33l56 -26q-26 -48 -57 -72t-72 -24q-19 0 -32.5 6.5t-30.5 18.5q-13 9 -22.5 14t-20.5 5q-16 0 -31 -10.5t-31 -32.5z" />
    <glyph glyph-name="odieresis" unicode="&#xf6;" horiz-adv-x="620" 
d="M578 318q0 -92 -38.5 -168t-108.5 -120t-159 -44q-109 0 -169.5 60.5t-60.5 160.5q0 91 38 165.5t106.5 117t158.5 42.5q112 0 172.5 -57.5t60.5 -156.5zM166 207q0 -58 28.5 -92t87.5 -34q55 0 94.5 32t59.5 84.5t20 115.5q0 58 -28.5 91t-89.5 33q-83 0 -127.5 -66
t-44.5 -164zM208 645q0 35 19 57t57 22q56 0 56 -50q0 -36 -17.5 -58t-56.5 -22q-58 0 -58 51zM409 645q0 35 19 57t57 22q56 0 56 -50q0 -36 -17.5 -58t-56.5 -22q-58 0 -58 51z" />
    <glyph glyph-name="divide" unicode="&#xf7;" horiz-adv-x="596" 
d="M267 488q0 38 19.5 62t60.5 24q60 0 60 -54q0 -38 -19 -61.5t-61 -23.5q-60 0 -60 53zM495 245h-400l15 96h400zM198 58q0 38 19.5 62t60.5 24q60 0 60 -54q0 -38 -19 -61.5t-61 -23.5q-60 0 -60 53z" />
    <glyph glyph-name="oslash" unicode="&#xf8;" horiz-adv-x="620" 
d="M578 318q0 -92 -38.5 -168t-108.5 -120t-159 -44q-14 0 -21 1l-32 -84l-101 21l38 85q-56 26 -85 77.5t-29 120.5q0 91 38 165.5t106.5 117t158.5 42.5q17 0 25 -1l32 84l100 -21l-37 -85q55 -25 84 -74t29 -117zM163 204q0 -76 42 -105l140 340h-6q-86 0 -131 -66.5
t-45 -168.5zM458 319q0 73 -41 101l-139 -341h3q86 0 131.5 68.5t45.5 171.5z" />
    <glyph glyph-name="ugrave" unicode="&#xf9;" horiz-adv-x="618" 
d="M56 146q0 19 4 40l52 332h120l-50 -318q-4 -24 -4 -43q0 -33 17 -52.5t55 -19.5q47 0 84.5 31t61.5 79.5t32 100.5l35 222h120l-63 -400q-9 -53 -11 -118h-111q-3 36 7 78h-2q-28 -41 -76.5 -66.5t-101.5 -25.5q-82 0 -125.5 46t-43.5 114zM328 769l167 -145l-52 -56
l-183 124z" />
    <glyph glyph-name="uacute" unicode="&#xfa;" horiz-adv-x="618" 
d="M56 146q0 19 4 40l52 332h120l-50 -318q-4 -24 -4 -43q0 -33 17 -52.5t55 -19.5q47 0 84.5 31t61.5 79.5t32 100.5l35 222h120l-63 -400q-9 -53 -11 -118h-111q-3 36 7 78h-2q-28 -41 -76.5 -66.5t-101.5 -25.5q-82 0 -125.5 46t-43.5 114zM293 568l-38 66l190 135
l47 -90z" />
    <glyph glyph-name="ucircumflex" unicode="&#xfb;" horiz-adv-x="618" 
d="M56 146q0 19 4 40l52 332h120l-50 -318q-4 -24 -4 -43q0 -33 17 -52.5t55 -19.5q47 0 84.5 31t61.5 79.5t32 100.5l35 222h120l-63 -400q-9 -53 -11 -118h-111q-3 36 7 78h-2q-28 -41 -76.5 -66.5t-101.5 -25.5q-82 0 -125.5 46t-43.5 114zM195 619l150 125h93l106 -128
l-48 -48l-112 101l-145 -99z" />
    <glyph glyph-name="udieresis" unicode="&#xfc;" horiz-adv-x="618" 
d="M56 146q0 19 4 40l52 332h120l-50 -318q-4 -24 -4 -43q0 -33 17 -52.5t55 -19.5q47 0 84.5 31t61.5 79.5t32 100.5l35 222h120l-63 -400q-9 -53 -11 -118h-111q-3 36 7 78h-2q-28 -41 -76.5 -66.5t-101.5 -25.5q-82 0 -125.5 46t-43.5 114zM206 645q0 35 19 57t57 22
q56 0 56 -50q0 -36 -17.5 -58t-56.5 -22q-58 0 -58 51zM407 645q0 35 19 57t57 22q56 0 56 -50q0 -36 -17.5 -58t-56.5 -22q-58 0 -58 51z" />
    <glyph glyph-name="yacute" unicode="&#xfd;" horiz-adv-x="493" 
d="M148 -20l8 16l-115 522h126l63 -393h2l174 393h129l-271 -550q-39 -78 -75 -121t-80.5 -66t-115.5 -39l-24 94q45 11 75 25t55.5 42t48.5 77zM230 568l-38 66l190 135l47 -90z" />
    <glyph glyph-name="thorn" unicode="&#xfe;" horiz-adv-x="623" 
d="M583 327q0 -92 -35.5 -170.5t-99 -124.5t-144.5 -46q-87 0 -144 37l-43 -267h-120l152 952h120l-42 -261h2q26 35 68.5 60t102.5 25q92 0 137.5 -56t45.5 -149zM459 317q0 58 -24.5 89t-71.5 31q-38 0 -74.5 -30t-62.5 -79t-34 -105l-18 -112q29 -17 55 -23.5t60 -6.5
q55 0 93 33t57.5 86.5t19.5 116.5z" />
    <glyph glyph-name="ydieresis" unicode="&#xff;" horiz-adv-x="493" 
d="M148 -20l8 16l-115 522h126l63 -393h2l174 393h129l-271 -550q-39 -78 -75 -121t-80.5 -66t-115.5 -39l-24 94q45 11 75 25t55.5 42t48.5 77zM144 645q0 35 19 57t57 22q56 0 56 -50q0 -36 -17.5 -58t-56.5 -22q-58 0 -58 51zM345 645q0 35 19 57t57 22q56 0 56 -50
q0 -36 -17.5 -58t-56.5 -22q-58 0 -58 51z" />
    <glyph glyph-name="Amacron" unicode="&#x100;" horiz-adv-x="658" 
d="M457 155h-284l-81 -155h-135l379 708h129l153 -708h-133zM220 251h220l-58 331zM564 798h-297l13 81h296z" />
    <glyph glyph-name="amacron" unicode="&#x101;" 
d="M570 467l-56 -349q-8 -55 -10 -118h-111q-1 47 5 75h-2q-34 -48 -76 -68.5t-101 -20.5q-87 0 -133 57t-46 151t37.5 171t106.5 122t159 45q68 0 120 -14.5t107 -50.5zM422 297l19 119q-23 12 -45.5 16t-50.5 4q-57 0 -98 -31.5t-61.5 -84.5t-20.5 -115q0 -60 24.5 -92
t67.5 -32q60 0 105.5 62t59.5 154zM512 606h-297l13 81h296z" />
    <glyph glyph-name="Abreve" unicode="&#x102;" horiz-adv-x="658" 
d="M457 155h-284l-81 -155h-135l379 708h129l153 -708h-133zM220 251h220l-58 331zM578 902q-17 -63 -63.5 -99t-112.5 -36q-65 0 -101 35t-36 92v9l70 8q2 -29 22.5 -45.5t55.5 -16.5q33 0 59 16.5t39 45.5z" />
    <glyph glyph-name="abreve" unicode="&#x103;" 
d="M570 467l-56 -349q-8 -55 -10 -118h-111q-1 47 5 75h-2q-34 -48 -76 -68.5t-101 -20.5q-87 0 -133 57t-46 151t37.5 171t106.5 122t159 45q68 0 120 -14.5t107 -50.5zM422 297l19 119q-23 12 -45.5 16t-50.5 4q-57 0 -98 -31.5t-61.5 -84.5t-20.5 -115q0 -60 24.5 -92
t67.5 -32q60 0 105.5 62t59.5 154zM541 728q-19 -74 -64 -112.5t-114 -38.5t-106.5 37.5t-37.5 99.5v15l69 8q3 -38 24.5 -57.5t57.5 -19.5q70 0 100 77z" />
    <glyph glyph-name="Aogonek" unicode="&#x104;" horiz-adv-x="658" 
d="M445 -135q0 -18 9 -26t30 -8q25 0 60 16l21 -67q-48 -27 -105 -27q-45 0 -75 22.5t-30 62.5q0 100 129 169l-27 148h-284l-81 -155h-135l379 708h129l153 -708h-49q-53 -32 -88.5 -68t-35.5 -67zM220 251h220l-58 331z" />
    <glyph glyph-name="aogonek" unicode="&#x105;" 
d="M570 467l-56 -349q-8 -55 -10 -118h-18q-53 -32 -88.5 -68t-35.5 -67q0 -18 9 -26t30 -8q25 0 60 16l21 -67q-48 -27 -105 -27q-45 0 -75 22.5t-30 62.5q0 98 121 165q-1 45 5 72h-2q-34 -48 -76 -68.5t-101 -20.5q-87 0 -133 57t-46 151t37.5 171t106.5 122t159 45
q68 0 120 -14.5t107 -50.5zM422 297l19 119q-23 12 -45.5 16t-50.5 4q-57 0 -98 -31.5t-61.5 -84.5t-20.5 -115q0 -60 24.5 -92t67.5 -32q60 0 105.5 62t59.5 154z" />
    <glyph glyph-name="Cacute" unicode="&#x106;" horiz-adv-x="666" 
d="M52 275q0 128 50.5 231t143.5 162.5t215 59.5q68 0 131 -25t104 -67l-79 -75q-67 59 -165 59q-84 0 -144.5 -44.5t-92 -121t-31.5 -169.5q0 -89 45 -141t139 -52t186 70l64 -82q-54 -46 -119 -72t-150 -26q-144 0 -220.5 79t-76.5 214zM374 763l-29 66l194 117l41 -90z
" />
    <glyph glyph-name="cacute" unicode="&#x107;" horiz-adv-x="510" 
d="M42 204q0 92 37 167t106 118t159 43q97 0 166 -55l-54 -81q-49 37 -121 37q-55 0 -93.5 -30t-58 -80t-19.5 -111q0 -58 28 -91.5t85 -33.5q62 0 132 39l39 -84q-83 -56 -190 -56q-115 0 -165.5 63t-50.5 155zM280 568l-38 66l190 135l47 -90z" />
    <glyph glyph-name="Ccircumflex" unicode="&#x108;" horiz-adv-x="666" 
d="M52 275q0 128 50.5 231t143.5 162.5t215 59.5q68 0 131 -25t104 -67l-79 -75q-67 59 -165 59q-84 0 -144.5 -44.5t-92 -121t-31.5 -169.5q0 -89 45 -141t139 -52t186 70l64 -82q-54 -46 -119 -72t-150 -26q-144 0 -220.5 79t-76.5 214zM292 817l139 102h92l110 -106
l-49 -50l-114 83l-141 -84z" />
    <glyph glyph-name="ccircumflex" unicode="&#x109;" horiz-adv-x="510" 
d="M42 204q0 92 37 167t106 118t159 43q97 0 166 -55l-54 -81q-49 37 -121 37q-55 0 -93.5 -30t-58 -80t-19.5 -111q0 -58 28 -91.5t85 -33.5q62 0 132 39l39 -84q-83 -56 -190 -56q-115 0 -165.5 63t-50.5 155zM182 619l150 125h93l106 -128l-48 -48l-112 101l-145 -99z
" />
    <glyph glyph-name="Cdotaccent" unicode="&#x10a;" horiz-adv-x="666" 
d="M52 275q0 128 50.5 231t143.5 162.5t215 59.5q68 0 131 -25t104 -67l-79 -75q-67 59 -165 59q-84 0 -144.5 -44.5t-92 -121t-31.5 -169.5q0 -89 45 -141t139 -52t186 70l64 -82q-54 -46 -119 -72t-150 -26q-144 0 -220.5 79t-76.5 214zM390 846q0 36 20.5 59.5t63.5 23.5
q34 0 49.5 -15t15.5 -40q0 -36 -20.5 -59.5t-63.5 -23.5q-34 0 -49.5 15t-15.5 40z" />
    <glyph glyph-name="cdotaccent" unicode="&#x10b;" horiz-adv-x="510" 
d="M42 204q0 92 37 167t106 118t159 43q97 0 166 -55l-54 -81q-49 37 -121 37q-55 0 -93.5 -30t-58 -80t-19.5 -111q0 -58 28 -91.5t85 -33.5q62 0 132 39l39 -84q-83 -56 -190 -56q-115 0 -165.5 63t-50.5 155zM288 669q0 36 20.5 59.5t63.5 23.5q34 0 49.5 -15t15.5 -40
q0 -36 -20.5 -59.5t-63.5 -23.5q-34 0 -49.5 15t-15.5 40z" />
    <glyph glyph-name="Ccaron" unicode="&#x10c;" horiz-adv-x="666" 
d="M52 275q0 128 50.5 231t143.5 162.5t215 59.5q68 0 131 -25t104 -67l-79 -75q-67 59 -165 59q-84 0 -144.5 -44.5t-92 -121t-31.5 -169.5q0 -89 45 -141t139 -52t186 70l64 -82q-54 -46 -119 -72t-150 -26q-144 0 -220.5 79t-76.5 214zM634 876l-141 -102h-92l-108 105
l48 52l114 -84l140 83z" />
    <glyph glyph-name="ccaron" unicode="&#x10d;" horiz-adv-x="510" 
d="M42 204q0 92 37 167t106 118t159 43q97 0 166 -55l-54 -81q-49 37 -121 37q-55 0 -93.5 -30t-58 -80t-19.5 -111q0 -58 28 -91.5t85 -33.5q62 0 132 39l39 -84q-83 -56 -190 -56q-115 0 -165.5 63t-50.5 155zM535 704l-149 -125h-93l-107 128l48 48l113 -101l144 99z" />
    <glyph glyph-name="Dcaron" unicode="&#x10e;" horiz-adv-x="725" 
d="M703 433q0 -130 -51 -228t-147 -151.5t-227 -53.5h-240l112 708h228q148 0 236.5 -69t88.5 -206zM258 605l-79 -501h102q143 0 217.5 86t74.5 234q0 93 -53 137t-157 44h-105zM578 876l-141 -102h-92l-108 105l48 52l114 -84l140 83z" />
    <glyph glyph-name="dcaron" unicode="&#x10f;" horiz-adv-x="686" 
d="M617 708l-93 -590q-8 -55 -10 -118h-111q-1 47 5 75h-2q-35 -48 -77.5 -68.5t-101.5 -20.5q-91 0 -138.5 56.5t-47.5 151.5q0 91 34 168.5t97.5 123.5t147.5 46q48 0 82 -11t60 -32l35 219h120zM432 297l15 98q-44 41 -120 41q-51 0 -87.5 -33t-55 -86t-18.5 -112
q0 -60 26 -92t74 -32q60 0 105.5 61.5t60.5 154.5zM711 534l-69 17l59 175l94 -26z" />
    <glyph glyph-name="Dcroat" unicode="&#x110;" horiz-adv-x="724" 
d="M703 433q0 -130 -51 -228t-147 -151.5t-227 -53.5h-240l50 314h-76l13 80h75l50 314h228q148 0 236.5 -69t88.5 -206zM573 424q0 93 -53 137t-157 44h-105l-33 -211h156l-13 -80h-156l-33 -210h102q143 0 217.5 86t74.5 234z" />
    <glyph glyph-name="dcroat" unicode="&#x111;" horiz-adv-x="623" 
d="M663 577h-67l-72 -459q-8 -55 -10 -118h-111q-1 46 5 75h-2q-35 -48 -77.5 -68.5t-101.5 -20.5q-91 0 -138.5 56.5t-47.5 151.5q0 91 34 168.5t97.5 123.5t147.5 46q48 0 82 -11t60 -32l14 88h-154l12 75h154l9 56h120l-9 -56h68zM432 297l15 98q-44 41 -120 41
q-51 0 -87.5 -33t-55 -86t-18.5 -112q0 -60 26 -92t74 -32q60 0 105.5 61.5t60.5 154.5z" />
    <glyph glyph-name="Emacron" unicode="&#x112;" horiz-adv-x="555" 
d="M570 607h-311l-30 -195h266l-16 -97h-266l-33 -212h327l-16 -103h-453l112 708h436zM524 798h-297l13 81h296z" />
    <glyph glyph-name="emacron" unicode="&#x113;" horiz-adv-x="546" 
d="M161 199q5 -114 121 -114q40 0 71 9.5t67 30.5l43 -78q-51 -33 -95.5 -47t-106.5 -14q-104 0 -161.5 57.5t-57.5 157.5q0 93 36 168.5t103.5 119t157.5 43.5q99 0 142 -41.5t43 -101.5q0 -99 -98.5 -141.5t-264.5 -48.5zM402 388q0 26 -15.5 40t-55.5 14
q-65 0 -106 -41.5t-56 -111.5q82 5 131.5 14.5t75.5 29.5t26 55zM491 606h-297l13 81h296z" />
    <glyph glyph-name="Ebreve" unicode="&#x114;" horiz-adv-x="555" 
d="M570 607h-311l-30 -195h266l-16 -97h-266l-33 -212h327l-16 -103h-453l112 708h436zM538 902q-17 -63 -63.5 -99t-112.5 -36q-65 0 -101 35t-36 92v9l70 8q2 -29 22.5 -45.5t55.5 -16.5q33 0 59 16.5t39 45.5z" />
    <glyph glyph-name="ebreve" unicode="&#x115;" horiz-adv-x="546" 
d="M161 199q5 -114 121 -114q40 0 71 9.5t67 30.5l43 -78q-51 -33 -95.5 -47t-106.5 -14q-104 0 -161.5 57.5t-57.5 157.5q0 93 36 168.5t103.5 119t157.5 43.5q99 0 142 -41.5t43 -101.5q0 -99 -98.5 -141.5t-264.5 -48.5zM402 388q0 26 -15.5 40t-55.5 14
q-65 0 -106 -41.5t-56 -111.5q82 5 131.5 14.5t75.5 29.5t26 55zM520 728q-19 -74 -64 -112.5t-114 -38.5t-106.5 37.5t-37.5 99.5v15l69 8q3 -38 24.5 -57.5t57.5 -19.5q70 0 100 77z" />
    <glyph glyph-name="Edotaccent" unicode="&#x116;" horiz-adv-x="555" 
d="M570 607h-311l-30 -195h266l-16 -97h-266l-33 -212h327l-16 -103h-453l112 708h436zM310 846q0 36 20.5 59.5t63.5 23.5q34 0 49.5 -15t15.5 -40q0 -36 -20.5 -59.5t-63.5 -23.5q-34 0 -49.5 15t-15.5 40z" />
    <glyph glyph-name="edotaccent" unicode="&#x117;" horiz-adv-x="546" 
d="M161 199q5 -114 121 -114q40 0 71 9.5t67 30.5l43 -78q-51 -33 -95.5 -47t-106.5 -14q-104 0 -161.5 57.5t-57.5 157.5q0 93 36 168.5t103.5 119t157.5 43.5q99 0 142 -41.5t43 -101.5q0 -99 -98.5 -141.5t-264.5 -48.5zM402 388q0 26 -15.5 40t-55.5 14
q-65 0 -106 -41.5t-56 -111.5q82 5 131.5 14.5t75.5 29.5t26 55zM279 669q0 36 20.5 59.5t63.5 23.5q34 0 49.5 -15t15.5 -40q0 -36 -20.5 -59.5t-63.5 -23.5q-34 0 -49.5 15t-15.5 40z" />
    <glyph glyph-name="Eogonek" unicode="&#x118;" horiz-adv-x="555" 
d="M259 607l-30 -195h266l-16 -97h-266l-33 -212h327l-16 -103h-39q-53 -32 -88.5 -68t-35.5 -67q0 -18 9 -26t30 -8q25 0 60 16l21 -67q-48 -27 -105 -27q-45 0 -75 22.5t-30 62.5q0 95 116 162h-316l112 708h436l-16 -101h-311z" />
    <glyph glyph-name="eogonek" unicode="&#x119;" horiz-adv-x="547" 
d="M161 199q5 -114 121 -114q40 0 71 9.5t67 30.5l43 -78q-51 -33 -99 -48q-59 -38 -95 -76t-36 -68q0 -18 9 -26t30 -8q25 0 60 16l21 -67q-48 -27 -105 -27q-45 0 -75 22.5t-30 62.5q0 49 30 87.5t89 70.5h-1q-104 0 -161.5 57.5t-57.5 157.5q0 93 36 168.5t103.5 119
t157.5 43.5q99 0 142 -41.5t43 -101.5q0 -99 -98.5 -141.5t-264.5 -48.5zM402 388q0 26 -15.5 40t-55.5 14q-65 0 -106 -41.5t-56 -111.5q82 5 131.5 14.5t75.5 29.5t26 55z" />
    <glyph glyph-name="Ecaron" unicode="&#x11a;" horiz-adv-x="555" 
d="M570 607h-311l-30 -195h266l-16 -97h-266l-33 -212h327l-16 -103h-453l112 708h436zM554 876l-141 -102h-92l-108 105l48 52l114 -84l140 83z" />
    <glyph glyph-name="ecaron" unicode="&#x11b;" horiz-adv-x="546" 
d="M161 199q5 -114 121 -114q40 0 71 9.5t67 30.5l43 -78q-51 -33 -95.5 -47t-106.5 -14q-104 0 -161.5 57.5t-57.5 157.5q0 93 36 168.5t103.5 119t157.5 43.5q99 0 142 -41.5t43 -101.5q0 -99 -98.5 -141.5t-264.5 -48.5zM402 388q0 26 -15.5 40t-55.5 14
q-65 0 -106 -41.5t-56 -111.5q82 5 131.5 14.5t75.5 29.5t26 55zM525 704l-149 -125h-93l-107 128l48 48l113 -101l144 99z" />
    <glyph glyph-name="Gcircumflex" unicode="&#x11c;" horiz-adv-x="727" 
d="M51 273q0 128 50.5 231t144 162.5t216.5 59.5q69 0 131.5 -24.5t102.5 -67.5l-75 -73q-35 28 -74 43t-90 15q-89 0 -151.5 -45t-94 -122.5t-31.5 -173.5q0 -192 189 -192q42 0 76.5 8t71.5 22l25 162h-143l15 97h259l-51 -327q-127 -66 -268 -66q-149 0 -226 77.5
t-77 213.5zM299 817l139 102h92l110 -106l-49 -50l-114 83l-141 -84z" />
    <glyph glyph-name="gcircumflex" unicode="&#x11d;" horiz-adv-x="605" 
d="M23 -195l52 83q68 -46 141 -46t112.5 34t53.5 113l16 88h-2q-34 -47 -75.5 -66t-101.5 -19q-87 0 -132.5 55.5t-45.5 149.5t37.5 170.5t106 120.5t158.5 44q68 0 120 -14.5t107 -50.5l-73 -476q-18 -121 -87.5 -185t-190.5 -64q-56 0 -106.5 17.5t-89.5 45.5zM423 297
l19 119q-24 12 -46 16t-50 4q-57 0 -98 -31.5t-61.5 -84t-20.5 -114.5q0 -58 25 -88.5t67 -30.5q60 0 105 59.5t60 150.5zM194 619l150 125h93l106 -128l-48 -48l-112 101l-145 -99z" />
    <glyph glyph-name="Gbreve" unicode="&#x11e;" horiz-adv-x="727" 
d="M51 273q0 128 50.5 231t144 162.5t216.5 59.5q69 0 131.5 -24.5t102.5 -67.5l-75 -73q-35 28 -74 43t-90 15q-89 0 -151.5 -45t-94 -122.5t-31.5 -173.5q0 -192 189 -192q42 0 76.5 8t71.5 22l25 162h-143l15 97h259l-51 -327q-127 -66 -268 -66q-149 0 -226 77.5
t-77 213.5zM625 902q-17 -63 -63.5 -99t-112.5 -36q-65 0 -101 35t-36 92v9l70 8q2 -29 22.5 -45.5t55.5 -16.5q33 0 59 16.5t39 45.5z" />
    <glyph glyph-name="gbreve" unicode="&#x11f;" horiz-adv-x="605" 
d="M23 -195l52 83q68 -46 141 -46t112.5 34t53.5 113l16 88h-2q-34 -47 -75.5 -66t-101.5 -19q-87 0 -132.5 55.5t-45.5 149.5t37.5 170.5t106 120.5t158.5 44q68 0 120 -14.5t107 -50.5l-73 -476q-18 -121 -87.5 -185t-190.5 -64q-56 0 -106.5 17.5t-89.5 45.5zM423 297
l19 119q-24 12 -46 16t-50 4q-57 0 -98 -31.5t-61.5 -84t-20.5 -114.5q0 -58 25 -88.5t67 -30.5q60 0 105 59.5t60 150.5zM541 728q-19 -74 -64 -112.5t-114 -38.5t-106.5 37.5t-37.5 99.5v15l69 8q3 -38 24.5 -57.5t57.5 -19.5q70 0 100 77z" />
    <glyph glyph-name="Gdotaccent" unicode="&#x120;" horiz-adv-x="727" 
d="M51 273q0 128 50.5 231t144 162.5t216.5 59.5q69 0 131.5 -24.5t102.5 -67.5l-75 -73q-35 28 -74 43t-90 15q-89 0 -151.5 -45t-94 -122.5t-31.5 -173.5q0 -192 189 -192q42 0 76.5 8t71.5 22l25 162h-143l15 97h259l-51 -327q-127 -66 -268 -66q-149 0 -226 77.5
t-77 213.5zM397 846q0 36 20.5 59.5t63.5 23.5q34 0 49.5 -15t15.5 -40q0 -36 -20.5 -59.5t-63.5 -23.5q-34 0 -49.5 15t-15.5 40z" />
    <glyph glyph-name="gdotaccent" unicode="&#x121;" horiz-adv-x="605" 
d="M23 -195l52 83q68 -46 141 -46t112.5 34t53.5 113l16 88h-2q-34 -47 -75.5 -66t-101.5 -19q-87 0 -132.5 55.5t-45.5 149.5t37.5 170.5t106 120.5t158.5 44q68 0 120 -14.5t107 -50.5l-73 -476q-18 -121 -87.5 -185t-190.5 -64q-56 0 -106.5 17.5t-89.5 45.5zM423 297
l19 119q-24 12 -46 16t-50 4q-57 0 -98 -31.5t-61.5 -84t-20.5 -114.5q0 -58 25 -88.5t67 -30.5q60 0 105 59.5t60 150.5zM299 669q0 36 20.5 59.5t63.5 23.5q34 0 49.5 -15t15.5 -40q0 -36 -20.5 -59.5t-63.5 -23.5q-34 0 -49.5 15t-15.5 40z" />
    <glyph glyph-name="Gcommaaccent" unicode="&#x122;" horiz-adv-x="727" 
d="M51 273q0 128 50.5 231t144 162.5t216.5 59.5q69 0 131.5 -24.5t102.5 -67.5l-75 -73q-35 28 -74 43t-90 15q-89 0 -151.5 -45t-94 -122.5t-31.5 -173.5q0 -192 189 -192q42 0 76.5 8t71.5 22l25 162h-143l15 97h259l-51 -327q-127 -66 -268 -66q-149 0 -226 77.5
t-77 213.5zM258 -255q22 22 33 39t17 38q-46 8 -46 51q0 29 19.5 49.5t54.5 20.5q30 0 45.5 -16t15.5 -45q0 -7 -2 -21q-7 -41 -29.5 -76t-68.5 -75z" />
    <glyph glyph-name="gcommaaccent" unicode="&#x123;" horiz-adv-x="605" 
d="M23 -195l52 83q68 -46 141 -46t112.5 34t53.5 113l16 88h-2q-34 -47 -75.5 -66t-101.5 -19q-87 0 -132.5 55.5t-45.5 149.5t37.5 170.5t106 120.5t158.5 44q68 0 120 -14.5t107 -50.5l-73 -476q-18 -121 -87.5 -185t-190.5 -64q-56 0 -106.5 17.5t-89.5 45.5zM423 297
l19 119q-24 12 -46 16t-50 4q-57 0 -98 -31.5t-61.5 -84t-20.5 -114.5q0 -58 25 -88.5t67 -30.5q60 0 105 59.5t60 150.5zM437 803q-22 -22 -33 -39t-17 -38q46 -8 46 -51q0 -29 -19.5 -49.5t-54.5 -20.5q-30 0 -45.5 16t-15.5 45q0 7 2 21q7 41 29.5 76t68.5 75z" />
    <glyph glyph-name="Hcircumflex" unicode="&#x124;" horiz-adv-x="733" 
d="M613 0h-126l49 313h-323l-50 -313h-125l112 708h125l-46 -294h323l47 294h126zM288 817l139 102h92l110 -106l-49 -50l-114 83l-141 -84z" />
    <glyph glyph-name="hcircumflex" unicode="&#x125;" horiz-adv-x="618" 
d="M148 708h120l-47 -270h2q22 37 75.5 65.5t105.5 28.5q78 0 118.5 -44.5t40.5 -111.5q0 -17 -3 -35l-55 -341h-120l51 318q3 20 3 38q0 77 -69 77q-47 0 -86.5 -40t-66 -103t-37.5 -132l-25 -158h-119zM238 817l139 102h92l110 -106l-49 -50l-114 83l-141 -84z" />
    <glyph glyph-name="Hbar" unicode="&#x126;" horiz-adv-x="733" 
d="M775 527h-79l-83 -527h-126l49 313h-323l-50 -313h-125l83 527h-83l13 81h83l16 100h125l-16 -100h324l16 100h126l-16 -100h79zM570 527h-323l-18 -113h323z" />
    <glyph glyph-name="hbar" unicode="&#x127;" horiz-adv-x="619" 
d="M563 376q0 -17 -3 -35l-55 -341h-120l51 318q3 20 3 38q0 77 -69 77q-47 0 -86.5 -40t-66 -103t-37.5 -132l-25 -158h-119l91 576h-70l12 76h70l9 56h120l-10 -56h153l-13 -76h-153l-24 -138h2q22 37 75.5 65.5t105.5 28.5q78 0 118.5 -44.5t40.5 -111.5z" />
    <glyph glyph-name="Itilde" unicode="&#x128;" horiz-adv-x="381" 
d="M227 95h81l-15 -95h-286l15 95h82l83 521h-82l14 92h286l-14 -92h-81zM107 807q26 48 58 72.5t72 24.5q19 0 32 -6.5t31 -19.5q13 -10 22 -14.5t19 -4.5q17 0 32 11t31 33l56 -26q-26 -48 -57 -72t-72 -24q-19 0 -32.5 6.5t-30.5 18.5q-13 9 -22.5 14t-20.5 5
q-16 0 -31 -10.5t-31 -32.5z" />
    <glyph glyph-name="itilde" unicode="&#x129;" horiz-adv-x="274" 
d="M156 0h-120l82 518h120zM23 615q26 48 58 72.5t72 24.5q19 0 32 -6.5t31 -19.5q13 -10 22 -14.5t19 -4.5q17 0 32 11t31 33l56 -26q-26 -48 -57 -72t-72 -24q-19 0 -32.5 6.5t-30.5 18.5q-13 9 -22.5 14t-20.5 5q-16 0 -31 -10.5t-31 -32.5z" />
    <glyph glyph-name="Imacron" unicode="&#x12a;" horiz-adv-x="381" 
d="M227 95h81l-15 -95h-286l15 95h82l83 521h-82l14 92h286l-14 -92h-81zM426 798h-297l13 81h296z" />
    <glyph glyph-name="imacron" unicode="&#x12b;" horiz-adv-x="274" 
d="M156 0h-120l82 518h120zM341 606h-297l13 81h296z" />
    <glyph glyph-name="Ibreve" unicode="&#x12c;" horiz-adv-x="381" 
d="M227 95h81l-15 -95h-286l15 95h82l83 521h-82l14 92h286l-14 -92h-81zM440 902q-17 -63 -63.5 -99t-112.5 -36q-65 0 -101 35t-36 92v9l70 8q2 -29 22.5 -45.5t55.5 -16.5q33 0 59 16.5t39 45.5z" />
    <glyph glyph-name="ibreve" unicode="&#x12d;" horiz-adv-x="274" 
d="M156 0h-120l82 518h120zM371 728q-19 -74 -64 -112.5t-114 -38.5t-106.5 37.5t-37.5 99.5v15l69 8q3 -38 24.5 -57.5t57.5 -19.5q70 0 100 77z" />
    <glyph glyph-name="Iogonek" unicode="&#x12e;" horiz-adv-x="381" 
d="M405 708l-14 -92h-81l-83 -521h81l-15 -95h-103q-53 -32 -88.5 -68t-35.5 -67q0 -18 9 -26t30 -8q25 0 60 16l21 -67q-48 -27 -105 -27q-45 0 -75 22.5t-30 62.5q0 95 116 162h-85l15 95h82l83 521h-82l14 92h286z" />
    <glyph glyph-name="iogonek" unicode="&#x12f;" horiz-adv-x="274" 
d="M279 697q0 -36 -20.5 -59.5t-63.5 -23.5q-34 0 -49.5 15t-15.5 40q0 36 20.5 59.5t63.5 23.5q34 0 49.5 -15t15.5 -40zM118 518h120l-82 -518h-26q-53 -32 -88.5 -68t-35.5 -67q0 -18 9 -26t30 -8q25 0 60 16l21 -67q-48 -27 -105 -27q-45 0 -75 22.5t-30 62.5
q0 97 120 164z" />
    <glyph glyph-name="Idotaccent" unicode="&#x130;" horiz-adv-x="381" 
d="M227 95h81l-15 -95h-286l15 95h82l83 521h-82l14 92h286l-14 -92h-81zM212 846q0 36 20.5 59.5t63.5 23.5q34 0 49.5 -15t15.5 -40q0 -36 -20.5 -59.5t-63.5 -23.5q-34 0 -49.5 15t-15.5 40z" />
    <glyph glyph-name="dotlessi" unicode="&#x131;" horiz-adv-x="274" 
d="M156 0h-120l82 518h120z" />
    <glyph glyph-name="IJ" unicode="&#x132;" horiz-adv-x="797" 
d="M227 95h81l-15 -95h-286l15 95h82l83 521h-82l14 92h286l-14 -92h-81zM347 20l56 89q35 -20 76 -20q95 0 114 120l79 499h125l-79 -499q-16 -100 -74 -163.5t-162 -63.5q-38 0 -73.5 10t-61.5 28z" />
    <glyph glyph-name="ij" unicode="&#x133;" horiz-adv-x="549" 
d="M130 669q0 36 20.5 59.5t63.5 23.5q34 0 49.5 -15t15.5 -40q0 -36 -20.5 -59.5t-63.5 -23.5q-34 0 -49.5 15t-15.5 40zM404 669q0 36 20.5 59.5t63.5 23.5q34 0 49.5 -15t15.5 -40q0 -36 -20.5 -59.5t-63.5 -23.5q-34 0 -49.5 15t-15.5 40zM156 0h-120l82 518h120z
M308 -10l84 528h120l-83 -527q-12 -74 -36 -121.5t-65.5 -77.5t-107.5 -50l-31 92q55 18 81.5 53t37.5 103z" />
    <glyph glyph-name="Jcircumflex" unicode="&#x134;" horiz-adv-x="416" 
d="M-34 20l56 89q35 -20 76 -20q95 0 114 120l79 499h125l-79 -499q-16 -100 -74 -163.5t-162 -63.5q-38 0 -73.5 10t-61.5 28zM200 817l139 102h92l110 -106l-49 -50l-114 83l-141 -84z" />
    <glyph glyph-name="jcircumflex" unicode="&#x135;" horiz-adv-x="275" 
d="M34 -10l84 528h120l-83 -527q-12 -74 -36 -121.5t-65.5 -77.5t-107.5 -50l-31 92q55 18 81.5 53t37.5 103zM24 619l150 125h93l106 -128l-48 -48l-112 101l-145 -99z" />
    <glyph glyph-name="Kcommaaccent" unicode="&#x136;" horiz-adv-x="644" 
d="M343 382l268 -382h-144l-209 304l-55 -50l-40 -254h-125l112 708h125l-47 -296l321 296h149zM197 -255q22 22 33 39t17 38q-46 8 -46 51q0 29 19.5 49.5t54.5 20.5q30 0 45.5 -16t15.5 -45q0 -7 -2 -21q-7 -41 -29.5 -76t-68.5 -75z" />
    <glyph glyph-name="kcommaaccent" unicode="&#x137;" horiz-adv-x="559" 
d="M329 306l190 -306h-137l-140 233l-56 -46l-30 -187h-120l112 708h120l-60 -380l225 190h152zM172 -255q22 22 33 39t17 38q-46 8 -46 51q0 29 19.5 49.5t54.5 20.5q30 0 45.5 -16t15.5 -45q0 -7 -2 -21q-7 -41 -29.5 -76t-68.5 -75z" />
    <glyph glyph-name="kgreenlandic" unicode="&#x138;" horiz-adv-x="567" 
d="M329 306l190 -306h-137l-140 233l-56 -46l-30 -187h-120l82 518h120l-30 -190l225 190h152z" />
    <glyph glyph-name="Lacute" unicode="&#x139;" horiz-adv-x="509" 
d="M180 105h301l-17 -105h-426l112 708h125zM156 763l-29 66l194 117l41 -90z" />
    <glyph glyph-name="lacute" unicode="&#x13a;" horiz-adv-x="274" 
d="M268 708l-112 -708h-120l112 708h120zM141 763l-29 66l194 117l41 -90z" />
    <glyph glyph-name="Lcommaaccent" unicode="&#x13b;" horiz-adv-x="509" 
d="M180 105h301l-17 -105h-426l112 708h125zM178 -255q22 22 33 39t17 38q-46 8 -46 51q0 29 19.5 49.5t54.5 20.5q30 0 45.5 -16t15.5 -45q0 -7 -2 -21q-7 -41 -29.5 -76t-68.5 -75z" />
    <glyph glyph-name="lcommaaccent" unicode="&#x13c;" horiz-adv-x="274" 
d="M268 708l-112 -708h-120l112 708h120zM12 -255q22 22 33 39t17 38q-46 8 -46 51q0 29 19.5 49.5t54.5 20.5q30 0 45.5 -16t15.5 -45q0 -7 -2 -21q-7 -41 -29.5 -76t-68.5 -75z" />
    <glyph glyph-name="Lcaron" unicode="&#x13d;" horiz-adv-x="509" 
d="M180 105h301l-17 -105h-426l112 708h125zM383 534l-69 17l59 175l94 -26z" />
    <glyph glyph-name="lcaron" unicode="&#x13e;" horiz-adv-x="332" 
d="M268 708l-112 -708h-120l112 708h120zM357 534l-69 17l59 175l94 -26z" />
    <glyph glyph-name="Ldot" unicode="&#x13f;" horiz-adv-x="509" 
d="M180 105h301l-17 -105h-426l112 708h125zM352 439q20 23 62 23q34 0 49 -14.5t15 -39.5q0 -35 -20 -58t-62 -23q-34 0 -49 14.5t-15 39.5q0 35 20 58z" />
    <glyph glyph-name="ldot" unicode="&#x140;" horiz-adv-x="321" 
d="M268 708l-112 -708h-120l112 708h120zM259 384q20 23 62 23q33 0 48 -15t15 -39q0 -35 -20 -58t-62 -23q-33 0 -48 14.5t-15 39.5q0 35 20 58z" />
    <glyph glyph-name="Lslash" unicode="&#x141;" horiz-adv-x="511" 
d="M483 105l-17 -105h-426l38 241l-34 -16l-27 78l77 38l58 367h125l-47 -301l188 93l27 -77l-231 -115l-32 -203h301z" />
    <glyph glyph-name="lslash" unicode="&#x142;" horiz-adv-x="285" 
d="M211 319l-51 -319h-120l40 254l-51 -26l-24 74l90 46l57 360h120l-47 -294h1l54 27l24 -75z" />
    <glyph glyph-name="Nacute" unicode="&#x143;" horiz-adv-x="762" 
d="M150 708l140 -1l264 -541h2l82 542h116l-112 -708h-139l-263 543h-3l-82 -543h-117zM386 763l-29 66l194 117l41 -90z" />
    <glyph glyph-name="nacute" unicode="&#x144;" horiz-adv-x="618" 
d="M98 401q7 45 11 117h112q2 -42 -8 -90h2q27 44 79 74t110 30q78 0 118.5 -44.5t40.5 -111.5q0 -17 -3 -35l-55 -341h-120l51 318q1 7 2 16.5t1 21.5q0 77 -69 77q-47 0 -86.5 -40t-66 -103t-37.5 -132l-25 -158h-120zM313 568l-38 66l190 135l47 -90z" />
    <glyph glyph-name="Ncommaaccent" unicode="&#x145;" horiz-adv-x="762" 
d="M150 708l140 -1l264 -541h2l82 542h116l-112 -708h-139l-263 543h-3l-82 -543h-117zM256 -255q22 22 33 39t17 38q-46 8 -46 51q0 29 19.5 49.5t54.5 20.5q30 0 45.5 -16t15.5 -45q0 -7 -2 -21q-7 -41 -29.5 -76t-68.5 -75z" />
    <glyph glyph-name="ncommaaccent" unicode="&#x146;" horiz-adv-x="618" 
d="M98 401q7 45 11 117h112q2 -42 -8 -90h2q27 44 79 74t110 30q78 0 118.5 -44.5t40.5 -111.5q0 -17 -3 -35l-55 -341h-120l51 318q1 7 2 16.5t1 21.5q0 77 -69 77q-47 0 -86.5 -40t-66 -103t-37.5 -132l-25 -158h-120zM184 -255q22 22 33 39t17 38q-46 8 -46 51
q0 29 19.5 49.5t54.5 20.5q30 0 45.5 -16t15.5 -45q0 -7 -2 -21q-7 -41 -29.5 -76t-68.5 -75z" />
    <glyph glyph-name="Ncaron" unicode="&#x147;" horiz-adv-x="762" 
d="M150 708l140 -1l264 -541h2l82 542h116l-112 -708h-139l-263 543h-3l-82 -543h-117zM646 876l-141 -102h-92l-108 105l48 52l114 -84l140 83z" />
    <glyph glyph-name="ncaron" unicode="&#x148;" horiz-adv-x="618" 
d="M98 401q7 45 11 117h112q2 -42 -8 -90h2q27 44 79 74t110 30q78 0 118.5 -44.5t40.5 -111.5q0 -17 -3 -35l-55 -341h-120l51 318q1 7 2 16.5t1 21.5q0 77 -69 77q-47 0 -86.5 -40t-66 -103t-37.5 -132l-25 -158h-120zM568 704l-149 -125h-93l-107 128l48 48l113 -101
l144 99z" />
    <glyph glyph-name="napostrophe" unicode="&#x149;" horiz-adv-x="618" 
d="M98 401q7 45 11 117h112q2 -42 -8 -90h2q27 44 79 74t110 30q78 0 118.5 -44.5t40.5 -111.5q0 -17 -3 -35l-55 -341h-120l51 318q1 7 2 16.5t1 21.5q0 77 -69 77q-47 0 -86.5 -40t-66 -103t-37.5 -132l-25 -158h-120zM68 587q22 24 33.5 40.5t16.5 37.5q-24 4 -35 17.5
t-11 32.5q0 30 19.5 50.5t54.5 20.5q29 0 45 -16.5t16 -45.5q0 -6 -2 -20q-7 -41 -29.5 -76t-68.5 -76z" />
    <glyph glyph-name="Eng" unicode="&#x14a;" horiz-adv-x="762" 
d="M402 -166q57 19 82 55t38 111h-19l-263 543h-3l-82 -543h-117l112 708l140 -1l264 -541h2l82 542h116l-112 -708q-12 -79 -36.5 -128.5t-65.5 -79.5t-108 -50z" />
    <glyph glyph-name="eng" unicode="&#x14b;" horiz-adv-x="618" 
d="M264 -166q56 19 82.5 54t37.5 103l52 327q1 7 2 16.5t1 21.5q0 77 -69 77q-47 0 -86.5 -40t-66 -103t-37.5 -132l-25 -158h-120l63 401q7 45 11 117h112q2 -42 -8 -90h2q27 44 79 74t110 30q78 0 118.5 -44.5t40.5 -111.5q0 -17 -3 -35l-56 -349q-11 -74 -35.5 -122
t-66 -78t-107.5 -50z" />
    <glyph glyph-name="Omacron" unicode="&#x14c;" horiz-adv-x="794" 
d="M52 278q0 127 51.5 229t145.5 160.5t216 58.5q97 0 166.5 -36t105 -102.5t35.5 -156.5q0 -127 -51.5 -229.5t-145.5 -161t-217 -58.5q-97 0 -166 36.5t-104.5 103t-35.5 156.5zM644 423q0 94 -47 144.5t-142 50.5q-86 0 -148 -44t-94 -119.5t-32 -169.5q0 -93 47 -144
t142 -51q86 0 148 44.5t94 120.5t32 168zM636 798h-297l13 81h296z" />
    <glyph glyph-name="omacron" unicode="&#x14d;" horiz-adv-x="620" 
d="M578 318q0 -92 -38.5 -168t-108.5 -120t-159 -44q-109 0 -169.5 60.5t-60.5 160.5q0 91 38 165.5t106.5 117t158.5 42.5q112 0 172.5 -57.5t60.5 -156.5zM166 207q0 -58 28.5 -92t87.5 -34q55 0 94.5 32t59.5 84.5t20 115.5q0 58 -28.5 91t-89.5 33q-83 0 -127.5 -66
t-44.5 -164zM515 606h-297l13 81h296z" />
    <glyph glyph-name="Obreve" unicode="&#x14e;" horiz-adv-x="794" 
d="M52 278q0 127 51.5 229t145.5 160.5t216 58.5q97 0 166.5 -36t105 -102.5t35.5 -156.5q0 -127 -51.5 -229.5t-145.5 -161t-217 -58.5q-97 0 -166 36.5t-104.5 103t-35.5 156.5zM644 423q0 94 -47 144.5t-142 50.5q-86 0 -148 -44t-94 -119.5t-32 -169.5q0 -93 47 -144
t142 -51q86 0 148 44.5t94 120.5t32 168zM650 902q-17 -63 -63.5 -99t-112.5 -36q-65 0 -101 35t-36 92v9l70 8q2 -29 22.5 -45.5t55.5 -16.5q33 0 59 16.5t39 45.5z" />
    <glyph glyph-name="obreve" unicode="&#x14f;" horiz-adv-x="620" 
d="M578 318q0 -92 -38.5 -168t-108.5 -120t-159 -44q-109 0 -169.5 60.5t-60.5 160.5q0 91 38 165.5t106.5 117t158.5 42.5q112 0 172.5 -57.5t60.5 -156.5zM166 207q0 -58 28.5 -92t87.5 -34q55 0 94.5 32t59.5 84.5t20 115.5q0 58 -28.5 91t-89.5 33q-83 0 -127.5 -66
t-44.5 -164zM544 728q-19 -74 -64 -112.5t-114 -38.5t-106.5 37.5t-37.5 99.5v15l69 8q3 -38 24.5 -57.5t57.5 -19.5q70 0 100 77z" />
    <glyph glyph-name="Ohungarumlaut" unicode="&#x150;" horiz-adv-x="794" 
d="M52 278q0 127 51.5 229t145.5 160.5t216 58.5q97 0 166.5 -36t105 -102.5t35.5 -156.5q0 -127 -51.5 -229.5t-145.5 -161t-217 -58.5q-97 0 -166 36.5t-104.5 103t-35.5 156.5zM644 423q0 94 -47 144.5t-142 50.5q-86 0 -148 -44t-94 -119.5t-32 -169.5q0 -93 47 -144
t142 -51q86 0 148 44.5t94 120.5t32 168zM383 762l-50 28l112 175l73 -42zM518 755l-48 34l123 169l67 -50z" />
    <glyph glyph-name="ohungarumlaut" unicode="&#x151;" horiz-adv-x="620" 
d="M578 318q0 -92 -38.5 -168t-108.5 -120t-159 -44q-109 0 -169.5 60.5t-60.5 160.5q0 91 38 165.5t106.5 117t158.5 42.5q112 0 172.5 -57.5t60.5 -156.5zM166 207q0 -58 28.5 -92t87.5 -34q55 0 94.5 32t59.5 84.5t20 115.5q0 58 -28.5 91t-89.5 33q-83 0 -127.5 -66
t-44.5 -164zM261 570l-50 28l112 175l73 -42zM396 563l-48 34l123 169l67 -50z" />
    <glyph glyph-name="OE" unicode="&#x152;" horiz-adv-x="1004" 
d="M1018 607h-342q55 -72 55 -178v-17h213l-16 -97h-209q-14 -64 -43 -118.5t-73 -93.5h352l-16 -103h-484q-52 -18 -110 -18q-92 0 -158 36t-100.5 102.5t-34.5 156.5q0 125 48 227t138.5 162t211.5 60q68 0 113 -18h471zM605 431q0 88 -40 137.5t-120 49.5
q-85 0 -144.5 -45.5t-89.5 -121t-30 -166.5t45.5 -143t133.5 -52q78 0 133.5 47.5t83.5 125.5t28 168z" />
    <glyph glyph-name="oe" unicode="&#x153;" horiz-adv-x="934" 
d="M557 210v-4q0 -121 122 -121q35 0 62.5 9.5t65.5 30.5l43 -78q-51 -33 -93 -47t-100 -14q-137 0 -180 105q-74 -105 -212 -105q-68 0 -118.5 28t-77.5 78t-27 116q0 90 36.5 164t104 117t154.5 43q136 0 184 -110q35 52 88.5 81t122.5 29q57 0 97.5 -20.5t61 -53
t20.5 -67.5q0 -103 -94 -140t-260 -41zM567 297q83 4 128 11t69.5 25.5t24.5 54.5q0 24 -17 39t-50 15q-60 0 -99 -39t-56 -106zM444 313q0 58 -27.5 91t-84.5 33q-53 0 -90.5 -32t-56.5 -84.5t-19 -113.5q0 -58 27 -92t83 -34q53 0 91 32.5t57 85t20 114.5z" />
    <glyph glyph-name="Racute" unicode="&#x154;" horiz-adv-x="637" 
d="M437 264l128 -264h-137l-111 242h-114l-40 -242h-125l112 708h236q65 0 117.5 -22t83.5 -66t31 -106q0 -97 -46.5 -159.5t-134.5 -90.5zM217 338h110q74 0 117.5 46t43.5 118q0 53 -34 79t-87 26h-108zM282 763l-29 66l194 117l41 -90z" />
    <glyph glyph-name="racute" unicode="&#x155;" horiz-adv-x="382" 
d="M98 401q7 45 11 117h112q0 -38 -12 -103h2q32 66 72.5 91.5t101.5 25.5q21 0 34 -5l-21 -110q-16 4 -37 4q-74 0 -120.5 -87t-65.5 -214l-20 -120h-120zM187 568l-38 66l190 135l47 -90z" />
    <glyph glyph-name="Rcommaaccent" unicode="&#x156;" horiz-adv-x="637" 
d="M437 264l128 -264h-137l-111 242h-114l-40 -242h-125l112 708h236q65 0 117.5 -22t83.5 -66t31 -106q0 -97 -46.5 -159.5t-134.5 -90.5zM217 338h110q74 0 117.5 46t43.5 118q0 53 -34 79t-87 26h-108zM194 -255q22 22 33 39t17 38q-46 8 -46 51q0 29 19.5 49.5
t54.5 20.5q30 0 45.5 -16t15.5 -45q0 -7 -2 -21q-7 -41 -29.5 -76t-68.5 -75z" />
    <glyph glyph-name="rcommaaccent" unicode="&#x157;" horiz-adv-x="382" 
d="M98 401q7 45 11 117h112q0 -38 -12 -103h2q32 66 72.5 91.5t101.5 25.5q21 0 34 -5l-21 -110q-16 4 -37 4q-74 0 -120.5 -87t-65.5 -214l-20 -120h-120zM11 -255q22 22 33 39t17 38q-46 8 -46 51q0 29 19.5 49.5t54.5 20.5q30 0 45.5 -16t15.5 -45q0 -7 -2 -21
q-7 -41 -29.5 -76t-68.5 -75z" />
    <glyph glyph-name="Rcaron" unicode="&#x158;" horiz-adv-x="637" 
d="M437 264l128 -264h-137l-111 242h-114l-40 -242h-125l112 708h236q65 0 117.5 -22t83.5 -66t31 -106q0 -97 -46.5 -159.5t-134.5 -90.5zM217 338h110q74 0 117.5 46t43.5 118q0 53 -34 79t-87 26h-108zM542 876l-141 -102h-92l-108 105l48 52l114 -84l140 83z" />
    <glyph glyph-name="rcaron" unicode="&#x159;" horiz-adv-x="382" 
d="M98 401q7 45 11 117h112q0 -38 -12 -103h2q32 66 72.5 91.5t101.5 25.5q21 0 34 -5l-21 -110q-16 4 -37 4q-74 0 -120.5 -87t-65.5 -214l-20 -120h-120zM442 704l-149 -125h-93l-107 128l48 48l113 -101l144 99z" />
    <glyph glyph-name="Sacute" unicode="&#x15a;" horiz-adv-x="562" 
d="M-6 63l67 81q74 -58 174 -58q70 0 113 34.5t43 95.5q0 44 -32.5 67t-105.5 43q-79 22 -121.5 67.5t-42.5 112.5q0 105 75 162t196 57q122 0 218 -68l-63 -83q-40 25 -79.5 37.5t-83.5 12.5q-62 0 -100 -25.5t-38 -78.5q0 -37 30 -58.5t95 -40.5q86 -25 134 -69t48 -118
q0 -78 -38 -135t-104 -87t-150 -30q-68 0 -130 21t-105 60zM285 763l-29 66l194 117l41 -90z" />
    <glyph glyph-name="sacute" unicode="&#x15b;" horiz-adv-x="459" 
d="M449 478l-56 -75q-58 37 -120 37q-94 0 -94 -62q0 -24 21 -38.5t78 -30.5q127 -39 127 -141q0 -89 -63 -135.5t-165 -46.5q-110 0 -186 58l56 76q61 -41 134 -41q99 0 99 72q0 26 -20.5 42.5t-73.5 33.5q-129 39 -129 138q0 80 60.5 123.5t156.5 43.5q104 0 175 -54z
M211 568l-38 66l190 135l47 -90z" />
    <glyph glyph-name="Scircumflex" unicode="&#x15c;" horiz-adv-x="562" 
d="M-6 63l67 81q74 -58 174 -58q70 0 113 34.5t43 95.5q0 44 -32.5 67t-105.5 43q-79 22 -121.5 67.5t-42.5 112.5q0 105 75 162t196 57q122 0 218 -68l-63 -83q-40 25 -79.5 37.5t-83.5 12.5q-62 0 -100 -25.5t-38 -78.5q0 -37 30 -58.5t95 -40.5q86 -25 134 -69t48 -118
q0 -78 -38 -135t-104 -87t-150 -30q-68 0 -130 21t-105 60zM203 817l139 102h92l110 -106l-49 -50l-114 83l-141 -84z" />
    <glyph glyph-name="scircumflex" unicode="&#x15d;" horiz-adv-x="459" 
d="M449 478l-56 -75q-58 37 -120 37q-94 0 -94 -62q0 -24 21 -38.5t78 -30.5q127 -39 127 -141q0 -89 -63 -135.5t-165 -46.5q-110 0 -186 58l56 76q61 -41 134 -41q99 0 99 72q0 26 -20.5 42.5t-73.5 33.5q-129 39 -129 138q0 80 60.5 123.5t156.5 43.5q104 0 175 -54z
M114 619l150 125h93l106 -128l-48 -48l-112 101l-145 -99z" />
    <glyph glyph-name="Scedilla" unicode="&#x15e;" horiz-adv-x="562" 
d="M521 234q0 -107 -69 -173t-181 -77l-19 -39q9 1 23 1q31 0 51 -19t20 -54q0 -56 -40.5 -88.5t-102.5 -32.5q-31 0 -60.5 8t-50.5 21l31 59q38 -20 79 -20q26 0 42 12t16 34q0 25 -32 25q-12 0 -29 -5h-53l50 97q-60 5 -112 25.5t-90 54.5l67 81q74 -58 174 -58
q70 0 113 34.5t43 95.5q0 44 -32.5 67t-105.5 43q-79 22 -121.5 67.5t-42.5 112.5q0 105 75 162t196 57q122 0 218 -68l-63 -83q-40 25 -79.5 37.5t-83.5 12.5q-62 0 -100 -25.5t-38 -78.5q0 -37 30 -58.5t95 -40.5q86 -25 134 -69t48 -118z" />
    <glyph glyph-name="scedilla" unicode="&#x15f;" horiz-adv-x="459" 
d="M405 168q0 -80 -50 -125.5t-135 -54.5l-21 -43q9 1 23 1q31 0 51 -19t20 -54q0 -56 -40.5 -88.5t-102.5 -32.5q-31 0 -60.5 8t-50.5 21l31 59q38 -20 79 -20q26 0 42 12t16 34q0 25 -32 25q-12 0 -29 -5h-53l52 101q-90 8 -154 57l56 76q61 -41 134 -41q99 0 99 72
q0 26 -20.5 42.5t-73.5 33.5q-129 39 -129 138q0 80 60.5 123.5t156.5 43.5q104 0 175 -54l-56 -75q-58 37 -120 37q-94 0 -94 -62q0 -24 21 -38.5t78 -30.5q127 -39 127 -141z" />
    <glyph glyph-name="Scaron" unicode="&#x160;" horiz-adv-x="562" 
d="M-6 63l67 81q74 -58 174 -58q70 0 113 34.5t43 95.5q0 44 -32.5 67t-105.5 43q-79 22 -121.5 67.5t-42.5 112.5q0 105 75 162t196 57q122 0 218 -68l-63 -83q-40 25 -79.5 37.5t-83.5 12.5q-62 0 -100 -25.5t-38 -78.5q0 -37 30 -58.5t95 -40.5q86 -25 134 -69t48 -118
q0 -78 -38 -135t-104 -87t-150 -30q-68 0 -130 21t-105 60zM545 876l-141 -102h-92l-108 105l48 52l114 -84l140 83z" />
    <glyph glyph-name="scaron" unicode="&#x161;" horiz-adv-x="459" 
d="M449 478l-56 -75q-58 37 -120 37q-94 0 -94 -62q0 -24 21 -38.5t78 -30.5q127 -39 127 -141q0 -89 -63 -135.5t-165 -46.5q-110 0 -186 58l56 76q61 -41 134 -41q99 0 99 72q0 26 -20.5 42.5t-73.5 33.5q-129 39 -129 138q0 80 60.5 123.5t156.5 43.5q104 0 175 -54z
M466 704l-149 -125h-93l-107 128l48 48l113 -101l144 99z" />
    <glyph glyph-name="uni0162" unicode="&#x162;" horiz-adv-x="552" 
d="M603 602h-209l-95 -602h-24l-27 -55q9 1 23 1q31 0 51 -19t20 -54q0 -56 -40.5 -88.5t-102.5 -32.5q-31 0 -60.5 8t-50.5 21l31 59q38 -20 79 -20q26 0 42 12t16 34q0 25 -32 25q-12 0 -29 -5h-53l58 114h-28l96 602h-209l17 106h543z" />
    <glyph glyph-name="uni0163" unicode="&#x163;" horiz-adv-x="375" 
d="M205 169q-4 -25 -4 -38q0 -46 57 -46q25 0 46 6l6 -92q-34 -11 -79 -13l-20 -41q9 1 23 1q31 0 51 -19t20 -54q0 -56 -40.5 -88.5t-102.5 -32.5q-31 0 -60.5 8t-50.5 21l31 59q38 -20 79 -20q26 0 42 12t16 34q0 25 -32 25q-12 0 -29 -5h-53l55 108q-39 12 -60 42t-21 75
q0 20 5 50l41 263h-84l13 77l86 14l18 122l128 43l-26 -165h126l-14 -91h-127z" />
    <glyph glyph-name="Tcaron" unicode="&#x164;" horiz-adv-x="552" 
d="M603 602h-209l-95 -602h-127l96 602h-209l17 106h543zM540 876l-141 -102h-92l-108 105l48 52l114 -84l140 83z" />
    <glyph glyph-name="tcaron" unicode="&#x165;" horiz-adv-x="375" 
d="M260 515h126l-14 -91h-127l-40 -255q-4 -25 -4 -38q0 -46 57 -46q25 0 46 6l6 -92q-39 -13 -91 -13q-67 0 -103.5 32.5t-36.5 92.5q0 20 5 50l41 263h-84l13 77l86 14l18 122l128 43zM388 534l-69 17l59 175l94 -26z" />
    <glyph glyph-name="Tbar" unicode="&#x166;" horiz-adv-x="551" 
d="M394 602l-33 -208h115l-13 -80h-114l-50 -314h-127l50 314h-115l13 80h115l33 208h-209l17 106h543l-16 -106h-209z" />
    <glyph glyph-name="tbar" unicode="&#x167;" horiz-adv-x="375" 
d="M245 424l-15 -94h103l-14 -85h-102l-12 -76q-4 -25 -4 -38q0 -46 57 -46q25 0 46 6l6 -92q-39 -13 -91 -13q-67 0 -103.5 32.5t-36.5 92.5q0 20 5 50l13 84h-84l14 85h83l15 94h-84l13 77l86 14l18 122l128 43l-26 -165h126l-14 -91h-127z" />
    <glyph glyph-name="Utilde" unicode="&#x168;" horiz-adv-x="722" 
d="M65 200q0 23 5 56l72 452h125l-70 -444q-5 -30 -5 -51q0 -62 33 -92.5t108 -30.5q88 0 133.5 44t59.5 131l70 443h125l-72 -453q-20 -130 -103 -201.5t-220 -71.5q-123 0 -192 57.5t-69 160.5zM276 807q26 48 58 72.5t72 24.5q19 0 32 -6.5t31 -19.5q13 -10 22 -14.5
t19 -4.5q17 0 32 11t31 33l56 -26q-26 -48 -57 -72t-72 -24q-19 0 -32.5 6.5t-30.5 18.5q-13 9 -22.5 14t-20.5 5q-16 0 -31 -10.5t-31 -32.5z" />
    <glyph glyph-name="utilde" unicode="&#x169;" horiz-adv-x="618" 
d="M56 146q0 19 4 40l52 332h120l-50 -318q-4 -24 -4 -43q0 -33 17 -52.5t55 -19.5q47 0 84.5 31t61.5 79.5t32 100.5l35 222h120l-63 -400q-9 -53 -11 -118h-111q-3 36 7 78h-2q-28 -41 -76.5 -66.5t-101.5 -25.5q-82 0 -125.5 46t-43.5 114zM193 615q26 48 58 72.5
t72 24.5q19 0 32 -6.5t31 -19.5q13 -10 22 -14.5t19 -4.5q17 0 32 11t31 33l56 -26q-26 -48 -57 -72t-72 -24q-19 0 -32.5 6.5t-30.5 18.5q-13 9 -22.5 14t-20.5 5q-16 0 -31 -10.5t-31 -32.5z" />
    <glyph glyph-name="Umacron" unicode="&#x16a;" horiz-adv-x="722" 
d="M65 200q0 23 5 56l72 452h125l-70 -444q-5 -30 -5 -51q0 -62 33 -92.5t108 -30.5q88 0 133.5 44t59.5 131l70 443h125l-72 -453q-20 -130 -103 -201.5t-220 -71.5q-123 0 -192 57.5t-69 160.5zM595 798h-297l13 81h296z" />
    <glyph glyph-name="umacron" unicode="&#x16b;" horiz-adv-x="618" 
d="M56 146q0 19 4 40l52 332h120l-50 -318q-4 -24 -4 -43q0 -33 17 -52.5t55 -19.5q47 0 84.5 31t61.5 79.5t32 100.5l35 222h120l-63 -400q-9 -53 -11 -118h-111q-3 36 7 78h-2q-28 -41 -76.5 -66.5t-101.5 -25.5q-82 0 -125.5 46t-43.5 114zM512 606h-297l13 81h296z" />
    <glyph glyph-name="Ubreve" unicode="&#x16c;" horiz-adv-x="722" 
d="M65 200q0 23 5 56l72 452h125l-70 -444q-5 -30 -5 -51q0 -62 33 -92.5t108 -30.5q88 0 133.5 44t59.5 131l70 443h125l-72 -453q-20 -130 -103 -201.5t-220 -71.5q-123 0 -192 57.5t-69 160.5zM609 902q-17 -63 -63.5 -99t-112.5 -36q-65 0 -101 35t-36 92v9l70 8
q2 -29 22.5 -45.5t55.5 -16.5q33 0 59 16.5t39 45.5z" />
    <glyph glyph-name="ubreve" unicode="&#x16d;" horiz-adv-x="618" 
d="M56 146q0 19 4 40l52 332h120l-50 -318q-4 -24 -4 -43q0 -33 17 -52.5t55 -19.5q47 0 84.5 31t61.5 79.5t32 100.5l35 222h120l-63 -400q-9 -53 -11 -118h-111q-3 36 7 78h-2q-28 -41 -76.5 -66.5t-101.5 -25.5q-82 0 -125.5 46t-43.5 114zM542 728q-19 -74 -64 -112.5
t-114 -38.5t-106.5 37.5t-37.5 99.5v15l69 8q3 -38 24.5 -57.5t57.5 -19.5q70 0 100 77z" />
    <glyph glyph-name="Uring" unicode="&#x16e;" horiz-adv-x="722" 
d="M65 200q0 23 5 56l72 452h125l-70 -444q-5 -30 -5 -51q0 -62 33 -92.5t108 -30.5q88 0 133.5 44t59.5 131l70 443h125l-72 -453q-20 -130 -103 -201.5t-220 -71.5q-123 0 -192 57.5t-69 160.5zM334 859q0 60 38 95t98 35q53 0 82.5 -25.5t29.5 -67.5q0 -59 -37.5 -95
t-99.5 -36q-52 0 -81.5 26.5t-29.5 67.5zM502 891q0 16 -9.5 25.5t-26.5 9.5q-24 0 -38.5 -16t-14.5 -46q0 -17 10 -26.5t27 -9.5q24 0 38 16t14 47z" />
    <glyph glyph-name="uring" unicode="&#x16f;" horiz-adv-x="618" 
d="M56 146q0 19 4 40l52 332h120l-50 -318q-4 -24 -4 -43q0 -33 17 -52.5t55 -19.5q47 0 84.5 31t61.5 79.5t32 100.5l35 222h120l-63 -400q-9 -53 -11 -118h-111q-3 36 7 78h-2q-28 -41 -76.5 -66.5t-101.5 -25.5q-82 0 -125.5 46t-43.5 114zM251 667q0 60 38 95t98 35
q53 0 82.5 -25.5t29.5 -67.5q0 -59 -37.5 -95t-99.5 -36q-52 0 -81.5 26.5t-29.5 67.5zM419 699q0 16 -9.5 25.5t-26.5 9.5q-24 0 -38.5 -16t-14.5 -46q0 -17 10 -26.5t27 -9.5q24 0 38 16t14 47z" />
    <glyph glyph-name="Uhungarumlaut" unicode="&#x170;" horiz-adv-x="722" 
d="M65 200q0 23 5 56l72 452h125l-70 -444q-5 -30 -5 -51q0 -62 33 -92.5t108 -30.5q88 0 133.5 44t59.5 131l70 443h125l-72 -453q-20 -130 -103 -201.5t-220 -71.5q-123 0 -192 57.5t-69 160.5zM342 762l-50 28l112 175l73 -42zM477 755l-48 34l123 169l67 -50z" />
    <glyph glyph-name="uhungarumlaut" unicode="&#x171;" horiz-adv-x="618" 
d="M56 146q0 19 4 40l52 332h120l-50 -318q-4 -24 -4 -43q0 -33 17 -52.5t55 -19.5q47 0 84.5 31t61.5 79.5t32 100.5l35 222h120l-63 -400q-9 -53 -11 -118h-111q-3 36 7 78h-2q-28 -41 -76.5 -66.5t-101.5 -25.5q-82 0 -125.5 46t-43.5 114zM259 570l-50 28l112 175
l73 -42zM394 563l-48 34l123 169l67 -50z" />
    <glyph glyph-name="Uogonek" unicode="&#x172;" horiz-adv-x="722" 
d="M721 708l-72 -453q-15 -96 -65.5 -161t-131.5 -93q-60 -39 -97 -77t-37 -69q0 -18 9 -26t30 -8q25 0 60 16l21 -67q-48 -27 -105 -27q-45 0 -75 22.5t-30 62.5q0 91 112 154h-14q-123 0 -192 57.5t-69 160.5q0 23 5 56l72 452h125l-70 -444q-5 -30 -5 -51q0 -62 33 -92.5
t108 -30.5q88 0 133.5 44t59.5 131l70 443h125z" />
    <glyph glyph-name="uogonek" unicode="&#x173;" horiz-adv-x="618" 
d="M583 518l-63 -400q-9 -53 -11 -118h-17q-52 -32 -86.5 -67.5t-34.5 -65.5q0 -18 9 -26t30 -8q25 0 60 16l21 -67q-48 -27 -105 -27q-45 0 -75 22.5t-30 62.5q0 96 117 162q-3 35 7 76h-2q-28 -41 -76.5 -66.5t-101.5 -25.5q-82 0 -125.5 46t-43.5 114q0 19 4 40l52 332
h120l-50 -318q-4 -24 -4 -43q0 -33 17 -52.5t55 -19.5q47 0 84.5 31t61.5 79.5t32 100.5l35 222h120z" />
    <glyph glyph-name="Wcircumflex" unicode="&#x174;" horiz-adv-x="977" 
d="M728 0h-123l-71 547h-2l-241 -547h-126l-87 708h125l52 -541h3l233 541h129l63 -541h3l227 541h127zM410 817l139 102h92l110 -106l-49 -50l-114 83l-141 -84z" />
    <glyph glyph-name="wcircumflex" unicode="&#x175;" horiz-adv-x="795" 
d="M602 0h-127l-54 388h-2l-176 -388h-133l-59 518h124l24 -386h2l172 386h128l52 -386h2l147 386h124zM285 619l150 125h93l106 -128l-48 -48l-112 101l-145 -99z" />
    <glyph glyph-name="Ycircumflex" unicode="&#x176;" horiz-adv-x="583" 
d="M358 301l-48 -301h-125l49 303l-180 405h137l118 -305h2l213 305h146zM214 817l139 102h92l110 -106l-49 -50l-114 83l-141 -84z" />
    <glyph glyph-name="ycircumflex" unicode="&#x177;" horiz-adv-x="493" 
d="M148 -20l8 16l-115 522h126l63 -393h2l174 393h129l-271 -550q-39 -78 -75 -121t-80.5 -66t-115.5 -39l-24 94q45 11 75 25t55.5 42t48.5 77zM133 619l150 125h93l106 -128l-48 -48l-112 101l-145 -99z" />
    <glyph glyph-name="Ydieresis" unicode="&#x178;" horiz-adv-x="583" 
d="M358 301l-48 -301h-125l49 303l-180 405h137l118 -305h2l213 305h146zM218 837q0 35 19 57t57 22q56 0 56 -50q0 -36 -17.5 -58t-56.5 -22q-58 0 -58 51zM419 837q0 35 19 57t57 22q56 0 56 -50q0 -36 -17.5 -58t-56.5 -22q-58 0 -58 51z" />
    <glyph glyph-name="Zacute" unicode="&#x179;" horiz-adv-x="581" 
d="M589 609l-430 -504h359l-17 -105h-511l17 106l426 501h-335l16 101h491zM296 763l-29 66l194 117l41 -90z" />
    <glyph glyph-name="zacute" unicode="&#x17a;" horiz-adv-x="455" 
d="M444 429l-293 -335h251l-15 -94h-397l14 95l290 333h-226l15 90h375zM218 568l-38 66l190 135l47 -90z" />
    <glyph glyph-name="Zdotaccent" unicode="&#x17b;" horiz-adv-x="581" 
d="M589 609l-430 -504h359l-17 -105h-511l17 106l426 501h-335l16 101h491zM312 846q0 36 20.5 59.5t63.5 23.5q34 0 49.5 -15t15.5 -40q0 -36 -20.5 -59.5t-63.5 -23.5q-34 0 -49.5 15t-15.5 40z" />
    <glyph glyph-name="zdotaccent" unicode="&#x17c;" horiz-adv-x="455" 
d="M444 429l-293 -335h251l-15 -94h-397l14 95l290 333h-226l15 90h375zM227 669q0 36 20.5 59.5t63.5 23.5q34 0 49.5 -15t15.5 -40q0 -36 -20.5 -59.5t-63.5 -23.5q-34 0 -49.5 15t-15.5 40z" />
    <glyph glyph-name="Zcaron" unicode="&#x17d;" horiz-adv-x="581" 
d="M589 609l-430 -504h359l-17 -105h-511l17 106l426 501h-335l16 101h491zM556 876l-141 -102h-92l-108 105l48 52l114 -84l140 83z" />
    <glyph glyph-name="zcaron" unicode="&#x17e;" horiz-adv-x="455" 
d="M444 429l-293 -335h251l-15 -94h-397l14 95l290 333h-226l15 90h375zM473 704l-149 -125h-93l-107 128l48 48l113 -101l144 99z" />
    <glyph glyph-name="florin" unicode="&#x192;" 
d="M45 -166q55 19 81.5 53.5t37.5 102.5l69 434h-84l15 91h83l4 29q14 86 62.5 132t139.5 46q65 0 114 -19l-36 -85q-30 9 -58 9q-90 0 -102 -88l-4 -24h121l-15 -91h-119l-69 -433q-12 -74 -36.5 -121.5t-65.5 -77.5t-107 -50z" />
    <glyph glyph-name="Scommaaccent" unicode="&#x218;" horiz-adv-x="562" 
d="M-6 63l67 81q74 -58 174 -58q70 0 113 34.5t43 95.5q0 44 -32.5 67t-105.5 43q-79 22 -121.5 67.5t-42.5 112.5q0 105 75 162t196 57q122 0 218 -68l-63 -83q-40 25 -79.5 37.5t-83.5 12.5q-62 0 -100 -25.5t-38 -78.5q0 -37 30 -58.5t95 -40.5q86 -25 134 -69t48 -118
q0 -78 -38 -135t-104 -87t-150 -30q-68 0 -130 21t-105 60zM155 -255q22 22 33 39t17 38q-46 8 -46 51q0 29 19.5 49.5t54.5 20.5q30 0 45.5 -16t15.5 -45q0 -7 -2 -21q-7 -41 -29.5 -76t-68.5 -75z" />
    <glyph glyph-name="scommaaccent" unicode="&#x219;" horiz-adv-x="459" 
d="M449 478l-56 -75q-58 37 -120 37q-94 0 -94 -62q0 -24 21 -38.5t78 -30.5q127 -39 127 -141q0 -89 -63 -135.5t-165 -46.5q-110 0 -186 58l56 76q61 -41 134 -41q99 0 99 72q0 26 -20.5 42.5t-73.5 33.5q-129 39 -129 138q0 80 60.5 123.5t156.5 43.5q104 0 175 -54z
M102 -255q22 22 33 39t17 38q-46 8 -46 51q0 29 19.5 49.5t54.5 20.5q30 0 45.5 -16t15.5 -45q0 -7 -2 -21q-7 -41 -29.5 -76t-68.5 -75z" />
    <glyph glyph-name="uni021A" unicode="&#x21a;" horiz-adv-x="552" 
d="M603 602h-209l-95 -602h-127l96 602h-209l17 106h543zM150 -255q22 22 33 39t17 38q-46 8 -46 51q0 29 19.5 49.5t54.5 20.5q30 0 45.5 -16t15.5 -45q0 -7 -2 -21q-7 -41 -29.5 -76t-68.5 -75z" />
    <glyph glyph-name="uni021B" unicode="&#x21b;" horiz-adv-x="375" 
d="M260 515h126l-14 -91h-127l-40 -255q-4 -25 -4 -38q0 -46 57 -46q25 0 46 6l6 -92q-39 -13 -91 -13q-67 0 -103.5 32.5t-36.5 92.5q0 20 5 50l41 263h-84l13 77l86 14l18 122l128 43zM114 -255q22 22 33 39t17 38q-46 8 -46 51q0 29 19.5 49.5t54.5 20.5q30 0 45.5 -16
t15.5 -45q0 -7 -2 -21q-7 -41 -29.5 -76t-68.5 -75z" />
    <glyph glyph-name="uni0237" unicode="&#x237;" horiz-adv-x="275" 
d="M34 -10l84 528h120l-83 -527q-12 -74 -36 -121.5t-65.5 -77.5t-107.5 -50l-31 92q55 18 81.5 53t37.5 103z" />
    <glyph glyph-name="circumflex" unicode="&#x2c6;" horiz-adv-x="408" 
d="M85 619l150 125h93l106 -128l-48 -48l-112 101l-145 -99z" />
    <glyph glyph-name="caron" unicode="&#x2c7;" horiz-adv-x="409" 
d="M450 704l-149 -125h-93l-107 128l48 48l113 -101l144 99z" />
    <glyph glyph-name="uni02C9" unicode="&#x2c9;" horiz-adv-x="357" 
d="M382 606h-297l13 81h296z" />
    <glyph glyph-name="breve" unicode="&#x2d8;" horiz-adv-x="382" 
d="M425 728q-19 -74 -64 -112.5t-114 -38.5t-106.5 37.5t-37.5 99.5v15l69 8q3 -38 24.5 -57.5t57.5 -19.5q70 0 100 77z" />
    <glyph glyph-name="dotaccent" unicode="&#x2d9;" horiz-adv-x="208" 
d="M96 669q0 36 20.5 59.5t63.5 23.5q34 0 49.5 -15t15.5 -40q0 -36 -20.5 -59.5t-63.5 -23.5q-34 0 -49.5 15t-15.5 40z" />
    <glyph glyph-name="ring" unicode="&#x2da;" horiz-adv-x="306" 
d="M96 667q0 60 38 95t98 35q53 0 82.5 -25.5t29.5 -67.5q0 -59 -37.5 -95t-99.5 -36q-52 0 -81.5 26.5t-29.5 67.5zM264 699q0 16 -9.5 25.5t-26.5 9.5q-24 0 -38.5 -16t-14.5 -46q0 -17 10 -26.5t27 -9.5q24 0 38 16t14 47z" />
    <glyph glyph-name="ogonek" unicode="&#x2db;" horiz-adv-x="278" 
d="M55 -135q0 -18 9 -26t30 -8q25 0 60 16l21 -67q-48 -27 -105 -27q-45 0 -75 22.5t-30 62.5q0 102 133 171l81 -9q-53 -32 -88.5 -68t-35.5 -67z" />
    <glyph glyph-name="tilde" unicode="&#x2dc;" horiz-adv-x="401" 
d="M86 615q26 48 58 72.5t72 24.5q19 0 32 -6.5t31 -19.5q13 -10 22 -14.5t19 -4.5q17 0 32 11t31 33l56 -26q-26 -48 -57 -72t-72 -24q-19 0 -32.5 6.5t-30.5 18.5q-13 9 -22.5 14t-20.5 5q-16 0 -31 -10.5t-31 -32.5z" />
    <glyph glyph-name="hungarumlaut" unicode="&#x2dd;" horiz-adv-x="370" 
d="M134 570l-50 28l112 175l73 -42zM269 563l-48 34l123 169l67 -50z" />
    <glyph glyph-name="uni0312" unicode="&#x312;" horiz-adv-x="0" 
d="M38 803q-22 -22 -33 -39t-17 -38q46 -8 46 -51q0 -29 -19.5 -49.5t-54.5 -20.5q-30 0 -45.5 16t-15.5 45q0 7 2 21q7 41 29.5 76t68.5 75z" />
    <glyph glyph-name="uni0326" unicode="&#x326;" horiz-adv-x="0" 
d="M-228 -255q22 22 33 39t17 38q-46 8 -46 51q0 29 19.5 49.5t54.5 20.5q30 0 45.5 -16t15.5 -45q0 -7 -2 -21q-7 -41 -29.5 -76t-68.5 -75z" />
    <glyph glyph-name="Delta" unicode="&#x394;" horiz-adv-x="671" 
d="M631 0h-674l383 708h131zM481 99l-93 483l-247 -483h340z" />
    <glyph glyph-name="Omega" unicode="&#x3a9;" horiz-adv-x="790" 
d="M592 103h130l-16 -103h-294l16 101l-3 3q68 17 116.5 65t73 115.5t24.5 142.5q0 90 -46 140.5t-137 50.5q-84 0 -146 -44.5t-95 -120t-33 -164.5q0 -71 31.5 -119.5t93.5 -66.5h6l-16 -103h-294l16 103h134q-98 69 -98 202q0 116 52.5 212.5t146 152.5t209.5 56
q95 0 164 -37t105.5 -104t36.5 -155q0 -106 -46.5 -192t-130.5 -135z" />
    <glyph glyph-name="mu" unicode="&#x3bc;" horiz-adv-x="619" 
d="M584 518l-63 -400q-7 -46 -11 -118h-115q0 44 2 61l-2 -1q-30 -34 -68.5 -54t-82.5 -20q-67 0 -92 47h-2l-25 -166q-11 -64 -30 -111h-112q17 54 28 119l102 643h121l-47 -298q-4 -30 -4 -42q0 -94 85 -94q58 0 99.5 44.5t52.5 112.5l44 277h120z" />
    <glyph glyph-name="pi" unicode="&#x3c0;" horiz-adv-x="585" 
d="M475 138q-7 -45 -7 -85q0 -29 3 -53h-117q-6 40 -6 67q0 32 6 72l45 284l-167 -1l-67 -422h-120l67 422h-81l15 96h465q50 0 97 14l4 -93q-40 -15 -92 -16z" />
    <glyph glyph-name="Wgrave" unicode="&#x1e80;" horiz-adv-x="977" 
d="M728 0h-123l-71 547h-2l-241 -547h-126l-87 708h125l52 -541h3l233 541h129l63 -541h3l227 541h127zM528 946l183 -121l-47 -57l-197 99z" />
    <glyph glyph-name="wgrave" unicode="&#x1e81;" horiz-adv-x="795" 
d="M602 0h-127l-54 388h-2l-176 -388h-133l-59 518h124l24 -386h2l172 386h128l52 -386h2l147 386h124zM418 769l167 -145l-52 -56l-183 124z" />
    <glyph glyph-name="Wacute" unicode="&#x1e82;" horiz-adv-x="977" 
d="M728 0h-123l-71 547h-2l-241 -547h-126l-87 708h125l52 -541h3l233 541h129l63 -541h3l227 541h127zM493 763l-29 66l194 117l41 -90z" />
    <glyph glyph-name="wacute" unicode="&#x1e83;" horiz-adv-x="795" 
d="M602 0h-127l-54 388h-2l-176 -388h-133l-59 518h124l24 -386h2l172 386h128l52 -386h2l147 386h124zM382 568l-38 66l190 135l47 -90z" />
    <glyph glyph-name="Wdieresis" unicode="&#x1e84;" horiz-adv-x="977" 
d="M728 0h-123l-71 547h-2l-241 -547h-126l-87 708h125l52 -541h3l233 541h129l63 -541h3l227 541h127zM415 837q0 35 19 57t57 22q56 0 56 -50q0 -36 -17.5 -58t-56.5 -22q-58 0 -58 51zM616 837q0 35 19 57t57 22q56 0 56 -50q0 -36 -17.5 -58t-56.5 -22q-58 0 -58 51z
" />
    <glyph glyph-name="wdieresis" unicode="&#x1e85;" horiz-adv-x="795" 
d="M602 0h-127l-54 388h-2l-176 -388h-133l-59 518h124l24 -386h2l172 386h128l52 -386h2l147 386h124zM295 645q0 35 19 57t57 22q56 0 56 -50q0 -36 -17.5 -58t-56.5 -22q-58 0 -58 51zM496 645q0 35 19 57t57 22q56 0 56 -50q0 -36 -17.5 -58t-56.5 -22q-58 0 -58 51z
" />
    <glyph glyph-name="uni1E9E" unicode="&#x1e9e;" horiz-adv-x="706" 
d="M664 235q0 -76 -35.5 -133.5t-98 -88.5t-141.5 -31q-99 0 -170 44l54 84q29 -14 56 -20t59 -6q69 0 108.5 41t39.5 107q0 51 -41.5 82.5t-140.5 42.5l11 83l139 156q-51 28 -115 28q-68 0 -108 -30t-53 -109l-77 -485h-125l79 493q19 119 95.5 175.5t189.5 56.5
q85 0 149.5 -28.5t118.5 -83.5l-169 -183q79 -19 127 -67t48 -128z" />
    <glyph glyph-name="Ygrave" unicode="&#x1ef2;" horiz-adv-x="583" 
d="M358 301l-48 -301h-125l49 303l-180 405h137l118 -305h2l213 305h146zM331 946l183 -121l-47 -57l-197 99z" />
    <glyph glyph-name="ygrave" unicode="&#x1ef3;" horiz-adv-x="493" 
d="M148 -20l8 16l-115 522h126l63 -393h2l174 393h129l-271 -550q-39 -78 -75 -121t-80.5 -66t-115.5 -39l-24 94q45 11 75 25t55.5 42t48.5 77zM266 769l167 -145l-52 -56l-183 124z" />
    <glyph glyph-name="endash" unicode="&#x2013;" horiz-adv-x="587" 
d="M486 245h-391l15 96h391z" />
    <glyph glyph-name="emdash" unicode="&#x2014;" horiz-adv-x="579" 
d="M536 245h-500l15 96h501z" />
    <glyph glyph-name="quoteleft" unicode="&#x2018;" horiz-adv-x="259" 
d="M224 727l42 -39q-37 -38 -54.5 -68.5t-20.5 -66.5q30 -4 42.5 -20t12.5 -44q0 -25 -17.5 -42.5t-50.5 -17.5q-34 0 -52 22t-18 61q0 57 24 105.5t92 109.5z" />
    <glyph glyph-name="quoteright" unicode="&#x2019;" horiz-adv-x="221" 
d="M124 429l-42 39q37 38 54.5 68.5t20.5 66.5q-30 4 -42.5 20t-12.5 44q0 25 17.5 42.5t50.5 17.5q34 0 52 -22t18 -61q0 -57 -24 -105.5t-92 -109.5z" />
    <glyph glyph-name="quotesinglbase" unicode="&#x201a;" horiz-adv-x="259" 
d="M40 -174l-42 39q37 38 54.5 68.5t20.5 66.5q-30 4 -42.5 20t-12.5 44q0 25 17.5 42.5t50.5 17.5q34 0 52 -22t18 -61q0 -57 -24 -105.5t-92 -109.5z" />
    <glyph glyph-name="quotedblleft" unicode="&#x201c;" horiz-adv-x="445" 
d="M410 727l42 -39q-37 -38 -54.5 -68.5t-20.5 -66.5q30 -4 42.5 -20t12.5 -44q0 -25 -17.5 -42.5t-50.5 -17.5q-34 0 -52 22t-18 61q0 57 24 105.5t92 109.5zM224 727l42 -39q-37 -38 -54.5 -68.5t-20.5 -66.5q30 -4 42.5 -20t12.5 -44q0 -25 -17.5 -42.5t-50.5 -17.5
q-34 0 -52 22t-18 61q0 57 24 105.5t92 109.5z" />
    <glyph glyph-name="quotedblright" unicode="&#x201d;" horiz-adv-x="445" 
d="M320 429l-42 39q37 38 54.5 68.5t20.5 66.5q-30 4 -42.5 20t-12.5 44q0 25 17.5 42.5t50.5 17.5q34 0 52 -22t18 -61q0 -57 -24 -105.5t-92 -109.5zM135 429l-42 39q37 38 54.5 68.5t20.5 66.5q-30 4 -42.5 20t-12.5 44q0 25 17.5 42.5t50.5 17.5q34 0 52 -22t18 -61
q0 -57 -24 -105.5t-92 -109.5z" />
    <glyph glyph-name="quotedblbase" unicode="&#x201e;" horiz-adv-x="445" 
d="M40 -174l-42 39q37 38 54.5 68.5t20.5 66.5q-30 4 -42.5 20t-12.5 44q0 25 17.5 42.5t50.5 17.5q34 0 52 -22t18 -61q0 -57 -24 -105.5t-92 -109.5zM226 -174l-42 39q37 38 54.5 68.5t20.5 66.5q-30 4 -42.5 20t-12.5 44q0 25 17.5 42.5t50.5 17.5q34 0 52 -22t18 -61
q0 -57 -24 -105.5t-92 -109.5z" />
    <glyph glyph-name="dagger" unicode="&#x2020;" horiz-adv-x="587" 
d="M550 459h-165l-73 -459h-120l73 459h-165l16 97h164l24 152h120l-24 -152h166z" />
    <glyph glyph-name="daggerdbl" unicode="&#x2021;" horiz-adv-x="587" 
d="M385 459l-21 -129h166l-15 -97h-166l-37 -233h-120l37 233h-164l15 97h164l21 129h-165l16 97h164l24 152h120l-24 -152h166l-16 -97h-165z" />
    <glyph glyph-name="bullet" unicode="&#x2022;" horiz-adv-x="373" 
d="M80 336q0 119 118 119q119 0 119 -119q0 -116 -119 -116q-118 0 -118 116z" />
    <glyph glyph-name="ellipsis" unicode="&#x2026;" horiz-adv-x="850" 
d="M322 46q0 41 20.5 65.5t63.5 24.5q63 0 63 -56q0 -40 -20.5 -64.5t-63.5 -24.5q-63 0 -63 55zM608 46q0 41 20.5 65.5t63.5 24.5q63 0 63 -56q0 -40 -20.5 -64.5t-63.5 -24.5q-63 0 -63 55zM34 46q0 41 20.5 65.5t63.5 24.5q63 0 63 -56q0 -40 -20.5 -64.5t-63.5 -24.5
q-63 0 -63 55z" />
    <glyph glyph-name="perthousand" unicode="&#x2030;" horiz-adv-x="1761" 
d="M110 471q0 21 2 32q8 62 42 112t88 79t121 29q89 0 141.5 -50t52.5 -130q0 -69 -32.5 -126t-90 -90.5t-127.5 -33.5q-89 0 -143 48.5t-54 129.5zM921 709l-527 -709h-115l527 709h115zM441 535q0 41 -22 66t-66 25q-61 0 -94.5 -42.5t-33.5 -103.5q0 -41 22.5 -65.5
t67.5 -24.5q59 0 92.5 41.5t33.5 103.5zM684 167q0 21 2 32q8 62 42 112t88 79t121 29q89 0 141.5 -50t52.5 -130q0 -69 -32.5 -126t-90 -90.5t-127.5 -33.5q-89 0 -143 48.5t-54 129.5zM1166 167q0 21 2 32q8 62 42 112t88 79t121 29q89 0 141.5 -50t52.5 -130
q0 -69 -32.5 -126t-90 -90.5t-127.5 -33.5q-89 0 -143 48.5t-54 129.5zM1015 231q0 41 -22 66t-66 25q-61 0 -94.5 -42.5t-33.5 -103.5q0 -41 22.5 -65.5t67.5 -24.5q59 0 92.5 41.5t33.5 103.5zM1497 231q0 41 -22 66t-66 25q-61 0 -94.5 -42.5t-33.5 -103.5
q0 -41 22.5 -65.5t67.5 -24.5q59 0 92.5 41.5t33.5 103.5z" />
    <glyph glyph-name="guilsinglleft" unicode="&#x2039;" horiz-adv-x="338" 
d="M174 341l83 -143l-58 -41l-119 163l7 47l169 165l47 -48z" />
    <glyph glyph-name="guilsinglright" unicode="&#x203a;" horiz-adv-x="338" 
d="M284 367l-7 -47l-169 -163l-46 48l130 143l-86 143l60 41z" />
    <glyph glyph-name="fraction" unicode="&#x2044;" horiz-adv-x="231" 
d="M451 709l-527 -709h-115l527 709h115z" />
    <glyph glyph-name="uni2070" unicode="&#x2070;" horiz-adv-x="540" 
d="M58 386q0 32 6 68q20 127 91 197.5t183 70.5q99 0 151 -54.5t52 -154.5q0 -33 -6 -69q-20 -127 -91 -197t-182 -70q-99 0 -151.5 55t-52.5 154zM422 454q6 36 6 65q0 53 -22.5 79.5t-72.5 26.5q-67 0 -103 -45t-51 -136q-6 -36 -6 -65q0 -53 22.5 -79t73.5 -26
q65 0 101.5 45.5t51.5 134.5z" />
    <glyph glyph-name="uni2074" unicode="&#x2074;" horiz-adv-x="540" 
d="M499 295h-71l-16 -104h-110l16 104h-265l12 85l223 328h124l-213 -318h134l19 124h111l-20 -124h71z" />
    <glyph glyph-name="uni2075" unicode="&#x2075;" horiz-adv-x="540" 
d="M57 257l69 65q28 -26 57.5 -37.5t74.5 -11.5q53 0 87.5 27t34.5 73q0 28 -21 43t-56 15q-29 0 -50 -5t-45 -16l-78 1l46 297h342l-14 -95h-233l-19 -111q43 19 94 19q69 0 110.5 -38.5t41.5 -104.5q0 -63 -31.5 -108.5t-86 -69t-124.5 -23.5q-68 0 -115 20.5t-84 59.5z
" />
    <glyph glyph-name="uni2076" unicode="&#x2076;" horiz-adv-x="540" 
d="M502 395q0 -63 -30 -112.5t-83.5 -77.5t-119.5 -28q-95 0 -143.5 50.5t-48.5 138.5q0 26 5 63q21 134 99 213.5t196 79.5q78 0 135 -35l-51 -77q-35 21 -87 21q-60 0 -100.5 -33t-59.5 -96q30 18 62 26t72 8q70 0 112 -38.5t42 -102.5zM387 390q0 59 -70 59
q-60 0 -122 -40q-5 -33 -5 -53q0 -45 20 -65t62 -20q53 0 84 34t31 85z" />
    <glyph glyph-name="uni2077" unicode="&#x2077;" horiz-adv-x="540" 
d="M525 616q-98 -88 -164 -197.5t-91 -227.5h-130q37 131 98 232t149 191l-259 -2l15 96h395z" />
    <glyph glyph-name="uni2078" unicode="&#x2078;" horiz-adv-x="540" 
d="M500 347q0 -55 -33.5 -93.5t-87.5 -57.5t-118 -19q-62 0 -107 18.5t-68.5 49.5t-23.5 69q0 54 33 88.5t95 62.5q-31 19 -47 44t-16 52q0 51 29.5 87.5t77.5 55t102 18.5q81 0 130.5 -32.5t49.5 -87.5q0 -84 -106 -138q46 -20 68 -48t22 -69zM242 568q0 -43 62 -64l21 -8
q76 46 76 97q0 21 -18 33.5t-51 12.5q-37 0 -63.5 -19t-26.5 -52zM384 347q0 22 -17.5 37.5t-59.5 31.5l-33 13q-44 -17 -68 -43.5t-24 -61.5q0 -29 23 -43.5t64 -14.5q51 0 83 22t32 59z" />
    <glyph glyph-name="uni2079" unicode="&#x2079;" horiz-adv-x="540" 
d="M523 538q0 -26 -5 -64q-23 -141 -126 -217t-282 -76l11 94q107 0 175 33t92 97q-30 -20 -62.5 -29t-72.5 -9q-68 0 -112 39.5t-44 104.5q0 61 31.5 109t86 75t119.5 27q93 0 141 -48.5t48 -135.5zM286 454q67 0 119 44q5 33 5 51q0 43 -20 61.5t-62 18.5q-52 0 -84 -31.5
t-32 -79.5q0 -30 20 -47t54 -17z" />
    <glyph glyph-name="uni207A" unicode="&#x207a;" horiz-adv-x="540" 
d="M448 439h-103l-16 -103h-94l16 103h-103l13 86h104l16 103h94l-16 -103h102z" />
    <glyph glyph-name="uni207B" unicode="&#x207b;" horiz-adv-x="540" 
d="M448 439h-300l14 87h300z" />
    <glyph glyph-name="uni207C" unicode="&#x207c;" horiz-adv-x="540" 
d="M461 516h-300l13 87h300zM435 358h-300l14 87h300z" />
    <glyph glyph-name="uni207D" unicode="&#x207d;" horiz-adv-x="528" 
d="M182 376q0 118 56.5 227t152.5 206l63 -48q-78 -96 -117.5 -193.5t-39.5 -208.5q0 -121 52 -228l-71 -42q-96 141 -96 287z" />
    <glyph glyph-name="uni207E" unicode="&#x207e;" horiz-adv-x="528" 
d="M135 137q78 97 117.5 194t39.5 208q0 119 -53 228l72 42q96 -141 96 -287q0 -118 -56.5 -227t-152.5 -206z" />
    <glyph glyph-name="uni2080" unicode="&#x2080;" horiz-adv-x="540" 
d="M7 65q0 32 6 68q20 127 91 197.5t183 70.5q99 0 151 -54.5t52 -154.5q0 -33 -6 -69q-20 -127 -91 -197t-182 -70q-99 0 -151.5 55t-52.5 154zM371 133q6 36 6 65q0 53 -22.5 79.5t-72.5 26.5q-67 0 -103 -45t-51 -136q-6 -36 -6 -65q0 -53 22.5 -79t73.5 -26
q65 0 101.5 45.5t51.5 134.5z" />
    <glyph glyph-name="uni2081" unicode="&#x2081;" horiz-adv-x="540" 
d="M420 -35l-15 -95h-365l15 94h143l50 307l-139 -57l-31 82l198 91h104l-67 -422h107z" />
    <glyph glyph-name="uni2082" unicode="&#x2082;" horiz-adv-x="540" 
d="M462 254q0 -57 -30.5 -102.5t-81.5 -84t-152 -104.5l233 2l-15 -95h-393l13 90q24 17 43.5 31t35.5 25q85 60 128.5 93.5t71.5 68t28 67.5q0 29 -19 45t-55 16t-67 -15t-65 -44l-66 66q46 44 96.5 65.5t116.5 21.5q86 0 132 -41.5t46 -104.5z" />
    <glyph glyph-name="uni2083" unicode="&#x2083;" horiz-adv-x="540" 
d="M462 273q0 -11 -1 -17q-13 -96 -112 -116l-4 -1q42 -6 69.5 -31t27.5 -70q0 -51 -28 -92.5t-82.5 -65.5t-129.5 -24q-67 0 -113 20.5t-80 59.5l68 63q28 -26 57.5 -37t72.5 -11q51 0 85 23.5t34 67.5q0 25 -18 37t-56 12h-93l13 90h76q46 0 72 20.5t26 59.5
q0 24 -18.5 35t-56.5 11q-66 0 -135 -46l-52 70q47 36 97 53t106 17q84 0 129.5 -36t45.5 -92z" />
    <glyph glyph-name="uni2084" unicode="&#x2084;" horiz-adv-x="540" 
d="M448 -26h-71l-16 -104h-110l16 104h-265l12 85l223 328h124l-213 -318h134l19 124h111l-20 -124h71z" />
    <glyph glyph-name="uni2085" unicode="&#x2085;" horiz-adv-x="540" 
d="M6 -64l69 65q28 -26 57.5 -37.5t74.5 -11.5q53 0 87.5 27t34.5 73q0 28 -21 43t-56 15q-29 0 -50 -5t-45 -16l-78 1l46 297h342l-14 -95h-233l-19 -111q43 19 94 19q69 0 110.5 -38.5t41.5 -104.5q0 -63 -31.5 -108.5t-86 -69t-124.5 -23.5q-68 0 -115 20.5t-84 59.5z
" />
    <glyph glyph-name="uni2086" unicode="&#x2086;" horiz-adv-x="540" 
d="M451 74q0 -63 -30 -112.5t-83.5 -77.5t-119.5 -28q-95 0 -143.5 50.5t-48.5 138.5q0 26 5 63q21 134 99 213.5t196 79.5q78 0 135 -35l-51 -77q-35 21 -87 21q-60 0 -100.5 -33t-59.5 -96q30 18 62 26t72 8q70 0 112 -38.5t42 -102.5zM336 69q0 59 -70 59q-60 0 -122 -40
q-5 -33 -5 -53q0 -45 20 -65t62 -20q53 0 84 34t31 85z" />
    <glyph glyph-name="uni2087" unicode="&#x2087;" horiz-adv-x="540" 
d="M474 295q-98 -88 -164 -197.5t-91 -227.5h-130q37 131 98 232t149 191l-259 -2l15 96h395z" />
    <glyph glyph-name="uni2088" unicode="&#x2088;" horiz-adv-x="540" 
d="M449 26q0 -55 -33.5 -93.5t-87.5 -57.5t-118 -19q-62 0 -107 18.5t-68.5 49.5t-23.5 69q0 54 33 88.5t95 62.5q-31 19 -47 44t-16 52q0 51 29.5 87.5t77.5 55t102 18.5q81 0 130.5 -32.5t49.5 -87.5q0 -84 -106 -138q46 -20 68 -48t22 -69zM191 247q0 -43 62 -64l21 -8
q76 46 76 97q0 21 -18 33.5t-51 12.5q-37 0 -63.5 -19t-26.5 -52zM333 26q0 22 -17.5 37.5t-59.5 31.5l-33 13q-44 -17 -68 -43.5t-24 -61.5q0 -29 23 -43.5t64 -14.5q51 0 83 22t32 59z" />
    <glyph glyph-name="uni2089" unicode="&#x2089;" horiz-adv-x="540" 
d="M473 217q0 -26 -5 -64q-23 -141 -126 -217t-282 -76l11 94q107 0 175 33t92 97q-30 -20 -62.5 -29t-72.5 -9q-68 0 -112 39.5t-44 104.5q0 61 31.5 109t86 75t119.5 27q93 0 141 -48.5t48 -135.5zM236 133q67 0 119 44q5 33 5 51q0 43 -20 61.5t-62 18.5q-52 0 -84 -31.5
t-32 -79.5q0 -30 20 -47t54 -17z" />
    <glyph glyph-name="uni208A" unicode="&#x208a;" horiz-adv-x="540" 
d="M394 98h-103l-16 -103h-94l16 103h-103l13 86h104l16 103h94l-16 -103h102z" />
    <glyph glyph-name="uni208B" unicode="&#x208b;" horiz-adv-x="540" 
d="M394 98h-300l14 87h300z" />
    <glyph glyph-name="uni208C" unicode="&#x208c;" horiz-adv-x="540" 
d="M407 175h-300l13 87h300zM381 17h-300l14 87h300z" />
    <glyph glyph-name="uni208D" unicode="&#x208d;" horiz-adv-x="528" 
d="M131 55q0 118 56.5 227t152.5 206l63 -48q-78 -96 -117.5 -193.5t-39.5 -208.5q0 -121 52 -228l-71 -42q-96 141 -96 287z" />
    <glyph glyph-name="uni208E" unicode="&#x208e;" horiz-adv-x="528" 
d="M84 -184q78 97 117.5 194t39.5 208q0 119 -53 228l72 42q96 -141 96 -287q0 -118 -56.5 -227t-152.5 -206z" />
    <glyph glyph-name="Euro" unicode="&#x20ac;" 
d="M246 473h274l-12 -86h-288q-6 -25 -9 -53h238l-14 -86h-228q2 -77 36.5 -116t108.5 -39q45 0 87.5 19.5t74.5 48.5l58 -84q-43 -43 -103.5 -68.5t-128.5 -25.5q-122 0 -186.5 68.5t-66.5 196.5h-87l13 86h78q2 21 8 53h-73l13 86h83q42 117 126.5 186.5t201.5 69.5
q67 0 120.5 -23t89.5 -63l-72 -73q-57 51 -141 51q-70 0 -120.5 -39.5t-80.5 -108.5z" />
    <glyph glyph-name="uni20B9" unicode="&#x20b9;" 
d="M620 625h-168q37 -26 50 -64h108l-13 -83h-87q-7 -80 -54.5 -133.5t-126.5 -79.5l130 -265h-132l-114 242h-167l14 94h154q80 0 121 38.5t48 103.5h-300l13 83h278q-27 59 -113 59h-156l14 88h514z" />
    <glyph glyph-name="uni20BA" unicode="&#x20ba;" 
d="M575 258q-20 -132 -104 -195t-243 -63h-130l36 228l-124 -54l-6 91l146 64l6 37l-124 -54l-6 91l146 64l38 241h124l-30 -184l149 65l6 -91l-171 -74l-6 -38l149 65l6 -91l-171 -75l-29 -177q111 0 162 36t64 114h112z" />
    <glyph glyph-name="uni20BD" unicode="&#x20bd;" 
d="M227 287l-10 -65h210l-14 -86h-210l-21 -136h-123l22 136h-57l13 86h57l10 65h-55l13 86h56l53 335h218q102 0 164.5 -46.5t62.5 -136.5q0 -114 -76.5 -176t-205.5 -62h-107zM241 373h90q74 0 117 40t43 106q0 46 -32 68t-85 22h-96z" />
    <glyph glyph-name="uni2113" unicode="&#x2113;" horiz-adv-x="443" 
d="M204 163q-3 -19 -3 -30q0 -26 13.5 -38t41.5 -12q26 0 49 7l8 -88q-48 -16 -88 -16q-69 0 -107.5 34t-38.5 95q0 16 3 35l11 70l-59 -39l-22 54l93 59l42 264q13 84 65 126t120 42q59 0 93 -30t34 -80q0 -88 -62.5 -164.5t-170.5 -153.5zM241 395q62 54 95 108t33 115
q0 41 -35 41q-51 0 -63 -80z" />
    <glyph glyph-name="uni2117" unicode="&#x2117;" horiz-adv-x="932" 
d="M83 354q0 107 45 191.5t132 132.5t207 48q119 0 205.5 -48t132 -132.5t45.5 -191.5t-45.5 -191.5t-132 -132.5t-205.5 -48q-120 0 -207 48t-132 132.5t-45 191.5zM760 354q0 132 -73.5 212.5t-220.5 80.5t-220.5 -80.5t-73.5 -212.5t73.5 -212.5t220.5 -80.5t220.5 80.5
t73.5 212.5zM649 419q0 -71 -48 -108.5t-123 -37.5h-72v-121h-88v407h160q79 0 125 -34.5t46 -105.5zM406 486v-141h69q85 0 85 73q0 36 -22.5 52t-61.5 16h-70z" />
    <glyph glyph-name="uni2120" unicode="&#x2120;" horiz-adv-x="1016" 
d="M386 672l-44 -72q-53 31 -113 31q-68 0 -68 -36q0 -15 7.5 -23.5t27.5 -15t64 -14.5q131 -27 131 -128q0 -70 -51.5 -106.5t-137.5 -36.5q-100 0 -170 49l44 73q29 -17 56 -25.5t59 -8.5q82 0 82 43q0 16 -7.5 25t-25.5 15.5t-57 15.5q-70 15 -101 46.5t-31 85.5
q0 60 45.5 94t125.5 34q48 0 90.5 -11t73.5 -35zM447 708h161l91 -287h2l95 287h162v-425h-109l3 306h-1l-110 -306h-87l-106 306h-1l3 -306h-103v425z" />
    <glyph glyph-name="trademark" unicode="&#x2122;" horiz-adv-x="568" 
d="M129 657h-62v51h188v-51h-63v-165h-63v165zM273 708h93l48 -141h2l50 141h90v-216h-63l2 152h-2l-56 -152h-49l-56 152h-2l2 -152h-59v216z" />
    <glyph glyph-name="uni2126" unicode="&#x2126;" horiz-adv-x="790" 
d="M592 103h130l-16 -103h-294l16 101l-3 3q68 17 116.5 65t73 115.5t24.5 142.5q0 90 -46 140.5t-137 50.5q-84 0 -146 -44.5t-95 -120t-33 -164.5q0 -71 31.5 -119.5t93.5 -66.5h6l-16 -103h-294l16 103h134q-98 69 -98 202q0 116 52.5 212.5t146 152.5t209.5 56
q95 0 164 -37t105.5 -104t36.5 -155q0 -106 -46.5 -192t-130.5 -135z" />
    <glyph glyph-name="estimated" unicode="&#x212e;" horiz-adv-x="902" 
d="M210 325v-176q0 -20 7 -28q38 -48 97.5 -73.5t134.5 -25.5q76 0 135 28t114 80h67q-59 -70 -129 -101.5t-184 -31.5q-117 0 -204 45.5t-132.5 122t-45.5 167.5t46.5 172t133 130t200.5 49q138 0 223.5 -51.5t122 -131.5t36.5 -170h-617q-5 0 -5 -5zM682 560
q-43 54 -107.5 76.5t-127.5 22.5q-60 0 -120 -24t-108 -73q-9 -9 -9 -26v-181q0 -5 5 -5h472q5 0 5 5v180q0 13 -10 25z" />
    <glyph glyph-name="partialdiff" unicode="&#x2202;" 
d="M594 400q0 -37 -8 -85q-23 -153 -102.5 -241t-211.5 -88q-77 0 -132 27t-84 75.5t-29 112.5q0 84 35.5 150.5t98.5 103.5t143 37q57 0 97.5 -17t71.5 -52q-3 106 -64.5 161t-177.5 52l20 90q106 0 183 -39.5t118.5 -113t41.5 -173.5zM461 325q-29 36 -61.5 54.5
t-80.5 18.5q-80 0 -123.5 -56.5t-43.5 -142.5q0 -54 30 -82t90 -28q77 0 124.5 60t64.5 176z" />
    <glyph glyph-name="uni2206" unicode="&#x2206;" horiz-adv-x="671" 
d="M631 0h-674l383 708h131zM481 99l-93 483l-247 -483h340z" />
    <glyph glyph-name="product" unicode="&#x220f;" horiz-adv-x="713" 
d="M684 612h-94v-732h-118v732h-231v-732h-118v732h-95v96h656v-96z" />
    <glyph glyph-name="summation" unicode="&#x2211;" 
d="M566 -15v-105h-521v106l220 313h-1l-211 310v99h500v-101h-351l189 -285v-44h1l-211 -293h385z" />
    <glyph glyph-name="minus" unicode="&#x2212;" horiz-adv-x="587" 
d="M486 245h-391l15 96h391z" />
    <glyph glyph-name="uni2215" unicode="&#x2215;" horiz-adv-x="231" 
d="M451 709l-527 -709h-115l527 709h115z" />
    <glyph glyph-name="uni2219" unicode="&#x2219;" horiz-adv-x="600" 
d="M238 330q0 41 20.5 65.5t63.5 24.5q63 0 63 -56q0 -40 -20.5 -64.5t-63.5 -24.5q-63 0 -63 55z" />
    <glyph glyph-name="radical" unicode="&#x221a;" 
d="M373 -120h-153l-127 339h-69v100h157l112 -311l170 700h122z" />
    <glyph glyph-name="infinity" unicode="&#x221e;" horiz-adv-x="900" 
d="M857 354q0 -70 -28 -127.5t-80 -90.5t-120 -33q-62 0 -106 29t-74 91q-47 -61 -98.5 -90.5t-115.5 -29.5q-86 0 -130.5 49t-44.5 125q0 71 28.5 128t81 90t121.5 33q61 0 104 -28.5t73 -90.5q48 64 97.5 91.5t119.5 27.5q85 0 128.5 -48.5t43.5 -125.5zM413 327
q-21 51 -44.5 80t-68.5 29q-61 0 -94 -46t-33 -112q0 -41 21 -61.5t58 -20.5q48 0 81.5 30.5t79.5 100.5zM745 353q0 41 -21 61.5t-58 20.5q-34 0 -59.5 -14t-48 -40.5t-55.5 -76.5q21 -51 45 -80t68 -29q61 0 95 46t34 112z" />
    <glyph glyph-name="integral" unicode="&#x222b;" 
d="M557 715l-32 -88q-13 4 -27 4q-41 0 -61.5 -24.5t-27.5 -71.5l-96 -608q-15 -91 -61.5 -138t-131.5 -47q-43 0 -75 13l31 86q13 -4 31 -4q40 0 59.5 24.5t27.5 72.5l96 608q14 90 60.5 137t131.5 47q40 0 75 -11z" />
    <glyph glyph-name="approxequal" unicode="&#x2248;" 
d="M89 342q66 99 154 99q29 0 50.5 -8.5t46.5 -24.5q20 -12 33.5 -18t29.5 -6q23 0 45 13.5t54 45.5l52 -39q-66 -99 -154 -99q-29 0 -49.5 8.5t-47.5 24.5q-22 13 -34.5 19t-28.5 6q-22 0 -44 -13.5t-55 -46.5zM62 168q66 99 154 99q29 0 50.5 -8.5t46.5 -24.5
q20 -12 33.5 -18t29.5 -6q23 0 45 13.5t54 45.5l52 -39q-66 -99 -154 -99q-29 0 -49.5 8.5t-47.5 24.5q-22 13 -34.5 19t-28.5 6q-22 0 -44 -13.5t-55 -46.5z" />
    <glyph glyph-name="notequal" unicode="&#x2260;" 
d="M475 438h53l-15 -97h-112l-78 -103h173l-15 -97h-231l-120 -158l-74 44l86 114h-52l15 97h111l78 103h-172l15 97h230l110 145l74 -44z" />
    <glyph glyph-name="lessequal" unicode="&#x2264;" 
d="M119 333l13 91l371 208l39 -80l-306 -176l250 -176l-59 -72zM81 96h400l-15 -96h-400z" />
    <glyph glyph-name="greaterequal" unicode="&#x2265;" 
d="M107 208l306 176l-249 176l58 72l308 -205l-13 -90l-371 -209zM78 96h400l-15 -96h-400z" />
    <glyph glyph-name="lozenge" unicode="&#x25ca;" 
d="M565 354l-204 -354h-113l-202 354l202 354h113zM447 354l-144 260l-140 -260l140 -260z" />
    <glyph glyph-name="NULL" horiz-adv-x="0" 
 />
    <glyph glyph-name="zero.lf" horiz-adv-x="704" 
d="M62 262q0 41 8 97q27 173 117 270t231 97q124 0 189 -74t65 -207q0 -42 -8 -96q-27 -173 -116.5 -270t-231.5 -97q-123 0 -188.5 74t-65.5 206zM538 359q9 56 9 101q0 79 -32 119.5t-101 40.5q-92 0 -144.5 -69.5t-72.5 -201.5q-9 -55 -9 -100q0 -79 32 -120t101 -41
q92 0 144.5 69.5t72.5 201.5z" />
    <glyph glyph-name="one.lf" horiz-adv-x="553" 
d="M503 104l-16 -104h-456l16 103h188l76 478l-189 -88l-35 90l255 125h114l-95 -604h142z" />
    <glyph glyph-name="two.lf" horiz-adv-x="585" 
d="M561 536q0 -76 -41.5 -141t-108.5 -121.5t-194 -148.5q-3 -2 -32 -23l328 2l-16 -104h-500l14 98q108 82 107 81q113 85 173.5 136.5t99.5 105t39 105.5q0 43 -28 70t-77 27q-51 0 -94.5 -21t-89.5 -62l-71 73q63 57 125.5 84.5t145.5 27.5q69 0 119 -26t75.5 -69
t25.5 -94z" />
    <glyph glyph-name="three.lf" horiz-adv-x="603" 
d="M572 557q0 -74 -41 -122t-115 -64l-1 -1q54 -8 90 -40.5t36 -91.5q0 -78 -39.5 -136t-108.5 -89t-156 -31q-83 0 -142 26.5t-104 77.5l76 71q38 -39 77 -55t97 -16q75 0 124.5 39.5t49.5 105.5q0 46 -27 65.5t-81 19.5h-116l14 100h96q67 0 106 34.5t39 93.5
q0 80 -112 80q-48 0 -92 -16.5t-89 -49.5l-60 78q62 47 125 68.5t135 21.5q104 0 161.5 -46.5t57.5 -122.5z" />
    <glyph glyph-name="four.lf" horiz-adv-x="621" 
d="M582 156h-97l-25 -156h-120l24 156h-348l14 93l299 459h135l-290 -448h206l29 184h121l-29 -184h97z" />
    <glyph glyph-name="five.lf" horiz-adv-x="593" 
d="M-8 86l78 71q41 -39 78.5 -54.5t95.5 -15.5q51 0 92 20.5t64 57t23 82.5q0 49 -30.5 75.5t-82.5 26.5q-38 0 -69 -8t-68 -24l-85 1l62 390h433l-17 -104h-314l-30 -182q32 13 63 19t71 6q89 0 142.5 -51t53.5 -140q0 -81 -40.5 -143.5t-112 -96.5t-160.5 -34
q-85 0 -143.5 26t-103.5 78z" />
    <glyph glyph-name="six.lf" horiz-adv-x="646" 
d="M599 280q0 -83 -39.5 -151t-109 -107.5t-156.5 -39.5q-118 0 -178 66.5t-60 182.5q0 39 8 90q20 123 70.5 214t128 141t175.5 50q55 0 96.5 -12.5t75.5 -35.5l-55 -83q-51 32 -118 32q-84 0 -144 -58t-87 -163q42 31 88 46.5t101 15.5q93 0 148.5 -50.5t55.5 -137.5z
M472 275q0 98 -110 98q-47 0 -92 -20.5t-84 -56.5q-6 -42 -6 -77q0 -68 28.5 -101.5t89.5 -33.5q54 0 93.5 26t60 69.5t20.5 95.5z" />
    <glyph glyph-name="seven.lf" horiz-adv-x="531" 
d="M574 607q-136 -131 -225.5 -284.5t-126.5 -322.5h-141q50 182 133 326.5t208 278.5l-355 -2l17 105h504z" />
    <glyph glyph-name="eight.lf" horiz-adv-x="661" 
d="M597 217q0 -75 -42 -128t-112 -80t-153 -27q-78 0 -134 23.5t-85.5 64t-29.5 91.5q0 80 46 130t133 86q-90 49 -90 139q0 65 36.5 112.5t97.5 72.5t131 25q62 0 114 -20.5t82 -58t30 -86.5q0 -61 -38 -106.5t-105 -82.5q62 -27 90.5 -64t28.5 -91zM253 518q0 -61 94 -97
l35 -13q52 32 83.5 67.5t31.5 78.5q0 37 -29.5 58.5t-75.5 21.5q-59 0 -99 -31.5t-40 -84.5zM470 215q0 35 -25.5 58.5t-83.5 46.5l-45 17q-69 -24 -106.5 -65.5t-37.5 -100.5q0 -44 33.5 -67.5t92.5 -23.5q78 0 125 37t47 98z" />
    <glyph glyph-name="nine.lf" horiz-adv-x="647" 
d="M622 484q0 -40 -8 -93q-30 -194 -163 -299.5t-357 -105.5l10 103q145 0 240 57t127 160q-42 -31 -88.5 -46.5t-102.5 -15.5q-58 0 -103.5 24t-71.5 68.5t-26 105.5q0 81 40 145.5t110 101.5t156 37q116 0 176.5 -63.5t60.5 -178.5zM316 339q100 0 176 78q6 45 6 79
q0 66 -30 97.5t-90 31.5q-53 0 -92 -23.5t-60 -64t-21 -90.5q0 -53 29.5 -80.5t81.5 -27.5z" />
    <glyph glyph-name="zero.osf" horiz-adv-x="644" 
d="M47 234q0 34 6 71q14 89 57 159t110.5 109.5t152.5 39.5q113 0 175 -68.5t62 -180.5q0 -34 -6 -70q-15 -91 -58 -160.5t-110 -108.5t-151 -39q-114 0 -176 67.5t-62 180.5zM478 305q5 33 5 60q0 66 -28.5 104t-88.5 38q-78 0 -125.5 -59t-62.5 -154q-5 -27 -5 -62
q0 -140 119 -140q77 0 123.5 58t62.5 155z" />
    <glyph glyph-name="one.osf" horiz-adv-x="561" 
d="M504 104l-16 -104h-441l16 103h173l58 368l-184 -87l-35 90l252 125h113l-79 -495h143z" />
    <glyph glyph-name="two.osf" horiz-adv-x="607" 
d="M558 430q0 -73 -39.5 -127t-103.5 -95.5t-183 -104.5l294 1l-16 -104h-501l14 98l61 33q120 64 188.5 105.5t112.5 88.5t44 98q0 40 -29.5 64t-82.5 24q-51 0 -93.5 -20.5t-86.5 -60.5l-72 72q61 56 123.5 83.5t142.5 27.5q109 0 168 -51t59 -132z" />
    <glyph glyph-name="three.osf" horiz-adv-x="614" 
d="M554 446q0 -71 -40 -116.5t-113 -62.5v-2q52 -6 87.5 -42t35.5 -96q0 -77 -40.5 -134t-109.5 -87t-154 -30q-87 0 -146.5 26t-107.5 78l75 70q38 -38 77.5 -54t100.5 -16q52 0 93 18t64 50t23 72q0 49 -28 70.5t-84 21.5h-124l16 99h101q68 0 107.5 31t39.5 89
q0 79 -113 79q-54 0 -99 -16t-89 -49l-59 78q61 47 124.5 68.5t137.5 21.5q109 0 167 -46.5t58 -120.5z" />
    <glyph glyph-name="four.osf" horiz-adv-x="642" 
d="M586 31h-100l-22 -141h-120l22 141h-363l14 92l318 476h135l-309 -465h221l29 187h121l-30 -187h100z" />
    <glyph glyph-name="five.osf" horiz-adv-x="600" 
d="M-32 -20l77 70q39 -38 77.5 -53.5t101.5 -15.5q83 0 134 46.5t51 120.5q0 49 -30 73.5t-87 24.5q-41 0 -73 -8t-67 -24l-87 1l60 384h443l-17 -104h-324l-30 -179q61 29 139 29q93 0 147 -50t54 -138q0 -86 -40.5 -149.5t-113.5 -97.5t-167 -34q-84 0 -142.5 26.5
t-105.5 77.5z" />
    <glyph glyph-name="six.osf" horiz-adv-x="637" 
d="M591 281q0 -83 -39.5 -150.5t-109 -106t-153.5 -38.5q-122 0 -181 65.5t-59 181.5q0 45 7 88q30 187 128.5 294t250.5 107q100 0 171 -49l-58 -83q-25 16 -52.5 24t-63.5 8q-87 0 -147 -57t-87 -160q42 32 89.5 47.5t105.5 15.5q90 0 144 -50.5t54 -136.5zM465 276
q0 49 -27.5 73t-78.5 24t-94.5 -19t-85.5 -53q-6 -42 -6 -78q0 -68 28.5 -101t90.5 -33q53 0 92 25t60 67.5t21 94.5z" />
    <glyph glyph-name="seven.osf" horiz-adv-x="550" 
d="M570 498q-136 -132 -225.5 -285.5t-126.5 -322.5h-143q53 184 136 329t208 277l-373 -2l17 105h521z" />
    <glyph glyph-name="eight.osf" horiz-adv-x="640" 
d="M463 371q62 -27 91.5 -63t29.5 -90q0 -9 -2 -31q-8 -59 -48.5 -104.5t-106.5 -71t-147 -25.5q-76 0 -132 23t-85.5 63.5t-29.5 91.5q0 8 2 24q9 66 51.5 110.5t119.5 79.5q-43 23 -63 54t-20 73q0 21 2 32q7 55 44.5 97.5t95 65.5t123.5 23q95 0 156 -43.5t61 -117.5
q0 -7 -2 -23q-8 -53 -41.5 -93.5t-98.5 -74.5zM479 554q0 35 -26.5 56t-69.5 21q-57 0 -97 -33t-40 -87q0 -29 20 -50.5t66 -39.5l36 -14q53 30 79 61t31 71q1 5 1 15zM346 320l-45 18q-66 -26 -101.5 -67.5t-35.5 -93.5q0 -44 33.5 -68.5t91.5 -24.5q47 0 85.5 17.5
t60.5 48t22 68.5q0 35 -25 56.5t-86 45.5z" />
    <glyph glyph-name="nine.osf" horiz-adv-x="648" 
d="M613 370q0 -41 -8 -92q-30 -193 -164.5 -297.5t-365.5 -104.5l12 103q149 0 246 56.5t130 159.5q-83 -64 -198 -64q-59 0 -105 23.5t-72.5 68.5t-26.5 106q0 82 41 146.5t112 101t159 36.5q118 0 179 -64t61 -179zM302 226q106 0 182 78q6 44 6 77q0 67 -30.5 99
t-93.5 32q-54 0 -94.5 -23t-62.5 -63.5t-22 -91.5q0 -54 30 -81t85 -27z" />
    <glyph glyph-name="zero.tosf" 
d="M35 229q0 36 6 76q14 90 55 159.5t106 109t149 39.5q115 0 175.5 -67t60.5 -180q0 -34 -6 -72q-22 -140 -105 -224t-213 -84q-111 0 -169.5 65.5t-58.5 177.5zM457 305q6 35 6 66q0 136 -118 136q-76 0 -119 -58t-59 -155q-6 -37 -6 -71q0 -131 110 -131q151 0 186 213z
" />
    <glyph glyph-name="one.tosf" 
d="M528 104l-17 -104h-448l16 103h177l58 368l-189 -87l-35 90l257 125h113l-78 -495h146z" />
    <glyph glyph-name="two.tosf" 
d="M562 430q0 -73 -39.5 -127t-102.5 -95.5t-182 -104.5l294 1l-16 -104h-501l14 98l58 31q121 65 189.5 106.5t112.5 89t44 98.5q0 40 -29 64t-81 24q-51 0 -93.5 -20.5t-86.5 -60.5l-72 72q61 56 123.5 83.5t142.5 27.5q108 0 166.5 -51t58.5 -132z" />
    <glyph glyph-name="three.tosf" 
d="M559 446q0 -71 -40 -116.5t-113 -62.5v-2q53 -6 88.5 -42t35.5 -96q0 -77 -40.5 -134t-109.5 -87t-154 -30q-88 0 -146.5 26t-107.5 78l74 70q38 -38 77.5 -54t100.5 -16q52 0 93 18t64 50t23 72q0 49 -28 70.5t-84 21.5h-125l15 99h103q67 0 107 31t40 89q0 79 -112 79
q-55 0 -99.5 -16t-89.5 -49l-60 78q61 47 124.5 68.5t138.5 21.5q109 0 167 -46.5t58 -120.5z" />
    <glyph glyph-name="four.tosf" 
d="M562 31h-101l-22 -141h-120l22 141h-368l13 92l324 476h135l-315 -465h227l29 187h121l-30 -187h102z" />
    <glyph glyph-name="five.tosf" 
d="M-30 -20l77 70q39 -38 79 -53.5t105 -15.5q86 0 138 46t52 121q0 98 -121 98q-45 0 -77.5 -8t-68.5 -24l-87 1l60 384h453l-17 -104h-334l-30 -179q61 29 144 29q97 0 152 -49.5t55 -138.5q0 -86 -41 -149.5t-115 -97.5t-170 -34q-88 0 -147.5 26.5t-106.5 77.5z" />
    <glyph glyph-name="six.tosf" 
d="M577 281q0 -83 -39.5 -150.5t-108 -106t-152.5 -38.5q-121 0 -180.5 65.5t-59.5 181.5q0 45 7 88q30 187 128.5 294t250.5 107q99 0 172 -49l-58 -83q-26 16 -53 24t-64 8q-87 0 -147 -57t-87 -160q42 32 89.5 47.5t105.5 15.5q89 0 142.5 -50.5t53.5 -136.5zM451 276
q0 49 -27 73t-77 24q-51 0 -94.5 -19t-85.5 -53q-6 -42 -6 -78q0 -68 28.5 -101t90.5 -33q53 0 91.5 25t59 67.5t20.5 94.5z" />
    <glyph glyph-name="seven.tosf" 
d="M611 498q-146 -131 -240.5 -285t-134.5 -323h-142q54 185 142.5 329.5t221.5 276.5l-393 -2l17 105h544z" />
    <glyph glyph-name="eight.tosf" 
d="M569 217q0 -75 -41 -128t-110 -80t-153 -27q-77 0 -132.5 23.5t-84.5 64t-29 91.5q0 80 44.5 130.5t127.5 85.5q-84 53 -84 139q0 65 36.5 113t97 72.5t131.5 24.5q62 0 112.5 -20.5t79.5 -58t29 -86.5q0 -62 -38.5 -108.5t-107.5 -81.5q63 -27 92.5 -63t29.5 -91z
M230 519q0 -31 20.5 -55t65.5 -43l35 -13q118 65 118 146q0 38 -27 59t-73 21q-60 0 -99.5 -31t-39.5 -84zM442 215q0 35 -24.5 57t-86.5 48l-45 17q-65 -24 -100.5 -65.5t-35.5 -100.5q0 -44 32 -67.5t91 -23.5q77 0 123 36.5t46 98.5z" />
    <glyph glyph-name="nine.tosf" 
d="M621 369q0 -40 -8 -91q-30 -193 -166 -297.5t-370 -104.5l12 103q153 0 251 56.5t131 160.5q-81 -65 -200 -65q-61 0 -108.5 24t-74.5 69t-27 106q0 81 41.5 146t113.5 101t160 36q121 0 183 -64t62 -180zM306 226q109 0 185 78q6 44 6 76q0 69 -31 100.5t-97 31.5
q-54 0 -95.5 -23t-64 -63.5t-22.5 -90.5q0 -54 31 -81.5t88 -27.5z" />
    <glyph glyph-name="zero.dnom" horiz-adv-x="540" 
d="M28 195q0 32 6 68q20 127 91 197.5t183 70.5q99 0 151 -54.5t52 -154.5q0 -33 -6 -69q-20 -127 -91 -197t-182 -70q-99 0 -151.5 55t-52.5 154zM392 263q6 36 6 65q0 53 -22.5 79.5t-72.5 26.5q-67 0 -103 -45t-51 -136q-6 -36 -6 -65q0 -53 22.5 -79t73.5 -26
q65 0 101.5 45.5t51.5 134.5z" />
    <glyph glyph-name="one.dnom" horiz-adv-x="540" 
d="M441 95l-15 -95h-365l15 94h143l50 307l-139 -57l-31 82l198 91h104l-67 -422h107z" />
    <glyph glyph-name="two.dnom" horiz-adv-x="540" 
d="M480 384q0 -57 -30.5 -102.5t-81.5 -84t-152 -104.5l233 2l-15 -95h-393l13 90q24 17 43.5 31t35.5 25q85 60 128.5 93.5t71.5 68t28 67.5q0 29 -19 45t-55 16t-67 -15t-65 -44l-66 66q46 44 96.5 65.5t116.5 21.5q86 0 132 -41.5t46 -104.5z" />
    <glyph glyph-name="three.dnom" horiz-adv-x="540" 
d="M483 403q0 -11 -1 -17q-13 -96 -112 -116l-4 -1q42 -6 69.5 -31t27.5 -70q0 -51 -28 -92.5t-82.5 -65.5t-129.5 -24q-67 0 -113 20.5t-80 59.5l68 63q28 -26 57.5 -37t72.5 -11q51 0 85 23.5t34 67.5q0 25 -18 37t-56 12h-93l13 90h76q46 0 72 20.5t26 59.5
q0 24 -18.5 35t-56.5 11q-66 0 -135 -46l-52 70q47 36 97 53t106 17q84 0 129.5 -36t45.5 -92z" />
    <glyph glyph-name="four.dnom" horiz-adv-x="540" 
d="M469 104h-71l-16 -104h-110l16 104h-265l12 85l223 328h124l-213 -318h134l19 124h111l-20 -124h71z" />
    <glyph glyph-name="five.dnom" horiz-adv-x="540" 
d="M28 66l69 65q28 -26 57.5 -37.5t74.5 -11.5q53 0 87.5 27t34.5 73q0 28 -21 43t-56 15q-29 0 -50 -5t-45 -16l-78 1l46 297h342l-14 -95h-233l-19 -111q43 19 94 19q69 0 110.5 -38.5t41.5 -104.5q0 -63 -31.5 -108.5t-86 -69t-124.5 -23.5q-68 0 -115 20.5t-84 59.5z
" />
    <glyph glyph-name="six.dnom" horiz-adv-x="540" 
d="M472 204q0 -63 -30 -112.5t-83.5 -77.5t-119.5 -28q-95 0 -143.5 50.5t-48.5 138.5q0 26 5 63q21 134 99 213.5t196 79.5q78 0 135 -35l-51 -77q-35 21 -87 21q-60 0 -100.5 -33t-59.5 -96q30 18 62 26t72 8q70 0 112 -38.5t42 -102.5zM357 199q0 59 -70 59
q-60 0 -122 -40q-5 -33 -5 -53q0 -45 20 -65t62 -20q53 0 84 34t31 85z" />
    <glyph glyph-name="seven.dnom" horiz-adv-x="540" 
d="M496 425q-98 -88 -164 -197.5t-91 -227.5h-130q37 131 98 232t149 191l-259 -2l15 96h395z" />
    <glyph glyph-name="eight.dnom" horiz-adv-x="540" 
d="M469 156q0 -55 -33.5 -93.5t-87.5 -57.5t-118 -19q-62 0 -107 18.5t-68.5 49.5t-23.5 69q0 54 33 88.5t95 62.5q-31 19 -47 44t-16 52q0 51 29.5 87.5t77.5 55t102 18.5q81 0 130.5 -32.5t49.5 -87.5q0 -84 -106 -138q46 -20 68 -48t22 -69zM211 377q0 -43 62 -64l21 -8
q76 46 76 97q0 21 -18 33.5t-51 12.5q-37 0 -63.5 -19t-26.5 -52zM353 156q0 22 -17.5 37.5t-59.5 31.5l-33 13q-44 -17 -68 -43.5t-24 -61.5q0 -29 23 -43.5t64 -14.5q51 0 83 22t32 59z" />
    <glyph glyph-name="nine.dnom" horiz-adv-x="540" 
d="M493 347q0 -26 -5 -64q-23 -141 -126 -217t-282 -76l11 94q107 0 175 33t92 97q-30 -20 -62.5 -29t-72.5 -9q-68 0 -112 39.5t-44 104.5q0 61 31.5 109t86 75t119.5 27q93 0 141 -48.5t48 -135.5zM256 263q67 0 119 44q5 33 5 51q0 43 -20 61.5t-62 18.5q-52 0 -84 -31.5
t-32 -79.5q0 -30 20 -47t54 -17z" />
    <glyph glyph-name="zero.numr" horiz-adv-x="540" 
d="M58 386q0 32 6 68q20 127 91 197.5t183 70.5q99 0 151 -54.5t52 -154.5q0 -33 -6 -69q-20 -127 -91 -197t-182 -70q-99 0 -151.5 55t-52.5 154zM422 454q6 36 6 65q0 53 -22.5 79.5t-72.5 26.5q-67 0 -103 -45t-51 -136q-6 -36 -6 -65q0 -53 22.5 -79t73.5 -26
q65 0 101.5 45.5t51.5 134.5z" />
    <glyph glyph-name="one.numr" horiz-adv-x="540" 
d="M471 286l-15 -95h-365l15 94h143l50 307l-139 -57l-31 82l198 91h104l-67 -422h107z" />
    <glyph glyph-name="two.numr" horiz-adv-x="540" 
d="M513 575q0 -57 -30.5 -102.5t-81.5 -84t-152 -104.5l233 2l-15 -95h-393l13 90q24 17 43.5 31t35.5 25q85 60 128.5 93.5t71.5 68t28 67.5q0 29 -19 45t-55 16t-67 -15t-65 -44l-66 66q46 44 96.5 65.5t116.5 21.5q86 0 132 -41.5t46 -104.5z" />
    <glyph glyph-name="three.numr" horiz-adv-x="540" 
d="M513 594q0 -11 -1 -17q-13 -96 -112 -116l-4 -1q42 -6 69.5 -31t27.5 -70q0 -51 -28 -92.5t-82.5 -65.5t-129.5 -24q-67 0 -113 20.5t-80 59.5l68 63q28 -26 57.5 -37t72.5 -11q51 0 85 23.5t34 67.5q0 25 -18 37t-56 12h-93l13 90h76q46 0 72 20.5t26 59.5
q0 24 -18.5 35t-56.5 11q-66 0 -135 -46l-52 70q47 36 97 53t106 17q84 0 129.5 -36t45.5 -92z" />
    <glyph glyph-name="four.numr" horiz-adv-x="540" 
d="M499 295h-71l-16 -104h-110l16 104h-265l12 85l223 328h124l-213 -318h134l19 124h111l-20 -124h71z" />
    <glyph glyph-name="five.numr" horiz-adv-x="540" 
d="M57 257l69 65q28 -26 57.5 -37.5t74.5 -11.5q53 0 87.5 27t34.5 73q0 28 -21 43t-56 15q-29 0 -50 -5t-45 -16l-78 1l46 297h342l-14 -95h-233l-19 -111q43 19 94 19q69 0 110.5 -38.5t41.5 -104.5q0 -63 -31.5 -108.5t-86 -69t-124.5 -23.5q-68 0 -115 20.5t-84 59.5z
" />
    <glyph glyph-name="six.numr" horiz-adv-x="540" 
d="M502 395q0 -63 -30 -112.5t-83.5 -77.5t-119.5 -28q-95 0 -143.5 50.5t-48.5 138.5q0 26 5 63q21 134 99 213.5t196 79.5q78 0 135 -35l-51 -77q-35 21 -87 21q-60 0 -100.5 -33t-59.5 -96q30 18 62 26t72 8q70 0 112 -38.5t42 -102.5zM387 390q0 59 -70 59
q-60 0 -122 -40q-5 -33 -5 -53q0 -45 20 -65t62 -20q53 0 84 34t31 85z" />
    <glyph glyph-name="seven.numr" horiz-adv-x="540" 
d="M525 616q-98 -88 -164 -197.5t-91 -227.5h-130q37 131 98 232t149 191l-259 -2l15 96h395z" />
    <glyph glyph-name="eight.numr" horiz-adv-x="540" 
d="M500 347q0 -55 -33.5 -93.5t-87.5 -57.5t-118 -19q-62 0 -107 18.5t-68.5 49.5t-23.5 69q0 54 33 88.5t95 62.5q-31 19 -47 44t-16 52q0 51 29.5 87.5t77.5 55t102 18.5q81 0 130.5 -32.5t49.5 -87.5q0 -84 -106 -138q46 -20 68 -48t22 -69zM242 568q0 -43 62 -64l21 -8
q76 46 76 97q0 21 -18 33.5t-51 12.5q-37 0 -63.5 -19t-26.5 -52zM384 347q0 22 -17.5 37.5t-59.5 31.5l-33 13q-44 -17 -68 -43.5t-24 -61.5q0 -29 23 -43.5t64 -14.5q51 0 83 22t32 59z" />
    <glyph glyph-name="nine.numr" horiz-adv-x="540" 
d="M523 538q0 -26 -5 -64q-23 -141 -126 -217t-282 -76l11 94q107 0 175 33t92 97q-30 -20 -62.5 -29t-72.5 -9q-68 0 -112 39.5t-44 104.5q0 61 31.5 109t86 75t119.5 27q93 0 141 -48.5t48 -135.5zM286 454q67 0 119 44q5 33 5 51q0 43 -20 61.5t-62 18.5q-52 0 -84 -31.5
t-32 -79.5q0 -30 20 -47t54 -17z" />
    <glyph glyph-name="cent.ss01" 
d="M426 529l-56 -347q48 8 98 35l37 -82q-62 -39 -136 -50l-14 -85h-97l14 84q-93 12 -134 72.5t-41 143.5q0 85 32 155t91 114.5t138 54.5l12 84h97l-14 -85q67 -12 120 -54l-57 -75q-40 29 -90 35zM301 182l54 344q-67 -16 -103.5 -77.5t-36.5 -144.5q0 -49 21.5 -81
t64.5 -41z" />
    <glyph glyph-name="dollar.ss01" 
d="M543 231q0 -81 -61.5 -134.5t-156.5 -65.5l-11 -75h-98l12 74q-115 9 -182 70l61 72q61 -48 149 -51l33 205q-87 22 -128 60t-41 110q0 74 59.5 123t151.5 60l11 73h98l-11 -73q96 -11 163 -66l-56 -70q-32 21 -64.5 32.5t-71.5 15.5l-28 -179q85 -22 128 -63.5
t43 -117.5zM305 429l26 160q-44 -8 -70 -31t-26 -57q0 -29 16.5 -45t53.5 -27zM423 229q0 31 -15.5 48t-52.5 30l-29 -180q45 11 71 37.5t26 64.5z" />
    <glyph glyph-name="sterling.ss01" 
d="M616 635l-81 -64q-25 27 -52.5 39.5t-67.5 12.5q-52 0 -82.5 -29.5t-40.5 -92.5l-15 -88h163l-15 -89h-162l-10 -59q-8 -56 -28 -92t-58 -64v-2h344l-18 -107h-479l15 96q40 19 63 61.5t34 112.5l8 54h-81l15 89h80l14 86q17 106 81 166t170 60q128 0 203 -90z" />
    <glyph glyph-name="ampersand.ss01" horiz-adv-x="677" 
d="M669 317h-90l-39 -264q-125 -71 -262 -71q-119 0 -183 52.5t-64 137.5q0 82 50 134.5t136 68.5v2q-44 13 -76 45.5t-32 90.5q0 61 33.5 109.5t92 76t130.5 27.5q64 0 116.5 -18t105.5 -59l-64 -76q-40 31 -75.5 42t-78.5 11q-65 0 -101 -33.5t-36 -88.5q0 -46 32.5 -67
t88.5 -21h331zM462 317h-158q-66 0 -105.5 -37.5t-39.5 -97.5q0 -47 34.5 -72t92.5 -25q42 0 74.5 8t68.5 24z" />
    <glyph glyph-name="caron.alt" horiz-adv-x="197" 
d="M151 534l-69 17l59 175l94 -26z" />
    <glyph glyph-name="acute.case" horiz-adv-x="293" 
d="M149 763l-29 66l194 117l41 -90z" />
    <glyph glyph-name="breve.case" horiz-adv-x="374" 
d="M444 902q-17 -63 -63.5 -99t-112.5 -36q-65 0 -101 35t-36 92v9l70 8q2 -29 22.5 -45.5t55.5 -16.5q33 0 59 16.5t39 45.5z" />
    <glyph glyph-name="caron.case" horiz-adv-x="401" 
d="M468 876l-141 -102h-92l-108 105l48 52l114 -84l140 83z" />
    <glyph glyph-name="circumflex.case" horiz-adv-x="401" 
d="M119 817l139 102h92l110 -106l-49 -50l-114 83l-141 -84z" />
    <glyph glyph-name="dieresis.case" horiz-adv-x="391" 
d="M122 837q0 35 19 57t57 22q56 0 56 -50q0 -36 -17.5 -58t-56.5 -22q-58 0 -58 51zM323 837q0 35 19 57t57 22q56 0 56 -50q0 -36 -17.5 -58t-56.5 -22q-58 0 -58 51z" />
    <glyph glyph-name="dotaccent.case" horiz-adv-x="208" 
d="M123 846q0 36 20.5 59.5t63.5 23.5q34 0 49.5 -15t15.5 -40q0 -36 -20.5 -59.5t-63.5 -23.5q-34 0 -49.5 15t-15.5 40z" />
    <glyph glyph-name="grave.case" horiz-adv-x="293" 
d="M184 946l183 -121l-47 -57l-197 99z" />
    <glyph glyph-name="hungarumlaut.case" horiz-adv-x="370" 
d="M164 762l-50 28l112 175l73 -42zM299 755l-48 34l123 169l67 -50z" />
    <glyph glyph-name="macron.case" horiz-adv-x="357" 
d="M411 798h-297l13 81h296z" />
    <glyph glyph-name="ring.case" horiz-adv-x="306" 
d="M126 859q0 60 38 95t98 35q53 0 82.5 -25.5t29.5 -67.5q0 -59 -37.5 -95t-99.5 -36q-52 0 -81.5 26.5t-29.5 67.5zM294 891q0 16 -9.5 25.5t-26.5 9.5q-24 0 -38.5 -16t-14.5 -46q0 -17 10 -26.5t27 -9.5q24 0 38 16t14 47z" />
    <glyph glyph-name="tilde.case" horiz-adv-x="401" 
d="M115 807q26 48 58 72.5t72 24.5q19 0 32 -6.5t31 -19.5q13 -10 22 -14.5t19 -4.5q17 0 32 11t31 33l56 -26q-26 -48 -57 -72t-72 -24q-19 0 -32.5 6.5t-30.5 18.5q-13 9 -22.5 14t-20.5 5q-16 0 -31 -10.5t-31 -32.5z" />
    <glyph glyph-name="ogonek_thin" horiz-adv-x="278" 
d="M55 -135q0 -18 9 -26t30 -8q25 0 60 16l21 -67q-48 -27 -105 -27q-45 0 -75 22.5t-30 62.5q0 105 149 173h75q-60 -39 -97 -77t-37 -69z" />
    <glyph glyph-name="commaaccent_top" horiz-adv-x="0" 
d="M-94 587q22 24 33.5 40.5t16.5 37.5q-24 4 -35 17.5t-11 32.5q0 30 19.5 50.5t54.5 20.5q29 0 45 -16.5t16 -45.5q0 -6 -2 -20q-7 -41 -29.5 -76t-68.5 -76z" />
    </font>
</defs>
</svg>
