<?xml version="1.0" encoding="UTF-8" standalone="no"?>
<svg width="273px" height="191px" viewBox="0 0 273 191" version="1.1" xmlns="http://www.w3.org/2000/svg" xmlns:xlink="http://www.w3.org/1999/xlink">
    <!-- Generator: Sketch 42 (36781) - http://www.bohemiancoding.com/sketch -->
    <title>salesforce-logo</title>
    <desc>Created with Sketch.</desc>
    <defs></defs>
    <g id="Page-1" stroke="none" stroke-width="1" fill="none" fill-rule="evenodd">
        <g id="Salesforce_Logo_RGB_8_13_14">
            <g id="salesforce-logo">
                <path d="M113.3,21.2 C122.1,12.1 134.3,6.4 147.8,6.4 C165.8,6.4 181.4,16.4 189.8,31.3 C197.1,28.1 205.1,26.3 213.5,26.3 C245.9,26.3 272.2,52.8 272.2,85.5 C272.2,118.2 245.9,144.7 213.5,144.7 C209.5,144.7 205.7,144.3 201.9,143.5 C194.6,156.6 180.5,165.5 164.5,165.5 C157.8,165.5 151.4,163.9 145.7,161.2 C138.2,178.7 120.9,191 100.7,191 C79.6,191 61.7,177.7 54.8,159 C51.8,159.6 48.7,160 45.5,160 C20.4,160 0.1,139.4 0.1,114.1 C0.1,97.1 9.2,82.3 22.8,74.3 C20,67.9 18.5,60.8 18.5,53.3 C18.5,24.1 42.2,0.5 71.4,0.5 C88.4,0.5 103.6,8.6 113.3,21.2 Z" id="Shape" fill="#00A1E0" fill-rule="nonzero"></path>
                <g id="Group" transform="translate(39.000000, 66.000000)" fill="#FFFFFF">
                    <path d="M0.4,33.3 C0.2,33.7 0.5,33.8 0.5,33.9 C1,34.3 1.5,34.5 2.1,34.8 C4.9,36.3 7.5,36.7 10.2,36.7 C15.8,36.7 19.3,33.7 19.3,29 L19.3,28.9 C19.3,24.5 15.4,22.9 11.7,21.7 L11.2,21.5 C8.4,20.6 6,19.8 6,18 L6,17.9 C6,16.3 7.4,15.2 9.6,15.2 C12,15.2 14.9,16 16.7,17 C16.7,17 17.2,17.3 17.4,16.8 C17.5,16.5 18.4,14 18.5,13.7 C18.6,13.4 18.4,13.2 18.2,13.1 C16.1,11.8 13.2,11 10.2,11 L9.6,11 C4.5,11 0.9,14.1 0.9,18.5 L0.9,18.6 C0.9,23.3 4.8,24.8 8.5,25.8 L9.1,26 C11.8,26.8 14.1,27.5 14.1,29.4 L14.1,29.5 C14.1,31.2 12.6,32.5 10.2,32.5 C9.3,32.5 6.3,32.5 3,30.4 C2.6,30.2 2.4,30 2.1,29.8 C1.9,29.7 1.5,29.5 1.4,30.1 L0.4,33.3 Z" id="Shape" fill-rule="nonzero"></path>
                    <path d="M82.2,33.3 C82,33.7 82.3,33.8 82.3,33.9 C82.8,34.3 83.3,34.5 83.9,34.8 C86.7,36.3 89.3,36.7 92,36.7 C97.6,36.7 101.1,33.7 101.1,29 L101.1,28.9 C101.1,24.5 97.2,22.9 93.5,21.7 L93,21.5 C90.2,20.6 87.8,19.8 87.8,18 L87.8,17.9 C87.8,16.3 89.2,15.2 91.4,15.2 C93.8,15.2 96.7,16 98.5,17 C98.5,17 99,17.3 99.2,16.8 C99.3,16.5 100.2,14 100.3,13.7 C100.4,13.4 100.2,13.2 100,13.1 C97.9,11.8 95,11 92,11 L91.4,11 C86.3,11 82.7,14.1 82.7,18.5 L82.7,18.6 C82.7,23.3 86.6,24.8 90.3,25.8 L90.9,26 C93.6,26.8 95.9,27.5 95.9,29.4 L95.9,29.5 C95.9,31.2 94.4,32.5 92,32.5 C91.1,32.5 88.1,32.5 84.8,30.4 C84.4,30.2 84.2,30 83.9,29.8 C83.8,29.7 83.3,29.6 83.2,30.1 L82.2,33.3 Z" id="Shape" fill-rule="nonzero"></path>
                    <path d="M142.6,18.9 C142.1,17.4 141.4,16 140.5,14.9 C139.5,13.8 138.3,12.8 136.9,12.2 C135.5,11.5 133.8,11.2 131.9,11.2 C130,11.2 128.3,11.5 126.9,12.2 C125.5,12.9 124.3,13.8 123.3,14.9 C122.4,16 121.6,17.4 121.2,18.9 C120.7,20.4 120.5,22.1 120.5,23.9 C120.5,25.7 120.7,27.4 121.2,28.9 C121.7,30.4 122.4,31.8 123.3,32.9 C124.3,34 125.5,35 126.9,35.6 C128.3,36.2 130,36.6 131.9,36.6 C133.8,36.6 135.5,36.3 136.9,35.6 C138.3,35 139.5,34 140.5,32.9 C141.4,31.8 142.2,30.4 142.6,28.9 C143.1,27.4 143.3,25.7 143.3,23.9 C143.3,22.1 143.1,20.4 142.6,18.9 M138,23.9 C138,26.6 137.5,28.7 136.5,30.2 C135.5,31.7 134,32.4 132,32.4 C129.9,32.4 128.5,31.7 127.5,30.2 C126.5,28.7 126,26.6 126,23.9 C126,21.2 126.5,19.1 127.5,17.6 C128.5,16.1 129.9,15.4 132,15.4 C134.1,15.4 135.6,16.1 136.5,17.6 C137.5,19.1 138,21.2 138,23.9" id="Shape" fill-rule="nonzero"></path>
                    <path d="M180.9,31.7 C180.7,31.2 180.3,31.4 180.3,31.4 C179.6,31.7 178.9,31.9 178.1,32 C177.3,32.1 176.5,32.2 175.5,32.2 C173.2,32.2 171.5,31.5 170.2,30.2 C168.9,28.9 168.2,26.7 168.2,23.8 C168.2,21.2 168.8,19.2 170,17.7 C171.1,16.2 172.9,15.4 175.2,15.4 C177.1,15.4 178.6,15.6 180.1,16.1 C180.1,16.1 180.5,16.3 180.6,15.8 C181,14.7 181.3,13.9 181.7,12.6 C181.8,12.2 181.5,12.1 181.4,12.1 C180.8,11.9 179.4,11.5 178.3,11.3 C177.3,11.1 176.1,11.1 174.8,11.1 C172.8,11.1 171.1,11.4 169.6,12.1 C168.1,12.8 166.8,13.7 165.8,14.8 C164.8,15.9 164,17.3 163.5,18.8 C163,20.3 162.7,22 162.7,23.8 C162.7,27.7 163.7,30.8 165.8,33.1 C167.9,35.4 171,36.6 175,36.6 C177.4,36.6 179.8,36.1 181.6,35.4 C181.6,35.4 181.9,35.2 181.8,34.8 L180.9,31.7 Z" id="Shape"></path>
                    <path d="M204.7,18 C204.3,16.5 203.3,15 202.7,14.3 C201.7,13.2 200.7,12.4 199.7,12 C198.4,11.4 196.9,11.1 195.2,11.1 C193.2,11.1 191.4,11.4 190,12.1 C188.5,12.8 187.3,13.7 186.4,14.9 C185.4,16.1 184.7,17.4 184.3,19 C183.8,20.6 183.6,22.2 183.6,24 C183.6,25.8 183.8,27.5 184.3,29 C184.8,30.5 185.5,31.9 186.6,33 C187.6,34.1 189,35 190.6,35.6 C192.2,36.2 194.1,36.5 196.3,36.5 C200.9,36.5 203.3,35.5 204.2,34.9 C204.4,34.8 204.5,34.6 204.3,34.1 L203.3,31.2 C203.1,30.8 202.7,30.9 202.7,30.9 C201.6,31.3 200,32.1 196.2,32.1 C193.8,32.1 191.9,31.4 190.8,30.2 C189.6,29 189.1,27.3 189,25 L204.8,25 C204.8,25 205.2,25 205.3,24.6 C205.2,24.6 205.7,21.6 204.7,18 Z M189,21.3 C189.2,19.8 189.6,18.6 190.3,17.6 C191.3,16.1 192.7,15.3 194.8,15.3 C196.9,15.3 198.2,16.1 199.2,17.6 C199.9,18.6 200.1,19.9 200.2,21.3 L189,21.3 Z" id="Shape"></path>
                    <path d="M78.4,18 C78,16.5 77,15 76.4,14.3 C75.4,13.2 74.4,12.4 73.4,12 C72.1,11.4 70.6,11.1 68.9,11.1 C66.9,11.1 65.1,11.4 63.7,12.1 C62.2,12.8 61,13.7 60.1,14.9 C59.1,16.1 58.4,17.4 58,19 C57.5,20.6 57.3,22.2 57.3,24 C57.3,25.8 57.5,27.5 58,29 C58.5,30.5 59.2,31.9 60.3,33 C61.3,34.1 62.7,35 64.3,35.6 C65.9,36.2 67.8,36.5 70,36.5 C74.6,36.5 77,35.5 77.9,34.9 C78.1,34.8 78.2,34.6 78,34.1 L77,31.2 C76.8,30.8 76.4,30.9 76.4,30.9 C75.3,31.3 73.7,32.1 69.9,32.1 C67.5,32.1 65.6,31.4 64.5,30.2 C63.3,29 62.8,27.3 62.7,25 L78.5,25 C78.5,25 78.9,25 79,24.6 C78.9,24.6 79.4,21.6 78.4,18 Z M62.7,21.3 C62.9,19.8 63.3,18.6 64,17.6 C65,16.1 66.4,15.3 68.5,15.3 C70.6,15.3 71.9,16.1 72.9,17.6 C73.5,18.6 73.8,19.9 73.9,21.3 L62.7,21.3 Z" id="Shape"></path>
                    <path d="M34.9,20.5 C34.3,20.5 33.4,20.4 32.4,20.4 C31,20.4 29.7,20.6 28.5,20.9 C27.3,21.2 26.2,21.7 25.2,22.4 C24.2,23.1 23.5,24 22.9,25 C22.3,26 22.1,27.3 22.1,28.6 C22.1,30 22.3,31.2 22.8,32.2 C23.3,33.2 24,34 24.9,34.7 C25.8,35.3 26.9,35.8 28.1,36.1 C29.3,36.4 30.7,36.5 32.3,36.5 C33.9,36.5 35.5,36.4 37.1,36.1 C38.6,35.8 40.5,35.5 41.1,35.3 C41.6,35.2 42.2,35 42.2,35 C42.6,34.9 42.6,34.5 42.6,34.5 L42.6,20.1 C42.6,16.9 41.8,14.6 40.1,13.1 C38.4,11.7 36,10.9 32.9,10.9 C31.7,10.9 29.8,11.1 28.7,11.3 C28.7,11.3 25.3,12 23.8,13.1 C23.8,13.1 23.5,13.3 23.7,13.7 L24.8,16.7 C24.9,17.1 25.3,17 25.3,17 C25.3,17 25.4,17 25.6,16.9 C28.6,15.3 32.5,15.3 32.5,15.3 C34.2,15.3 35.5,15.6 36.4,16.3 C37.3,17 37.7,18 37.7,20.1 L37.7,20.8 C36.1,20.7 34.9,20.5 34.9,20.5 Z M28.6,31.6 C28,31.1 27.9,31 27.7,30.7 C27.4,30.2 27.2,29.5 27.2,28.6 C27.2,27.2 27.7,26.2 28.6,25.5 C28.6,25.5 30,24.3 33.2,24.4 C35.5,24.4 37.5,24.8 37.5,24.8 L37.5,32 L37.5,32 C37.5,32 35.5,32.4 33.2,32.6 C30,32.7 28.6,31.6 28.6,31.6 Z" id="Shape" fill-rule="nonzero"></path>
                    <path d="M162.1,12.4 C162.2,12 162,11.9 161.9,11.8 C161.6,11.7 160.3,11.4 159.3,11.4 C157.3,11.3 156.2,11.6 155.2,12.1 C154.2,12.5 153.1,13.3 152.5,14.1 L152.5,12.2 C152.5,11.9 152.3,11.7 152,11.7 L148,11.7 C147.7,11.7 147.5,11.9 147.5,12.2 L147.5,35.7 C147.5,36 147.7,36.2 148,36.2 L152.1,36.2 C152.4,36.2 152.6,36 152.6,35.7 L152.6,23.9 C152.6,22.3 152.8,20.7 153.1,19.8 C153.4,18.8 153.9,18 154.5,17.5 C155.1,16.9 155.7,16.5 156.4,16.3 C157.1,16.1 157.9,16 158.5,16 C159.3,16 160.2,16.2 160.2,16.2 C160.5,16.2 160.7,16 160.8,15.8 C161.2,15 162,12.8 162.1,12.4 Z" id="Shape"></path>
                    <path d="M123.2,1.5 C122.7,1.3 122.2,1.2 121.6,1.1 C121,1 120.3,0.9 119.5,0.9 C116.6,0.9 114.4,1.7 112.8,3.3 C111.2,4.9 110.2,7.3 109.6,10.5 L109.4,11.6 L105.8,11.6 C105.8,11.6 105.4,11.6 105.3,12.1 L104.7,15.4 C104.7,15.7 104.8,15.9 105.2,15.9 L108.7,15.9 L105.2,35.6 C104.9,37.2 104.6,38.5 104.3,39.5 C104,40.5 103.6,41.2 103.2,41.7 C102.8,42.2 102.4,42.6 101.8,42.8 C101.3,43 100.6,43.1 99.9,43.1 C99.5,43.1 99,43 98.6,43 C98.2,42.9 98,42.8 97.7,42.7 C97.7,42.7 97.3,42.5 97.1,43 C97,43.3 96,45.9 95.9,46.2 C95.8,46.5 95.9,46.8 96.1,46.8 C96.6,47 96.9,47.1 97.5,47.2 C98.4,47.4 99.1,47.4 99.8,47.4 C101.3,47.4 102.6,47.2 103.7,46.8 C104.8,46.4 105.8,45.7 106.6,44.8 C107.5,43.8 108.1,42.7 108.6,41.3 C109.1,39.9 109.6,38.1 110,36 L113.6,15.9 L118.8,15.9 C118.8,15.9 119.2,15.9 119.3,15.4 L119.9,12.1 C119.9,11.8 119.8,11.6 119.4,11.6 L114.4,11.6 C114.4,11.5 114.7,9.7 115.2,8 C115.4,7.3 115.9,6.7 116.3,6.3 C116.7,5.9 117.1,5.6 117.6,5.5 C118.1,5.3 118.7,5.3 119.3,5.3 C119.8,5.3 120.2,5.4 120.6,5.4 C121.1,5.5 121.3,5.6 121.4,5.6 C121.9,5.8 122,5.6 122.1,5.4 L123.3,2.1 C123.6,1.7 123.3,1.6 123.2,1.5 Z" id="Shape"></path>
                    <path d="M52.7,35.6 C52.7,35.9 52.5,36.1 52.2,36.1 L48,36.1 C47.7,36.1 47.5,35.9 47.5,35.6 L47.5,2 C47.5,1.7 47.7,1.5 48,1.5 L52.2,1.5 C52.5,1.5 52.7,1.7 52.7,2 L52.7,35.6 Z" id="Shape"></path>
                </g>
            </g>
        </g>
    </g>
</svg>