<?xml version="1.0" encoding="UTF-8" standalone="no"?>
<svg width="150px" height="132px" viewBox="0 0 150 132" version="1.1" xmlns="http://www.w3.org/2000/svg" xmlns:xlink="http://www.w3.org/1999/xlink">
    <!-- Generator: Sketch 42 (36781) - http://www.bohemiancoding.com/sketch -->
    <title>FLOGO</title>
    <desc>Created with Sketch.</desc>
    <defs></defs>
    <g id="home-page" stroke="none" stroke-width="1" fill="none" fill-rule="evenodd">
        <g id="blaze-1" transform="translate(-565.000000, -154.000000)">
            <g id="Hero" transform="translate(0.000000, 115.000000)">
                <g id="Group" transform="translate(310.000000, 39.000000)">
                    <g id="Trailhead-Logo" transform="translate(255.000000, 0.000000)">
                        <g>
                            <g id="Group-13" transform="translate(0.000000, 0.209878)" fill="#0C3C61">
                                <path d="M149.7104,91.0809238 L148.9284,88.413618 L145.757733,77.6035905 L148.9284,66.7862572 L149.709733,64.1196155 L146.921067,64.1196155 L135.991733,64.1196155 C133.207733,55.7995605 129.293067,47.1553908 123.7924,38.8306866 C118.787067,31.2571586 112.469733,23.9552759 104.521733,17.4364494 C96.5744,10.9169588 86.9990667,5.18384519 75.5064,0.733907615 L74.7837333,0.454292135 L74.0364,0.65686392 C73.9217333,0.6880799 69.7084,1.83642946 63.4290667,4.893603 C58.7204,7.18764544 52.8477333,10.5549863 46.6797333,15.3370087 C37.4290667,22.5073858 27.5084,32.8724195 19.9164,47.5173633 C17.3117333,52.5371586 14.9844,58.058402 13.0497333,64.1196155 L2.78973333,64.1196155 L0.0004,64.1196155 L0.7824,66.7869213 L3.95706667,77.6042547 L0.789733333,88.4142821 L0.00773333333,91.0809238 L2.7964,91.0809238 L7.70973333,91.0809238 C7.29906667,95.576025 7.07773333,100.277019 7.0784,105.199845 C7.0784,107.743615 7.1364,110.346497 7.25573333,113.008489 L7.31373333,114.298307 L8.43973333,114.939231 C8.54306667,114.997678 15.5244,118.962107 27.3884,122.923216 C39.2517333,126.882332 56.0037333,130.84012 75.6404,130.841448 C91.3830667,130.843441 108.985067,128.285059 127.341733,121.146562 C131.877733,119.383191 136.459067,117.34419 141.0704,114.989708 L142.1464,114.441104 L142.209733,114.404574 L142.3964,114.298307 L142.4544,113.008489 C142.527067,111.407176 142.569067,109.834422 142.597067,108.275615 C142.615733,107.267406 142.631733,106.261853 142.6324,105.270911 C142.6324,105.247665 142.631733,105.223755 142.631733,105.200509 C142.623067,101.495106 142.441067,96.6639351 141.829733,91.0809238 L146.921067,91.0809238 L149.7104,91.0809238 Z" id="Fill-11"></path>
                            </g>
                            <polygon id="Fill-14" fill="#0C3C61" points="41.0554 46.4444634 49.5694 32.2670951 59.4920667 44.9069104 59.4920667 44.9075745 56.7147333 47.1684085 51.1967333 44.8092774 44.3194 49.501637"></polygon>
                            <path d="M64.3126,24.9228385 C64.0579333,24.3403615 63.9166,23.6974452 63.9166,23.0193278 C63.9166,21.6949733 64.4552667,20.5014602 65.3266,19.6333903 C66.1999333,18.7659845 67.3999333,18.2306637 68.7306,18.2306637 C69.5139333,18.2306637 70.2486,18.4153029 70.9012667,18.7434027 C71.5519333,19.0708385 72.1192667,19.542399 72.5592667,20.1155775 L72.9746,20.6568759 L73.4479333,20.1653903 C74.2426,19.3424839 75.3366,18.8363865 76.5512667,18.8363865 C77.3592667,18.8363865 78.1112667,19.0595476 78.7612667,19.4507436 C79.4099333,19.8419396 79.9526,20.4024989 80.3299333,21.071982 L80.5912667,21.5362367 L81.0792667,21.3190532 C81.7486,21.0221693 82.4866,20.856791 83.2659333,20.856791 C84.7586,20.856791 86.1059333,21.463178 87.0872667,22.4481418 C88.0679333,23.4337698 88.6732667,24.7913328 88.6732667,26.2970057 C88.6732667,27.8033428 88.0679333,29.1602417 87.0872667,30.1458697 C86.1059333,31.1308335 84.7586,31.7372205 83.2659333,31.7378846 C82.9006,31.7378846 82.5446,31.7013553 82.2012667,31.6316175 L81.7826,31.5472679 L81.5739333,31.9185388 C81.2479333,32.4970307 80.7739333,32.9818747 80.2059333,33.3219296 C79.6352667,33.6613203 78.9726,33.8559221 78.2599333,33.8559221 C77.6626,33.8559221 77.1019333,33.7197673 76.5992667,33.476017 L76.0446,33.2070282 L75.8026,33.7729009 C75.4672667,34.5592779 74.9079333,35.2300894 74.2039333,35.7029783 C73.4992667,36.1765313 72.6552667,36.4514976 71.7412667,36.4514976 C70.7892667,36.4514976 69.9119333,36.1532854 69.1906,35.643203 L67.5999333,33.5736499 L67.4239333,33.0994327 L66.9279333,33.2043715 C66.6592667,33.260826 66.3812667,33.2907136 66.0952667,33.2907136 C64.9752667,33.2907136 63.9666,32.8357573 63.2299333,32.095208 C62.4946,31.3546587 62.0406,30.3351581 62.0406,29.2027486 C62.0406,28.4429383 62.2439333,27.7362617 62.6006,27.1278821 C62.9566,26.5201668 63.4652667,26.0127411 64.0712667,25.6600669 L64.5206,25.398384 L64.3126,24.9228385 Z" id="Fill-16" fill="#0C3C61"></path>
                            <polygon id="Fill-18" fill="#0C3C61" points="104.4584 44.0718497 101.3404 45.9753603 96.2030667 42.3742317 91.2204 44.8143915 88.4264 43.4462017 88.4264 43.4455376 95.8624 32.4674752 104.4584 44.0711855"></polygon>
                            <polygon id="Fill-20" fill="#0C3C61" points="66.9362667 47.3148579 66.9416 47.3201713 72.3349333 41.8434272 78.0489333 48.5986981 78.0549333 48.5953773 78.0549333 48.606004 75.6416 50.2345483 72.5416 48.8856195 69.5416 49.806823 66.9362667 47.3261488"></polygon>
                            <path d="M21.7689333,54.6885373 C26.2496,44.7565423 31.8382667,36.7200879 37.7069333,30.2351341 C46.5082667,20.51036 55.9496,14.2804474 63.1742667,10.4900305 C66.7856,8.59581823 69.8416,7.31197803 71.9789333,6.50634007 C73.0482667,6.10318901 73.8876,5.82025268 74.4502667,5.64026267 C74.4822667,5.62963596 74.5102667,5.62100175 74.5402667,5.61170337 C88.9002667,11.2896909 99.9876,18.9933963 108.582933,27.6953488 C115.1396,34.3357184 120.2496,41.559229 124.230933,48.9122527 C127.0096,54.041636 129.2316,59.2341154 131.0156,64.3289618 L128.308933,64.3289618 C120.7396,43.3584649 105.4396,20.3801828 74.6869333,7.68457728 C74.6869333,7.68457728 36.2022667,18.8439581 20.5869333,64.3289618 L18.0016,64.3289618 C19.1389333,60.9323975 20.4009333,57.7204724 21.7689333,54.6885373" id="Fill-22" fill="#0C3C61"></path>
                            <polygon id="Fill-24" fill="#FFFFFF" points="104.761133 44.4811111 104.761133 44.4811111 101.321133 46.5818801"></polygon>
                            <polygon id="Fill-26" fill="#FFFFFF" points="22.9883333 71.0479026 22.9476667 70.8094657 22.849 70.6706542 22.7096667 70.591618 22.4703333 70.5517678 22.3103333 70.5318427 21.9723333 70.5119176 21.315 70.5517678 19.841 70.5517678 18.347 70.5716929 18.0283333 70.5716929 16.873 70.5517678 15.3983333 70.6507291 15.0796667 70.6507291 13.9043333 70.5517678 13.5856667 70.5517678 12.4303333 70.630804 12.1116667 70.630804 11.3743333 70.5716929 10.9163333 70.5716929 10.717 70.6115431 10.5976667 70.6706542 10.5183333 70.8094657 10.4583333 71.0678277 10.4383333 71.3853009 10.4983333 72.1391336 10.4983333 72.4373458 10.4583333 73.0324419 10.4783333 73.3499151 10.4783333 73.4887266 10.5183333 73.6873134 10.5976667 73.8068639 10.717 73.8859001 10.9363333 73.9257503 11.0956667 73.9456754 11.3936667 73.9456754 11.853 73.9257503 12.1916667 73.9058252 12.5296667 73.9257503 13.0676667 73.9656005 13.4263333 73.9656005 14.0636667 73.9257503 14.363 73.9257503 14.5616667 73.9656005 14.6216667 74.1243371 14.6216667 74.40196 14.6616667 75.5728914 14.6616667 77.081221 14.6816667 77.3986941 14.761 78.5895506 14.761 78.9070237 14.741 80.0779551 14.741 80.3954282 14.721 81.5862846 14.721 83.0746891 14.7016667 83.3921623 14.641 84.2256954 14.641 84.5630936 14.6816667 84.7816055 14.801 84.8407166 15.0403333 84.8606417 15.9363333 84.920417 16.2543333 84.920417 17.1516667 84.8606417 17.4903333 84.8805668 17.9883333 84.9403421 18.3663333 84.959603 18.6256667 84.920417 18.725 84.8207915 18.785 84.5830187 18.765 84.2655456 18.6656667 83.3722372 18.6456667 83.0746891 18.6856667 81.9037578 18.6856667 80.0779551 18.6456667 78.9070237 18.6656667 78.5895506 18.745 77.3986941 18.765 77.081221 18.6856667 75.8903645 18.6856667 75.5728914 18.765 74.40196 18.785 74.143598 18.8643333 74.0247116 19.0636667 73.9656005 19.2036667 73.9456754 19.5023333 73.9456754 20.0003333 73.9848614 20.319 73.9848614 21.235 73.9257503 21.5543333 73.9456754 22.1516667 74.0047865 22.4703333 74.0047865 22.7096667 73.9656005 22.829 73.865975 22.889 73.7271635 22.9283333 73.4887266 22.9476667 73.32999 22.9683333 73.0125169 22.9476667 72.4174207 22.9683333 72.1198727 23.0083333 71.4842622 22.9883333 71.1867141"></polygon>
                            <path d="M38.0678,84.1857124 L37.4504667,83.4710657 L37.2511333,83.2332929 L36.5338,82.2410232 L36.3344667,82.0025863 L35.6178,81.0302417 L35.4384667,80.7918047 L34.7211333,79.77961 L34.6418,79.6208734 L34.8011333,79.5617623 L35.0598,79.501987 L35.3184667,79.3631755 L35.5578,79.224364 L35.9564667,79.0058522 L36.1751333,78.8271905 L36.4938,78.5097174 L36.6731333,78.2912055 L36.8524667,78.0534327 L37.0318,77.7950707 L37.2111333,77.4975226 L37.3504667,77.1999745 L37.4704667,76.9024265 L37.5498,76.5849533 L37.6098,76.2475551 L37.6498,75.9101568 L37.6691333,75.5926836 L37.6691333,75.2745463 L37.6298,74.8381868 L37.6098,74.5207136 L37.5498,74.2032404 L37.4504667,73.8857673 L37.3111333,73.5882192 L37.1711333,73.3099321 L36.9324667,72.9333478 L36.7531333,72.6749858 L36.4744667,72.2784764 L36.2751333,72.0400395 L36.0758,71.8414527 L35.8564667,71.662791 L35.4784667,71.4050931 L35.2191333,71.2463566 L34.9204667,71.1075451 L34.6018,70.9879945 L34.3031333,70.8691081 L34.0038,70.7701468 L33.5858,70.6505963 L33.2871333,70.5914851 L32.9484667,70.57156 L32.1911333,70.57156 L30.8764667,70.4918597 L30.5578,70.4918597 L29.2031333,70.57156 L26.8324667,70.4918597 L25.9364667,70.4526737 L25.6371333,70.4719346 L25.4778,70.4918597 L25.2391333,70.551635 L25.1191333,70.7103715 L25.0598,70.9680694 L25.0398,71.08762 L25.0198,71.385168 L25.0598,72.0400395 L25.0598,72.3575126 L25.0798,73.4294826 L25.0798,73.7469558 L25.0398,74.7983366 L25.0398,75.1158097 L24.9798,76.1877798 L24.9798,76.5052529 L25.0398,77.577223 L25.0398,77.8946961 L24.9798,78.966002 L24.9798,79.2834752 L24.9998,80.3355201 L25.0198,80.6529933 L25.0798,81.7249633 L25.0798,82.0424365 L24.9998,83.1137423 L24.9798,83.4318797 L24.9404667,83.9472754 L24.9598,84.2454876 L24.9798,84.5231106 L25.0198,84.7216974 L25.1391333,84.8007336 L25.3784667,84.8405838 L26.2944667,84.9003591 L26.6138,84.9003591 L27.5298,84.8405838 L28.4858,84.9003591 L28.8044667,84.9003591 L29.0238,84.8405838 L29.1238,84.7416225 L29.1631333,84.5031855 L29.1831333,84.1857124 L29.1831333,83.8682392 L29.1631333,83.3920295 L29.1431333,83.0745563 L29.0638,81.9627361 L29.0438,81.6452629 L29.0838,80.554032 L29.1431333,80.2956699 L29.3024667,80.1767835 L29.5618,80.1568584 L30.1991333,80.1967086 L30.4384667,80.2166337 L30.5578,80.276409 L30.6971333,80.4344814 L31.3344667,81.2879396 L31.5138,81.5263765 L32.0718,82.4389458 L32.2511333,82.6773828 L32.8884667,83.5308409 L33.0678,83.7686137 L33.7051333,84.6619221 L33.8644667,84.8206587 L34.0438,84.9003591 L34.3031333,84.9003591 L35.1991333,84.8605089 L35.5178,84.8605089 L36.6138,84.880434 L38.0078,84.880434 L38.2671333,84.8007336 L38.3464667,84.6220719 L38.2471333,84.4042242 L38.0678,84.1857124 Z M33.5711333,75.9745813 L33.4918,76.2920544 L33.3524667,76.5902667 L33.1531333,76.8280395 L32.9138,76.9668509 L32.6551333,77.0664764 L32.2164667,77.1455126 L30.9018,77.225213 L30.5831333,77.225213 L29.5471333,77.1455126 L29.3084667,77.1056624 L29.1691333,77.0465513 L29.1291333,76.9270007 L29.1091333,76.7091531 L29.1491333,75.6172579 L29.1291333,75.2798597 L29.0891333,74.9424614 L29.0491333,74.6249883 L29.0291333,74.1687036 L29.0491333,73.9501918 L29.1691333,73.8313054 L29.3084667,73.7715301 L29.5471333,73.7522692 L30.5631333,73.6924939 L30.8818,73.6924939 L31.8778,73.712419 L32.1971333,73.7522692 L32.6351333,73.8512305 L32.9138,73.9701169 L33.1331333,74.1487785 L33.3124667,74.3872155 L33.4518,74.6847635 L33.5311333,74.9823116 L33.5711333,75.3197099 L33.5911333,75.6571081 L33.5711333,75.9745813 Z" id="Fill-28" fill="#FFFFFF"></path>
                            <path d="M54.9206667,83.3324534 L54.382,82.0818217 L54.2426667,81.8041988 L53.7653333,80.8717044 L53.148,79.6409978 L53.0273333,79.3633748 L52.6293333,78.3711051 L52.51,78.092818 L52.072,77.1204734 L51.9526667,76.8428504 L51.514,75.890431 L51.3946667,75.6121438 L51.036,74.5999491 L50.916,74.3223261 L50.4786667,73.3499815 L50.358,73.0723586 L49.86,72.1392 L49.7406667,71.8416519 L49.462,71.0678941 L49.3626667,70.8095321 L49.144,70.6507955 L48.8046667,70.5910202 L47.888,70.5717593 L46.334,70.5717593 L45.4186667,70.6109453 L45.12,70.6707206 L44.9206667,70.789607 L44.8206667,71.0081189 L44.462,71.8217268 L44.3426667,72.1192749 L43.964,73.0325084 L43.824,73.3499815 L43.386,74.2432899 L43.2466667,74.560763 L42.6886667,75.7509553 L41.9713333,77.3788355 L41.852,77.6564584 L41.3146667,78.7676145 L41.1946667,79.0658267 L40.7373333,80.1371326 L40.618,80.4346806 L40.1,81.5465009 L39.98,81.8241238 L39.482,82.9352799 L39.3626667,83.2334921 L39.084,83.8485134 L38.964,84.1659865 L38.9246667,84.3247231 L38.9046667,84.582421 L39.064,84.8009328 L39.302,84.9198192 L39.562,84.9005583 L40.796,84.8208579 L41.116,84.8208579 L42.2706667,84.8806332 L42.59,84.9005583 L42.888,84.7810077 L43.1073333,84.5233099 L43.2273333,84.2058367 L43.6846667,82.8562437 L43.8046667,82.6178067 L43.964,82.5188454 L44.2233333,82.4789953 L45.1386667,82.4789953 L45.438,82.4590702 L45.7373333,82.4590702 L46.9326667,82.4789953 L48.4266667,82.5188454 L48.7446667,82.5188454 L49.94,82.5978816 L50.1793333,82.6178067 L50.358,82.6576569 L50.4973333,82.8562437 L51.116,84.5233099 L51.2146667,84.7418217 L51.334,84.9005583 L51.594,84.9795945 L52.828,84.9005583 L53.7253333,84.9005583 L54.0233333,84.9198192 L54.4826667,84.9596694 L54.7613333,84.9596694 L55.0193333,84.9198192 L55.2393333,84.8208579 L55.3786667,84.6023461 L55.3193333,84.3247231 L54.9206667,83.3324534 Z M48.5913333,78.9117393 L48.432,79.0704759 L48.1733333,79.1501763 L47.2366667,79.090401 L45.982,79.090401 L45.7033333,79.051215 L45.484,78.9515895 L45.424,78.7138167 L45.484,78.4156045 L46.002,77.0859366 L46.1213333,76.7883885 L46.6586667,75.4387955 L46.858,75.2402087 L47.0766667,75.1810976 L47.3366667,75.2402087 L47.536,75.3796844 L47.6346667,75.6373823 L48.034,76.8083136 L48.1326667,77.1058617 L48.5713333,78.4554547 L48.6513333,78.7138167 L48.5913333,78.9117393 Z" id="Fill-30" fill="#FFFFFF"></path>
                            <polygon id="Fill-32" fill="#FFFFFF" points="61.5736667 78.9264839 61.6136667 77.8545139 61.6136667 77.5370407 61.5936667 76.4657348 61.5936667 76.1482617 61.6136667 75.0563665 61.6136667 74.7388934 61.5936667 73.6675875 61.5936667 71.7222342 61.5736667 71.404761 61.5336667 70.8887011 61.5136667 70.6708534 61.4743333 70.5513029 61.255 70.5121169 60.0196667 70.5121169 59.1036667 70.5513029 58.785 70.5513029 58.307 70.5313778 58.0076667 70.5513029 57.8483333 70.5513029 57.649 70.571228 57.5296667 70.6509283 57.4703333 70.868776 57.5096667 71.9606712 57.5096667 73.6675875 57.4896667 74.7388934 57.4896667 75.0563665 57.5096667 76.1482617 57.5096667 77.8545139 57.5296667 78.9264839 57.5296667 79.2439571 57.5896667 80.335188 57.5696667 80.6533253 57.5096667 81.7246312 57.4896667 82.0421044 57.5496667 83.1140744 57.5496667 83.4116225 57.5696667 83.7091705 57.5696667 84.0266437 57.6096667 84.5227785 57.6096667 84.7213653 57.669 84.7811406 57.789 84.8209908 58.785 84.900027 60.0196667 84.900027 61.0356667 84.9199521 61.315 84.900027 61.4743333 84.8402517 61.5336667 84.7412904 61.5336667 84.5227785 61.5536667 83.4315476 61.5536667 83.1140744 61.6336667 82.0421044 61.6336667 81.7246312 61.5736667 80.6533253"></polygon>
                            <polygon id="Fill-34" fill="#FFFFFF" points="75.4180667 83.0149803 75.3980667 81.9038242 75.3780667 81.6853124 75.3194 81.5465009 75.1794 81.4276145 74.9400667 81.3678392 74.6414 81.3678392 74.3227333 81.3877643 73.6454 81.4668005 73.3267333 81.4867256 70.4587333 81.5265758 70.1394 81.5265758 69.5420667 81.566426 68.8640667 81.5265758 68.6260667 81.4867256 68.5254 81.4076894 68.4867333 81.3080639 68.4660667 81.2091026 68.4460667 81.0105159 68.5654 78.3910302 68.5654 78.0735571 68.5054 76.9225508 68.5054 76.6044135 68.4660667 75.4534072 68.4660667 75.1359341 68.5254 73.9849278 68.5254 73.6674547 68.4867333 72.5164484 68.4867333 70.789607 68.3860667 70.6507955 68.2467333 70.5717593 68.0474 70.5717593 66.6334 70.5916844 66.3140667 70.5916844 65.3380667 70.5319091 65.0394 70.5518342 64.8800667 70.5518342 64.6607333 70.5916844 64.5214 70.6507955 64.4420667 70.7703461 64.3820667 71.0280439 64.3620667 71.2067056 64.3620667 71.5042537 64.4027333 72.100014 64.4027333 73.7863411 64.4220667 74.838386 64.4220667 75.1558592 64.5014 77.5774222 64.5014 77.8948954 64.4620667 80.3157943 64.4620667 80.6332674 64.4220667 81.6853124 64.4220667 82.0027855 64.5014 83.0548305 64.4814 83.3523785 64.3820667 84.1062112 64.3820667 84.4243486 64.4220667 84.6621213 64.5214 84.7810077 64.6607333 84.8607081 64.8800667 84.9005583 65.1587333 84.9204834 65.4587333 84.9204834 66.3747333 84.8607081 67.8487333 84.8607081 69.0034 84.9397443 70.7967333 84.8208579 72.2914 84.8208579 74.5020667 84.9397443 74.7807333 84.9204834 74.9400667 84.9204834 75.1394 84.8806332 75.2787333 84.8208579 75.3980667 84.6820464 75.4587333 84.4436095 75.4587333 84.2649478 75.4780667 83.9474747 75.4380667 83.3324534"></polygon>
                            <polygon id="Fill-36" fill="#FFFFFF" points="90.9160667 74.838386 90.9560667 73.7863411 90.9560667 73.4688679 90.8960667 72.4174871 90.9160667 72.0993498 90.9760667 71.3056669 90.9760667 71.0081189 90.8960667 70.7304959 90.7360667 70.5717593 90.4780667 70.5319091 90.2987333 70.5319091 89.9800667 70.511984 89.0834 70.5717593 88.7640667 70.5717593 87.6887333 70.511984 87.3700667 70.511984 87.1307333 70.5518342 86.9720667 70.7304959 86.9120667 71.047969 86.9314 72.3377868 86.9314 72.6552599 86.9720667 73.9450777 86.9720667 74.2625508 86.8920667 75.5530327 86.8720667 75.7708804 86.7920667 75.929617 86.5727333 76.0491675 86.4334 76.0690926 86.1354 76.0690926 84.9594 75.9893923 83.6840667 75.9495421 83.3860667 75.9694672 82.6287333 76.0890177 82.3494 76.0890177 82.0707333 76.0690926 81.8720667 76.0491675 81.7727333 75.9694672 81.7120667 75.8107306 81.6927333 75.5729578 81.6927333 73.9450777 81.7120667 72.6552599 81.7327333 72.3377868 81.7920667 71.4444784 81.7920667 71.1469303 81.7727333 71.0081189 81.6927333 70.750421 81.5334 70.5910202 81.2747333 70.5518342 80.9754 70.5319091 80.6560667 70.5319091 79.8600667 70.5910202 79.5414 70.5910202 78.7047333 70.5518342 78.4054 70.5518342 78.1074 70.5717593 77.8474 70.6308704 77.6687333 70.7696819 77.5894 71.0081189 77.5894 71.4245533 77.6887333 72.0993498 77.7080667 72.4174871 77.7287333 73.4688679 77.7080667 73.7863411 77.6487333 74.838386 77.6280667 75.1558592 77.6280667 76.5253773 77.6487333 77.5774222 77.6487333 77.8948954 77.7080667 78.9462762 77.7080667 79.2637493 77.6887333 80.3157943 77.6887333 80.6332674 77.6487333 81.6853124 77.6487333 83.3523785 77.6094 83.9474747 77.6094 84.2649478 77.6280667 84.4436095 77.6687333 84.6621213 77.7487333 84.7610826 77.9074 84.840783 78.1260667 84.8806332 78.2867333 84.8806332 78.6054 84.9005583 79.5414 84.840783 79.8600667 84.8607081 80.6967333 84.9397443 80.9954 84.9596694 81.2940667 84.9397443 81.5534 84.8806332 81.7327333 84.7218966 81.8120667 84.4436095 81.8120667 83.9873248 81.7327333 83.1338667 81.7120667 82.8163935 81.7527333 81.5265758 81.7527333 81.2091026 81.7327333 79.9385458 81.7527333 79.6609228 81.8514 79.4822612 82.0314 79.4224859 82.2907333 79.403225 83.3660667 79.4623361 84.9594 79.5021863 85.2787333 79.4822612 86.0747333 79.4224859 86.5534 79.4224859 86.7727333 79.5021863 86.8514 79.6609228 86.8514 79.9385458 86.8920667 81.2091026 86.8920667 81.5265758 86.8514 82.8163935 86.8720667 83.1338667 86.9520667 84.4236844 86.9907333 84.7019715 87.1114 84.8607081 87.3900667 84.9198192 87.7080667 84.9198192 88.7640667 84.840783 89.0834 84.840783 90.1594 84.9005583 90.4780667 84.8607081 90.6967333 84.840783 90.8360667 84.7019715 90.9354 84.4436095 90.9560667 84.1659865 90.9354 83.8684385 90.8960667 83.3723036 90.8754 83.0548305 90.8754 81.6853124 90.8960667 80.6332674 90.8960667 80.3157943 90.8754 79.2637493 90.8754 78.9462762 90.9160667 77.8948954 90.9160667 77.5774222 90.9960667 76.5253773 90.9960667 76.2079041 90.9160667 75.1558592"></polygon>
                            <polygon id="Fill-38" fill="#FFFFFF" points="105.238333 81.7051046 105.158333 81.5862182 105.039 81.5264429 104.321667 81.4474067 104.023667 81.4274816 103.724333 81.4274816 102.310333 81.5065179 101.991 81.5065179 100.577667 81.4274816 99.5016667 81.5065179 99.1823333 81.5065179 98.087 81.4666677 97.8676667 81.4474067 97.7883333 81.3677064 97.7283333 81.2288949 97.7083333 81.0303081 97.7083333 80.5939486 97.7283333 80.2764754 97.7883333 79.7803406 97.8076667 79.4821283 97.8676667 79.3433169 97.9683333 79.2842057 98.2063333 79.2642806 98.545 79.2443556 99.3416667 79.3034667 99.661 79.3034667 100.935667 79.3433169 102.529667 79.2443556 102.847667 79.2642806 103.745 79.3632419 104.143 79.3632419 104.341667 79.3233918 104.481667 79.2244305 104.561 79.085619 104.601 78.847182 104.641 78.2520859 104.601 77.7951371 104.601 77.1402657 104.581667 76.8028674 104.541 76.4661333 104.521667 76.2476215 104.461667 76.1280709 104.341667 76.0291096 104.123 75.9892594 103.505 75.9500734 101.275 76.0689598 99.3823333 76.0689598 98.745 76.10881 98.1076667 76.0689598 97.8883333 76.0091845 97.8076667 75.9102232 97.7683333 75.7714117 97.749 75.5528999 97.7283333 75.2155016 97.7283333 74.8980285 97.7683333 74.4218187 97.8076667 74.2033069 97.8283333 74.0844205 97.9276667 73.984795 98.127 73.945609 98.2863333 73.9256839 98.5856667 73.9256839 99.481 73.984795 100.517 74.0246452 100.835667 74.0246452 101.851667 73.984795 102.170333 73.984795 104.043 74.0246452 104.362333 74.0047201 104.521667 74.0047201 104.760333 73.9648699 104.860333 73.8858337 104.940333 73.7470222 104.979667 73.5085853 104.999667 73.2110372 104.979667 72.9134891 104.959667 72.4173543 104.959667 72.0799561 104.999667 71.5838212 104.999667 71.0478362 104.959667 70.7901383 104.919667 70.6506627 104.801 70.5517014 104.521667 70.4919261 104.023667 70.4919261 103.345667 70.5517014 103.007 70.5716265 100.299 70.5317763 99.9796667 70.5317763 98.7843333 70.6114767 98.4663333 70.6114767 97.2703333 70.5317763 96.9516667 70.5317763 95.7363333 70.5517014 94.4423333 70.472001 94.1823333 70.5118512 94.0236667 70.5317763 93.9236667 70.6114767 93.8636667 70.7702132 93.8436667 71.0478362 93.7843333 72.0799561 93.7843333 72.3775041 93.745 72.9726002 93.745 73.4494742 93.7643333 73.7669473 93.8236667 74.8183281 93.8436667 75.1358012 93.7643333 76.1878462 93.7643333 77.8748375 93.7243333 78.9468075 93.745 79.2642806 93.8043333 80.3156614 93.8236667 80.6331346 93.8043333 81.6851795 93.8043333 82.0026527 93.7243333 83.0546976 93.7243333 83.3522457 93.7043333 83.6497938 93.7243333 83.9672669 93.7643333 84.4242157 93.8043333 84.6420634 93.8636667 84.7815391 94.003 84.8805004 94.243 84.9203506 94.9196667 84.9595366 96.633 84.8605753 96.9516667 84.8605753 97.987 84.9402757 99.3623333 84.9402757 99.6803333 84.9203506 100.717 84.8406502 101.035 84.8207251 102.091 84.9004255 102.410333 84.9004255 105.019 84.8207251 105.119 84.7416889 105.198333 84.6028774 105.219 84.4042906 105.299 83.3323206 105.318333 83.0148474 105.258333 81.9236165"></polygon>
                            <path d="M122.888133,83.3324534 L122.349467,82.0818217 L122.210133,81.8041988 L121.7328,80.8717044 L121.115467,79.6409978 L120.995467,79.3633748 L120.5968,78.3711051 L120.477467,78.092818 L120.039467,77.1204734 L119.920133,76.8428504 L119.481467,75.890431 L119.362133,75.6121438 L119.003467,74.5999491 L118.884133,74.3223261 L118.446133,73.3499815 L118.326133,73.0723586 L117.828133,72.1392 L117.708133,71.8416519 L117.429467,71.0678941 L117.330133,70.8095321 L117.111467,70.6507955 L116.7728,70.5910202 L115.856133,70.5717593 L114.302133,70.5717593 L113.386133,70.6109453 L113.087467,70.6707206 L112.888133,70.789607 L112.788133,71.0081189 L112.429467,71.8217268 L112.310133,72.1192749 L111.931467,73.0325084 L111.791467,73.3499815 L111.353467,74.2432899 L111.214133,74.560763 L110.656133,75.7509553 L109.939467,77.3788355 L109.819467,77.6564584 L109.282133,78.7676145 L109.1628,79.0658267 L108.7048,80.1371326 L108.585467,80.4346806 L108.067467,81.5465009 L107.947467,81.8241238 L107.449467,82.9352799 L107.330133,83.2334921 L107.051467,83.8485134 L106.9308,84.1659865 L106.892133,84.3247231 L106.872133,84.582421 L107.031467,84.8009328 L107.270133,84.9198192 L107.529467,84.9005583 L108.763467,84.8208579 L109.083467,84.8208579 L110.238133,84.8806332 L110.557467,84.9005583 L110.856133,84.7810077 L111.0748,84.5233099 L111.1948,84.2058367 L111.652133,82.8562437 L111.7728,82.6178067 L111.931467,82.5188454 L112.1908,82.4789953 L113.1068,82.4789953 L113.405467,82.4590702 L113.7048,82.4590702 L114.900133,82.4789953 L116.394133,82.5188454 L116.712133,82.5188454 L117.907467,82.5978816 L118.1468,82.6178067 L118.326133,82.6576569 L118.465467,82.8562437 L119.083467,84.5233099 L119.182133,84.7418217 L119.302133,84.9005583 L119.561467,84.9795945 L120.795467,84.9005583 L121.6928,84.9005583 L121.9908,84.9198192 L122.450133,84.9596694 L122.7288,84.9596694 L122.9868,84.9198192 L123.2068,84.8208579 L123.346133,84.6023461 L123.2868,84.3247231 L122.888133,83.3324534 Z M116.5588,78.9117393 L116.399467,79.0704759 L116.1408,79.1501763 L115.204133,79.090401 L113.949467,79.090401 L113.6708,79.051215 L113.451467,78.9515895 L113.391467,78.7138167 L113.451467,78.4156045 L113.969467,77.0859366 L114.0888,76.7883885 L114.626133,75.4387955 L114.826133,75.2402087 L115.044133,75.1810976 L115.304133,75.2402087 L115.5028,75.3796844 L115.602133,75.6373823 L116.0008,76.8083136 L116.100133,77.1058617 L116.5388,78.4554547 L116.6188,78.7138167 L116.5588,78.9117393 Z" id="Fill-40" fill="#FFFFFF"></path>
                            <path d="M139.183,77.7557518 L139.163,77.4382787 L139.142333,76.9620689 L139.103,76.6445958 L139.043667,76.3071975 L138.983,75.9897243 L138.904333,75.5527006 L138.824333,75.2352275 L138.725,74.9177543 L138.605,74.6002811 L138.505,74.282808 L138.386333,73.9852599 L138.167,73.5482362 L138.027667,73.2905383 L137.848333,73.0720265 L137.648333,72.8734397 L137.211,72.4570052 L136.971667,72.2584185 L136.713,72.0399066 L136.055667,71.583622 L135.776333,71.4248854 L135.477,71.2661488 L135.178333,71.1273373 L134.461667,70.8689753 L134.163,70.7899391 L133.843667,70.7301638 L133.326333,70.6511276 L133.007,70.6112774 L132.369667,70.5714272 L131.871667,70.531577 L131.553667,70.531577 L131.253667,70.5515021 L130.417667,70.5913523 L130.059,70.5913523 L129.899,70.5714272 L128.943667,70.5123161 L128.624333,70.5123161 L126.871667,70.492391 L126.553667,70.5123161 L126.253667,70.5515021 L125.915667,70.5913523 L125.697,70.6511276 L125.616333,70.770014 L125.577,70.9885258 L125.517667,71.2860739 L125.497667,71.6035471 L125.497667,72.3773049 L125.557,73.4293498 L125.557,73.746823 L125.577,74.7988679 L125.577,75.1163411 L125.497667,76.168386 L125.517667,76.5057843 L125.517667,76.6837818 L125.537,77.02118 L125.577,77.53724 L125.577,77.8547131 L125.557,78.1921114 L125.517667,78.4903236 L125.497667,78.9266831 L125.477,79.2242312 L125.517667,80.2762762 L125.517667,80.5937493 L125.537,81.6457943 L125.537,81.9632674 L125.517667,82.2807406 L125.517667,82.5782886 L125.497667,83.0345733 L125.497667,83.3128604 L125.457,83.9079566 L125.437667,84.0666931 L125.457,84.3841663 L125.497667,84.6026782 L125.596333,84.7016395 L125.755667,84.7813398 L126.613,84.860376 L126.911667,84.8803011 L128.306333,84.8803011 L128.605,84.9002262 L128.943667,84.8803011 L129.441667,84.860376 L130.079,84.82119 L130.397667,84.82119 L130.915667,84.860376 L131.553667,84.8803011 L131.871667,84.8803011 L132.309667,84.8404509 L132.609,84.82119 L133.824333,84.6425283 L134.142333,84.5827531 L134.461667,84.5030527 L134.759667,84.4040914 L135.198333,84.2453548 L135.457,84.1264684 L135.856333,83.9079566 L136.114333,83.74922 L136.493667,83.4516719 L136.752333,83.23316 L137.191,82.7968005 L137.529667,82.4793273 L137.728333,82.2608155 L138.007,81.9433423 L138.167,81.6849803 L138.386333,81.2486207 L138.505,80.9510727 L138.624333,80.6136744 L138.745,80.2962012 L138.863667,79.9986532 L138.963667,79.6805159 L139.103,79.2242312 L139.163,78.9067581 L139.183,78.4305483 L139.202333,78.0931501 L139.183,77.7557518 Z M135.105,77.6813648 L135.085,78.1383136 L135.064333,78.4159366 L134.984333,78.8522961 L134.905667,79.1505084 L134.785667,79.4872424 L134.645667,79.7854547 L134.407667,80.162039 L134.207667,80.4004759 L133.849667,80.7179491 L133.590333,80.8966107 L133.291667,81.0354222 L132.973,81.1549728 L132.635,81.2539341 L132.315,81.3137094 L131.857667,81.3329703 L130.004333,81.4525208 L129.766333,81.4325958 L129.645667,81.3329703 L129.566333,81.1151226 L129.506333,80.6389129 L129.486333,80.3407006 L129.506333,79.884416 L129.506333,79.606793 L129.547,79.1697693 L129.566333,78.8522961 L129.586333,78.5148979 L129.586333,77.5624784 L129.607,77.1261189 L129.607,76.8086457 L129.586333,76.4911725 L129.547,76.1730352 L129.506333,75.7366757 L129.486333,75.4192025 L129.447,74.8241064 L129.467,74.5258941 L129.486333,74.3472325 L129.547,74.1094597 L129.645667,74.0098342 L129.865,73.9507231 L130.303667,73.8909478 L130.603,73.8710227 L131.040333,73.8909478 L131.538333,73.8909478 L131.877667,73.9108729 L132.375,73.930798 L132.694333,73.9905733 L132.973,74.0496844 L133.252333,74.1685708 L133.690333,74.4269328 L133.929,74.6055945 L134.147667,74.8241064 L134.347,75.0419541 L134.447,75.1415795 L134.746333,75.558014 L134.905667,75.855562 L134.945667,75.9751126 L135.025,76.2726607 L135.085,76.7289453 L135.105,77.0464185 L135.105,77.6813648 Z" id="Fill-42" fill="#FFFFFF"></path>
                            <path d="M21.7689333,54.6885373 C26.2496,44.7565423 31.8382667,36.7200879 37.7069333,30.2351341 C46.5082667,20.51036 55.9496,14.2804474 63.1742667,10.4900305 C66.7856,8.59581823 69.8416,7.31131386 71.9789333,6.50634007 C73.0482667,6.10318901 73.8876,5.82025268 74.4502667,5.64026267 C74.4822667,5.62963596 74.5102667,5.62100175 74.5402667,5.61170337 C88.9002667,11.2896909 99.9876,18.9933963 108.582933,27.6953488 C115.1396,34.3357184 120.2496,41.559229 124.230933,48.9122527 C127.0096,54.041636 129.2316,59.2341154 131.0156,64.3289618 L18.0016,64.3289618 C19.1389333,60.9323975 20.4009333,57.7204724 21.7689333,54.6885373" id="Fill-44" fill="#8FC7E8"></path>
                            <path d="M134.625067,91.2213958 L137.0584,91.2213958 C137.7084,96.957166 137.891067,101.90191 137.891067,105.602664 C137.891067,107.127598 137.861067,108.436012 137.819733,109.509311 C137.8004,110.050609 137.777067,110.535453 137.753733,110.949895 C137.7424,111.168407 137.729733,111.36168 137.719067,111.543663 C136.081733,112.360592 134.4484,113.133021 132.821067,113.871578 C112.4464,123.114165 92.8964,126.290889 75.6057333,126.292881 C56.6077333,126.29421 40.3424,122.455308 28.8477333,118.617735 C23.1017333,116.699613 18.5484,114.782819 15.4444,113.352861 C13.8924,112.637551 12.7030667,112.043783 11.9090667,111.633326 C11.8977333,111.627348 11.8890667,111.622699 11.8784,111.617386 C11.7990667,109.486729 11.7497333,107.387953 11.7497333,105.339653 C11.7504,100.398894 11.9777333,95.6985643 12.4010667,91.2213958" id="Fill-46" fill="#4C8B2B"></path>
                            <path d="M21.7689333,54.6885373 C26.2496,44.7565423 31.8382667,36.7200879 37.7069333,30.2351341 C46.5082667,20.51036 55.9496,14.2804474 63.1742667,10.4900305 C66.7856,8.59581823 69.8416,7.31131386 71.9789333,6.50634007 C73.0482667,6.10318901 73.8876,5.82025268 74.4502667,5.64026267 C74.4822667,5.62963596 74.5102667,5.62100175 74.5402667,5.61170337 C88.9002667,11.2896909 99.9876,18.9933963 108.582933,27.6953488 C115.1396,34.3357184 120.2496,41.559229 124.230933,48.9122527 C127.0096,54.041636 129.2316,59.2341154 131.0156,64.3289618 L128.308933,64.3289618 C120.7396,43.3584649 105.4396,20.3801828 74.6869333,7.68457728 C74.6869333,7.68457728 36.2022667,18.8439581 20.5869333,64.3289618 L18.0016,64.3289618 C19.1389333,60.9323975 20.4009333,57.7204724 21.7689333,54.6885373" id="Fill-48" fill="#FFFFFF"></path>
                            <path d="M80.1674,91.2103705 C80.1960667,91.2369373 80.2247333,91.2641683 80.2534,91.2907351 C83.2500667,94.1347101 84.3767333,97.9955291 70.8294,99.2946452 C69.0834,99.4626801 68.4534,100.217177 68.7727333,100.974995 C68.7800667,100.992927 68.7907333,101.01086 68.7987333,101.028793 C68.8087333,101.05071 68.8194,101.071964 68.8307333,101.093881 C68.8420667,101.113142 68.8540667,101.132403 68.8660667,101.151664 C68.8787333,101.172253 68.8914,101.192178 68.9047333,101.212103 C68.9180667,101.232028 68.9334,101.251289 68.9474,101.27055 C68.9627333,101.290475 68.9780667,101.3104 68.9947333,101.330326 C69.0107333,101.349587 69.0274,101.368847 69.0440667,101.387444 C69.0620667,101.407369 69.0807333,101.427294 69.1000667,101.447884 C69.1187333,101.465816 69.1360667,101.484413 69.1554,101.50301 C69.1774,101.522935 69.1994,101.543524 69.2220667,101.564113 C69.2414,101.581382 69.2614,101.59865 69.2814,101.615919 C69.3080667,101.637836 69.3360667,101.659754 69.3647333,101.681007 C69.3840667,101.696283 69.4027333,101.711559 69.4220667,101.726171 C69.4707333,101.761372 69.5214,101.796573 69.5747333,101.83111 C69.5887333,101.840408 69.6040667,101.849042 69.6194,101.857676 C69.6600667,101.883579 69.7027333,101.909482 69.7460667,101.93472 C69.7694,101.948003 69.7934,101.960623 69.8180667,101.973242 C69.8554,101.993831 69.8934,102.01442 69.9327333,102.034346 C69.9594,102.048293 69.9874,102.060912 70.0147333,102.074196 C70.0534,102.092793 70.0940667,102.112053 70.1340667,102.129986 C70.1634,102.142605 70.1934,102.155889 70.2234,102.168508 C70.2654,102.185776 70.3080667,102.203045 70.3514,102.220313 C70.3820667,102.232268 70.4134,102.244223 70.4447333,102.256178 C70.4907333,102.272783 70.5387333,102.290051 70.5860667,102.305991 C70.6167333,102.316618 70.6487333,102.327244 70.6800667,102.337871 C70.7340667,102.35514 70.7894,102.371744 70.8454,102.387684 C70.8734,102.396318 70.9000667,102.404952 70.9287333,102.412258 C71.0140667,102.436168 71.1000667,102.459414 71.1900667,102.480668 C85.8194,105.960253 87.6067333,117.935899 85.0940667,123.823764 C100.7034,122.745152 117.864733,118.823229 135.486733,110.020323 C135.486733,110.020323 136.030067,102.470705 134.660067,91.2907351 L137.0934,91.2907351 C137.742733,97.0265054 137.926733,101.971249 137.926733,105.672003 C137.926733,107.196937 137.8954,108.506016 137.854733,109.57865 C137.834067,110.119949 137.812067,110.605457 137.7894,111.019899 C137.776733,111.23841 137.764733,111.431684 137.7534,111.613002 C136.116067,112.430595 134.484067,113.201696 132.856067,113.940917 C112.482067,123.183504 92.9314,126.360228 75.6400667,126.362221 C56.6420667,126.363549 40.3774,122.523984 28.8827333,118.687075 C23.1360667,116.768288 18.5827333,114.852158 15.4800667,113.421537 C13.9280667,112.70689 12.7380667,112.113786 11.9434,111.702665 C11.9320667,111.696688 11.9240667,111.692038 11.9127333,111.686725 C11.8334,109.556068 11.7847333,107.457292 11.7847333,105.409656 C11.7854,100.468233 12.0134,95.7679036 12.4360667,91.2907351 L14.8367333,91.2907351 C14.2520667,97.1380859 14.0074,103.372648 14.1634,110.020323 C14.1634,110.020323 33.2987333,119.861327 56.2287333,122.77504 C62.5240667,123.5747 76.8447333,114.995619 63.9500667,104.214815 C63.8847333,104.161017 63.8100667,104.117846 63.7407333,104.067369 C63.7200667,104.052093 63.6987333,104.037482 63.6787333,104.021542 C63.6274,103.985012 63.5767333,103.94649 63.5267333,103.908633 C63.5054,103.892028 63.4847333,103.876088 63.4634,103.860148 C63.4047333,103.814985 63.3467333,103.768493 63.2894,103.721337 C63.2780667,103.713367 63.2680667,103.705397 63.2587333,103.697427 C63.1887333,103.640972 63.1214,103.583854 63.0527333,103.526071 C63.0394,103.513452 63.0254,103.501497 63.0114,103.488877 C62.9580667,103.442386 62.9034,103.395229 62.8500667,103.346745 C62.8327333,103.330805 62.8160667,103.314865 62.7980667,103.299589 C62.7427333,103.248448 62.6887333,103.197307 62.6347333,103.145502 C62.6247333,103.135539 62.6134,103.125577 62.6027333,103.115614 C62.5374,103.05119 62.4707333,102.986101 62.4060667,102.920348 C62.4034,102.917691 62.4014,102.915035 62.3994,102.912378 C62.3380667,102.85061 62.2794,102.787514 62.2207333,102.724418 C62.2094,102.711799 62.1967333,102.69918 62.1854,102.685896 C62.1327333,102.628113 62.0807333,102.570331 62.0294,102.511219 C62.0214,102.501921 62.0134,102.491959 62.0047333,102.48266 C61.8847333,102.34252 61.7694,102.200388 61.6600667,102.056263 C61.6540667,102.047629 61.6487333,102.039659 61.6420667,102.031689 C61.5940667,101.9666 61.5460667,101.900847 61.5000667,101.835095 C61.4934,101.825796 61.4867333,101.816498 61.4814,101.807864 C61.3774,101.658425 61.2807333,101.506995 61.1914,101.354236 C61.1894,101.352243 61.1880667,101.349587 61.1867333,101.34693 C61.1447333,101.2752 61.1047333,101.202805 61.0674,101.13041 C61.0614,101.120448 61.0560667,101.110485 61.0507333,101.100523 C61.0127333,101.0268 60.9754,100.953741 60.9407333,100.879354 C60.9400667,100.87869 60.9394,100.877362 60.9387333,100.876033 C59.6940667,98.218026 60.9127333,95.2558287 69.1147333,94.6002931 C71.8507333,94.3817813 80.9307333,94.9642582 76.0907333,91.2907351 C76.0567333,91.2654966 76.0227333,91.2402582 75.9887333,91.2143556 L80.1674,91.2103705 Z" id="Fill-50" fill="#FFFFFF"></path>
                            <path d="M67.1016667,47.1533983 L66.361,47.9258277 C66.361,47.9258277 69.2363333,50.8076604 69.2623333,50.8076604 C69.2883333,50.8076604 72.4683333,49.7921448 72.4683333,49.7921448 L75.805,51.2413633 L78.5756667,49.2189663 L77.8436667,48.3595306 L75.2556667,48.7852634 L73.6436667,47.5698327 C73.6436667,47.5698327 69.837,48.2386517 69.7243333,48.3163596 C69.611,48.3947316 67.1016667,47.1533983 67.1016667,47.1533983" id="Fill-52" fill="#FFFFFF"></path>
                            <path d="M59.4128667,44.8187086 L59.8968667,45.430409 L56.7022,48.0997074 L51.2848667,45.547967 L44.2482,50.4820844 L40.7188667,47.0124614 L41.0555333,46.4445963 L44.5355333,48.4769558 L50.9575333,44.4148934 C50.9575333,44.4148934 56.5708667,46.7195625 56.6362,46.7129208 C56.7022,46.7062792 59.4128667,44.8187086 59.4128667,44.8187086" id="Fill-54" fill="#FFFFFF"></path>
                            <path d="M88.5026667,43.3408644 L88.052,44.0050342 L91.7566667,46.1722202 C91.7566667,46.1722202 95.8213333,43.5553913 95.8993333,43.6204799 C95.9773333,43.6862327 101.846,47.2793913 101.846,47.2793913 L104.772667,44.5058182 L104.458667,44.0714512 L98.918,43.2173288 L96.056,41.6552015 L93.4426667,43.1130542 L88.5026667,43.3408644 Z" id="Fill-56" fill="#FFFFFF"></path>
                            <polygon id="Fill-58" fill="#D0D2D3" points="41.0554 46.4444634 49.5694 32.2670951 59.4920667 44.9069104 59.4920667 44.9075745 56.7147333 47.1684085 51.1967333 44.8092774 44.3187333 49.501637"></polygon>
                            <polygon id="Fill-60" fill="#D0D2D3" points="104.4584 44.0718497 101.3404 45.9753603 96.2030667 42.3742317 91.2204 44.8143915 88.4264 43.4462017 88.4264 43.4455376 95.8624 32.4674752 104.4584 44.0711855"></polygon>
                            <polygon id="Fill-62" fill="#D0D2D3" points="66.9362667 47.3148579 66.9416 47.3201713 72.3349333 41.8434272 78.0496 48.5986981 78.0549333 48.5953773 78.0549333 48.606004 75.6416 50.2345483 72.5416 48.8856195 69.5416 49.806823 66.9362667 47.3261488"></polygon>
                            <path d="M83.2383333,20.923208 C82.4623333,20.923208 81.727,21.0879221 81.0603333,21.3841418 L80.575,21.599997 L80.3143333,21.1377348 C79.9383333,20.4709084 79.397,19.9130057 78.751,19.5231381 C78.105,19.1332704 77.355,18.9107735 76.551,18.9107735 C75.341,18.9107735 74.2503333,19.4148784 73.459,20.2344639 L72.9876667,20.7246212 L72.5743333,20.1853154 C72.1356667,19.6141293 71.5703333,19.1445613 70.921,18.8177898 C70.2723333,18.4910182 69.5396667,18.3070432 68.7603333,18.3070432 C67.4343333,18.3077074 66.239,18.8403715 65.369,19.7044564 C64.5003333,20.5698697 63.965,21.7587336 63.965,23.0777748 C63.965,23.7532355 64.1056667,24.3934951 64.359,24.9739795 L64.5663333,25.4475326 L64.1183333,25.7085513 C63.5143333,26.0598971 63.0076667,26.5653303 62.653,27.170389 C62.299,27.776776 62.0956667,28.4801318 62.095,29.2372854 C62.0956667,30.3650457 62.5483333,31.3805613 63.2803333,32.1191181 C64.0143333,32.8563466 65.0196667,33.3093104 66.1343333,33.3093104 C66.419,33.3093104 66.6956667,33.2794227 66.9636667,33.2229683 L67.4583333,33.1186936 L67.633,33.5909184 C67.9416667,34.4271081 68.501,35.1450757 69.2183333,35.6525014 C69.937,36.1605913 70.809,36.4581393 71.7583333,36.4581393 C72.669,36.4581393 73.5103333,36.1838372 74.2116667,35.7122767 C74.913,35.2413803 75.4703333,34.5732255 75.8043333,33.7895051 L76.045,33.2262891 L76.5976667,33.4939496 C77.0983333,33.7363715 77.6576667,33.8725263 78.2516667,33.8725263 C78.9623333,33.8725263 79.623,33.6785888 80.1903333,33.3405263 C80.757,33.0017998 81.229,32.5182841 81.553,31.9424489 L81.7616667,31.5731705 L82.1783333,31.6568559 C82.5196667,31.7259296 82.875,31.7624589 83.2383333,31.7624589 C84.7256667,31.7617948 86.0683333,31.1580644 87.0463333,30.1770856 C88.0223333,29.1947785 88.6256667,27.843193 88.6263333,26.3428335 C88.6256667,24.8431381 88.0223333,23.4908884 87.0463333,22.5085813 C86.0683333,21.5276025 84.7256667,20.923208 83.2383333,20.923208" id="Fill-64" fill="#00A1DF"></path>
                            <polygon id="Fill-66" fill="#644B78" points="104.829533 44.5732315 104.827533 44.5705748 104.7682 44.4902102 104.760867 44.4809119 101.320867 46.5816809 96.1568667 42.9612914 91.2208667 45.3795336 88.1395333 43.8698757 81.8735333 53.1197683 78.4135333 49.0304749 78.3842 48.9952739 75.6955333 50.8104499 72.5108667 49.4249918 69.4062 50.3787396 66.9188667 48.0096459 66.5855333 47.6822102 63.8502 50.4591041 59.8062 45.3064749 56.7982 47.7546047 51.2535333 45.3848469 44.2682 50.1502652 40.7875333 46.8898557 40.7468667 46.9456459 30.3842 64.4113189 119.315533 64.4113189"></polygon>
                            <path d="M142.6316,105.480656 C142.630933,106.471598 142.616267,107.477151 142.5976,108.48536 C142.618267,107.641865 142.632267,106.705385 142.632267,105.671937 C142.632267,105.610169 142.6316,105.543088 142.6316,105.480656" id="Fill-1" fill="#003660"></path>
                            <polygon id="Fill-3" fill="#003660" points="142.146533 114.650915 142.2092 114.618371 142.209867 114.614386"></polygon>
                            <path d="M142.632867,105.409324 L142.630867,105.409989 C142.630867,105.433234 142.6322,105.457809 142.6322,105.480391 C142.6322,105.457145 142.632867,105.43257 142.632867,105.409324" id="Fill-5" fill="#003660"></path>
                            <path d="M127.341867,121.356838 C136.131867,118.067205 141.183867,115.198656 141.271867,115.148843 L142.145867,114.650716 L141.0712,115.19932 C136.459867,117.553802 131.878533,119.592803 127.341867,121.356838" id="Fill-7" fill="#003660"></path>
                            <path d="M75.0944667,90.6007291 C75.4771333,90.8464719 75.8058,91.0756105 76.0904667,91.2908015 L80.2524667,91.2908015 C80.0024667,91.0530287 79.7391333,90.8218976 79.4691333,90.6007291 L75.0944667,90.6007291 Z" id="Fill-9" fill="#003660"></path>
                        </g>
                    </g>
                </g>
            </g>
        </g>
    </g>
</svg>