<svg data-name="Layer 1" xmlns="http://www.w3.org/2000/svg" viewBox="0 0 168.8 132"><title>Artboard 1</title><g data-name="home-page"><g data-name="blaze-1"><g data-name="Hero"><g data-name="Group"><g data-name="Trailhead-Logo"><g data-name="Group-13"><path data-name="Fill-11" d="M149.71 91.29l-.78-2.67-3.17-10.81L148.93 67l.78-2.67H136A107.82 107.82 0 0 0 123.79 39a95.9 95.9 0 0 0-19.27-21.39A105.38 105.38 0 0 0 75.51.94l-.73-.28-.78.21A66.4 66.4 0 0 0 63.43 5.1a97 97 0 0 0-43.51 42.63 105 105 0 0 0-6.87 16.6H0L.78 67 4 77.81.79 88.62 0 91.29h7.7c-.41 4.5-.63 9.2-.63 14.12 0 2.54.06 5.15.18 7.81v1.29l1.13.64a115.59 115.59 0 0 0 19 8 153.4 153.4 0 0 0 48.25 7.92 142.1 142.1 0 0 0 51.7-9.69c4.54-1.77 9.12-3.81 13.73-6.16l1.08-.55h.06l.19-.1v-1.29c.08-1.6.12-3.18.15-4.73v-3.07a133.89 133.89 0 0 0-.8-14.12h7.88z" fill="#0c3c61"/></g><path data-name="Fill-14" fill="#0c3c61" d="M41.05 46.44l8.52-14.17 9.92 12.64-2.77 2.26-5.52-2.36-6.88 4.69-3.27-3.06z"/><path data-name="Fill-16" d="M64.31 24.92a4.8 4.8 0 0 1 4.42-6.69 4.92 4.92 0 0 1 2.17.51 4.82 4.82 0 0 1 1.66 1.38l.41.54.48-.49a4.29 4.29 0 0 1 5.31-.72 4.44 4.44 0 0 1 1.57 1.62l.26.47.49-.22a5.4 5.4 0 0 1 6 1.13 5.44 5.44 0 0 1-3.82 9.29 5.32 5.32 0 0 1-1.07-.11l-.42-.08-.21.37a3.8 3.8 0 0 1-5 1.56l-.56-.27-.24.56a4.42 4.42 0 0 1-4.06 2.68 4.4 4.4 0 0 1-2.55-.81l-1.55-2.07-.18-.47-.49.1a3.84 3.84 0 0 1-.83.09 4 4 0 0 1-2.87-1.19A4.09 4.09 0 0 1 62 29.2a4 4 0 0 1 .56-2.07 4.14 4.14 0 0 1 1.47-1.47l.45-.26z" fill="#0c3c61"/><path data-name="Fill-18" fill="#0c3c61" d="M104.46 44.07l-3.12 1.91-5.14-3.61-4.98 2.44-2.79-1.36 7.43-10.98 8.6 11.6z"/><path data-name="Fill-20" fill="#0c3c61" d="M66.94 47.31v.01l5.39-5.48 5.72 6.76.01-.01v.02l-2.42 1.62-3.1-1.34-3 .92-2.6-2.48v-.02z"/><path data-name="Fill-22" d="M21.77 54.69a93.44 93.44 0 0 1 15.94-24.45 92.42 92.42 0 0 1 25.46-19.75 79.62 79.62 0 0 1 8.81-4c1.07-.41 1.91-.69 2.47-.87h.09a97.33 97.33 0 0 1 34 22.09 93.13 93.13 0 0 1 15.65 21.21A106 106 0 0 1 131 64.33h-2.71c-7.57-21-22.87-43.95-53.62-56.65 0 0-38.49 11.16-54.1 56.65H18a102.37 102.37 0 0 1 3.77-9.64" fill="#0c3c61"/><path data-name="Fill-24" fill="#fff" d="M104.76 44.48l-3.44 2.1 3.44-2.1z"/><path data-name="Fill-26" fill="#fff" d="M22.99 71.05l-.04-.24-.1-.14-.14-.08-.24-.04-.16-.02-.34-.02-.65.04h-1.48l-1.49.02h-.32l-1.16-.02-1.47.1h-.32l-1.18-.1h-.31l-1.16.08h-.32l-.74-.06h-.45l-.2.04-.12.06-.08.14-.06.26-.02.32.06.75v.3l-.04.59.02.32v.14l.04.2.08.12.12.08.22.04.16.02h.29l.46-.02.34-.02.34.02.54.04h.36l.63-.04h.3l.2.04.06.15v.28l.04 1.17v1.51l.02.32.08 1.19v.32l-.02 1.17v.31l-.02 1.2v1.49l-.02.31-.06.84v.33l.04.22.12.06.24.02.9.06h.31l.9-.06.34.02.5.06.38.02.26-.04.1-.1.06-.24-.02-.31-.1-.9-.02-.29.04-1.18v-1.82l-.04-1.17.02-.32.08-1.19.02-.32-.08-1.19v-.32l.08-1.17.02-.26.07-.11.2-.06.14-.02h.3l.5.03h.32l.91-.05.32.02.6.05h.32l.24-.03.12-.1.06-.14.04-.24.02-.16.02-.32-.02-.59.02-.3.04-.64-.02-.29v-.14z"/><path data-name="Fill-28" d="M38.07 84.19l-.62-.72-.2-.24-.72-1-.2-.24-.71-1-.18-.24-.72-1-.08-.16.16-.06.26-.06.26-.14.24-.14L36 79l.22-.18.31-.32.18-.22.18-.24.11-.24.18-.3.14-.3.12-.3.08-.32.06-.33v-1.73l-.06-.32-.1-.31-.14-.3-.14-.28-.24-.38-.18-.26-.28-.39-.16-.28-.2-.2-.22-.18-.38-.25-.26-.16-.3-.14-.32-.07-.3-.12-.3-.1-.41-.12-.3-.06h-1.1l-1.31-.08h-.32l-1.36.08-2.37-.08H25.48l-.24.06-.12.16-.06.26v4.1L25 76.19v4.49l.06 1.07V82L25 83.11v1.61l.12.08h.24l.91.06h.32l.92-.06 1 .06h.31l.22-.06.1-.1V83.03L29.06 82V80.59l.06-.25.16-.12H30.42l.12.06.14.15.63.86.18.24.56.91.18.24.64.85.18.24.64.89.15.16.18.08H38l.26-.08.08-.18-.1-.22zM33.57 76l-.08.32-.14.3-.2.24-.24.14-.25.1-.44.08-1.32.08h-.32l-1-.08h-.24l-.14-.06V74.02l.12-.12.14-.06h.24l1-.06H32.34l.44.1.27.12.22.18.18.24.14.29.08.3v.68z" fill="#fff"/><path data-name="Fill-30" d="M54.92 83.33l-.54-1.25-.14-.28-.47-.93-.62-1.23-.15-.28-.4-1-.12-.28-.44-1-.04-.24-.44-1-.12-.28-.35-1-.12-.28-.44-1-.12-.28-.5-.93-.12-.3-.28-.77-.1-.26-.22-.16-.34-.06h-3.43l-.3.06-.2.12-.1.22-.36.81-.12.3L44 73l-.14.32-.43.89-.14.32-.56 1.19-.73 1.66-.12.28-.54 1.11-.12.3-.45 1.07-.12.29-.52 1.12-.12.27-.5 1.12-.12.29-.28.62-.12.32V84.58l.16.22.24.12h.26l1.24-.08h.32l1.15.06h.32l.3-.12.22-.26.12-.31.45-1.35.12-.24.16-.1h4.78l1.2.08h.42l.14.2.62 1.66.09.22.12.16.26.08 1.24-.08h2.19l.22-.1.14-.22-.06-.28zm-6.33-4.42l-.16.16-.26.08-.93-.06h-1.52l-.22-.1-.06-.24.06-.29.5-1.37.12-.3.54-1.35.2-.2.22-.06.26.06.2.14.09.26.4 1.17.1.3.44 1.35.08.25z" fill="#fff"/><path data-name="Fill-32" fill="#fff" d="M61.57 78.93l.04-1.07v-.32l-.02-1.07v-.32l.02-1.09v-.32l-.02-1.07v-1.95l-.02-.31-.04-.52-.02-.22-.04-.12-.21-.04h-1.24l-.92.04h-.32l-.47-.02-.3.02h-.16l-.2.02-.12.08-.06.22.04 1.09v1.71l-.02 1.07v.32l.02 1.09v1.71l.02 1.07v.31l.06 1.09-.02.32-.06 1.07-.02.32.06 1.07v.3l.02.3v.32l.04.49v.2l.06.06.12.04.99.08h1.24l1.02.02.27-.02.16-.06.06-.1v-.22l.02-1.09v-.32l.08-1.07v-.32l-.06-1.07v-1.72z"/><path data-name="Fill-34" fill="#fff" d="M75.42 83.02l-.02-1.12-.02-.21-.06-.14-.14-.12-.24-.06h-.3l-.32.02-.68.08-.31.02-2.87.04h-.32l-.6.04-.68-.04-.23-.04-.1-.08-.04-.1-.02-.1-.02-.2.11-2.62v-.32l-.06-1.15v-.32l-.03-1.15v-.31l.06-1.16v-.31l-.04-1.15v-1.73l-.1-.14-.14-.08h-.2l-1.42.02h-.32l-.97-.06-.3.02h-.16l-.22.04-.14.06-.08.12-.06.26-.02.18v.29l.04.6v1.69l.02 1.05v.32l.08 2.42v.31l-.04 2.43v.31l-.04 1.06V82l.08 1.06-.02.29-.1.76v.31l.04.24.1.12.14.08.22.04.28.02h.3l.92-.06h1.47l1.15.08 1.8-.12h1.49l2.21.12.28-.02h.16l.2-.04.14-.06.12-.14.06-.24v-.17l.02-.32-.04-.62-.02-.31z"/><path data-name="Fill-36" fill="#fff" d="M90.92 74.84l.04-1.05v-.32l-.06-1.05.02-.32.06-.79v-.3l-.08-.28-.16-.16-.26-.04h-.18l-.32-.02-.9.06h-.32l-1.07-.06h-.32l-.24.04-.16.18-.06.32.02 1.29v.32l.04 1.28v.32l-.08 1.29-.02.22-.08.16-.22.12-.14.02h-.29l-1.18-.08-1.28-.04-.29.02-.76.12h-.28l-.28-.02-.2-.02-.1-.08-.06-.16-.02-.24v-1.63l.02-1.28.02-.32.06-.9v-.29l-.02-.14-.08-.26-.16-.16-.25-.04-.31-.02h-.31l-.8.06h-.32l-.84-.04h-.29l-.3.02-.26.06-.18.14-.08.24v.41l.1.68.02.32.02 1.05-.02.32-.06 1.05-.02.32v1.37l.02 1.05v.31l.06 1.06v.31l-.02 1.06v.31l-.04 1.06v1.66l-.04.6v.32l.02.17.04.22.08.1.16.08.22.04h.16l.32.02.93-.06.32.02.84.08.3.02.29-.02.26-.06.18-.16.08-.28v-.45l-.08-.86-.02-.31.04-1.29v-.32l-.02-1.27.02-.28.1-.18.18-.06.26-.02 1.08.06 1.59.04.32-.02.8-.06h.47l.22.08.08.16v.28l.04 1.27v.32l-.04 1.29.02.31.08 1.29.04.28.12.16.28.06h.32l1.05-.08h.32l1.08.06.32-.04.22-.02.14-.14.1-.26.02-.27-.02-.3-.04-.5-.02-.31v-1.37l.02-1.06v-.31l-.02-1.06v-.31l.04-1.06v-.31l.08-1.05v-.32l-.08-1.05v-.32z"/><path data-name="Fill-38" fill="#fff" d="M105.24 81.7l-.08-.11-.12-.06-.72-.08-.3-.02h-.3l-1.41.08h-.32l-1.41-.08-1.08.08h-.32l-1.09-.04-.22-.02-.08-.08-.06-.14-.02-.2v-.44l.02-.31.06-.5.02-.3.06-.14.1-.06.24-.02.34-.02.79.06h.32l1.28.04 1.59-.1.32.02.9.1h.39l.2-.04.14-.1.08-.13.04-.24.04-.6-.04-.45v-.66l-.02-.34-.04-.33-.02-.22-.06-.12-.12-.1-.22-.04-.62-.04-2.22.12h-1.9l-.63.04-.64-.04-.22-.06-.08-.1-.04-.14-.02-.22-.02-.33v-.32l.04-.48.04-.22.02-.12.1-.1.2-.03.16-.02h.3l.89.05 1.04.05h.32l1.01-.05h.32l1.87.05.32-.03h.16l.24-.03.1-.08.08-.14.04-.24.02-.3-.02-.3-.02-.49v-.34l.04-.5v-.53l-.04-.26-.04-.14-.12-.1-.28-.06h-.5l-.67.06-.34.02-2.71-.04h-.32l-1.2.08h-.31l-1.2-.08h-.32l-1.21.02-1.3-.08-.26.04-.16.02-.1.08-.06.16-.02.28-.06 1.03v.3l-.03.59v.48l.01.32.06 1.05.02.32-.08 1.05v1.69l-.04 1.07.03.31.05 1.06.02.31-.02 1.06V82l-.08 1.06v.29l-.02.3.02.32.04.45.04.22.06.14.14.1.24.04.68.04 1.71-.1h.32l1.04.08h1.37l.32-.02 1.04-.08.31-.02 1.06.08h.32l2.61-.08.1-.08.08-.14.02-.2.08-1.07.02-.31-.06-1.1-.02-.22z"/><path data-name="Fill-40" d="M122.89 83.33l-.54-1.25-.14-.28-.48-.93-.61-1.23-.12-.28-.4-1-.12-.28-.44-1-.12-.28-.44-1-.12-.28-.36-1-.12-.28-.43-1-.12-.28-.5-.93-.12-.3-.28-.77-.1-.26-.22-.16-.34-.06H113.39l-.3.06-.2.12-.1.22-.36.81-.12.3-.38.91-.14.32-.44.89-.14.32-.55 1.19-.72 1.63-.12.28-.54 1.11-.12.3-.46 1.07-.11.29-.52 1.12-.12.27-.5 1.12-.12.29-.28.62-.12.32V84.45l.16.22.24.12h.26l1.23-.08h.32l1.16.06h.32l.3-.12.21-.26.12-.31.46-1.35.12-.24.16-.1h4.78l1.2.08h.42l.14.2.61 1.66.1.22.12.16.26.08 1.24-.08h2.19l.22-.1.14-.22-.06-.28zm-6.33-4.42l-.16.16-.26.08-.94-.06h-1.48l-.22-.1-.06-.24.06-.29.52-1.33.12-.3.54-1.35.2-.2.21-.06.26.06.2.14.1.26.4 1.17.1.3.44 1.35.08.25z" fill="#fff"/><path data-name="Fill-42" d="M139.18 77.76v-1.12l-.06-.33L139 76l-.08-.44-.08-.31-.09-.32-.13-.32-.09-.32-.12-.29-.22-.44-.14-.26-.18-.22-.2-.2-.44-.41-.24-.2-.26-.22-.65-.46-.28-.16-.3-.15-.3-.14-.72-.26-.3-.08-.32-.06-.51-.08h-3.43l-1-.06H125.9l-.22.06-.08.12V71l-.06.3v1.09l.06 1.05V75.08l-.08 1v8.56l.1.1.16.08.85.08H132.63l1.21-.18.32-.06.32-.08.3-.1.44-.15.26-.12.4-.22.25-.16.38-.3.26-.22.44-.43.34-.32.2-.22.28-.32.16-.26.22-.43.12-.3.11-.34.12-.31.12-.3.1-.32.14-.46.06-.31V78.17zm-4.08-.08v.74l-.08.43-.07.3-.12.34-.14.3-.24.37-.2.24-.36.32-.26.18-.3.14-.32.11-.34.1-.31.06h-.46l-1.86.12h-.23l-.12-.1-.08-.21-.06-.48V74.3l.06-.24.1-.1.22-.06.43-.06h2.08l.31.06.28.06.28.12.44.26.24.18.22.21.2.22.1.1.3.42.16.3v.12l.07.29.07.46v1z" fill="#fff"/><path data-name="Fill-44" d="M21.77 54.69a93.44 93.44 0 0 1 15.94-24.45 92.42 92.42 0 0 1 25.46-19.75 79.62 79.62 0 0 1 8.81-4c1.07-.41 1.91-.69 2.47-.87h.09a97.33 97.33 0 0 1 34 22.09 93.13 93.13 0 0 1 15.65 21.21A106 106 0 0 1 131 64.33H18a102.37 102.37 0 0 1 3.77-9.64" fill="#8fc7e8"/><path data-name="Fill-46" d="M134.63 91.22h2.43a128.73 128.73 0 0 1 .83 14.38c0 1.53 0 2.84-.07 3.91 0 .54 0 1-.07 1.44v.59c-1.64.82-3.27 1.59-4.9 2.33a137.42 137.42 0 0 1-57.21 12.42 148.77 148.77 0 0 1-46.76-7.67 133.35 133.35 0 0 1-13.41-5.27 79.36 79.36 0 0 1-3.53-1.72c-.08-2.13-.13-4.23-.13-6.28 0-4.94.23-9.64.65-14.12" fill="#4c8b2b"/><path data-name="Fill-48" d="M21.77 54.69a93.44 93.44 0 0 1 15.94-24.45 92.42 92.42 0 0 1 25.46-19.75 79.62 79.62 0 0 1 8.81-4c1.07-.41 1.91-.69 2.47-.87h.09a97.33 97.33 0 0 1 34 22.09 93.13 93.13 0 0 1 15.65 21.21A106 106 0 0 1 131 64.33h-2.71c-7.57-21-22.87-43.95-53.62-56.65 0 0-38.49 11.16-54.1 56.65H18a102.37 102.37 0 0 1 3.77-9.64" fill="#fff"/><path data-name="Fill-50" d="M80.17 91.21l.08.08c3 2.84 4.13 6.71-9.42 8-1.75.17-2.38.93-2.06 1.68v.12a.21.21 0 0 0 0 .06v.18l.05.06.06.06h.06l.06.06.06.06.08.06h.06l.15.1h.05l.13.07h.07l.11.06h.08l.12.06H70.71l.26.07c14.63 3.48 16.42 15.46 13.9 21.34a132.37 132.37 0 0 0 50.4-13.8 107.29 107.29 0 0 0-.83-18.73h2.43a129.09 129.09 0 0 1 .84 14.38c0 1.53 0 2.84-.08 3.91 0 .54 0 1-.06 1.44v.59c-1.63.82-3.27 1.59-4.89 2.33a137.49 137.49 0 0 1-57.22 12.42 149.11 149.11 0 0 1-46.76-7.67 133 133 0 0 1-13.4-5.27 87.04 87.04 0 0 1-3.54-1.72c-.08-2.13-.13-4.23-.13-6.28q0-7.41.66-14.12h2.4a152.36 152.36 0 0 0-.53 19.19 142.61 142.61 0 0 0 42.07 12.76c6.29.79 20.61-7.78 7.72-18.57l-.21-.14h-.06l-.15-.11h-.07l-.17-.14-.21-.17-.16-.14h-.05l-.17-.15-.19-.2-.18-.19-.16-.18-.34-.42-.14-.19c-.1-.15-.2-.3-.29-.46a1.19 1.19 0 0 1-.12-.22c0-.07-.07-.15-.11-.22-1.25-2.66 0-5.62 8.17-6.28 2.74-.22 11.82.36 7-3.31l-.1-.08z" fill="#fff"/><path data-name="Fill-52" d="M67.1 47.15l-.74.78s2.88 2.88 2.9 2.88l3.21-1 3.34 1.45 2.77-2-.74-.86-2.58.43-1.62-1.22s-3.8.67-3.92.75a25.24 25.24 0 0 1-2.62-1.17" fill="#fff"/><path data-name="Fill-54" d="M59.41 44.82l.49.61-3.2 2.67-5.42-2.55-7 4.93L40.72 47l.34-.57 3.48 2L51 44.41s5.61 2.31 5.68 2.3 2.77-1.89 2.77-1.89" fill="#fff"/><path data-name="Fill-56" d="M88.5 43.34l-.45.67 3.71 2.16s4.06-2.61 4.14-2.55 5.95 3.66 5.95 3.66l2.92-2.77-.31-.44-5.54-.85-2.86-1.56-2.62 1.45z" fill="#fff"/><path data-name="Fill-58" fill="#d0d2d3" d="M41.05 46.44l8.52-14.17 9.92 12.64-2.77 2.26-5.52-2.36-6.88 4.69-3.27-3.06z"/><path data-name="Fill-60" fill="#d0d2d3" d="M104.46 44.07l-3.12 1.91-5.14-3.61-4.98 2.44-2.79-1.36 7.43-10.98 8.6 11.6z"/><path data-name="Fill-62" fill="#d0d2d3" d="M66.94 47.31v.01l5.39-5.48 5.72 6.76.01-.01v.02l-2.42 1.62-3.1-1.34-3 .92-2.6-2.48v-.02z"/><path data-name="Fill-64" d="M83.24 20.92a5.46 5.46 0 0 0-2.18.46l-.49.22-.26-.46a4.33 4.33 0 0 0-1.56-1.62 4.2 4.2 0 0 0-2.2-.61 4.27 4.27 0 0 0-3.09 1.32l-.47.49-.42-.53a4.57 4.57 0 0 0-1.65-1.37 4.74 4.74 0 0 0-2.16-.51 4.77 4.77 0 0 0-4.4 6.69l.21.48-.45.26a4.1 4.1 0 0 0-.84 6.41 4 4 0 0 0 2.85 1.19 3.7 3.7 0 0 0 .83-.09l.5-.1.17.47a4.4 4.4 0 0 0 8.17.2l.24-.56.56.26a3.67 3.67 0 0 0 1.65.38 3.76 3.76 0 0 0 3.3-1.93l.21-.37.42.09a5.29 5.29 0 0 0 1.06.1 5.36 5.36 0 0 0 3.81-1.58 5.44 5.44 0 0 0 0-7.67 5.37 5.37 0 0 0-3.81-1.59" fill="#00a1df"/><path data-name="Fill-66" fill="#644b78" d="M104.83 44.57l-.06-.08-.01-.01-3.44 2.1-5.16-3.62-4.94 2.42-3.08-1.51-6.27 9.25-3.46-4.09-.03-.04-2.68 1.82-3.19-1.39-3.1.96-2.49-2.37-.33-.33-2.74 2.78-4.04-5.15-3.01 2.45-5.55-2.38-6.98 4.77-3.48-3.26-.04.06-10.37 17.46h88.94l-14.49-19.84z"/><path data-name="Fill-1" d="M142.63 105.48V105.66v-.19" fill="#003660"/><path data-name="Fill-3" fill="#003660" d="M142.15 114.65l.06-.03v-.01l-.06.04z"/><path data-name="Fill-5" d="M142.63 105.41" fill="#003660"/><path data-name="Fill-7" d="M127.34 121.36a105.53 105.53 0 0 0 13.93-6.21l.88-.5-1.08.55c-4.61 2.35-9.19 4.39-13.73 6.16" fill="#003660"/><path data-name="Fill-9" d="M75.09 90.6c.39.25.72.48 1 .69h4.16q-.37-.36-.78-.69z" fill="#003660"/></g></g></g></g></g><path fill="#0c3c61" opacity=".5" d="M165.25 114.53L42.2 131.75l3.25-18.13-8.1-16.54L160.4 79.86l-3.25 18.13 8.1 16.54z"/><path fill="#c91f1f" d="M167.78 112.19L44.73 129.41l3.25-18.13-8.1-16.54 123.04-17.22-3.24 18.13 8.1 16.54z"/><path d="M80.11 107a11.21 11.21 0 0 1-.52 5.72 8.37 8.37 0 0 1-3.21 4 12.84 12.84 0 0 1-5.44 1.94l-7 1-2.86-20.23 6.88-1q5.15-.72 8.29 1.37c2.1 1.44 3.38 3.84 3.86 7.2zm-14.89-5l2 14.07 2.94-.41a7.49 7.49 0 0 0 5.07-2.46q1.56-2 1.06-5.59c-.34-2.41-1.18-4.11-2.5-5.07a7.42 7.42 0 0 0-5.51-1zM95.39 97.69l-9 1.26.76 5.39 7.7-1.07.41 2.88-7.71 1.08.82 5.88 9.51-1.33.43 3L85 116.69l-2.79-20.21L95 94.69zM123.47 111.31l-3.66.51-2.14-15.91-4 16.77-2.8.39-8.36-15h-.06l2.34 15.89-3.48.49-2.88-20.24 5.48-.77 7.62 14.3h.06l3.54-15.86 5.51-.77zM125.59 100.71A12.42 12.42 0 0 1 126 95a8.84 8.84 0 0 1 3-4.23 12.4 12.4 0 0 1 11.12-1.56 8.92 8.92 0 0 1 4.09 3.24 13.4 13.4 0 0 1 1.56 11.16 8.77 8.77 0 0 1-3 4.24 12.41 12.41 0 0 1-11.12 1.56 8.89 8.89 0 0 1-4.08-3.24 12.4 12.4 0 0 1-1.98-5.46zm16.88-2.36a8.34 8.34 0 0 0-2.41-5.2 7 7 0 0 0-9.76 1.37 9.89 9.89 0 0 0 1.52 10.85 7 7 0 0 0 9.76-1.37 8.34 8.34 0 0 0 .89-5.65z" fill="#fff"/></svg>